<svg width="1470" height="311.5" viewBox="0 0 1920 407" fill="none" xmlns="http://www.w3.org/2000/svg">
<path d="M1952.27 188.229C1952.27 188.229 1637.31 186.853 1612.74 186.853C1615.81 168.085 1642.06 157.176 1660.3 158.159C1663.28 158.295 1666.24 158.796 1669.1 159.649C1669.21 146.186 1691.98 126.482 1717.23 135.278C1733.8 112.955 1757.86 106.321 1780.21 108.32C1826.82 111.873 1838.96 149.15 1838.96 149.15C1872.17 141.223 1896.98 153.999 1904.12 167.199C1904.9 168.628 1905.48 170.153 1905.86 171.736C1951.06 169.394 1952.27 188.229 1952.27 188.229Z" fill="#B4CAEF"/>
<path d="M1952.27 189.547H1952.27C1949.12 189.534 1637.02 188.169 1612.74 188.169C1612.55 188.169 1612.36 188.128 1612.19 188.048C1612.02 187.968 1611.86 187.851 1611.74 187.705C1611.62 187.56 1611.53 187.389 1611.48 187.205C1611.42 187.021 1611.41 186.828 1611.45 186.64C1614.69 166.72 1642.12 155.885 1660.38 156.847C1662.91 156.971 1665.43 157.34 1667.9 157.947C1668.72 151.623 1673.71 144.487 1681.05 139.32C1686.14 135.656 1692.03 133.241 1698.23 132.269C1704.43 131.298 1710.78 131.798 1716.75 133.729C1731.67 114.157 1754.21 104.669 1780.33 107.008C1822.63 110.234 1837.22 141.243 1839.78 147.608C1871.77 140.38 1897.34 151.888 1905.28 166.574C1905.93 167.783 1906.46 169.056 1906.86 170.373C1951.78 168.363 1953.54 187.331 1953.59 188.146C1953.6 188.326 1953.57 188.506 1953.51 188.675C1953.45 188.845 1953.36 189 1953.23 189.131C1953.11 189.262 1952.96 189.367 1952.8 189.439C1952.63 189.51 1952.45 189.547 1952.27 189.547H1952.27ZM1614.35 185.539C1646.96 185.583 1926.07 186.799 1950.59 186.908C1949.07 182.782 1941.62 171.217 1905.93 173.053C1905.62 173.065 1905.32 172.97 1905.07 172.784C1904.82 172.599 1904.65 172.334 1904.58 172.035C1904.23 170.565 1903.69 169.149 1902.96 167.823C1896.48 155.839 1872.42 142.508 1839.27 150.43C1838.94 150.503 1838.61 150.455 1838.32 150.294C1838.03 150.133 1837.81 149.871 1837.71 149.559C1837.59 149.194 1825.25 113.076 1780.11 109.633C1765.32 108.304 1737.65 109.988 1718.29 136.063C1718.12 136.289 1717.89 136.455 1717.62 136.538C1717.35 136.621 1717.06 136.616 1716.8 136.524C1711.11 134.535 1705.04 133.946 1699.08 134.808C1693.12 135.669 1687.45 137.955 1682.56 141.472C1675.23 146.634 1670.46 153.775 1670.41 159.661C1670.41 159.867 1670.36 160.069 1670.27 160.252C1670.17 160.435 1670.04 160.593 1669.87 160.714C1669.71 160.835 1669.51 160.916 1669.31 160.95C1669.11 160.983 1668.9 160.969 1668.7 160.908C1665.95 160.085 1663.1 159.603 1660.23 159.474C1643.9 158.638 1618.5 168.285 1614.35 185.539Z" fill="#221F20"/>
<path d="M1905.86 171.736L1674.16 171.294C1663.89 171.294 1661.19 162.761 1660.3 158.159C1642.06 157.176 1614.99 168.903 1611.92 187.672C1636.49 187.672 1952.27 188.229 1952.27 188.229C1952.27 188.229 1951.06 169.394 1905.86 171.736" fill="#92B1DD"/>
<path d="M1952.27 190.204H1952.27C1949.12 190.199 1637.02 189.695 1611.97 189.695C1611.69 189.695 1611.4 189.632 1611.15 189.512C1610.89 189.392 1610.66 189.217 1610.47 188.998C1610.28 188.78 1610.15 188.525 1610.07 188.249C1610 187.974 1609.98 187.685 1610.03 187.402C1613.37 166.869 1642.09 155.19 1660.41 156.188C1662.75 156.308 1665.07 156.626 1667.36 157.139C1668.48 150.822 1673.46 143.854 1680.67 138.78C1685.78 135.103 1691.68 132.664 1697.9 131.655C1704.12 130.646 1710.49 131.093 1716.51 132.963C1731.57 113.455 1754.21 104.005 1780.39 106.352C1821.97 109.524 1837.04 139.361 1840.18 146.844C1872.2 139.793 1897.84 151.442 1905.86 166.262C1906.45 167.359 1906.94 168.507 1907.33 169.691C1952.44 167.799 1954.18 187.261 1954.24 188.104C1954.25 188.373 1954.22 188.643 1954.13 188.897C1954.04 189.152 1953.89 189.384 1953.71 189.581C1953.52 189.778 1953.3 189.935 1953.05 190.042C1952.81 190.149 1952.54 190.204 1952.27 190.204L1952.27 190.204ZM1614.43 185.747C1650.76 185.77 1919.68 186.205 1949.59 186.251C1947.45 181.786 1938.96 171.992 1905.96 173.709C1905.49 173.75 1905.03 173.616 1904.65 173.334C1904.28 173.052 1904.02 172.642 1903.93 172.182C1903.6 170.77 1903.07 169.409 1902.38 168.134C1896 156.34 1872.24 143.238 1839.41 151.07C1838.93 151.181 1838.43 151.109 1837.99 150.868C1837.56 150.626 1837.24 150.233 1837.08 149.764C1836.6 148.29 1824.73 113.694 1780.06 110.288C1765.37 108.98 1737.98 110.643 1718.81 136.456C1718.56 136.795 1718.21 137.044 1717.81 137.168C1717.4 137.291 1716.97 137.282 1716.58 137.143C1710.99 135.192 1705.02 134.616 1699.16 135.463C1693.31 136.31 1687.74 138.555 1682.94 142.009C1675.78 147.055 1671.12 153.986 1671.07 159.669C1671.07 159.977 1670.99 160.281 1670.85 160.555C1670.71 160.829 1670.5 161.067 1670.26 161.248C1670.01 161.428 1669.72 161.547 1669.41 161.597C1669.11 161.647 1668.8 161.626 1668.5 161.536C1665.8 160.731 1663.01 160.259 1660.19 160.133C1644.38 159.249 1619.16 169.025 1614.43 185.747Z" fill="#221F20"/>
<path d="M223.169 89.0396H43.0389C43.0389 89.0396 39.6499 64.8342 61.8545 58.3256C63.7017 57.7857 65.5885 57.3923 67.4975 57.1489C67.4975 47.4211 75.6089 38.2324 87.7738 41.4797C95.2036 20.6491 117.989 15.3316 136.876 20.9894C143.636 22.9315 149.834 26.4611 154.954 31.2842C157.938 34.0466 160.345 37.3717 162.039 41.0684C163.733 44.765 164.679 48.7601 164.823 52.8238C183.922 45.4928 207.941 60.0274 210.919 77.1845C211.019 77.709 211.089 78.2338 211.146 78.7583C212.919 78.386 214.754 78.429 216.508 78.8841C218.262 79.3392 219.887 80.194 221.255 81.3816C222.337 82.2961 223.104 83.5276 223.447 84.9019C223.791 86.2762 223.693 87.7236 223.169 89.0396Z" fill="#BFE8EF"/>
<path d="M223.172 90.291H43.0386C42.7366 90.291 42.4448 90.1819 42.217 89.9837C41.9891 89.7855 41.8406 89.5117 41.7988 89.2127C41.7622 88.9608 38.5252 63.8583 61.5038 57.1246C63.0696 56.6626 64.665 56.3073 66.2788 56.0611C66.399 53.5029 67.0655 51.0001 68.2336 48.7211C69.4017 46.442 71.0441 44.4395 73.0506 42.8482C75.0222 41.3792 77.2933 40.3628 79.7023 39.8714C82.1113 39.3799 84.5991 39.4255 86.9885 40.0048C95.0785 19.269 118.221 14.0903 137.236 19.7922C144.189 21.787 150.563 25.4186 155.824 30.3827C161.652 35.7931 165.269 43.1709 165.978 51.0918C170.8 49.7001 175.858 49.3224 180.833 49.9826C185.808 50.6429 190.593 52.3266 194.885 54.9279C204.223 60.2264 210.678 68.4682 212.152 76.9697C212.174 77.0846 212.196 77.1996 212.213 77.3167C213.997 77.1351 215.798 77.3232 217.506 77.8692C219.213 78.4153 220.79 79.3076 222.137 80.4904C223.411 81.5867 224.306 83.0583 224.693 84.6944C225.08 86.3305 224.938 88.047 224.29 89.598C224.186 89.8056 224.026 89.9803 223.829 90.1027C223.632 90.225 223.404 90.2902 223.172 90.291ZM44.1711 87.7873H222.275C222.473 86.781 222.401 85.7402 222.067 84.7706C221.733 83.8009 221.148 82.937 220.372 82.2665C219.153 81.2266 217.711 80.4799 216.158 80.0836C214.606 79.6873 212.983 79.6521 211.414 79.9804C211.243 80.0185 211.065 80.0199 210.892 79.9844C210.72 79.949 210.557 79.8776 210.414 79.7749C210.271 79.6722 210.152 79.5405 210.063 79.3884C209.975 79.2363 209.92 79.0673 209.901 78.8923C209.847 78.4008 209.781 77.9071 209.691 77.4151C208.339 69.6255 202.344 62.0386 193.65 57.1046C189.443 54.5248 184.717 52.9079 179.811 52.3698C174.905 51.8316 169.94 52.3857 165.274 53.9921C165.087 54.0634 164.886 54.0891 164.687 54.067C164.489 54.045 164.298 53.9759 164.132 53.8654C163.965 53.7549 163.827 53.6062 163.73 53.4318C163.632 53.2574 163.578 53.0621 163.571 52.8624C163.433 48.9603 162.524 45.1242 160.896 41.5754C159.268 38.0265 156.953 34.8352 154.086 32.1854C149.113 27.4984 143.089 24.0711 136.52 22.1902C118.311 16.7322 96.1387 21.7548 88.9513 41.8991C88.8435 42.1937 88.6301 42.4377 88.3524 42.5837C88.0748 42.7297 87.7528 42.7672 87.4491 42.689C85.2878 41.993 82.9913 41.8244 80.7516 42.1974C78.5118 42.5704 76.3939 43.4742 74.5748 44.8332C72.7309 46.3075 71.2477 48.1832 70.2382 50.3173C69.2286 52.4515 68.7193 54.788 68.749 57.1487C68.7492 57.4525 68.639 57.7461 68.4388 57.9746C68.2386 58.2031 67.9621 58.351 67.6609 58.3908C65.8172 58.6242 63.995 59.0035 62.2113 59.5252C43.6788 64.9584 43.8111 83.105 44.1704 87.7873H44.1711Z" fill="#221F20"/>
<path d="M223.169 89.0391H43.0389C43.0389 89.0391 39.6499 64.8337 61.8545 58.3252C63.485 65.0465 68.5753 77.1848 84.0305 77.1848H210.919C211.019 77.7093 211.089 78.2341 211.146 78.7586C212.919 78.3862 214.754 78.4293 216.508 78.8844C218.262 79.3395 219.887 80.1943 221.255 81.382C222.337 82.2964 223.104 83.5277 223.447 84.9018C223.791 86.276 223.693 87.7233 223.169 89.0391Z" fill="#B1DADD"/>
<path d="M223.171 90.9166H43.0382C42.585 90.9164 42.1472 90.7525 41.8054 90.4551C41.4635 90.1577 41.2405 89.7468 41.1775 89.298C41.1432 89.0412 37.838 63.4081 61.3275 56.523C62.7595 56.1002 64.2161 55.7657 65.6891 55.5215C65.8768 52.9624 66.5942 50.4702 67.7957 48.2029C68.9972 45.9356 70.6568 43.9427 72.6689 42.3505C74.6378 40.8751 76.8996 39.8384 79.3024 39.31C81.7053 38.7815 84.1935 38.7737 86.5996 39.287C94.9949 18.6047 118.277 13.4506 137.415 19.189C144.463 21.2143 150.925 24.8981 156.259 29.9323C161.998 35.2679 165.641 42.4807 166.527 50.2673C171.338 49.0031 176.354 48.7159 181.278 49.4227C186.201 50.1295 190.934 51.8159 195.195 54.3824C204.612 59.7295 211.152 68.0376 212.732 76.6462C216.333 76.4361 219.872 77.6577 222.577 80.045C223.943 81.2348 224.899 82.8261 225.308 84.5918C225.716 86.3574 225.556 88.207 224.85 89.8761C224.695 90.1883 224.455 90.4509 224.159 90.6347C223.862 90.8185 223.52 90.9161 223.171 90.9166ZM44.7575 87.1611H221.753C221.818 86.3281 221.687 85.4914 221.37 84.7182C221.053 83.945 220.56 83.2567 219.929 82.7086C218.779 81.752 217.429 81.0654 215.979 80.6989C214.529 80.3325 213.015 80.2958 211.548 80.5913C211.29 80.6481 211.024 80.65 210.765 80.5967C210.507 80.5434 210.262 80.4363 210.048 80.2822C209.834 80.128 209.654 79.9304 209.521 79.7023C209.389 79.4742 209.305 79.2206 209.277 78.9581C209.228 78.4824 209.162 78.0045 209.074 77.531C207.752 69.9174 201.872 62.4942 193.342 57.6519C189.215 55.1159 184.578 53.5252 179.763 52.9938C174.949 52.4624 170.076 53.0035 165.496 54.5784C165.216 54.6859 164.914 54.7248 164.617 54.692C164.319 54.6591 164.033 54.5554 163.783 54.3896C163.534 54.2237 163.327 54.0006 163.182 53.7387C163.036 53.4768 162.955 53.1837 162.946 52.8841C162.81 49.0633 161.919 45.3071 160.324 41.8324C158.729 38.3577 156.462 35.2333 153.653 32.6395C148.752 28.0212 142.816 24.6442 136.342 22.7911C118.426 17.427 96.5963 22.3291 89.5408 42.1114C89.3832 42.5558 89.0639 42.9244 88.6465 43.1438C88.2291 43.3632 87.7444 43.4171 87.289 43.2949C85.2201 42.6263 83.0213 42.4623 80.8761 42.8166C78.731 43.1709 76.7016 44.0332 74.9576 45.3316C73.1893 46.7471 71.7674 48.5475 70.8002 50.5956C69.833 52.6438 69.3459 54.8857 69.3761 57.1507C69.3758 57.6061 69.2099 58.0459 68.9095 58.3882C68.609 58.7305 68.1944 58.9519 67.7428 59.0111C65.9325 59.242 64.1431 59.6148 62.3912 60.126C45.0011 65.2223 44.4633 81.8456 44.7567 87.1611H44.7575Z" fill="#221F20"/>
<path d="M286.108 194.125H-73.6978C-73.6978 194.125 -80.6054 144.785 -34.7762 132.377C-31.519 131.507 -28.2088 130.851 -24.8665 130.41C-24.8665 110.988 -8.66036 92.6286 15.6491 99.1129C30.5002 57.5047 76.0106 46.8766 113.737 58.1953C127.238 62.0759 139.617 69.1267 149.842 78.7605C155.81 84.2704 160.625 90.9095 164.009 98.2934C167.392 105.677 169.278 113.659 169.557 121.777C207.655 107.163 255.556 136.098 261.64 170.293C261.852 171.383 262.012 172.472 262.118 173.588C265.655 172.841 269.317 172.925 272.816 173.833C276.315 174.741 279.556 176.449 282.283 178.822C289.933 186.472 286.108 194.125 286.108 194.125Z" fill="#A5D6DB"/>
<path d="M286.109 195.439H-73.6962C-74.0136 195.439 -74.3204 195.324 -74.5599 195.116C-74.7994 194.908 -74.9555 194.62 -74.9995 194.305C-75.0714 193.802 -81.5333 143.67 -35.1201 131.105C-32.1723 130.318 -29.1814 129.703 -26.1624 129.262C-26.0571 124.157 -24.8275 119.139 -22.5612 114.564C-20.2949 109.989 -17.0477 105.97 -13.0508 102.793C-9.10449 99.8661 -4.54549 97.8733 0.282745 96.9645C5.11097 96.0557 10.0825 96.2546 14.8227 97.5462C30.3966 55.9903 76.3779 45.6116 114.116 56.9338C127.822 60.8681 140.387 68.0271 150.759 77.8121C162.591 88.7585 169.762 103.834 170.789 119.92C188.777 113.656 209.841 116.18 228.89 126.941C247.25 137.312 259.976 153.433 262.934 170.06C263.063 170.71 263.171 171.368 263.263 172.034C266.815 171.513 270.438 171.767 273.882 172.779C277.327 173.79 280.511 175.536 283.217 177.895C285.556 179.93 287.204 182.641 287.933 185.654C288.662 188.667 288.436 191.832 287.286 194.711C287.177 194.93 287.009 195.113 286.801 195.242C286.593 195.37 286.354 195.439 286.109 195.439ZM-72.5112 192.807H285.218C285.908 190.49 285.911 188.022 285.224 185.704C284.538 183.386 283.192 181.318 281.352 179.751C278.784 177.529 275.737 175.933 272.449 175.086C269.161 174.24 265.722 174.166 262.401 174.872C262.219 174.912 262.03 174.913 261.848 174.875C261.665 174.837 261.493 174.761 261.342 174.651C261.191 174.541 261.066 174.4 260.973 174.238C260.881 174.076 260.825 173.896 260.807 173.71C260.707 172.636 260.553 171.592 260.35 170.543C257.522 154.66 245.28 139.223 227.598 129.234C208.629 118.517 187.644 116.247 170.027 123.003C169.831 123.078 169.62 123.105 169.411 123.082C169.202 123.059 169.002 122.986 168.827 122.87C168.652 122.754 168.508 122.597 168.406 122.414C168.304 122.231 168.247 122.025 168.24 121.815C167.966 113.869 166.119 106.056 162.805 98.8283C159.491 91.6007 154.777 85.1024 148.934 79.7095C138.862 70.2161 126.665 63.2714 113.36 59.4558C76.4808 48.3844 31.5033 58.6134 16.8894 99.5541C16.7769 99.8644 16.5527 100.122 16.2606 100.275C15.9685 100.429 15.6295 100.468 15.3101 100.385C10.8152 98.9422 6.04031 98.5977 1.38495 99.3799C-3.2704 100.162 -7.67065 102.048 -11.4474 104.881C-15.2737 107.934 -18.3526 111.821 -20.4497 116.245C-22.5468 120.669 -23.6067 125.513 -23.5488 130.409C-23.5491 130.727 -23.6649 131.035 -23.8748 131.275C-24.0847 131.514 -24.3744 131.67 -24.6901 131.712C-27.976 132.148 -31.2307 132.794 -34.4342 133.645C-74.8058 144.578 -73.1513 185.453 -72.5112 192.807Z" fill="#221F20"/>
<path d="M286.108 194.125H-73.6978C-73.6978 194.125 -80.6054 144.785 -34.7762 132.376C-26.8856 160.886 -13.6019 170.292 58.1308 170.292H261.639C261.851 171.381 262.011 172.47 262.117 173.586C265.654 172.839 269.316 172.923 272.815 173.832C276.314 174.74 279.555 176.448 282.282 178.82C289.933 186.472 286.108 194.125 286.108 194.125Z" fill="#8BC6C1"/>
<path d="M286.108 196.097H-73.6975C-74.1735 196.097 -74.6334 195.925 -74.9928 195.613C-75.3522 195.301 -75.5868 194.869 -75.6536 194.398C-75.7231 193.887 -82.2601 143.184 -35.2936 130.471C-32.4975 129.723 -29.6624 129.13 -26.8012 128.694C-26.6193 123.587 -25.3318 118.579 -23.0273 114.018C-20.7229 109.456 -17.4565 105.448 -13.4533 102.271C-9.51086 99.3399 -4.96394 97.3254 -0.144127 96.3746C4.6757 95.4238 9.6469 95.5608 14.4071 96.7755C30.3176 55.2941 76.4405 44.9424 114.305 56.3017C128.112 60.2685 140.769 67.4829 151.218 77.3419C162.946 88.2023 170.149 103.086 171.387 119.024C189.375 113.048 210.287 115.677 229.214 126.368C247.741 136.835 260.59 153.127 263.582 169.944C263.67 170.389 263.749 170.836 263.819 171.291C267.377 170.83 270.992 171.14 274.419 172.199C277.846 173.258 281.006 175.042 283.683 177.429C292.237 185.984 288.058 194.642 287.875 195.005C287.711 195.333 287.459 195.609 287.147 195.803C286.835 195.996 286.475 196.098 286.108 196.097ZM-71.9047 192.149H284.728C285.251 189.999 285.169 187.746 284.49 185.64C283.812 183.534 282.564 181.657 280.885 180.216C278.396 178.071 275.446 176.531 272.263 175.715C269.081 174.9 265.753 174.831 262.54 175.515C262.267 175.575 261.984 175.576 261.71 175.518C261.436 175.461 261.178 175.346 260.952 175.181C260.726 175.017 260.538 174.806 260.4 174.563C260.261 174.32 260.176 174.05 260.149 173.772C260.052 172.732 259.901 171.697 259.699 170.672C256.905 154.965 244.784 139.701 227.272 129.807C208.475 119.186 187.691 116.929 170.262 123.617C169.968 123.73 169.651 123.77 169.338 123.735C169.025 123.7 168.725 123.591 168.463 123.417C168.201 123.243 167.984 123.008 167.83 122.733C167.677 122.458 167.591 122.151 167.581 121.836C167.309 113.975 165.48 106.246 162.201 99.0958C158.922 91.946 154.258 85.5176 148.478 80.1824C138.481 70.7621 126.375 63.8713 113.171 60.0856C76.5974 49.1067 31.9861 59.2169 17.5071 99.7752C17.3422 100.243 17.0066 100.631 16.5676 100.862C16.1286 101.093 15.6186 101.149 15.1399 101.019C10.7422 99.6053 6.06981 99.2653 1.51376 100.028C-3.04227 100.79 -7.34943 102.633 -11.0471 105.402C-14.7938 108.394 -17.8083 112.202 -19.8609 116.536C-21.9134 120.869 -22.9499 125.614 -22.8914 130.409C-22.8914 130.887 -23.0649 131.348 -23.3795 131.708C-23.6941 132.068 -24.1285 132.301 -24.6022 132.365C-27.8599 132.796 -31.0864 133.437 -34.2618 134.283C-73.1752 144.817 -72.5459 183.54 -71.9061 192.149H-71.9047Z" fill="#221F20"/>
<path d="M145.806 105.724C145.156 105.725 144.52 105.532 143.979 105.171C143.438 104.81 143.015 104.297 142.766 103.696C128.991 70.5408 85.2231 71.1348 84.7783 71.1859C83.9057 71.2074 83.0604 70.8813 82.4282 70.2794C81.796 69.6776 81.4287 68.8492 81.4072 67.9765C81.3858 67.1039 81.7118 66.2585 82.3136 65.6262C82.9155 64.994 83.7438 64.6267 84.6164 64.6052C86.593 64.5821 133.325 63.8211 148.842 101.172C149.05 101.671 149.131 102.215 149.079 102.754C149.027 103.292 148.842 103.81 148.542 104.26C148.242 104.711 147.835 105.08 147.358 105.336C146.881 105.591 146.348 105.725 145.806 105.725V105.724Z" fill="white"/>
<path d="M222.849 148.233C222.416 148.233 221.988 148.148 221.589 147.983C221.19 147.817 220.827 147.575 220.522 147.269C210.784 137.529 192.765 134.853 192.585 134.827C191.731 134.692 190.965 134.227 190.452 133.532C189.939 132.836 189.719 131.967 189.842 131.112C189.964 130.256 190.418 129.483 191.105 128.96C191.792 128.436 192.658 128.204 193.515 128.313C194.343 128.431 213.903 131.344 225.174 142.616C225.635 143.076 225.948 143.662 226.075 144.3C226.202 144.939 226.137 145.6 225.888 146.201C225.639 146.802 225.217 147.316 224.676 147.678C224.135 148.039 223.499 148.232 222.849 148.233Z" fill="white"/>
<path d="M1888.29 298.216H1488.34C1488.34 298.216 1480.66 243.371 1531.6 229.579C1535.22 228.613 1538.9 227.883 1542.62 227.394C1542.62 205.804 1560.63 185.396 1587.66 192.603C1604.16 146.352 1654.75 134.538 1696.69 147.12C1711.7 151.433 1725.46 159.271 1736.82 169.979C1743.45 176.104 1748.81 183.484 1752.57 191.692C1756.33 199.899 1758.42 208.772 1758.73 217.795C1801.08 201.551 1854.33 233.714 1861.09 271.725C1861.33 272.936 1861.5 274.146 1861.62 275.387C1865.55 274.557 1869.62 274.65 1873.51 275.659C1877.4 276.669 1881.01 278.567 1884.04 281.204C1892.54 289.71 1888.29 298.216 1888.29 298.216Z" fill="#D5CAEF"/>
<path d="M1888.29 299.533H1488.34C1488.02 299.533 1487.72 299.418 1487.48 299.21C1487.24 299.001 1487.08 298.713 1487.04 298.399C1486.96 297.839 1479.79 242.242 1531.26 228.31C1534.57 227.425 1537.93 226.737 1541.32 226.248C1541.42 220.575 1542.77 214.994 1545.28 209.905C1547.79 204.816 1551.4 200.345 1555.84 196.813C1560.23 193.563 1565.3 191.354 1570.67 190.353C1576.04 189.352 1581.56 189.585 1586.83 191.034C1604.07 144.828 1655.16 133.289 1697.07 145.861C1712.28 150.228 1726.22 158.173 1737.74 169.032C1750.91 181.22 1758.88 198.023 1759.97 215.939C1779.96 208.911 1803.41 211.685 1824.62 223.664C1844.98 235.172 1859.11 253.053 1862.39 271.492C1862.54 272.274 1862.67 273.047 1862.77 273.831C1866.72 273.223 1870.75 273.485 1874.58 274.598C1878.42 275.711 1881.96 277.649 1884.97 280.276C1894.04 289.345 1889.52 298.712 1889.47 298.804C1889.36 299.023 1889.19 299.207 1888.98 299.336C1888.77 299.464 1888.54 299.533 1888.29 299.533ZM1489.52 296.901H1887.41C1888.21 294.288 1888.23 291.498 1887.47 288.873C1886.7 286.249 1885.19 283.906 1883.11 282.135C1880.23 279.651 1876.82 277.865 1873.15 276.918C1869.47 275.97 1865.62 275.886 1861.91 276.673C1861.72 276.713 1861.54 276.714 1861.35 276.676C1861.17 276.638 1861 276.562 1860.85 276.452C1860.7 276.343 1860.57 276.203 1860.48 276.041C1860.39 275.879 1860.33 275.7 1860.31 275.514C1860.2 274.324 1860.03 273.168 1859.8 271.977C1856.65 254.279 1843.02 237.084 1823.32 225.959C1802.2 214.026 1778.83 211.5 1759.2 219.026C1759.01 219.101 1758.8 219.128 1758.59 219.105C1758.38 219.082 1758.18 219.009 1758.01 218.893C1757.83 218.777 1757.69 218.621 1757.58 218.437C1757.48 218.254 1757.42 218.048 1757.42 217.839C1757.11 208.986 1755.05 200.282 1751.36 192.231C1747.67 184.179 1742.42 176.94 1735.91 170.932C1724.7 160.363 1711.12 152.632 1696.31 148.385C1655.25 136.07 1605.17 147.452 1588.89 193.046C1588.78 193.356 1588.56 193.612 1588.26 193.766C1587.97 193.919 1587.63 193.959 1587.32 193.877C1573 190.06 1563.17 194.501 1557.44 198.902C1553.17 202.311 1549.73 206.65 1547.39 211.588C1545.05 216.526 1543.87 221.933 1543.93 227.397C1543.93 227.716 1543.82 228.023 1543.61 228.263C1543.4 228.503 1543.11 228.658 1542.79 228.7C1539.13 229.184 1535.51 229.902 1531.95 230.852C1486.71 243.096 1488.82 289.068 1489.52 296.901Z" fill="#221F20"/>
<path d="M1888.29 298.216H1488.34C1488.34 298.216 1480.66 243.371 1531.6 229.578C1540.38 261.269 1555.14 271.724 1634.88 271.724H1861.09C1861.33 272.934 1861.5 274.145 1861.62 275.386C1865.55 274.555 1869.62 274.649 1873.51 275.658C1877.4 276.667 1881.01 278.566 1884.04 281.203C1892.54 289.71 1888.29 298.216 1888.29 298.216Z" fill="#C0ACEF"/>
<path d="M1888.29 300.19H1488.34C1487.86 300.19 1487.4 300.018 1487.04 299.705C1486.68 299.392 1486.45 298.96 1486.38 298.489C1486.31 297.923 1479.07 241.756 1531.09 227.675C1534.24 226.829 1537.45 226.163 1540.68 225.677C1540.86 220.001 1542.27 214.431 1544.82 209.356C1547.37 204.281 1550.99 199.823 1555.44 196.29C1559.82 193.031 1564.88 190.798 1570.24 189.755C1575.6 188.711 1581.13 188.885 1586.41 190.263C1603.99 144.126 1655.21 132.617 1697.25 145.229C1712.57 149.628 1726.61 157.628 1738.2 168.562C1751.27 180.663 1759.26 197.27 1760.57 215.035C1780.56 208.305 1803.86 211.182 1824.94 223.091C1845.48 234.695 1859.72 252.745 1863.03 271.377C1863.14 271.945 1863.24 272.511 1863.33 273.081C1867.28 272.543 1871.3 272.866 1875.12 274.028C1878.94 275.19 1882.45 277.164 1885.44 279.814C1894.83 289.211 1890.26 298.699 1890.06 299.098C1889.89 299.426 1889.64 299.703 1889.33 299.896C1889.02 300.089 1888.66 300.191 1888.29 300.19ZM1490.13 296.242H1886.92C1887.56 293.795 1887.49 291.219 1886.74 288.807C1885.98 286.395 1884.56 284.244 1882.64 282.6C1879.85 280.19 1876.54 278.459 1872.96 277.542C1869.39 276.625 1865.65 276.547 1862.05 277.315C1861.77 277.375 1861.49 277.376 1861.22 277.319C1860.94 277.262 1860.68 277.147 1860.46 276.983C1860.23 276.818 1860.04 276.608 1859.91 276.365C1859.77 276.122 1859.68 275.853 1859.66 275.575C1859.54 274.405 1859.38 273.271 1859.15 272.102C1856.04 254.586 1842.52 237.561 1823 226.531C1802.04 214.693 1778.88 212.182 1759.44 219.639C1759.15 219.751 1758.83 219.792 1758.52 219.757C1758.2 219.722 1757.9 219.613 1757.64 219.439C1757.38 219.264 1757.16 219.03 1757.01 218.755C1756.85 218.48 1756.77 218.172 1756.76 217.858C1756.46 209.09 1754.42 200.469 1750.76 192.495C1747.1 184.521 1741.9 177.352 1735.45 171.402C1724.32 160.905 1710.83 153.228 1696.12 149.013C1655.37 136.782 1605.65 148.054 1589.51 193.265C1589.35 193.732 1589.01 194.119 1588.57 194.349C1588.13 194.58 1587.62 194.637 1587.14 194.509C1573.1 190.764 1563.45 195.113 1557.84 199.424C1553.65 202.771 1550.28 207.03 1547.98 211.877C1545.69 216.724 1544.53 222.031 1544.59 227.394C1544.59 227.872 1544.42 228.334 1544.1 228.694C1543.79 229.053 1543.36 229.287 1542.88 229.351C1539.25 229.829 1535.66 230.542 1532.12 231.487C1488.4 243.322 1489.41 287.047 1490.13 296.242Z" fill="#221F20"/>
<path d="M1732.33 198.925C1731.81 198.925 1731.3 198.771 1730.87 198.483C1730.44 198.194 1730.1 197.784 1729.9 197.303C1714.32 159.788 1664.98 160.513 1664.47 160.536C1663.78 160.541 1663.11 160.275 1662.61 159.796C1662.1 159.317 1661.81 158.662 1661.78 157.968C1661.76 157.271 1662.02 156.595 1662.5 156.089C1662.98 155.584 1663.64 155.29 1664.34 155.272C1664.92 155.285 1717.78 154.395 1734.76 195.282C1734.93 195.682 1735 196.117 1734.95 196.548C1734.91 196.979 1734.76 197.393 1734.52 197.754C1734.28 198.114 1733.96 198.409 1733.57 198.614C1733.19 198.818 1732.77 198.925 1732.33 198.925V198.925Z" fill="white"/>
<path d="M1817.97 246.18C1817.63 246.181 1817.29 246.113 1816.97 245.98C1816.65 245.848 1816.36 245.654 1816.11 245.409C1805.07 234.374 1784.68 231.317 1784.48 231.289C1783.79 231.189 1783.16 230.819 1782.74 230.26C1782.33 229.7 1782.15 228.998 1782.25 228.307C1782.35 227.62 1782.73 227.002 1783.28 226.585C1783.84 226.168 1784.53 225.986 1785.22 226.076C1786.13 226.207 1807.55 229.397 1819.84 241.687C1820.2 242.055 1820.45 242.524 1820.56 243.035C1820.66 243.545 1820.61 244.074 1820.41 244.555C1820.21 245.036 1819.87 245.447 1819.44 245.736C1819 246.026 1818.5 246.18 1817.97 246.18H1817.97Z" fill="white"/>
<path d="M578.382 268.067C578.382 268.067 67.4333 265.836 27.582 265.836C32.55 235.387 75.1382 217.692 104.734 219.285C109.57 219.507 114.361 220.32 119 221.703C119.186 199.863 156.115 167.9 197.082 182.167C223.969 145.952 262.997 135.191 299.262 138.433C374.873 144.198 394.56 204.671 394.56 204.671C448.438 191.811 488.689 212.536 500.272 233.951C501.534 236.268 502.481 238.743 503.088 241.311C576.416 237.512 578.382 268.067 578.382 268.067Z" fill="#B4CAEF"/>
<path d="M578.381 269.384H578.376C573.266 269.361 66.9747 267.153 27.5812 267.153C27.3905 267.153 27.202 267.112 27.0289 267.032C26.8557 266.952 26.702 266.835 26.5785 266.69C26.4549 266.545 26.3645 266.374 26.3135 266.191C26.2625 266.007 26.2521 265.814 26.283 265.626C31.4829 233.761 75.5262 216.407 104.805 217.972C109.185 218.183 113.53 218.853 117.77 219.97C118.678 209.724 126.767 197.909 138.853 189.398C147.096 183.468 156.63 179.579 166.669 178.052C176.708 176.525 186.967 177.403 196.6 180.614C220.626 148.778 257.079 133.339 299.38 137.123C369.208 142.447 392.144 194.698 395.393 203.125C447.204 191.166 488.631 209.662 501.429 233.324C502.567 235.422 503.464 237.643 504.102 239.943C576.777 236.486 579.609 266.687 579.695 267.983C579.706 268.163 579.681 268.343 579.62 268.512C579.559 268.682 579.464 268.837 579.341 268.968C579.218 269.099 579.069 269.204 578.904 269.276C578.739 269.347 578.561 269.384 578.381 269.384ZM29.1627 264.52C77.411 264.573 545.363 266.608 576.77 266.744C575.138 260.94 564.908 239.434 503.157 242.624C502.85 242.633 502.549 242.537 502.304 242.352C502.059 242.167 501.884 241.904 501.808 241.606C501.227 239.153 500.321 236.789 499.114 234.576C488.47 214.901 449.092 193.005 394.868 205.952C394.546 206.033 394.205 205.988 393.916 205.826C393.626 205.664 393.409 205.398 393.31 205.081C393.115 204.485 372.97 145.375 299.161 139.748C275.018 137.581 229.782 140.327 198.138 182.952C197.972 183.178 197.737 183.344 197.47 183.427C197.202 183.51 196.914 183.505 196.65 183.412C187.306 180.143 177.311 179.175 167.513 180.592C157.716 182.009 148.404 185.768 140.369 191.55C128.27 200.069 120.4 211.912 120.317 221.713C120.316 221.919 120.266 222.121 120.172 222.304C120.079 222.487 119.943 222.645 119.778 222.766C119.611 222.886 119.418 222.966 119.215 223C119.013 223.033 118.805 223.019 118.608 222.959C114.072 221.605 109.387 220.812 104.658 220.599C76.8577 219.119 35.2718 235.075 29.1627 264.52Z" fill="#221F20"/>
<path d="M503.087 241.311L127.209 240.594C110.551 240.594 106.167 226.751 104.733 219.285C75.1365 217.691 31.2192 236.715 26.252 267.164C66.1032 267.164 578.379 268.067 578.379 268.067C578.379 268.067 576.414 237.512 503.087 241.311" fill="#92B1DD"/>
<path d="M578.38 270.042H578.377C573.267 270.035 66.9605 269.217 26.3307 269.217C26.0446 269.217 25.7621 269.154 25.5026 269.034C25.243 268.914 25.0126 268.738 24.8274 268.52C24.6422 268.302 24.5066 268.047 24.4298 267.771C24.3531 267.495 24.3371 267.206 24.383 266.924C29.7087 234.281 75.6335 215.765 104.838 217.315C109.007 217.521 113.146 218.132 117.197 219.137C118.448 208.886 126.537 197.267 138.474 188.858C146.738 182.918 156.284 179.007 166.34 177.44C176.396 175.874 186.679 176.696 196.359 179.841C220.53 148.079 257.08 132.699 299.436 136.468C368.27 141.717 391.81 192.362 395.799 202.356C447.654 190.596 489.137 209.217 502.007 233.013C503.085 235 503.952 237.094 504.593 239.262C577.445 235.895 580.264 266.623 580.349 267.942C580.367 268.211 580.329 268.481 580.238 268.736C580.147 268.99 580.005 269.223 579.82 269.419C579.636 269.616 579.413 269.773 579.165 269.88C578.917 269.988 578.65 270.043 578.38 270.042H578.38ZM28.7341 265.269C81.6014 265.295 537.662 266.027 575.874 266.089C573.584 259.536 561.808 240.266 503.191 243.283C502.724 243.326 502.258 243.193 501.884 242.911C501.509 242.628 501.253 242.217 501.166 241.756C500.596 239.36 499.711 237.05 498.534 234.887C487.988 215.397 448.893 193.73 395.017 206.593C394.535 206.706 394.028 206.635 393.596 206.392C393.164 206.15 392.838 205.755 392.683 205.285C392.49 204.693 372.449 145.994 299.111 140.403C275.081 138.257 230.117 140.982 198.666 183.345C198.416 183.683 198.063 183.932 197.661 184.056C197.258 184.179 196.827 184.171 196.429 184.031C187.184 180.799 177.295 179.843 167.601 181.245C157.908 182.648 148.695 186.367 140.745 192.087C128.816 200.49 121.057 212.122 120.973 221.721C120.97 222.029 120.896 222.332 120.755 222.606C120.614 222.88 120.411 223.117 120.161 223.299C119.912 223.48 119.624 223.601 119.32 223.651C119.016 223.701 118.705 223.679 118.411 223.587C113.927 222.25 109.295 221.467 104.621 221.258C78.1878 219.826 35.4479 236.62 28.7341 265.269Z" fill="#221F20"/>
<path d="M361.127 196.059C360.497 196.06 359.88 195.88 359.349 195.54C358.819 195.2 358.397 194.714 358.135 194.142C339.52 153.596 280.435 154.36 279.775 154.419H279.703C279.271 154.423 278.842 154.343 278.441 154.182C278.04 154.022 277.674 153.783 277.365 153.481C276.741 152.871 276.385 152.038 276.375 151.166C276.365 150.293 276.702 149.452 277.312 148.828C277.922 148.204 278.755 147.848 279.628 147.838C282.201 147.804 343.682 146.887 364.114 191.396C364.343 191.897 364.444 192.448 364.405 192.998C364.367 193.548 364.191 194.079 363.894 194.544C363.596 195.008 363.187 195.39 362.704 195.655C362.22 195.92 361.678 196.059 361.127 196.059Z" fill="white"/>
<path d="M374.286 208.71C375.753 208.71 376.943 207.52 376.943 206.053C376.943 204.585 375.753 203.396 374.286 203.396C372.818 203.396 371.629 204.585 371.629 206.053C371.629 207.52 372.818 208.71 374.286 208.71Z" fill="white"/>
<path d="M374.287 212.001C373.111 212 371.961 211.651 370.983 210.998C370.006 210.344 369.244 209.415 368.794 208.328C368.344 207.242 368.227 206.046 368.456 204.893C368.686 203.739 369.252 202.68 370.084 201.848C370.915 201.017 371.974 200.45 373.128 200.221C374.281 199.991 375.477 200.109 376.563 200.559C377.65 201.009 378.578 201.771 379.232 202.748C379.886 203.726 380.235 204.876 380.235 206.052C380.234 207.629 379.606 209.141 378.491 210.257C377.376 211.372 375.864 211.999 374.287 212.001ZM374.287 205.42C374.204 205.42 374.121 205.436 374.045 205.468C373.968 205.5 373.898 205.546 373.84 205.605C373.781 205.664 373.735 205.733 373.703 205.81C373.671 205.887 373.655 205.969 373.655 206.052C373.655 206.751 374.922 206.751 374.922 206.052C374.921 205.884 374.854 205.723 374.735 205.604C374.616 205.486 374.455 205.42 374.287 205.42Z" fill="white"/>
<path d="M1686.52 343.594H1239.88C1239.88 343.594 1241.29 289.032 1296.28 272.277C1300.95 270.842 1305.71 269.744 1310.53 268.992C1305.83 243.973 1351.37 202.351 1399.03 215.038C1418.31 173.264 1491.67 177.181 1521.43 205.132C1531.21 214.28 1537 225.703 1535.86 238.692C1569.55 223.277 1620.77 234.32 1630.4 276.094C1667.82 276.979 1680.53 301.138 1684.73 320.32C1686.4 327.957 1687 335.79 1686.52 343.594Z" fill="#E4DEFF"/>
<path d="M1686.52 345.472H1239.88C1239.63 345.472 1239.38 345.422 1239.15 345.324C1238.92 345.227 1238.71 345.084 1238.53 344.904C1238.36 344.725 1238.22 344.512 1238.13 344.278C1238.04 344.045 1237.99 343.795 1238 343.544C1238.02 342.985 1240.1 287.432 1295.73 270.478C1299.89 269.2 1304.13 268.184 1308.42 267.437C1307.46 257.022 1313.99 244.036 1325.85 233.019C1341.53 218.461 1368.59 205.674 1398 212.839C1405.47 197.981 1420.58 187.68 1440.73 183.758C1469.86 178.086 1504.34 186.502 1522.72 203.761C1532.77 213.164 1537.97 224.177 1537.88 235.776C1548.08 231.763 1558.99 229.871 1569.94 230.217C1580.9 230.562 1591.67 233.136 1601.6 237.783C1609.04 241.228 1615.62 246.29 1620.86 252.601C1626.1 258.911 1629.86 266.311 1631.88 274.261C1669.1 275.739 1682.17 299.826 1686.56 319.917C1688.28 327.742 1688.9 335.771 1688.39 343.768C1688.35 344.233 1688.13 344.666 1687.79 344.981C1687.44 345.297 1686.99 345.472 1686.52 345.472ZM1241.89 341.717H1684.75C1685 334.668 1684.37 327.616 1682.89 320.719C1678.73 301.685 1666.23 278.819 1630.35 277.971C1629.93 277.961 1629.53 277.812 1629.21 277.548C1628.89 277.284 1628.66 276.92 1628.57 276.514C1626.81 268.826 1623.31 261.644 1618.35 255.515C1613.39 249.386 1607.09 244.473 1599.93 241.152C1590.05 236.521 1579.29 234.058 1568.37 233.928C1557.46 233.797 1546.64 236.003 1536.64 240.396C1536.35 240.534 1536.02 240.59 1535.69 240.56C1535.36 240.53 1535.05 240.415 1534.78 240.225C1534.51 240.036 1534.3 239.779 1534.16 239.481C1534.02 239.183 1533.96 238.853 1533.99 238.526C1535 226.99 1530.21 215.918 1520.15 206.501C1502.58 190 1469.48 181.981 1441.45 187.445C1421.88 191.255 1407.42 201.333 1400.73 215.824C1400.55 216.226 1400.22 216.55 1399.82 216.738C1399.42 216.926 1398.97 216.966 1398.54 216.851C1370.04 209.262 1343.62 221.648 1328.41 235.773C1316.74 246.599 1310.6 259.193 1312.38 268.643C1312.42 268.89 1312.42 269.144 1312.37 269.389C1312.31 269.634 1312.21 269.867 1312.07 270.072C1311.92 270.278 1311.74 270.452 1311.52 270.585C1311.31 270.718 1311.07 270.807 1310.83 270.846C1306.09 271.586 1301.42 272.663 1296.84 274.071C1249.54 288.482 1242.81 332.015 1241.89 341.717Z" fill="#221F20"/>
<path d="M1686.52 343.593H1239.88C1239.88 343.593 1241.29 289.032 1296.28 272.277C1290.44 300.884 1280.88 321.102 1381.41 321.102C1495.13 321.102 1641.69 321.102 1684.73 320.318C1686.4 327.956 1687 335.789 1686.52 343.593Z" fill="#E1B5E8"/>
<path d="M1686.52 345.472H1239.88C1239.63 345.472 1239.38 345.422 1239.15 345.324C1238.92 345.227 1238.71 345.084 1238.53 344.904C1238.36 344.725 1238.22 344.512 1238.13 344.278C1238.04 344.045 1237.99 343.795 1238 343.544C1238.02 342.985 1240.1 287.432 1295.73 270.478C1299.89 269.2 1304.13 268.184 1308.42 267.437C1307.46 257.022 1313.99 244.036 1325.85 233.019C1341.53 218.461 1368.59 205.674 1398 212.839C1405.47 197.981 1420.58 187.68 1440.73 183.758C1469.86 178.086 1504.34 186.502 1522.72 203.761C1532.77 213.164 1537.97 224.177 1537.88 235.776C1548.08 231.763 1558.99 229.871 1569.94 230.217C1580.9 230.562 1591.67 233.136 1601.6 237.783C1609.04 241.228 1615.62 246.29 1620.86 252.601C1626.1 258.911 1629.86 266.311 1631.88 274.261C1669.1 275.739 1682.17 299.826 1686.56 319.917C1688.28 327.742 1688.9 335.771 1688.39 343.768C1688.35 344.233 1688.13 344.666 1687.79 344.981C1687.44 345.297 1686.99 345.472 1686.52 345.472ZM1241.89 341.717H1684.75C1685 334.668 1684.37 327.616 1682.89 320.719C1678.73 301.685 1666.23 278.819 1630.35 277.971C1629.93 277.961 1629.53 277.812 1629.21 277.548C1628.89 277.284 1628.66 276.92 1628.57 276.514C1626.81 268.826 1623.31 261.644 1618.35 255.515C1613.39 249.386 1607.09 244.473 1599.93 241.152C1590.05 236.521 1579.29 234.058 1568.37 233.928C1557.46 233.797 1546.64 236.003 1536.64 240.396C1536.35 240.534 1536.02 240.59 1535.69 240.56C1535.36 240.53 1535.05 240.415 1534.78 240.225C1534.51 240.036 1534.3 239.779 1534.16 239.481C1534.02 239.183 1533.96 238.853 1533.99 238.526C1535 226.99 1530.21 215.918 1520.15 206.501C1502.58 190 1469.48 181.981 1441.45 187.445C1421.88 191.255 1407.42 201.333 1400.73 215.824C1400.55 216.226 1400.22 216.55 1399.82 216.738C1399.42 216.926 1398.97 216.966 1398.54 216.851C1370.04 209.262 1343.62 221.648 1328.41 235.773C1316.74 246.599 1310.6 259.193 1312.38 268.643C1312.42 268.89 1312.42 269.144 1312.37 269.389C1312.31 269.634 1312.21 269.867 1312.07 270.072C1311.92 270.278 1311.74 270.452 1311.52 270.585C1311.31 270.718 1311.07 270.807 1310.83 270.846C1306.09 271.586 1301.42 272.663 1296.84 274.071C1249.54 288.482 1242.81 332.015 1241.89 341.717Z" fill="#221F20"/>
<path d="M1512.82 225.673C1512.24 225.674 1511.67 225.512 1511.17 225.206C1510.68 224.9 1510.28 224.462 1510.02 223.942C1498.42 200.749 1461.17 201.215 1460.82 201.225C1460 201.215 1459.21 200.892 1458.62 200.323C1458.03 199.753 1457.67 198.98 1457.63 198.159C1457.62 197.749 1457.69 197.34 1457.84 196.957C1457.99 196.575 1458.21 196.225 1458.5 195.929C1458.78 195.632 1459.12 195.394 1459.5 195.229C1459.88 195.064 1460.28 194.975 1460.69 194.966C1462.42 194.951 1502.25 194.413 1515.62 221.145C1515.85 221.622 1515.97 222.152 1515.94 222.684C1515.92 223.217 1515.76 223.734 1515.48 224.188C1515.2 224.642 1514.81 225.016 1514.34 225.276C1513.88 225.536 1513.35 225.672 1512.82 225.673Z" fill="white"/>
<path d="M1611.37 271.161C1610.79 271.162 1610.22 271.001 1609.72 270.695C1609.23 270.389 1608.83 269.951 1608.57 269.43C1596.97 246.242 1559.74 246.699 1559.37 246.714C1558.54 246.72 1557.75 246.402 1557.15 245.83C1556.56 245.257 1556.21 244.474 1556.18 243.648C1556.17 243.237 1556.24 242.829 1556.39 242.446C1556.54 242.063 1556.77 241.714 1557.05 241.417C1557.33 241.121 1557.67 240.883 1558.05 240.718C1558.43 240.553 1558.83 240.463 1559.24 240.455C1560.94 240.406 1600.8 239.895 1614.17 266.633C1614.41 267.11 1614.52 267.64 1614.49 268.173C1614.47 268.705 1614.31 269.223 1614.03 269.676C1613.75 270.13 1613.36 270.505 1612.89 270.764C1612.43 271.024 1611.9 271.161 1611.37 271.161H1611.37Z" fill="white"/>
<path d="M1618.95 280.667C1620.34 280.667 1621.48 279.536 1621.48 278.14C1621.48 276.744 1620.34 275.613 1618.95 275.613C1617.55 275.613 1616.42 276.744 1616.42 278.14C1616.42 279.536 1617.55 280.667 1618.95 280.667Z" fill="white"/>
<path d="M1618.95 283.798C1617.83 283.799 1616.73 283.468 1615.8 282.846C1614.87 282.225 1614.15 281.342 1613.72 280.308C1613.29 279.274 1613.18 278.136 1613.4 277.038C1613.61 275.94 1614.15 274.932 1614.94 274.14C1615.73 273.349 1616.74 272.809 1617.84 272.591C1618.94 272.372 1620.08 272.484 1621.11 272.912C1622.14 273.341 1623.03 274.066 1623.65 274.996C1624.27 275.927 1624.6 277.021 1624.6 278.14C1624.6 279.64 1624.01 281.078 1622.95 282.139C1621.89 283.199 1620.45 283.796 1618.95 283.798ZM1618.95 277.539C1618.79 277.539 1618.64 277.602 1618.52 277.715C1618.41 277.828 1618.34 277.98 1618.34 278.14C1618.34 278.805 1619.55 278.805 1619.55 278.14C1619.55 278.061 1619.53 277.983 1619.5 277.91C1619.47 277.837 1619.43 277.771 1619.37 277.715C1619.32 277.659 1619.25 277.615 1619.18 277.585C1619.11 277.555 1619.03 277.539 1618.95 277.539Z" fill="white"/>
</svg>
