<svg width="79" height="67" viewBox="0 0 79 67" fill="none" xmlns="http://www.w3.org/2000/svg">
<path d="M27.6883 38.6234C27.2216 38.4882 26.7195 38.5851 26.3356 38.882L17.4338 45.823C16.5684 46.4989 15.2925 46.0581 15.0296 44.9973L12.3302 34.0449C12.212 33.5718 11.8753 33.1839 11.4205 32.9988L0.956292 28.7818C-0.0715209 28.3675 -0.328474 27.0363 0.468966 26.2722L8.60581 18.4936C8.96023 18.1527 9.13154 17.6649 9.06065 17.18L7.48054 6.03373C7.32696 4.94349 8.35182 4.05895 9.41507 4.36751L20.2573 7.51481C20.724 7.64998 21.2261 7.55301 21.61 7.2562L30.5 0.323929C31.3713 -0.354899 32.6531 0.085899 32.9159 1.15557L35.6125 12.0903C35.7306 12.5663 36.0703 12.9572 36.5251 13.1394L46.9834 17.3534C48.0112 17.7678 48.2682 19.099 47.4707 19.863L39.3309 27.6446C38.9765 27.9825 38.8081 28.4674 38.8761 28.9523" fill="#FFE071"/>
<path d="M8.78143 55.68C15.2053 57.8429 34.8223 65.166 34.8223 65.166L51.1314 29.9757L24.7096 19.8138L24.5235 19.7433C23.5872 19.3877 22.5388 19.8079 22.143 20.7042C19.3874 26.9165 10.4029 47.0345 7.69751 53.3232C7.29288 54.2636 7.79202 55.348 8.78439 55.68H8.78143Z" fill="#D49EFF"/>
<path d="M39.4024 67C39.488 66.9471 42.3854 60.4732 45.6962 53.0414L39.4142 66.9676L39.3994 67H39.4024Z" fill="#FF9CD0"/>
<path d="M39.4033 67C39.4033 67 39.5008 66.8207 39.6514 66.5063C39.675 66.4504 39.7016 66.3887 39.7312 66.327C39.8198 66.1478 39.9172 65.9362 40.0265 65.6923C40.0738 65.5865 40.1269 65.4689 40.186 65.3455C40.2126 65.2779 40.2392 65.2191 40.2716 65.1574C40.3573 64.9635 40.4548 64.7519 40.5581 64.5227C40.6172 64.3934 40.6763 64.2611 40.7383 64.123C40.8623 63.8497 40.9953 63.5617 41.1311 63.2561C41.2227 63.0445 41.3231 62.8271 41.4235 62.6067C41.8488 61.6663 42.3273 60.6055 42.8382 59.4594C42.9859 59.1273 43.1395 58.7806 43.299 58.425C43.4555 58.0694 43.6209 57.7138 43.7804 57.3465C43.8867 57.1026 43.996 56.8587 44.1112 56.6118L44.4833 55.7773C44.5778 55.5569 44.6812 55.3277 44.7816 55.1043C44.8436 54.9691 44.9027 54.8428 44.9588 54.7135C45.201 54.1639 45.4491 53.6027 45.7002 53.0414L39.4181 66.9676L39.4033 67Z" fill="#FF9CD0"/>
<path d="M63.9498 59.6737L78.2328 30.5311C78.4366 30.0932 78.0556 29.6054 77.5683 29.6789L55.5737 31.2364L55.5058 31.2452L55.4762 31.301L55.4408 31.3745C55.429 31.398 55.4172 31.4245 55.4024 31.4509L47.3069 49.4501L46.9052 50.3376L46.728 50.7431C46.6069 51.0135 46.4858 51.278 46.3677 51.5454C46.1875 51.9509 46.0103 52.3506 45.8302 52.7473L45.6972 53.0382C45.4432 53.6025 45.1952 54.1637 44.9559 54.7133C44.8998 54.8396 44.8437 54.9689 44.7817 55.1012C44.6812 55.3274 44.5808 55.5508 44.4804 55.7741L44.1112 56.6058C43.999 56.8555 43.8897 57.1024 43.7775 57.3404C43.618 57.7077 43.4585 58.0633 43.2961 58.4189C43.1425 58.7686 42.9919 59.1154 42.8383 59.4533C42.3244 60.6023 41.8459 61.6632 41.4206 62.6006C41.3231 62.8239 41.2227 63.0384 41.1282 63.253C40.9894 63.5586 40.8594 63.8466 40.7354 64.1199C40.6763 64.2609 40.6143 64.3932 40.5582 64.5195C40.4519 64.7429 40.3603 64.9515 40.2687 65.1543C40.2363 65.2189 40.2126 65.2777 40.1831 65.3453C40.127 65.4687 40.0738 65.5774 40.0236 65.6921C39.9143 65.933 39.8139 66.1475 39.7283 66.3268C39.6987 66.3856 39.6721 66.4502 39.6485 66.5031C39.4949 66.8146 39.4122 66.988 39.3975 66.9939L59.6347 64.8251C60.8929 64.69 61.9798 63.92 62.4996 62.7975L63.0637 61.5809" fill="#D49EFF"/>
<path d="M68.1736 27.5007L76.0269 26.9894C76.3134 27.0041 76.4581 27.4243 76.2868 27.7446L66.8298 45.5264C66.629 45.9055 66.1978 45.8056 66.1505 45.3706L66.0767 40.9333C66.0442 40.613 65.7843 40.4484 65.5539 40.6012L59.1862 46.1905C58.8406 46.4197 58.5157 45.9407 58.7254 45.5087L67.8163 27.7505C67.896 27.5889 68.0348 27.489 68.1766 27.4978L68.1736 27.5007Z" fill="#FFE071"/>
</svg>
