<svg width="240" height="240" viewBox="0 0 194 148" fill="none" xmlns="http://www.w3.org/2000/svg">
<path d="M83.6762 52.7368L86.9866 27.5776C86.9866 27.5776 59.5018 30.9616 58.4191 3.35445C82.5767 -2.32875 91.5547 16.9624 91.7798 20.4064C96.8222 13.2064 108.528 5.65605 122.98 10.3912C122.022 27.5296 107.139 26.8864 98.1276 27.5296C98.1779 33.7192 101.776 52.0696 101.776 52.0696L83.6762 52.7368Z" fill="#8CEAB2"/>
<path d="M83.6758 54.8584C83.3743 54.8583 83.0763 54.7937 82.8018 54.6689C82.5272 54.5441 82.2824 54.362 82.0838 54.1348C81.8851 53.9076 81.7372 53.6405 81.6499 53.3514C81.5625 53.0623 81.5378 52.7578 81.5774 52.4584L84.5549 29.8288C80.2599 29.884 71.5718 29.1712 64.8982 23.4856C59.5397 18.9256 56.6484 12.172 56.3059 3.43599C56.2863 2.9438 56.4384 2.46014 56.7361 2.06814C57.0338 1.67614 57.4585 1.40028 57.9372 1.28799C70.5753 -1.68561 79.0359 2.00799 83.9081 5.60799C87.5956 8.35239 90.5678 11.9477 92.5723 16.0888C99.3537 8.88879 110.777 4.16559 123.633 8.37759C124.077 8.52236 124.46 8.80979 124.723 9.1952C124.987 9.58061 125.115 10.0424 125.09 10.5088C124.115 28.1584 109.35 29.0032 100.527 29.5072H100.343C100.93 36.7072 103.816 51.4888 103.847 51.652C103.907 51.9527 103.9 52.2626 103.828 52.5605C103.756 52.8583 103.62 53.1369 103.43 53.3772C103.24 53.6174 103.001 53.8135 102.728 53.952C102.455 54.0904 102.155 54.168 101.85 54.1792L83.7524 54.8464L83.6758 54.8584ZM86.9862 25.456C87.2876 25.4565 87.5853 25.5214 87.8597 25.6463C88.134 25.7712 88.3787 25.9533 88.5772 26.1804C88.7758 26.4075 88.9238 26.6745 89.0113 26.9634C89.0987 27.2523 89.1237 27.5566 89.0846 27.856L86.1047 50.5264L99.2363 50.0464C98.2494 44.7904 96.0528 32.548 96.0145 27.5512C96.01 27.0121 96.2106 26.4915 96.5754 26.0952C96.9403 25.6989 97.442 25.4566 97.9787 25.4176C98.7141 25.3648 99.4902 25.3216 100.29 25.276C111.014 24.664 119.382 23.2576 120.728 11.9344C107.189 8.31759 97.3152 16.2016 93.5137 21.6256C93.2609 21.9811 92.9048 22.2497 92.494 22.3948C92.0831 22.5399 91.6376 22.5543 91.2182 22.4361C90.7989 22.318 90.4262 22.073 90.151 21.7346C89.8759 21.3962 89.7118 20.981 89.681 20.5456C89.6044 19.396 87.2473 13.3624 81.4025 9.02559C75.7613 4.83759 68.7859 3.50559 60.6583 5.04879C61.238 11.6824 63.5855 16.7944 67.6529 20.2576C75.3182 26.7928 86.6269 25.4848 86.7395 25.4728C86.8213 25.4618 86.9037 25.4561 86.9862 25.456Z" fill="#20B28F"/>
<path d="M101.776 20.6801C101.776 20.6801 105.33 17.4785 109.201 17.0273L101.776 20.6801Z" fill="#8CEAB2"/>
<path d="M101.776 22.797C101.348 22.7975 100.929 22.6678 100.576 22.425C100.223 22.1821 99.9521 21.8377 99.7986 21.4371C99.6452 21.0365 99.6167 20.5987 99.717 20.1816C99.8173 19.7645 100.042 19.3877 100.36 19.101C100.525 18.9498 104.468 15.4386 108.96 14.9178C109.239 14.8782 109.524 14.8952 109.797 14.9677C110.07 15.0402 110.326 15.1668 110.55 15.34C110.773 15.5132 110.96 15.7296 111.098 15.9762C111.237 16.2229 111.325 16.4948 111.357 16.7761C111.389 17.0573 111.365 17.3422 111.285 17.6138C111.205 17.8854 111.072 18.1382 110.893 18.3574C110.714 18.5765 110.494 18.7576 110.244 18.8899C109.994 19.0221 109.72 19.1029 109.439 19.1274C106.325 19.4922 103.211 22.2258 103.18 22.2474C102.796 22.5981 102.295 22.7938 101.776 22.797Z" fill="#20B28F"/>
<path d="M70.981 11.0801C70.981 11.0801 78.1384 12.7721 81.7052 18.5681L70.981 11.0801Z" fill="#8CEAB2"/>
<path d="M81.7073 20.6802C81.3463 20.6809 80.9911 20.5889 80.6757 20.4128C80.3604 20.2367 80.0953 19.9826 79.906 19.6746C76.8351 14.6849 70.5639 13.1514 70.4945 13.137C69.9484 13.0077 69.476 12.6665 69.1811 12.1883C68.8861 11.71 68.7929 11.134 68.9219 10.587C69.0509 10.0399 69.3914 9.56651 69.8687 9.27103C70.346 8.97555 70.921 8.88214 71.467 9.01135C71.7952 9.08815 79.5251 10.9793 83.5063 17.4474C83.7042 17.7683 83.8129 18.1364 83.8213 18.5136C83.8297 18.8908 83.7375 19.2634 83.5541 19.5929C83.3708 19.9224 83.1029 20.197 82.7783 20.3881C82.4536 20.5792 82.0839 20.68 81.7073 20.6802Z" fill="#20B28F"/>
<path d="M145.219 54.2009C145.219 54.2009 146.05 37.1609 153.602 33.1889C161.155 29.2169 163.493 33.3185 163.493 33.3185C163.493 33.3185 169.647 28.1033 175.75 31.4585C181.854 34.8137 181.842 38.2625 181.842 38.2625C181.842 38.2625 185.636 38.4665 188.158 43.4705C190.681 48.4745 197.862 58.7225 183.765 63.6521C175.734 65.4857 172.243 63.3281 172.243 63.3281C172.243 63.3281 171.506 69.7457 167.453 69.8321C163.4 69.9185 155.924 68.9129 152.141 63.5009C148.359 58.0889 145.219 54.2009 145.219 54.2009Z" fill="#774D1B"/>
<path d="M165.433 72.225C157.849 72.225 147.916 64.7178 146.716 63.7866C146.495 63.6164 146.311 63.4044 146.172 63.1628C146.034 62.9211 145.944 62.6545 145.909 62.3781C145.873 62.1018 145.892 61.8211 145.965 61.5522C146.038 61.2832 146.162 61.0312 146.332 60.8106C146.502 60.59 146.714 60.4051 146.955 60.2664C147.196 60.1277 147.462 60.0379 147.738 60.0023C148.014 59.9666 148.294 59.9857 148.562 60.0585C148.831 60.1313 149.082 60.2564 149.303 60.4266C152.443 62.8578 161.675 68.925 166.59 67.8666C167.067 67.7775 167.517 67.5796 167.905 67.2883C168.293 66.9969 168.608 66.62 168.828 66.1866C169.115 65.5458 169.374 64.9338 169.606 64.3458C168.002 63.3811 166.608 62.1039 165.505 60.5898C162.408 56.3394 163.289 52.7658 165.148 50.841C166.086 49.8538 167.342 49.2303 168.694 49.0805C170.046 48.9308 171.408 49.2644 172.538 50.0226C174.083 51.0738 176.9 54.1578 174.842 61.9914C178.498 62.9514 182.661 62.3298 185.569 60.4026C190.238 57.3066 190.712 51.8442 186.872 45.4074C186.133 44.1147 185.211 42.9354 184.137 41.9058C183.519 45.1722 180.955 47.1858 177.343 47.1858C174.39 47.1858 173.031 45.4434 172.727 43.8138C172.217 41.0058 174.471 37.7202 177.758 36.4842C177.968 36.4074 178.208 36.3258 178.476 36.2442C177.106 34.4852 175.188 33.2371 173.027 32.6994C170.552 32.0442 168.399 32.6298 166.662 33.6378C166.953 34.0753 167.207 34.537 167.419 35.0178C169.175 38.9706 168.377 44.4858 165.594 47.5794C163.632 49.761 160.932 50.5026 158.19 49.6074C156.098 48.9258 154.388 46.4082 155.864 41.3874C156.67 38.7455 157.978 36.2845 159.715 34.1394C159.586 34.1394 159.457 34.125 159.323 34.1226C147.616 35.0346 147.24 55.9818 147.238 56.2026C147.231 56.7607 147.006 57.2938 146.61 57.6865C146.214 58.0791 145.68 58.2996 145.123 58.3002H145.099C144.538 58.2939 144.003 58.0649 143.61 57.6636C143.218 57.2622 143 56.7213 143.005 56.1594C143.005 55.1322 143.439 30.9954 159.102 29.8986H159.251C160.64 29.8831 162.016 30.1723 163.282 30.7458C166.272 28.6026 169.958 27.5154 174.107 28.6146C178.826 29.865 182.041 33.0978 183.449 36.5202C185.636 37.3386 188.118 39.249 190.504 43.2402C196.492 53.2674 193.083 60.5202 187.902 63.945C183.993 66.537 178.428 67.413 173.494 66.0258C173.24 66.6658 172.959 67.3266 172.651 68.0082C172.634 68.049 172.612 68.0898 172.591 68.1306C172.084 69.1214 171.361 69.9852 170.476 70.6579C169.591 71.3306 168.565 71.7948 167.477 72.0162C166.805 72.1581 166.12 72.2281 165.433 72.225ZM169.357 53.2914C169.139 53.2949 168.924 53.3414 168.723 53.4283C168.523 53.5152 168.342 53.6407 168.19 53.7978C167.347 54.6714 167.627 56.3226 168.923 58.101C169.491 58.8789 170.172 59.5673 170.943 60.1434C171.851 56.1258 171.038 54.1434 170.159 53.541C169.923 53.3788 169.643 53.2918 169.357 53.2914ZM159.627 45.6402C160.345 45.8514 161.392 45.933 162.444 44.7666C164.135 42.885 164.64 39.2226 163.548 36.765C163.495 36.6474 163.44 36.525 163.38 36.4218C162.992 36.8634 162.662 37.2762 162.422 37.6218C159.782 41.253 159.279 44.7834 159.627 45.6402ZM176.89 42.9066C177.039 42.9369 177.19 42.9506 177.341 42.9474C178.958 42.9474 179.83 42.285 180.007 40.9194C180.036 40.6991 180.046 40.4767 180.038 40.2546C179.763 40.2922 179.493 40.3606 179.233 40.4586C177.7 41.037 176.967 42.3594 176.89 42.9066Z" fill="#333333"/>
<path d="M32.0265 64.7922C32.0265 64.7922 42.777 60.2538 42.71 43.293C42.6429 26.3322 27.6189 26.8962 25.4846 32.4234C17.3283 29.9274 9.65819 25.9146 4.90092 35.3202C0.143652 44.7258 6.4747 48.4818 6.4747 48.4818C6.4747 48.4818 2.57019 50.0946 3.12114 54.1962C3.67208 58.2978 6.43877 69.2922 17.0648 68.289C27.6908 67.2858 32.0265 64.7922 32.0265 64.7922Z" fill="#774D1B"/>
<path d="M17.4768 69.9474C11.7279 69.9474 6.36694 67.9938 3.02775 61.9266C-1.05401 54.5202 1.31983 50.0322 3.46371 47.8002C1.13778 43.7898 0.725769 39.3642 2.36662 35.3562C2.41466 35.2423 2.47152 35.1324 2.53669 35.0274C6.35017 29.001 11.9722 26.4906 18.3703 27.969C20.4606 28.4773 22.4536 29.3253 24.2702 30.4794C26.5602 27.669 29.7341 26.505 33.2218 27.2706C37.1646 28.1346 40.1517 30.201 42.0992 33.417C46.6241 40.8858 43.7113 51.9186 43.5867 52.377C43.4105 52.8835 43.0491 53.3041 42.5755 53.5541C42.1019 53.8042 41.5513 53.865 41.0348 53.7243C40.5182 53.5837 40.0741 53.252 39.7919 52.7962C39.5098 52.3404 39.4107 51.7944 39.5145 51.2682C39.56 51.093 42.0584 41.4786 38.4869 35.5986C37.1455 33.3882 35.1333 32.0154 32.3307 31.4034C30.4838 31.0026 28.9149 31.5474 27.6525 33.0378C30.3234 35.4978 32.2037 38.457 32.5128 41.1714C32.8002 43.7202 31.6768 45.8058 29.4275 46.8978C25.9062 48.6066 23.7528 46.8978 22.991 46.0842C20.5118 43.4322 20.6076 38.2122 22.191 34.1322C20.7315 33.1881 19.123 32.4983 17.4337 32.0922C12.8417 31.029 9.07375 32.7258 6.22561 37.1322C4.97042 40.365 5.83516 43.2882 6.96819 45.3642C11.3733 43.3362 16.9762 43.6698 19.968 45.7434C22.397 47.4234 23.1827 50.1258 22.0712 52.9434C21.7141 53.9009 21.1002 54.7411 20.2973 55.3716C19.4943 56.0021 18.5332 56.3985 17.5199 56.517C14.0562 57.0234 9.46659 54.8538 6.06752 51.249C4.50092 53.3202 4.7237 56.2098 6.73104 59.8554C11.7422 68.9538 23.4653 65.6394 35.0471 61.4658C35.575 61.2749 36.157 61.3018 36.6651 61.5408C37.1732 61.7798 37.5657 62.2113 37.7563 62.7402C37.9469 63.2692 37.9199 63.8523 37.6814 64.3613C37.4429 64.8704 37.0123 65.2637 36.4843 65.4546C31.2288 67.3722 24.0857 69.9474 17.4768 69.9474ZM9.63427 48.861C12.1806 51.3378 15.194 52.593 16.9163 52.3458C17.1883 52.3306 17.4495 52.2336 17.6657 52.0675C17.8819 51.9014 18.0431 51.6739 18.1284 51.4146C18.5236 50.4138 18.3679 49.8042 17.5535 49.2546C15.8503 48.0642 12.4656 47.877 9.63427 48.861ZM25.6835 37.0578C24.9864 39.7458 25.2882 42.357 26.0811 43.2042C26.2009 43.3338 26.4835 43.6362 27.583 43.101C28.1148 42.8418 28.4046 42.525 28.3016 41.661C28.1603 40.4058 27.1974 38.697 25.6787 37.0578H25.6835Z" fill="#333333"/>
<path d="M34.3065 64.4778C34.3065 64.4778 32.8501 52.6315 43.0234 50.7979L53.6159 57.5707C43.4426 59.4115 44.899 71.2507 44.899 71.2507L34.3065 64.4778Z" fill="#9FC6FF"/>
<path d="M44.9038 73.3673C44.5014 73.3685 44.1072 73.2535 43.7683 73.0361L33.1663 66.2657C32.9038 66.0975 32.6818 65.8732 32.5162 65.6089C32.3505 65.3445 32.2453 65.0468 32.2081 64.7369C31.6212 59.9513 33.0465 50.4425 42.6497 48.7025C43.1748 48.607 43.7165 48.7142 44.166 49.0025L54.7584 55.7753C55.1164 56.0052 55.3971 56.3378 55.5638 56.7297C55.7305 57.1217 55.7755 57.5548 55.6931 57.9728C55.6106 58.3908 55.4045 58.7742 55.1015 59.0731C54.7985 59.3721 54.4127 59.5727 53.9943 59.6489C45.9386 61.1081 46.9542 70.5953 47.0021 70.9985C47.0478 71.3972 46.9801 71.8007 46.8067 72.1625C46.6334 72.5243 46.3615 72.8296 46.0224 73.0433C45.6874 73.2547 45.2997 73.367 44.9038 73.3673ZM36.357 63.2681L42.8245 67.4009C43.2557 63.7097 44.875 59.4377 48.9017 57.0521L42.6377 53.0489C36.7187 54.6113 36.2803 60.8441 36.3474 63.2681H36.357Z" fill="#3477DE"/>
<path d="M38.9415 66.6255C38.9415 66.6255 40.0722 57.3855 46.4799 54.2007L38.9415 66.6255Z" fill="#9FC6FF"/>
<path d="M38.9443 68.7423C38.8554 68.7427 38.7666 68.7371 38.6784 68.7255C38.4031 68.6916 38.1371 68.6037 37.8957 68.4668C37.6543 68.3299 37.4423 68.1466 37.2716 67.9275C37.101 67.7084 36.9751 67.4577 36.9013 67.1898C36.8274 66.9219 36.807 66.6421 36.8412 66.3663C36.8915 65.9439 38.197 55.9527 45.5389 52.3023C45.7878 52.1786 46.0587 52.1052 46.336 52.0864C46.6133 52.0676 46.8915 52.1036 47.1549 52.1926C47.4182 52.2815 47.6615 52.4215 47.8709 52.6046C48.0802 52.7878 48.2515 53.0104 48.375 53.2599C48.4985 53.5093 48.5717 53.7807 48.5905 54.0585C48.6093 54.3363 48.5733 54.6151 48.4845 54.879C48.3958 55.1429 48.256 55.3866 48.0732 55.5964C47.8905 55.8061 47.6682 55.9778 47.4192 56.1015C42.1302 58.7415 41.0499 66.8055 41.0403 66.8871C40.9757 67.3987 40.7272 67.8692 40.3415 68.2107C39.9557 68.5521 39.459 68.7411 38.9443 68.7423Z" fill="#3477DE"/>
<path d="M94.7859 145.54C124.548 145.54 148.675 122.115 148.675 93.2199C148.675 64.3244 124.548 40.8999 94.7859 40.8999C65.0236 40.8999 40.8965 64.3244 40.8965 93.2199C40.8965 122.115 65.0236 145.54 94.7859 145.54Z" fill="#B5653C"/>
<path d="M94.7862 147.662C63.9047 147.662 38.7817 123.239 38.7817 93.22C38.7817 63.2008 63.9047 38.7808 94.7862 38.7808C125.668 38.7808 150.793 63.2032 150.793 93.22C150.793 123.237 125.668 147.662 94.7862 147.662ZM94.7862 43.0216C66.2378 43.0216 43.0144 65.5408 43.0144 93.22C43.0144 120.899 66.2378 143.421 94.7862 143.421C123.335 143.421 146.56 120.902 146.56 93.22C146.56 65.5384 123.335 43.0216 94.7862 43.0216Z" fill="#333333"/>
<path d="M153.521 64.4608C153.521 64.4608 154.975 52.6144 144.802 50.7808L134.209 57.5536C144.385 59.3944 142.928 71.2336 142.928 71.2336L153.521 64.4608Z" fill="#9FC6FF"/>
<path d="M142.929 73.353C142.629 73.3528 142.333 73.289 142.06 73.1656C141.787 73.0423 141.543 72.8623 141.344 72.6375C141.146 72.4126 140.997 72.1482 140.908 71.8615C140.819 71.5749 140.792 71.2726 140.828 70.9746C140.876 70.5786 141.889 61.0914 133.833 59.6298C133.415 59.5539 133.029 59.3535 132.726 59.0546C132.423 58.7558 132.217 58.3724 132.135 57.9544C132.053 57.5365 132.098 57.1035 132.265 56.7118C132.432 56.3201 132.713 55.9879 133.072 55.7586L143.664 48.9858C144.113 48.6969 144.654 48.5905 145.178 48.6882C154.784 50.4258 156.197 59.9346 155.622 64.7202C155.584 65.0298 155.478 65.3272 155.313 65.5914C155.147 65.8556 154.926 66.0801 154.664 66.249L144.074 73.0218C143.732 73.2395 143.334 73.3544 142.929 73.353ZM138.94 57.033C142.967 59.4162 144.584 63.6906 145.018 67.3818L151.485 63.249C151.547 60.825 151.111 54.5922 145.209 53.0298L138.94 57.033Z" fill="#3477DE"/>
<path d="M148.886 66.6089C148.886 66.6089 147.753 57.3689 141.348 54.1841L148.886 66.6089Z" fill="#9FC6FF"/>
<path d="M148.884 68.7278C148.369 68.7276 147.871 68.5387 147.484 68.1967C147.098 67.8546 146.85 67.3829 146.786 66.8702C146.769 66.7334 145.677 58.7102 140.407 56.0822C139.904 55.832 139.522 55.3921 139.343 54.8592C139.164 54.3263 139.204 53.7441 139.454 53.2406C139.703 52.7371 140.142 52.3536 140.674 52.1744C141.206 51.9953 141.787 52.0352 142.29 52.2854C149.632 55.9358 150.935 65.927 150.987 66.3494C151.056 66.9075 150.9 67.4701 150.555 67.9134C150.209 68.3567 149.702 68.6444 149.145 68.7134C149.059 68.7229 148.971 68.7277 148.884 68.7278Z" fill="#3477DE"/>
<path d="M41.5503 85.0527C41.5503 85.0527 45.3518 54.1287 76.2309 44.0871C107.11 34.0455 128.13 52.0407 129.519 53.2071C130.908 54.3735 146.886 64.1583 148.682 93.2103C140.478 90.5319 134.933 85.0719 134.933 85.0719C134.933 85.0719 123.214 82.9599 121.444 74.1999C112.945 71.8791 106.633 67.9935 107.007 66.4455C100.027 64.5447 93.7078 58.6479 94.2659 51.2847C92.2538 60.7047 87.9325 66.0879 84.9622 66.1023C84.9622 73.0191 77.0765 76.3911 71.2269 74.3655C67.1332 80.0559 61.2237 78.7335 60.6464 78.6567C57.8151 86.4159 41.5503 85.0527 41.5503 85.0527Z" fill="#774D1B"/>
<path d="M94.7862 147.662C63.9047 147.662 38.7817 123.239 38.7817 93.22C38.7817 63.2008 63.9047 38.7808 94.7862 38.7808C125.668 38.7808 150.793 63.2032 150.793 93.22C150.793 123.237 125.668 147.662 94.7862 147.662ZM94.7862 43.0216C66.2378 43.0216 43.0144 65.5408 43.0144 93.22C43.0144 120.899 66.2378 143.421 94.7862 143.421C123.335 143.421 146.56 120.902 146.56 93.22C146.56 65.5384 123.335 43.0216 94.7862 43.0216Z" fill="#333333"/>
<path d="M98.7339 109.339H88.5199C88.2673 109.339 88.0183 109.28 87.7935 109.164C87.5687 109.049 87.3747 108.881 87.2277 108.676C87.0807 108.47 86.985 108.232 86.9485 107.981C86.912 107.731 86.9358 107.476 87.018 107.236L91.2075 94.9218C91.3454 94.5249 91.6344 94.1987 92.0115 94.0145C92.3886 93.8303 92.8231 93.803 93.2201 93.9387C93.6172 94.0744 93.9445 94.3619 94.1307 94.7386C94.3169 95.1152 94.3467 95.5504 94.2138 95.949L90.738 106.159H98.7339C99.1441 106.175 99.5322 106.349 99.8168 106.646C100.101 106.942 100.26 107.337 100.26 107.749C100.26 108.16 100.101 108.555 99.8168 108.852C99.5322 109.148 99.1441 109.323 98.7339 109.339Z" fill="#333333"/>
<path d="M63.6314 121.998C70.942 121.998 76.8684 116.061 76.8684 108.736C76.8684 101.411 70.942 95.4736 63.6314 95.4736C56.3208 95.4736 50.3944 101.411 50.3944 108.736C50.3944 116.061 56.3208 121.998 63.6314 121.998Z" fill="#F98253"/>
<path d="M126.571 121.998C133.881 121.998 139.808 116.061 139.808 108.736C139.808 101.411 133.881 95.4736 126.571 95.4736C119.26 95.4736 113.334 101.411 113.334 108.736C113.334 116.061 119.26 121.998 126.571 121.998Z" fill="#F98253"/>
<path d="M125.016 94.4179C124.741 94.4175 124.47 94.3454 124.231 94.2086C123.991 94.0719 123.791 93.8752 123.651 93.6379C123.328 93.1735 122.898 92.7941 122.398 92.5322C121.897 92.2702 121.341 92.1334 120.776 92.1334C120.212 92.1334 119.655 92.2702 119.155 92.5322C118.654 92.7941 118.224 93.1735 117.902 93.6379C117.683 93.9948 117.333 94.2516 116.927 94.353C116.521 94.4544 116.092 94.3924 115.732 94.1803C115.371 93.9685 115.109 93.6222 115.003 93.2173C114.897 92.8124 114.956 92.382 115.166 92.0203C115.769 91.0769 116.599 90.3006 117.58 89.7629C118.561 89.2252 119.661 88.9434 120.779 88.9434C121.897 88.9434 122.997 89.2252 123.977 89.7629C124.958 90.3006 125.788 91.0769 126.391 92.0203C126.534 92.2623 126.61 92.5378 126.611 92.8188C126.613 93.0998 126.541 93.3763 126.401 93.6202C126.262 93.864 126.06 94.0665 125.818 94.207C125.575 94.3475 125.299 94.4211 125.018 94.4203L125.016 94.4179Z" fill="#333333"/>
<path d="M148.306 94.9457C148.145 94.9456 147.984 94.9271 147.827 94.8905C138.353 92.6537 134.317 88.8569 132.705 85.4417C132.41 85.4417 132.109 85.4153 131.804 85.3865C126.249 84.8609 121.899 81.5177 119.885 76.2137C119.87 76.1777 119.856 76.1417 119.844 76.1057C118.982 75.9569 118.067 75.7673 117.097 75.5273C110.564 73.9145 107.316 71.2073 105.745 68.6249C104.621 68.6047 103.504 68.4434 102.42 68.1449C97.8831 66.9065 95.4517 62.8433 94.151 58.6649C92.7138 61.8545 90.5579 65.0633 87.3289 67.1801C86.6954 69.0081 85.6893 70.6841 84.3747 72.1016C83.06 73.5192 81.4655 74.6474 79.6924 75.4145C76.8179 76.6577 74.3171 76.9985 72.2379 76.7465C70.9204 78.1457 68.9801 79.4537 66.132 80.3249L65.9907 80.3633C64.7415 80.6572 63.4649 80.8181 62.182 80.8433C61.2669 82.7945 59.1183 85.0817 54.179 86.4257C44.0177 89.1953 41.8426 88.8857 40.8078 87.1457C40.5333 86.671 40.4233 86.1186 40.4948 85.5747C40.5662 85.0308 40.8153 84.5258 41.2031 84.1385C41.3947 83.9368 41.6242 83.775 41.8783 83.6622C42.1324 83.5494 42.4062 83.4879 42.6841 83.4812C42.9619 83.4746 43.2384 83.5228 43.4976 83.6232C43.7569 83.7236 43.9938 83.8743 44.1949 84.0665C44.2467 84.1155 44.2955 84.1676 44.341 84.2225C45.4477 84.1289 47.8958 83.7425 53.0699 82.3385C54.4353 81.9641 56.3803 81.2705 57.5613 80.1281C55.3431 79.3313 53.7909 77.9681 53.0435 76.4657C52.0734 74.5241 52.4758 72.4001 54.0712 71.0537C55.2689 70.0385 56.9744 69.9569 58.6224 70.8401C60.4453 71.8193 62.2155 74.0033 62.709 76.5785C63.4696 76.5289 64.225 76.4182 64.9678 76.2473C65.9647 75.95 66.9164 75.5181 67.7968 74.9633C67.002 74.3473 66.3244 73.5929 65.7967 72.7361C63.8276 69.5393 64.2852 65.4905 66.8626 63.3209C67.4885 62.7623 68.2706 62.4097 69.103 62.311C69.9355 62.2123 70.7781 62.3721 71.5169 62.7689C73.8452 63.9905 75.3064 67.3289 74.9902 70.7249C74.9334 71.3242 74.8219 71.9171 74.6572 72.4961C75.819 72.3244 76.9521 71.995 78.0252 71.5169C79.2497 70.9898 80.3498 70.2105 81.2542 69.2297H81.1991C79.7053 69.2401 78.2418 68.8075 76.9928 67.9865C74.6548 66.4313 73.3254 63.6209 73.5266 60.6497C73.7422 57.4745 75.6082 54.8105 78.648 53.3393C80.8278 52.2833 83.0076 52.3937 84.785 53.6441C86.687 54.9833 87.899 57.5609 88.1817 60.6041C92.0742 55.4129 92.6779 47.8049 92.685 47.7065C92.7349 47.1579 92.992 46.6491 93.4039 46.2841C93.8158 45.9192 94.3512 45.7257 94.9008 45.7433C95.4534 45.7719 95.9729 46.0158 96.3484 46.423C96.7239 46.8302 96.9256 47.3683 96.9105 47.9225C96.8027 51.8777 97.7825 62.4905 103.536 64.0601C103.819 64.1369 104.099 64.1993 104.377 64.2473C104.312 62.8507 104.563 61.4575 105.111 60.1717C105.659 58.8858 106.49 57.7407 107.541 56.8217C109.539 55.0937 112.002 54.5729 114.133 55.4273C116.883 56.5313 118.069 59.0081 117.156 61.7369C116.368 64.0841 113.884 66.5633 110.516 67.8089C112.129 69.3377 114.713 70.5737 118.112 71.4089C118.352 71.4689 118.591 71.5265 118.831 71.5793C118.481 67.7681 119.367 64.0625 121.341 61.9385C122.057 61.1322 122.991 60.5513 124.03 60.2663C125.068 59.9813 126.167 60.0044 127.193 60.3329C131.984 61.7729 135.062 66.6065 133.9 70.8785C133.493 72.3761 131.744 76.3385 124.709 76.5041C125.94 78.5969 128.063 80.6177 131.744 81.1097C131.741 80.371 131.821 79.6342 131.984 78.9137C132.942 74.7929 136.423 71.7761 139.47 72.4649C141.966 73.0313 143.35 75.2225 142.912 77.9201C142.473 80.6177 140.339 83.3369 137.163 84.6401C139.048 87.2489 143.08 89.4137 148.795 90.7625C149.301 90.8804 149.745 91.1806 150.044 91.6057C150.343 92.0309 150.476 92.5513 150.417 93.0681C150.358 93.5848 150.111 94.0617 149.723 94.4079C149.336 94.7542 148.835 94.9456 148.316 94.9457H148.306ZM138.514 76.6001C138.035 76.6001 136.315 77.9609 135.994 80.3945L135.98 80.5193C136.919 80.0501 137.707 79.3257 138.255 78.4289C138.837 77.4497 138.768 76.7681 138.696 76.6625C138.641 76.6324 138.582 76.6113 138.521 76.6001H138.514ZM56.9768 74.8169C57.0933 74.9735 57.2275 75.1161 57.3768 75.2417C57.4415 75.2969 57.5086 75.3521 57.5804 75.4049C57.3983 75.1901 57.1962 74.9932 56.9768 74.8169ZM123.164 72.2393C127.404 72.5009 129.392 71.2289 129.799 69.7601C130.3 67.9241 128.767 65.2361 125.967 64.3937C125.697 64.2924 125.402 64.2811 125.125 64.3615C124.848 64.442 124.605 64.6098 124.431 64.8401C123.234 66.0977 122.625 69.0953 123.164 72.2393ZM69.6029 66.5609C68.6065 67.4489 68.5442 69.1433 69.3898 70.5161C69.6699 70.9778 70.0397 71.3785 70.4773 71.6945C70.6824 71.0965 70.7892 70.4692 70.7935 69.8369C70.8054 68.0537 70.0245 66.8201 69.6029 66.5609ZM81.58 56.8673C81.1991 56.8821 80.8265 56.983 80.49 57.1625C78.2551 58.2425 77.8144 59.9945 77.7497 60.9425C77.6515 62.3825 78.2743 63.7529 79.3307 64.4561C80.4637 65.2073 81.9824 65.1761 83.7454 64.3433C83.8358 63.9208 83.9037 63.4938 83.949 63.0641C84.2532 60.1121 83.3765 57.8393 82.3537 57.1193C82.1284 56.9492 81.8524 56.8604 81.5704 56.8673H81.58ZM112.033 59.2673C111.266 59.2673 110.545 59.8313 110.308 60.0377C109.755 60.5304 109.315 61.138 109.02 61.8181C108.724 62.4982 108.58 63.2346 108.598 63.9761C110.993 63.2393 112.725 61.6433 113.149 60.3929C113.302 59.9345 113.345 59.6729 112.562 59.3657C112.391 59.2955 112.208 59.2596 112.023 59.2601L112.033 59.2673Z" fill="#333333"/>
<path d="M71.6484 94.4174C71.3751 94.4154 71.1069 94.3428 70.8698 94.2066C70.6327 94.0703 70.4347 93.8751 70.295 93.6398C69.9724 93.1754 69.5426 92.796 69.042 92.5341C68.5415 92.2721 67.9852 92.1353 67.4205 92.1353C66.8558 92.1353 66.2995 92.2721 65.799 92.5341C65.2985 92.796 64.8686 93.1754 64.546 93.6398C64.3264 93.9901 63.9791 94.241 63.578 94.3391C63.1768 94.4373 62.7533 94.375 62.3972 94.1656C62.0411 93.9561 61.7804 93.6159 61.6704 93.2171C61.5604 92.8183 61.6098 92.3923 61.8081 92.0294C62.4112 91.086 63.2414 90.3097 64.2224 89.7721C65.2034 89.2344 66.3035 88.9526 67.4217 88.9526C68.5399 88.9526 69.6401 89.2344 70.621 89.7721C71.602 90.3097 72.4322 91.086 73.0353 92.0294C73.1397 92.2101 73.2076 92.4097 73.235 92.6167C73.2623 92.8237 73.2487 93.034 73.1949 93.2358C73.141 93.4375 73.048 93.6266 72.9212 93.7923C72.7943 93.958 72.6361 94.097 72.4556 94.2014C72.2111 94.3455 71.9321 94.4201 71.6484 94.4174Z" fill="#333333"/>
<path d="M102.926 132.352C100.887 133.691 98.2904 134.577 95.1261 134.577C91.7869 134.577 89.0873 133.6 86.9985 132.124C81.41 128.212 80.174 120.806 82.7275 119.33C86.2296 117.304 89.4681 120.614 95.1261 120.614C100.784 120.614 104.025 117.304 107.534 119.33C110.131 120.834 108.801 128.502 102.926 132.352Z" fill="#232323"/>
<path d="M102.925 132.352C100.887 133.691 98.2902 134.577 95.1259 134.577C91.7867 134.577 89.0871 133.6 86.9983 132.124C87.372 131.942 96.4721 127.427 102.925 132.352Z" fill="#FFA3CF"/>
</svg>
