<svg width="79" height="68" viewBox="0 0 79 68" fill="none" xmlns="http://www.w3.org/2000/svg">
<path d="M27.6883 39.1234C27.2216 38.9882 26.7195 39.0851 26.3356 39.382L17.4338 46.323C16.5684 46.9989 15.2925 46.5581 15.0296 45.4973L12.3302 34.5449C12.212 34.0718 11.8753 33.6839 11.4205 33.4988L0.956292 29.2818C-0.0715209 28.8675 -0.328474 27.5363 0.468966 26.7722L8.60581 18.9936C8.96023 18.6527 9.13154 18.1649 9.06065 17.68L7.48054 6.53373C7.32696 5.44349 8.35182 4.55895 9.41507 4.86751L20.2573 8.01481C20.724 8.14998 21.2261 8.05301 21.61 7.7562L30.5 0.823929C31.3713 0.145101 32.6531 0.585899 32.9159 1.65557L35.6125 12.5903C35.7306 13.0663 36.0703 13.4572 36.5251 13.6394L46.9834 17.8534C48.0112 18.2678 48.2682 19.599 47.4707 20.363L39.3309 28.1446C38.9765 28.4825 38.8081 28.9674 38.8761 29.4523" fill="#9EC5FF"/>
<path d="M8.78143 56.18C15.2053 58.3428 34.8223 65.666 34.8223 65.666L51.1314 30.4756L24.7096 20.3138L24.5235 20.2433C23.5872 19.8877 22.5388 20.3079 22.143 21.2042C19.3874 27.4165 10.4029 47.5345 7.69751 53.8232C7.29288 54.7636 7.79202 55.8479 8.78439 56.18H8.78143Z" fill="#FF7171"/>
<path d="M39.4024 67.4999C39.488 67.447 42.3854 60.9732 45.6962 53.5414L39.4142 67.4676L39.3994 67.4999H39.4024Z" fill="#FF9CD0"/>
<path d="M39.4033 67.5C39.4033 67.5 39.5008 67.3207 39.6514 67.0063C39.675 66.9504 39.7016 66.8887 39.7312 66.827C39.8198 66.6478 39.9172 66.4362 40.0265 66.1923C40.0738 66.0865 40.1269 65.9689 40.186 65.8455C40.2126 65.7779 40.2392 65.7191 40.2716 65.6574C40.3573 65.4635 40.4548 65.2519 40.5581 65.0227C40.6172 64.8934 40.6763 64.7611 40.7383 64.623C40.8623 64.3497 40.9953 64.0617 41.1311 63.7561C41.2227 63.5445 41.3231 63.3271 41.4235 63.1067C41.8488 62.1663 42.3273 61.1055 42.8382 59.9594C42.9859 59.6273 43.1395 59.2806 43.299 58.925C43.4555 58.5694 43.6209 58.2138 43.7804 57.8465C43.8867 57.6026 43.996 57.3587 44.1112 57.1118L44.4833 56.2773C44.5778 56.0569 44.6812 55.8277 44.7816 55.6043C44.8436 55.4691 44.9027 55.3428 44.9588 55.2135C45.201 54.6639 45.4491 54.1027 45.7002 53.5414L39.4181 67.4676L39.4033 67.5Z" fill="#FF9CD0"/>
<path d="M63.9498 60.1737L78.2328 31.0311C78.4366 30.5932 78.0556 30.1054 77.5683 30.1789L55.5737 31.7364L55.5058 31.7452L55.4762 31.801L55.4408 31.8745C55.429 31.898 55.4172 31.9244 55.4024 31.9509L47.3069 49.9501L46.9052 50.8376L46.728 51.2431C46.6069 51.5135 46.4858 51.7779 46.3677 52.0454C46.1875 52.4509 46.0103 52.8506 45.8302 53.2473L45.6972 53.5382C45.4432 54.1024 45.1952 54.6637 44.9559 55.2132C44.8998 55.3396 44.8437 55.4689 44.7817 55.6011C44.6812 55.8274 44.5808 56.0507 44.4804 56.2741L44.1112 57.1057C43.999 57.3555 43.8897 57.6024 43.7775 57.8404C43.618 58.2077 43.4585 58.5633 43.2961 58.9189C43.1425 59.2686 42.9919 59.6153 42.8383 59.9533C42.3244 61.1023 41.8459 62.1631 41.4206 63.1006C41.3231 63.3239 41.2227 63.5384 41.1282 63.7529C40.9894 64.0586 40.8594 64.3465 40.7354 64.6198C40.6763 64.7609 40.6143 64.8931 40.5582 65.0195C40.4519 65.2428 40.3603 65.4515 40.2687 65.6542C40.2363 65.7189 40.2126 65.7777 40.1831 65.8453C40.127 65.9687 40.0738 66.0774 40.0236 66.192C39.9143 66.433 39.8139 66.6475 39.7283 66.8268C39.6987 66.8855 39.6721 66.9502 39.6485 67.0031C39.4949 67.3146 39.4122 67.488 39.3975 67.4938L59.6347 65.3251C60.8929 65.1899 61.9798 64.42 62.4996 63.2975L63.0637 62.0809" fill="#FF7171"/>
<path d="M68.1736 28.0007L76.0269 27.4894C76.3134 27.5041 76.4581 27.9243 76.2868 28.2446L66.8298 46.0264C66.629 46.4055 66.1978 46.3056 66.1505 45.8706L66.0767 41.4333C66.0442 41.113 65.7843 40.9484 65.5539 41.1012L59.1862 46.6905C58.8406 46.9197 58.5157 46.4407 58.7254 46.0087L67.8163 28.2505C67.896 28.0889 68.0348 27.989 68.1766 27.9978L68.1736 28.0007Z" fill="#9EC5FF"/>
</svg>
