<svg width="122" height="195" viewBox="0 0 122 195" fill="none" xmlns="http://www.w3.org/2000/svg">
<path d="M52.2186 49.5762H66.261L68.505 65.1354L80.5266 59.2602L84.1602 64.1778L70.8258 72.645L73.7946 95.685C73.7946 95.685 56.1594 95.769 45.5274 95.6634L47.8314 78.6666L37.7322 75.1602L40.1322 69.6666L48.6402 71.9706L52.2186 49.5762Z" fill="#D39340"/>
<path d="M59.5937 97.7966C54.7937 97.7966 49.6121 97.7822 45.5081 97.7414C45.2128 97.7386 44.9214 97.6731 44.6534 97.549C44.3854 97.4249 44.1468 97.2452 43.9536 97.0218C43.7604 96.7984 43.617 96.5365 43.5329 96.2533C43.4487 95.9702 43.4258 95.6724 43.4657 95.3798L45.5393 80.0726L37.0481 77.1302C36.7772 77.036 36.5286 76.8869 36.318 76.6922C36.1074 76.4975 35.9392 76.2614 35.8241 75.9987C35.709 75.736 35.6493 75.4523 35.6489 75.1655C35.6485 74.8787 35.7073 74.5948 35.8217 74.3318L38.2217 68.8382C38.4218 68.3807 38.7793 68.0101 39.2295 67.7939C39.6796 67.5776 40.1923 67.53 40.6745 67.6598L46.9481 69.359L50.1617 49.2398C50.2404 48.751 50.4907 48.3062 50.8676 47.9851C51.2445 47.6641 51.7234 47.4878 52.2185 47.4878H66.2609C66.7616 47.4873 67.2457 47.6673 67.6243 47.9948C68.003 48.3224 68.2509 48.7755 68.3225 49.271L70.1585 61.991L79.6121 57.3998C80.0497 57.186 80.5484 57.1323 81.0215 57.2481C81.4946 57.3639 81.9122 57.6417 82.2017 58.0334L85.8353 62.951C86.0053 63.1808 86.1262 63.4433 86.1903 63.7219C86.2544 64.0005 86.2604 64.2893 86.2079 64.5704C86.1555 64.8514 86.0456 65.1186 85.8853 65.3553C85.725 65.592 85.5176 65.7932 85.2761 65.9462L73.0601 73.7054L75.8585 95.4278C75.8963 95.7205 75.8714 96.0178 75.7856 96.3001C75.6997 96.5824 75.5549 96.8433 75.3607 97.0655C75.1665 97.2876 74.9273 97.4659 74.6589 97.5887C74.3906 97.7114 74.0992 97.7757 73.8041 97.7774C73.6961 97.7654 67.1057 97.7966 59.5937 97.7966ZM47.9081 93.599C55.9841 93.6542 66.7337 93.6254 71.4281 93.599L68.7617 72.9014C68.7104 72.5089 68.7724 72.1098 68.9403 71.7514C69.1083 71.3929 69.3752 71.0899 69.7097 70.8782L81.1601 63.6182L79.8857 61.8926L69.4193 66.9998C69.1248 67.1438 68.8003 67.2162 68.4724 67.2111C68.1446 67.2059 67.8226 67.1234 67.5327 66.9701C67.2428 66.8169 66.9932 66.5973 66.8043 66.3292C66.6154 66.0612 66.4926 65.7523 66.4457 65.4278L64.4585 51.6542H53.9921L50.6801 72.3038C50.6337 72.5918 50.5273 72.8669 50.3678 73.1113C50.2083 73.3556 49.9993 73.5637 49.7543 73.722C49.5092 73.8804 49.2336 73.9856 48.9454 74.0306C48.6571 74.0757 48.3626 74.0598 48.0809 73.9838L41.3201 72.1502L40.5425 73.9334L48.5201 76.6982C48.9749 76.8548 49.3612 77.1644 49.6133 77.574C49.8654 77.9836 49.9676 78.468 49.9025 78.9446L47.9081 93.599Z" fill="#774D1B"/>
<path d="M99.7385 35.0534C98.8853 30.1581 96.3333 25.7204 92.5314 22.5207C88.7295 19.3211 83.9212 17.5645 78.9521 17.5598C78.2921 17.5598 77.6417 17.5982 76.9961 17.6582C74.729 12.4681 70.7443 8.21658 65.7118 5.61836C60.6793 3.02015 54.9057 2.2336 49.3615 3.39092C43.8174 4.54824 38.8406 7.57888 35.2678 11.9734C31.695 16.368 29.7439 21.8585 29.7425 27.5222C29.7425 27.6134 29.7425 27.7022 29.7425 27.791C27.093 28.2531 24.5922 29.3413 22.4481 30.9649C20.304 32.5885 18.5786 34.7006 17.4154 37.1255C16.2522 39.5504 15.6849 42.218 15.7606 44.9064C15.8363 47.5948 16.5529 50.2262 17.8507 52.5818C19.1485 54.9374 20.99 56.9491 23.2221 58.4494C25.4541 59.9498 28.0122 60.8955 30.6835 61.2078C33.3547 61.5202 36.062 61.1901 38.5799 60.2452C41.0979 59.3002 43.3539 57.7677 45.1601 55.775C48.4137 57.0917 51.911 57.6983 55.4179 57.5543C58.9249 57.4102 62.3606 56.5189 65.4953 54.9398C68.3767 57.331 71.8442 58.9097 75.5396 59.5131C79.2351 60.1164 83.0246 59.7224 86.5169 58.3718C89.5922 59.9093 93.1403 60.208 96.4295 59.2065C99.7186 58.2049 102.498 55.9794 104.195 52.9889C105.891 49.9984 106.375 46.4709 105.548 43.1337C104.72 39.7966 102.643 36.9044 99.7457 35.0534H99.7385Z" fill="#8CEAB2"/>
<path d="M32.6801 63.4C28.0815 63.4013 23.639 61.7325 20.1785 58.704C16.718 55.6755 14.4751 51.4933 13.8669 46.9351C13.2587 42.3769 14.3266 37.753 16.8719 33.9231C19.4173 30.0932 23.2668 27.318 27.7049 26.1136C28.0174 20.2282 30.2654 14.6109 34.0996 10.1349C37.9337 5.65894 43.1392 2.57502 48.9068 1.36254C54.6744 0.15007 60.681 0.876976 65.9929 3.43027C71.3048 5.98355 75.6243 10.2202 78.2801 15.4816C78.5201 15.4816 78.7361 15.4696 78.9545 15.4696C84.2651 15.4602 89.4172 17.279 93.5451 20.6202C97.673 23.9614 100.525 28.6215 101.622 33.8176C104.272 35.7431 106.243 38.4579 107.254 41.5727C108.266 44.6876 108.265 48.0426 107.253 51.1571C106.24 54.2716 104.268 56.9857 101.618 58.9103C98.9684 60.835 95.7774 61.8714 92.5025 61.8712C90.4127 61.8741 88.3445 61.4486 86.4257 60.6208C82.8903 61.8105 79.1214 62.1361 75.4344 61.5703C71.7474 61.0045 68.2496 59.5638 65.2337 57.3688C59.0611 60.0995 52.0845 60.3961 45.7025 58.1992C42.1834 61.5295 37.5252 63.3899 32.6801 63.4ZM54.3977 4.94076C48.4127 4.94775 42.6749 7.32836 38.4429 11.5604C34.2109 15.7924 31.8303 21.5302 31.8233 27.5152V27.7552C31.8289 28.2491 31.6587 28.7289 31.343 29.1088C31.0272 29.4887 30.5867 29.7439 30.1001 29.8288C27.7772 30.2331 25.5845 31.1862 23.7043 32.6089C21.8241 34.0315 20.3108 35.8826 19.2903 38.0081C18.2698 40.1335 17.7716 42.472 17.8371 44.8288C17.9026 47.1857 18.5299 49.4928 19.6669 51.5583C20.8039 53.6239 22.4177 55.388 24.374 56.704C26.3303 58.0201 28.5726 58.8499 30.9143 59.1246C33.256 59.3993 35.6295 59.1108 37.8372 58.2832C40.045 57.4555 42.0232 56.1127 43.6073 54.3664C43.8941 54.0522 44.2701 53.8332 44.685 53.7388C45.0998 53.6444 45.5336 53.6792 45.9281 53.8384C48.9069 55.0458 52.1093 55.6028 55.3209 55.472C58.5324 55.3412 61.6789 54.5256 64.5497 53.08C64.9114 52.8968 65.3187 52.8233 65.7217 52.8685C66.1246 52.9137 66.5055 53.0756 66.8177 53.3344C69.4232 55.4731 72.5469 56.8865 75.8734 57.4318C79.1998 57.977 82.6113 57.6349 85.7633 56.44C86.0333 56.3352 86.3223 56.2882 86.6117 56.3018C86.901 56.3155 87.1843 56.3895 87.4433 56.5192C89.0062 57.3081 90.7325 57.7192 92.4833 57.7192C94.9373 57.7211 97.3258 56.9273 99.2904 55.4569C101.255 53.9864 102.69 51.9185 103.38 49.5634C104.07 47.2084 103.977 44.6931 103.116 42.395C102.256 40.097 100.673 38.1399 98.6057 36.8176C98.3629 36.6611 98.1552 36.456 97.9957 36.2151C97.8363 35.9743 97.7285 35.703 97.6793 35.4184C96.9225 31.0001 94.626 26.9924 91.1969 24.1054C87.7678 21.2184 83.4275 19.6385 78.9449 19.6456C78.4121 19.6456 77.8505 19.6744 77.1785 19.7368C76.7432 19.7762 76.3065 19.6776 75.9304 19.4548C75.5543 19.2321 75.2579 18.8966 75.0833 18.496C73.3269 14.4698 70.4346 11.0432 66.7606 8.63559C63.0866 6.22801 58.7903 4.944 54.3977 4.94076Z" fill="#20B28F"/>
<path d="M41.2793 19.2855C41.2793 19.2855 43.7273 14.2647 47.9993 13.3599L41.2793 19.2855Z" fill="#8CEAB2"/>
<path d="M41.2768 21.3663C40.9236 21.3668 40.576 21.2774 40.2668 21.1066C39.9576 20.9358 39.6969 20.6892 39.5092 20.3899C39.3216 20.0906 39.2131 19.7486 39.194 19.3958C39.1749 19.0431 39.2458 18.6913 39.4 18.3735C39.5176 18.1335 42.352 12.4263 47.56 11.3223C48.101 11.2081 48.6653 11.3134 49.1287 11.6152C49.592 11.917 49.9165 12.3905 50.0308 12.9315C50.1451 13.4726 50.0397 14.0369 49.7379 14.5002C49.4361 14.9636 48.9626 15.2881 48.4216 15.4023C45.7648 15.9639 43.7104 19.0623 43.1416 20.2023C42.9695 20.5504 42.7039 20.8437 42.3746 21.0493C42.0452 21.2549 41.6651 21.3646 41.2768 21.3663Z" fill="#20B28F"/>
<path d="M71.7233 25.9598C72.184 25.4663 72.4304 24.8103 72.4083 24.1355C72.3863 23.4608 72.0977 22.8222 71.6057 22.3598C71.1358 21.9187 70.515 21.674 69.8705 21.6758C69.8298 21.0355 69.5466 20.4347 69.0785 19.9958C68.7257 19.6615 68.2842 19.4355 67.8067 19.3448C67.3291 19.2541 66.8355 19.3026 66.3847 19.4844C65.9339 19.6662 65.5448 19.9737 65.2637 20.3703C64.9827 20.7669 64.8215 21.2359 64.7993 21.7214C64.151 21.7906 63.5542 22.1064 63.1324 22.6035C62.7106 23.1006 62.4961 23.7408 62.5335 24.3917C62.5708 25.0426 62.857 25.6541 63.3329 26.0998C63.8088 26.5454 64.4378 26.7909 65.0897 26.7854C65.1291 27.4346 65.4161 28.0438 65.8915 28.4876C66.3668 28.9313 66.9944 29.1758 67.6446 29.1706C68.2949 29.1653 68.9184 28.9108 69.3866 28.4594C69.8547 28.0081 70.1319 27.3943 70.1609 26.7446C70.7587 26.6781 71.313 26.3997 71.7233 25.9598Z" fill="#F99E16"/>
<path d="M67.48 25.2711C68.0646 25.2711 68.5384 24.7972 68.5384 24.2127C68.5384 23.6282 68.0646 23.1543 67.48 23.1543C66.8955 23.1543 66.4216 23.6282 66.4216 24.2127C66.4216 24.7972 66.8955 25.2711 67.48 25.2711Z" fill="white"/>
<path d="M89.7785 44.8217C90.1192 44.4601 90.3467 44.0066 90.4327 43.5173C90.5187 43.0279 90.4595 42.5241 90.2625 42.068C90.0654 41.6119 89.7391 41.2234 89.3239 40.9506C88.9086 40.6778 88.4225 40.5326 87.9257 40.5329C87.885 39.8925 87.6017 39.2918 87.1337 38.8529C86.781 38.5186 86.3398 38.2926 85.8624 38.2019C85.385 38.1111 84.8917 38.1593 84.4409 38.3409C83.9902 38.5224 83.6011 38.8295 83.3198 39.2258C83.0386 39.622 82.8771 40.0907 82.8545 40.5761C82.2062 40.6452 81.6094 40.961 81.1876 41.4581C80.7658 41.9552 80.5513 42.5955 80.5886 43.2463C80.626 43.8972 80.9122 44.5088 81.3881 44.9544C81.8639 45.4 82.493 45.6455 83.1449 45.6401C83.184 46.2892 83.4708 46.8985 83.9459 47.3424C84.4211 47.7864 85.0484 48.0311 85.6987 48.0262C86.3489 48.0213 86.9725 47.7671 87.4409 47.316C87.9093 46.8649 88.1867 46.2513 88.2161 45.6017C88.8131 45.5358 89.367 45.2592 89.7785 44.8217Z" fill="#F99E16"/>
<path d="M85.5352 44.1422C86.1197 44.1422 86.5936 43.6683 86.5936 43.0838C86.5936 42.4993 86.1197 42.0254 85.5352 42.0254C84.9507 42.0254 84.4768 42.4993 84.4768 43.0838C84.4768 43.6683 84.9507 44.1422 85.5352 44.1422Z" fill="white"/>
<path d="M38.8505 44.2505C39.1903 43.889 39.417 43.436 39.5026 42.9472C39.5883 42.4585 39.5291 41.9554 39.3325 41.4999C39.1358 41.0443 38.8102 40.6562 38.3958 40.3834C37.9814 40.1105 37.4962 39.9648 37.0001 39.9641C36.9557 39.3184 36.6667 38.7139 36.1919 38.274C35.7171 37.8341 35.0924 37.5919 34.4452 37.5968C33.798 37.6017 33.177 37.8533 32.7089 38.3004C32.2409 38.7474 31.961 39.3562 31.9265 40.0025C31.2779 40.0716 30.6809 40.3876 30.259 40.885C29.8372 41.3823 29.6228 42.0229 29.6605 42.674C29.6981 43.3251 29.9849 43.9368 30.4612 44.3822C30.9376 44.8276 31.5671 45.0726 32.2193 45.0665C32.2584 45.7156 32.5452 46.325 33.0203 46.7689C33.4955 47.2129 34.1228 47.4576 34.7731 47.4527C35.4233 47.4478 36.0469 47.1935 36.5153 46.7424C36.9837 46.2914 37.2611 45.6778 37.2905 45.0281C37.8864 44.9628 38.4395 44.6871 38.8505 44.2505Z" fill="#F99E16"/>
<path d="M34.6072 43.5733C35.1918 43.5733 35.6656 43.0995 35.6656 42.5149C35.6656 41.9304 35.1918 41.4565 34.6072 41.4565C34.0227 41.4565 33.5488 41.9304 33.5488 42.5149C33.5488 43.0995 34.0227 43.5733 34.6072 43.5733Z" fill="white"/>
<path d="M60.7577 192.409C90.0456 192.409 113.788 169.402 113.788 141.021C113.788 112.639 90.0456 89.6318 60.7577 89.6318C31.4698 89.6318 7.72729 112.639 7.72729 141.021C7.72729 169.402 31.4698 192.409 60.7577 192.409Z" fill="#EFB886"/>
<path d="M60.7601 194.493C30.3713 194.493 5.64648 170.493 5.64648 141.021C5.64648 111.549 30.3689 87.5513 60.7601 87.5513C91.1513 87.5513 115.871 111.537 115.871 141.021C115.871 170.505 91.1465 194.493 60.7601 194.493ZM60.7601 91.7201C32.6801 91.7201 9.81289 113.838 9.81289 141.026C9.81289 168.213 32.6657 190.326 60.7601 190.326C88.8545 190.326 111.705 168.208 111.705 141.021C111.705 113.834 88.8401 91.7201 60.7601 91.7201Z" fill="#333333"/>
<path d="M60.7601 194.493C30.3713 194.493 5.64648 170.493 5.64648 141.021C5.64648 111.549 30.3689 87.5513 60.7601 87.5513C91.1513 87.5513 115.871 111.537 115.871 141.021C115.871 170.505 91.1465 194.493 60.7601 194.493ZM60.7601 91.7201C32.6801 91.7201 9.81289 113.838 9.81289 141.026C9.81289 168.213 32.6657 190.326 60.7601 190.326C88.8545 190.326 111.705 168.208 111.705 141.021C111.705 113.834 88.8401 91.7201 60.7601 91.7201Z" fill="#333333"/>
<path d="M29.6584 169.552C35.1923 169.552 39.6784 165.066 39.6784 159.532C39.6784 153.998 35.1923 149.512 29.6584 149.512C24.1245 149.512 19.6384 153.998 19.6384 159.532C19.6384 165.066 24.1245 169.552 29.6584 169.552Z" fill="#F99E16"/>
<path d="M93.4599 169.552C98.9938 169.552 103.48 165.066 103.48 159.532C103.48 153.998 98.9938 149.512 93.4599 149.512C87.926 149.512 83.4399 153.998 83.4399 159.532C83.4399 165.066 87.926 169.552 93.4599 169.552Z" fill="#F99E16"/>
<path d="M46.8592 115.142C46.8592 115.142 39.64 142.144 2.13037 138.39C5.54557 114.208 16.0888 90.9329 35.4064 90.7601C74.2696 65.9441 118.134 91.2857 119.56 137.267C88.4512 135.59 74.5528 130.338 46.8592 115.142Z" fill="#875008"/>
<path d="M9.01127 140.827C6.64426 140.823 4.2789 140.702 1.92407 140.462C1.64517 140.433 1.37484 140.349 1.12923 140.214C0.883628 140.079 0.667788 139.896 0.494612 139.675C0.321437 139.455 0.19448 139.202 0.12133 138.931C0.0481794 138.66 0.0303354 138.378 0.0688664 138.1C4.36007 107.663 17.3201 89.2577 34.7825 88.6865C53.2625 77.1041 73.8425 75.7553 91.3601 85.0049C109.6 94.6385 120.928 114.153 121.646 137.203C121.655 137.491 121.604 137.778 121.496 138.046C121.388 138.313 121.226 138.555 121.02 138.757C120.814 138.959 120.568 139.116 120.298 139.217C120.028 139.319 119.74 139.364 119.452 139.348C88.8689 137.697 74.9321 132.789 47.9633 118.118C45.2345 124.435 35.5889 140.827 9.01127 140.827ZM4.52567 136.507C37.8353 138.832 44.5745 115.612 44.8457 114.602C44.9283 114.297 45.0791 114.015 45.2864 113.778C45.4938 113.54 45.7525 113.352 46.0429 113.229C46.3334 113.105 46.6481 113.049 46.9632 113.065C47.2784 113.081 47.5859 113.168 47.8625 113.32C74.8913 128.155 88.4225 133.283 117.374 135.062C116.061 114.52 105.722 97.2977 89.4161 88.6865C73.1105 80.0753 53.8241 81.4673 36.5201 92.5097C36.1911 92.7205 35.8091 92.8336 35.4185 92.8361C13.8041 93.0353 6.57047 123.911 4.52567 136.504V136.507Z" fill="#B7892C"/>
<path d="M12.8393 139.35C12.6711 139.35 12.5036 139.33 12.3401 139.29C11.804 139.158 11.3423 138.818 11.0565 138.346C10.7707 137.873 10.6843 137.307 10.8161 136.77C15.0233 119.654 21.6665 108.849 30.5633 104.654C35.5529 102.302 40.4777 102.573 43.7273 103.662C47.0873 100.643 51.2009 99.2007 55.9505 99.3807C77.0537 100.168 104.613 133.24 105.777 134.639C105.954 134.85 106.088 135.093 106.17 135.356C106.252 135.618 106.282 135.894 106.257 136.168C106.232 136.442 106.154 136.708 106.025 136.952C105.897 137.195 105.722 137.41 105.51 137.586C105.298 137.761 105.053 137.892 104.79 137.973C104.527 138.053 104.251 138.08 103.977 138.053C103.703 138.026 103.438 137.945 103.195 137.814C102.953 137.684 102.739 137.507 102.566 137.294C102.295 136.962 75.0377 104.255 55.7945 103.542C51.7289 103.386 48.4313 104.697 45.7145 107.536C45.4109 107.851 45.0156 108.063 44.5847 108.141C44.1539 108.219 43.7095 108.159 43.3145 107.97C42.8081 107.73 38.1953 105.666 32.3513 108.422C27.0425 110.92 19.7201 118.036 14.8601 137.764C14.7491 138.216 14.4897 138.618 14.1234 138.906C13.7571 139.193 13.305 139.35 12.8393 139.35Z" fill="#B7892C"/>
<path d="M4.15365 129.726C3.79647 129.726 3.44522 129.635 3.13371 129.46C2.82221 129.285 2.56094 129.033 2.37505 128.728C2.18916 128.423 2.08491 128.076 2.07234 127.719C2.05976 127.362 2.13928 127.007 2.30324 126.69C2.89604 125.541 16.9792 98.4829 31.5832 94.8229C34.7896 94.0237 37.804 94.3429 40.5688 95.8093C47.7112 89.6653 55.9937 86.8261 65.2024 87.3373C92.0368 88.8541 117.566 118.213 118.641 119.464C118.82 119.671 118.957 119.912 119.043 120.172C119.13 120.433 119.164 120.707 119.143 120.981C119.123 121.254 119.049 121.521 118.925 121.766C118.802 122.011 118.631 122.229 118.423 122.408C118.215 122.586 117.974 122.722 117.713 122.807C117.452 122.892 117.177 122.925 116.904 122.904C116.63 122.883 116.364 122.808 116.12 122.683C115.875 122.558 115.658 122.387 115.48 122.178C115.24 121.888 90.016 92.8981 64.9576 91.4941C56.4136 91.0261 48.7624 93.8461 42.2224 99.9133C41.8753 100.236 41.4284 100.43 40.9558 100.464C40.4831 100.498 40.0131 100.37 39.6232 100.101C37.48 98.6197 35.1808 98.2141 32.5912 98.8645C19.792 102.071 6.13604 128.332 5.99924 128.598C5.82435 128.937 5.55976 129.222 5.23431 129.42C4.90887 129.619 4.53506 129.725 4.15365 129.726Z" fill="#B7892C"/>
<path d="M9.01127 140.827C6.64426 140.823 4.2789 140.702 1.92407 140.462C1.64517 140.433 1.37484 140.349 1.12923 140.214C0.883628 140.079 0.667788 139.896 0.494612 139.675C0.321437 139.455 0.19448 139.202 0.12133 138.931C0.0481794 138.66 0.0303354 138.378 0.0688664 138.1C4.36007 107.663 17.3201 89.2577 34.7825 88.6865C53.2625 77.1041 73.8425 75.7553 91.3601 85.0049C109.6 94.6385 120.928 114.153 121.646 137.203C121.655 137.491 121.604 137.778 121.496 138.046C121.388 138.313 121.226 138.555 121.02 138.757C120.814 138.959 120.568 139.116 120.298 139.217C120.028 139.319 119.74 139.364 119.452 139.348C88.8689 137.697 74.9321 132.789 47.9633 118.118C45.2345 124.435 35.5889 140.827 9.01127 140.827ZM4.52567 136.507C37.8353 138.832 44.5745 115.612 44.8457 114.602C44.9283 114.297 45.0791 114.015 45.2864 113.778C45.4938 113.54 45.7525 113.352 46.0429 113.229C46.3334 113.105 46.6481 113.049 46.9632 113.065C47.2784 113.081 47.5859 113.168 47.8625 113.32C74.8913 128.155 88.4225 133.283 117.374 135.062C116.061 114.52 105.722 97.2977 89.4161 88.6865C73.1105 80.0753 53.8241 81.4673 36.5201 92.5097C36.1911 92.7205 35.8091 92.8336 35.4185 92.8361C13.8041 93.0353 6.57047 123.911 4.52567 136.504V136.507Z" fill="#4C3E01"/>
<path d="M36.1169 147.822C37.9951 147.822 39.5177 146.3 39.5177 144.421C39.5177 142.543 37.9951 141.021 36.1169 141.021C34.2387 141.021 32.7161 142.543 32.7161 144.421C32.7161 146.3 34.2387 147.822 36.1169 147.822Z" fill="#333333"/>
<path d="M86.217 147.822C88.0952 147.822 89.6178 146.3 89.6178 144.421C89.6178 142.543 88.0952 141.021 86.217 141.021C84.3387 141.021 82.8162 142.543 82.8162 144.421C82.8162 146.3 84.3387 147.822 86.217 147.822Z" fill="#333333"/>
<path d="M68.1352 161.839H56.92C56.7078 161.85 56.4955 161.819 56.296 161.746C56.0965 161.673 55.914 161.56 55.7597 161.414C55.6053 161.268 55.4824 161.092 55.3983 160.896C55.3143 160.701 55.271 160.491 55.271 160.279C55.271 160.066 55.3143 159.856 55.3983 159.661C55.4824 159.466 55.6053 159.29 55.7597 159.144C55.914 158.998 56.0965 158.885 56.296 158.812C56.4955 158.738 56.7078 158.707 56.92 158.719H66.004L62.0368 145.979C61.9207 145.586 61.9641 145.162 62.1576 144.801C62.3511 144.439 62.6792 144.168 63.0709 144.046C63.4627 143.924 63.8867 143.961 64.2513 144.149C64.616 144.337 64.8921 144.661 65.02 145.051L69.6184 159.815C69.6914 160.049 69.7085 160.297 69.6681 160.538C69.6278 160.78 69.5311 161.008 69.386 161.206C69.2409 161.403 69.0514 161.563 68.8328 161.673C68.6143 161.784 68.3728 161.841 68.128 161.841L68.1352 161.839Z" fill="#333333"/>
<path d="M62.5313 178.31C54.4937 178.31 50.7929 172.962 50.6393 172.734C50.418 172.391 50.3397 171.976 50.421 171.576C50.5024 171.176 50.737 170.824 51.0746 170.594C51.4123 170.365 51.8262 170.277 52.2279 170.349C52.6296 170.421 52.9871 170.648 53.2241 170.98C53.3561 171.172 56.2265 175.187 62.5313 175.187C68.9273 175.187 71.8073 171.03 71.8361 170.987C72.0678 170.644 72.4263 170.407 72.8327 170.328C73.2391 170.25 73.6602 170.335 74.0033 170.567C74.3464 170.799 74.5834 171.157 74.6621 171.564C74.7409 171.97 74.655 172.391 74.4233 172.734C74.2697 172.962 70.5689 178.31 62.5313 178.31Z" fill="#333333"/>
</svg>
