<svg width="19" height="33" viewBox="0 0 19 33" fill="none" xmlns="http://www.w3.org/2000/svg">
<path d="M3.58096 31.5755C2.81289 32.3694 1.54673 32.3902 0.752913 31.6222C-0.0409021 30.8541 -0.0617723 29.5879 0.706298 28.7941L3.58096 31.5755ZM15.384 16.5006L16.8214 15.1099L18.167 16.5006L16.8214 17.8913L15.384 16.5006ZM0.706298 4.20712C-0.0617723 3.41331 -0.0409021 2.14715 0.752913 1.37908C1.54673 0.611007 2.81289 0.631877 3.58096 1.42569L0.706298 4.20712ZM0.706298 28.7941L13.9467 15.1099L16.8214 17.8913L3.58096 31.5755L0.706298 28.7941ZM13.9467 17.8913L0.706298 4.20712L3.58096 1.42569L16.8214 15.1099L13.9467 17.8913Z" fill="#5B5B5B"/>
</svg>
