<svg width="20" height="30" viewBox="0 0 20 30" fill="none" xmlns="http://www.w3.org/2000/svg">
<path d="M15.6544 29.1935C16.4653 29.9435 17.7307 29.8941 18.4806 29.0832C19.2306 28.2723 19.1812 27.0069 18.3703 26.2569L15.6544 29.1935ZM3.29907 15.0423L1.9411 13.574L0.353514 15.0423L1.9411 16.5106L3.29907 15.0423ZM18.3703 3.82767C19.1812 3.07768 19.2306 1.81232 18.4806 1.0014C17.7307 0.19048 16.4653 0.141087 15.6544 0.891077L18.3703 3.82767ZM18.3703 26.2569L4.65705 13.574L1.9411 16.5106L15.6544 29.1935L18.3703 26.2569ZM4.65705 16.5106L18.3703 3.82767L15.6544 0.891077L1.9411 13.574L4.65705 16.5106Z" fill="#5B5B5B"/>
</svg>
