<svg xmlns="http://www.w3.org/2000/svg" viewBox="0 0 214.1339 197.3815">
  <defs>
    <style>
      .cls-1 {
        fill: #ff6f00;
      }

      .cls-2 {
        fill: none;
      }

      .cls-3 {
        fill: #ff5e8b;
      }

      .cls-4 {
        fill: #050505;
      }

      .cls-5 {
        fill: #612900;
      }

      .cls-6 {
        fill: #171553;
      }

      .cls-7 {
        opacity: 0.15;
      }

      .cls-8 {
        fill: #2c02ff;
      }

      .cls-9 {
        opacity: 0.25;
      }

      .cls-10 {
        fill: #fff6f5;
      }
    </style>
  </defs>
  <g id="Layer_2" data-name="Layer 2">
    <g id="Layer_1-2" data-name="Layer 1">
      <g>
        <path class="cls-1" d="M187.5645,98.4242c-.2966-.2041-.55-.39-.8466-.5942l-.0127-.0317a6.5838,6.5838,0,0,1-.8592-.6259c-7.2752-5.7421-14.3089-17.7154-19.822-23.0865-.4573-.4271-.859-.8046-1.2793-1.14-.2227-.1984-.4636-.3528-.63-.5017-.198-.1364-.3958-.273-.593-.408-.4269-.2606-.9092-.571-1.4657-.8867a4.8238,4.8238,0,0,1-.8225-.5337c-.4817-.3089-1.0077-.6386-1.5269-1.041-.5931-.408-1.23-.8354-1.8792-1.2945-.3092-.2358-.6184-.4715-.9579-.6934-.1669-.1489-.3649-.2853-.52-.404a4.2218,4.2218,0,0,1-.4946-.3405c-1.2792-.9593-2.6024-1.94-3.9373-2.9485-.4515-.3226-.8592-.6259-1.28-.9609-.5072-.3722-.9826-.7553-1.4589-1.14-.2408-.1545-.4077-.3033-.6057-.44a3.3561,3.3561,0,0,1-.4206-.335,2.4787,2.4787,0,0,1-.3646-.2854c-.0987-.0674-.1665-.1473-.2658-.2163l-.0308.0123c-8.6678,5.9675-22.926,15.0958-30.041,15.2426-10.6664.2354-22.1206,8.03-23.0845,18.3867q-.0659.51-.1309,1.0207a4.8172,4.8172,0,0,1-.1869.7908,16.0551,16.0551,0,0,1-4.2706,7.5505,14.0608,14.0608,0,0,1-1.1828,1.0811,9.0127,9.0127,0,0,1-.6818.6291c-.2229.1607-.4149.3091-.6376.47a28.0178,28.0178,0,0,1-4.08,2.632c-.3714.148-.7307.3263-1.0894.5061-.4641.1851-.9163.4-1.3186.5608l-.4334.1728a1.1554,1.1554,0,0,1-.3214.0931c-.2167.0864-.415.1287-.6007.2028-.26.0685-.489.1231-.7177.1793a12.8727,12.8727,0,0,1-1.7819.3883s.012.03-.031.0123a.1144.1144,0,0,1-.0744-.0071,3.5494,3.5494,0,0,1-1.0394.0922c-2.7964.0029-1.551,3.8462-.0461,8.16l-.0309.0123a1.0158,1.0158,0,0,0-.2908-.0995.5505.5505,0,0,1,.26.1119l.043.0178c.3344.1189.68.2665.9837.3977a3.5925,3.5925,0,0,1,.63.3214l.0436.0194c.3276.1916.6867.3725,1.0142.5641a16.0893,16.0893,0,0,1,3.2083,2.3793,6.7015,6.7015,0,0,1,.5685.5264,15.5959,15.5959,0,0,1,1.5257,1.7578,17.5377,17.5377,0,0,1,2.7351,5.33c.1172.3841.2345.7682.3207,1.1646a15.7051,15.7051,0,0,1,.2951,1.8194,4.6705,4.6705,0,0,1,.0854.754,15.5876,15.5876,0,0,1-.5872,5.3639c-.1.29-.1675.5694-.298.8718a9.6349,9.6349,0,0,1-.608,1.5332c-.0745.1733-.1609.3164-.2354.49a1.7284,1.7284,0,0,0-.174.283c-.1236.23-.2289.4153-.3343.6009a15.582,15.582,0,0,1-2.4844,3.0344c-.0809.0673-.1489.1662-.26.2474l-.0617.0246a5.8586,5.8586,0,0,1-.5639.4752,8.9394,8.9394,0,0,1-1.1331.8459c-.396.2665-.8545.5561-1.2939.8031-.5943.3088-1.2006.5873-1.7886.8218-.6783,9.0937-2.7682,19.1443-8.6158,26.0679.2529.1847.4883.4148.7728.5886.8959.7181,1.78,1.4059,2.6822,2.05,1.1009.7817,2.1889,1.5318,3.2766,2.28a6.7416,6.7416,0,0,0,.6246.3971c1.1064.706,2.2134,1.4135,3.37,2.0646.241.1543.4819.3087.7543.4523,1.057.5821,2.1145,1.1657,3.16,1.7174,1.3167.694,2.6088,1.3259,3.9636,1.9346a.8521.8521,0,0,0,.3153.1615c1.2365.5823,2.4792,1.09,3.7226,1.6,1.3173.5151,2.6345,1.03,4.0129,1.5191.0437.0194.0437.0194.0746.007,1.2926.4531,2.6161.8939,3.915,1.2727a.8547.8547,0,0,0,.2471.08q1.9017.5868,3.86,1.0443c1.2432.3292,2.5052.6158,3.7418.8391a.7411.7411,0,0,0,.31.0569c1.1439.26,2.2948.4475,3.4449.6335,1.1817.175,2.3633.35,3.52.4617.5758.0945,1.17.1449,1.7322.2061a83.0941,83.0941,0,0,0,10.8887.3222c1.3053-.0546,2.5986-.1394,3.9228-.2366l.031-.0124c.8719-.0621,1.7013-.1407,2.5612-.2331.5754-.0858,1.163-.1414,1.7694-.24,1.2565-.177,2.5-.3874,3.7625-.6386.47-.0806.9717-.172,1.4605-.2951.8352-.1544,1.6583-.3389,2.5-.5676a69.82,69.82,0,0,0,15.0528-5.6062c.953-.4885,1.894-1.0073,2.8538-1.5687.9409-.5187,1.888-1.1118,2.8042-1.6925,11.0512-7.0964,19.2652-16.1808,24.4239-26.4515.1609-.3163.3532-.6434.502-.99.0183-.0441.0183-.0441.0493-.0564a57.41,57.41,0,0,0,2.5125-5.8425c.3845-1.015.7258-2.0478,1.0552-3.1108l.0554-.1307q.4941-1.5946.8947-3.1536c.2858-1.0825.51-2.14.7214-3.2282.1491-.7057.2981-1.4113.423-2.1774a1.88,1.88,0,0,0,.0868-.5022c.0189-.0426.0189-.0426.0062-.0743a2.81,2.81,0,0,1,.0564-.4884c-.012-.03.0188-.0425.0061-.0742.0444-.5186.0881-1.0387.1628-1.5711.019-.582.0943-1.1129.1252-1.6647a7.95,7.95,0,0,0,.0138-.8653l-.0127-.0318a.6144.6144,0,0,1-.2229.1607.4725.4725,0,0,1-.1919.1484c-.0184.044-.0681.0989-.1111.081-.031.0124-.05.0549-.0809.0673a.46.46,0,0,1-.161.136,4.4918,4.4918,0,0,1-.817.4694c-.0183.044-.0682.099-.1113.0811l-.0617.0246a6.3187,6.3187,0,0,1-.6625.4078q-.8912.463-1.82.8325l-.4642.1851a9.815,9.815,0,0,1-.9531.3083,11.078,11.078,0,0,1-1.4976.3817c-.427.0984-.8971.179-1.3368.2458-.1358.0191-.2723.0367-.3771.0435a11.6674,11.6674,0,0,1-1.2068.1221c-.0738-.0056-.1358.0192-.1794,0a.8737.8737,0,0,0-.2414.0244.5454.5454,0,0,1-.2224-.0181,1.2157,1.2157,0,0,1-.39.0118,2.2908,2.2908,0,0,1-.285.005c-.043-.0179-.0738-.0056-.1174-.025l-.062.0247c-.074-.0055-.1048.0068-.1478-.0111-.0746-.007-.1492-.014-.223-.02a2.9179,2.9179,0,0,1-.6251-.038,1.1552,1.1552,0,0,1-.3278-.0129c-.074-.0055-.1486-.0126-.2224-.0182-.2971-.0251-.5631-.0627-.8722-.1181-.1921-.032-.3835-.0625-.5756-.0945a.5687.5687,0,0,1-.2041-.0622,1.3159,1.3159,0,0,1-.34-.043c-.309-.0554-.5878-.1247-.9093-.2119-.043-.0179-.1176-.0249-.2041-.0622a10.3452,10.3452,0,0,1-1.4412-.4657c-.3766-.1353-.7667-.3038-1.1562-.4707a1.0012,1.0012,0,0,1-.3462-.1492,6.7207,6.7207,0,0,1-.8592-.4455.4732.4732,0,0,1-.1423-.0869l-.031.0124a9.9649,9.9649,0,0,1-1.2674-.75,13.1846,13.1846,0,0,1-1.2115-.88l-.0126-.0317-.031.0124a6.9986,6.9986,0,0,1-.6-.5141,16.7017,16.7017,0,0,1-4.7928-18.8564,9.101,9.101,0,0,1,.5707-1.2679c.1859-.4331.4281-.8151.657-1.23a17.839,17.839,0,0,1,9.9629-7.4874,6.725,6.725,0,0,1,.78-.2025l.2476-.0987c.26-.0684.5318-.1052.8231-.1846.1667-.0314.3025-.05.4389-.0681a11.7491,11.7491,0,0,1,1.4972-.203c.1056-.0053.21-.0121.316-.0174.1358-.0191.2414-.0244.3771-.0435.21-.0121.39-.0118.5694-.0116a.2588.2588,0,0,0,.1794,0c.1175.025.2534.0058.3709.0308a.5388.5388,0,0,1,.3159-.0174l.0431.0179.0617-.0247a2.0623,2.0623,0,0,1,.2971.0252c.1484.0126.328.0128.4764.0255.223.02.4018.0184.6249.038.1486.0126.34.0431.4885.0557a1.205,1.205,0,0,1,.31.0569.1386.1386,0,0,1,.16.0429c.019-.0426.0746.007.0746.007a.9958.9958,0,0,1,.4139.0486c.0436.0194.1183.0264.1613.0443.0738.0056.13.0552.2041.0622a1.3993,1.3993,0,0,1,.4265.08c.031-.0123.062-.0247.0746.007a.6839.6839,0,0,1,.2351.05,9.273,9.273,0,0,1,1.3727.3844c.1176.0249.2471.08.4084.1244l.2161.0925a.5793.5793,0,0,1,.26.1118c.1611.0443.26.1118.4209.1562l-.0127-.0318c-.6228-1.8322-1.3507-3.6576-2.1405-5.4583C188.1644,98.7594,187.88,98.5856,187.5645,98.4242Zm-78.63,25.075-.031.0124a6.9168,6.9168,0,0,1-3.9721.293,5.07,5.07,0,0,1-1.008-.2793,7.093,7.093,0,0,1-4.4333-8.42,3.1806,3.1806,0,0,1,.2177-.8031,6.3241,6.3241,0,0,1,.837-1.5894l.4214-.5621c.1174-.1554.2783-.2914.4273-.4576a7.3276,7.3276,0,0,1,.6439-.544,4.78,4.78,0,0,1,.7925-.5314,8.6522,8.6522,0,0,1,.83-.4376,3.51,3.51,0,0,1,.7984-.2465l.031-.0124a5.9006,5.9006,0,0,1,1.0518-.2407,7.8114,7.8114,0,0,1,1.318-.0229c.1176.0249.2534.0058.371.0307l.0308-.0123a9.1114,9.1114,0,0,1,1.6705.411,7.2033,7.2033,0,0,1,4.1836,4.1061,7.0916,7.0916,0,0,1,.0191,5.0853,7.3456,7.3456,0,0,1-2.2865,3.1709A6.8688,6.8688,0,0,1,108.9341,123.4992Zm41.1321-7.7557a6.9415,6.9415,0,0,1-3.7954,2.445,7.1741,7.1741,0,1,1-3.5359-13.9056,7.0126,7.0126,0,0,1,1.2255-.1647c.0493-.0564.0927-.0369.1668-.0314a8.2792,8.2792,0,0,1,1.1942.0264,7.4456,7.4456,0,0,1,2.7335.9189l.0431.0179a7.0737,7.0737,0,0,1,3.3361,4.4089,8.1575,8.1575,0,0,1,.1412.984,4.9612,4.9612,0,0,1,.0294,1.4226l-.0377.4459a.0323.0323,0,0,1-.0187.0425,6.5446,6.5446,0,0,1-.7263,2.2266A6.9293,6.9293,0,0,1,150.0662,115.7435Z"/>
        <path class="cls-1" d="M104.3482,111.6787a5.0269,5.0269,0,0,0,3.1923,3.9451,5.9849,5.9849,0,0,0,1.1763.2949l.0327-.0039a4.9211,4.9211,0,0,0,4.356-1.7314,7.0507,7.0507,0,0,0-4.1836-4.0945,7.7959,7.7959,0,0,0-1.6592-.4046l-.0332.004A6.9759,6.9759,0,0,0,104.3482,111.6787Z"/>
        <path class="cls-1" d="M142.8062,110.5808a5.1629,5.1629,0,0,0,6.0207,3.4711,4.5824,4.5824,0,0,0,1.5984-.6617,4.1193,4.1193,0,0,1,1.1937-1.5194,7.19,7.19,0,0,0-.1872-2.3934,7.0552,7.0552,0,0,0-3.3509-4.43,5.0153,5.0153,0,0,0-1.8725.0571A4.3349,4.3349,0,0,0,142.8062,110.5808Z"/>
        <path class="cls-1" d="M107.2318,123.1106a7.8136,7.8136,0,0,0,1.6592.4046l.0332-.004a7.2118,7.2118,0,0,0,4.223-4.2322,7.1126,7.1126,0,0,0-.0417-5.0956,4.9211,4.9211,0,0,1-4.356,1.7314l-.0327.0039a5.9849,5.9849,0,0,1-1.1763-.2949,5.0269,5.0269,0,0,1-3.1923-3.9451,7.0172,7.0172,0,0,0-1.3413,2.2417A7.1445,7.1445,0,0,0,107.2318,123.1106Z"/>
        <path class="cls-1" d="M137.5261,112.9939a7.1951,7.1951,0,0,0,8.7441,5.1907,7.0432,7.0432,0,0,0,5.272-5.8347,3.6835,3.6835,0,0,1-1.1169,1.04,4.5824,4.5824,0,0,1-1.5984.6617,5.1629,5.1629,0,0,1-6.0207-3.4711,4.3349,4.3349,0,0,1,3.4022-5.4758,5.0153,5.0153,0,0,1,1.8725-.0571,7.1593,7.1593,0,0,0-10.5548,7.946Z"/>
        <path class="cls-1" d="M103.9239,123.5081a6.9475,6.9475,0,0,0,4.9671.0071,7.8136,7.8136,0,0,1-1.6592-.4046,7.1445,7.1445,0,0,1-4.2249-9.19,7.2166,7.2166,0,0,1,4.2226-4.2321,7.116,7.116,0,0,0-1.6777,0,5.8787,5.8787,0,0,0-1.08.23l-.0327.004a6.8051,6.8051,0,0,0-.7744.261,6.6372,6.6372,0,0,0-.82.434,4.1927,4.1927,0,0,0-.8084.5334c-.2159.16-.4278.3535-.6393.5466a5.8257,5.8257,0,0,0-.4154.4526l-.4363.5557a7.0092,7.0092,0,0,0-.8468,1.6118A7.1445,7.1445,0,0,0,103.9239,123.5081Z"/>
        <path class="cls-2" d="M194.8927,133.4037a8.9682,8.9682,0,0,1-.02.9165c-.0784,1.0726-.18,2.2077-.3013,3.3a8.6577,8.6577,0,0,1-.1256.9127,9.71,9.71,0,0,0,.18-.9637c.1524-1.0806.2854-2.2041.3752-3.3078.0418-.3044.0526-.62.0748-.9675A.5773.5773,0,0,1,194.8927,133.4037Z"/>
        <path class="cls-2" d="M146.5648,59.7609c.2967.2329.63.4949.9635.7568,5.6613,4.3867,12.5219,9.5355,15.9835,11.5355,6.4,3.8282,15.5915,21.6831,24.94,26.8684.7886,1.818,1.5118,3.6438,2.172,5.5106a6.5813,6.5813,0,0,1,.7051.2844c-.9012-2.4754-1.9018-4.9391-3.0309-7.3538-9.3321-5.0528-18.7386-22.1772-25.1262-25.9063-3.3875-1.9419-10.01-6.7837-15.614-10.9759C147.228,60.2518,146.8946,59.99,146.5648,59.7609Z"/>
        <path class="cls-2" d="M129.8462,125.9285s15.5839,2.337,3.4076,10.5567"/>
        <path class="cls-3" d="M75.2768,118.5613c.1731.0464.317.13.4574.18.0291-.0371.0291-.0371-.004-.0331C75.59,118.6579,75.45,118.6077,75.2768,118.5613Z"/>
        <path class="cls-3" d="M168.9617,129.9251a18.6877,18.6877,0,0,0,25.1415,4.074,5.794,5.794,0,0,0,.79-.5954c.0631-.936.1069-1.9149.0959-2.843.0356-1.0529.0087-2.129-.03-3.1741a5.15,5.15,0,0,0-.03-.6862,78.16,78.16,0,0,0-1.1377-10.3376c-.2027-1.1769-.4367-2.3655-.7446-3.5459-.234-1.1886-.5421-2.3691-.8929-3.53-.4617-1.6284-.9661-3.2373-1.5329-4.8691a18.8669,18.8669,0,0,0-17.5887,1.7149A16.4541,16.4541,0,0,0,168.9617,129.9251Z"/>
        <path class="cls-2" d="M190.6211,104.4177c.5668,1.6318,1.0712,3.2407,1.5329,4.8691.3508,1.161.6589,2.3415.8929,3.53.3079,1.18.5419,2.369.7446,3.5459A78.16,78.16,0,0,1,194.9292,126.7a5.15,5.15,0,0,1,.03.6862c.0385,1.0451.0654,2.1212.03,3.1741.011.9281-.0328,1.907-.0959,2.843a.5773.5773,0,0,0,.1829-.11l.1683-2.1764c.0507-1.1894.07-2.3906.0468-3.5721.0124-.99-.0493-1.9729-.088-3.0178-.0044-.1793-.017-.4327-.0411-.6549a73.64,73.64,0,0,0-1.2918-9.8263c-.2572-1.1262-.5028-2.2835-.8028-3.39s-.5883-2.2441-.92-3.3623c-.2874-.8529-.5634-1.7373-.82-2.5788A5.9389,5.9389,0,0,0,190.6211,104.4177Z"/>
        <path class="cls-4" d="M141.4624,110.0107a6.3431,6.3431,0,0,0,.1826.8223,6.45,6.45,0,0,0,7.5165,4.3747,5.49,5.49,0,0,0,3.3857-2.1379.0409.0409,0,0,0,.0363-.0466,5.46,5.46,0,0,0,.77-4.737,6.3538,6.3538,0,0,0-5.1344-4.4075,6.2055,6.2055,0,0,0-2.3362.0694,5.8957,5.8957,0,0,0-2.4943,1.1865,5.1614,5.1614,0,0,0-1.4876,1.91A5.6914,5.6914,0,0,0,141.4624,110.0107Z"/>
        <path class="cls-4" d="M98.8575,118.486a6.3467,6.3467,0,0,0,.1826.8223,6.45,6.45,0,0,0,7.5164,4.3746,5.49,5.49,0,0,0,3.3857-2.1378.0409.0409,0,0,0,.0363-.0467,5.46,5.46,0,0,0,.77-4.7369,6.3538,6.3538,0,0,0-5.1345-4.4075,6.2056,6.2056,0,0,0-2.3362.0694,5.8951,5.8951,0,0,0-2.4943,1.1865,5.159,5.159,0,0,0-1.4875,1.91A5.69,5.69,0,0,0,98.8575,118.486Z"/>
        <path class="cls-2" d="M164.5215,136.6436s-25.8444,32.141-69.7887,8.4608"/>
        <path class="cls-2" d="M146.5648,59.7609c.2967.2329.63.4949.9635.7568,5.6613,4.3867,12.5219,9.5355,15.9835,11.5355,6.4,3.8282,15.5915,21.6831,24.94,26.8684.7886,1.818,1.5118,3.6438,2.172,5.5106.563,1.61,1.0589,3.2284,1.5225,4.8506a32.7367,32.7367,0,0,1,.8965,3.55c.3082,1.1709.5506,2.35.76,3.5328a83.1086,83.1086,0,0,1,1.1408,10.3325c-.0053.2354.0225.4669.0172.7025.0239,1.0374.0522,2.1078.0434,3.1491a27.8186,27.8186,0,0,1-.1257,2.8675,8.2447,8.2447,0,0,1,.008.9049c-.1042,1.0864-.2044,2.2059-.309,3.2923-.0635.31-.0609.6113-.124.9207.0631-.3094.1267-.6192.1863-.9618.1377-1.09.271-2.2138.3751-3.3.03-.3055.0239-.64.05-.9791.0782-.7475.1267-1.4581.1757-2.1688.0552-1.2146.0816-2.3921.0378-3.5951.0172-.9751-.0358-1.9754-.06-3.0127-.02-.1654-.0186-.434-.0464-.6656a70.3854,70.3854,0,0,0-1.3126-9.8084c-.2385-1.146-.4769-2.2917-.7776-3.3966s-.605-2.2427-.9384-3.3434c-.2729-.8733-.5458-1.7466-.8147-2.5868-.9012-2.4754-1.9018-4.9391-3.0309-7.3538-9.3321-5.0528-18.7386-22.1772-25.1262-25.9063-3.3875-1.9419-10.01-6.7837-15.614-10.9759C147.228,60.2518,146.8946,59.99,146.5648,59.7609Z"/>
        <path class="cls-5" d="M138.4542,53.42s1.26.9895,3.1985,2.6022l.8893.6984c.4.2541.7744.5782,1.1816.8983a3.8074,3.8074,0,0,1,.5894.4326l.37.291c.5113.3413.9966.7528,1.5158,1.16a2.98,2.98,0,0,0,.366.2579c.33.2289.6632.4909.9926.72,5.6044,4.1922,12.2265,9.034,15.614,10.9759,6.3876,3.7291,15.7941,20.8535,25.1262,25.9063,1.1291,2.4147,2.13,4.8784,3.0309,7.3538.2689.84.5418,1.7135.8147,2.5868.3334,1.1007.6377,2.2387.9384,3.3434s.5391,2.2506.7776,3.3966a70.3854,70.3854,0,0,1,1.3126,9.8084c.0278.2316.0265.5.0464.6656.0243,1.0373.0773,2.0376.06,3.0127.0438,1.203.0174,2.38-.0378,3.5951-.049.7107-.0975,1.4213-.1757,2.1688-.0264.3387-.02.6736-.05.9791-.1041,1.0864-.2374,2.21-.3751,3.3-.06.3426-.1232.6524-.1863.9618-.0658.8469-.1942,1.7348-.3266,2.59-.1956,1.1645-.3912,2.3288-.6569,3.4682a64.1219,64.1219,0,0,1-1.7389,6.7525l-.0831.1441c-.34,1.0811-.709,2.1993-1.1151,3.2883a64.965,64.965,0,0,1-2.6666,6.2936c3.3948-2.1865,6.3494-3.85,7.5733-3.9974,3.7128-.3789,7.1809-14.52,13.0909-19.7942,5.873-5.3029-3.2392-18.3017,1.5666-24.3823,4.736-6.106-1.6456-12.0168-3.5169-15.5839-1.9044-3.563-9.8939,4.511-18.5-19.3537-8.61-23.8978-39.7878-31.1915-39.7878-31.1915C146.34,47.2715,141.1408,49.809,138.4542,53.42Z"/>
        <path class="cls-5" d="M148.224,46.715a1.37,1.37,0,0,0-.136-.1611.7681.7681,0,0,0-.2036-.2411c-.1482-.1914-.3526-.4339-.6245-.7563a4.5206,4.5206,0,0,0-.4384-.47c-.1487-.1929-.3276-.372-.4757-.5634a7.8058,7.8058,0,0,0-.5749-.6324c-.3827-.42-.81-.8611-1.23-1.3749a.0324.0324,0,0,0-.043-.0179c-.6307-.682-1.3163-1.4121-2.0456-2.1616-1.7178-1.79-3.6772-3.7353-5.7787-5.5875-.6672-.5939-1.3223-1.1575-1.9775-1.7212-.6987-.583-1.3722-1.1026-2.0462-1.6237-.3213-.266-.6735-.52-1.0263-.7747a32.5921,32.5921,0,0,0-4.0184-2.5222,7.8068,7.8068,0,0,0-.9768-.47,7.5446,7.5446,0,0,0-.9525-.41,11.9136,11.9136,0,0,0-1.7937-.5405c-.5442-.1053-1.101-.2423-1.6886-.367-9.7972-2.2619-27.2194-7.3662-35.0155-1.6412-8.3025,6.0741-22.4533,12.6831-28.9752,13.7774-1.8505.307-4.6234,1.8084-7.8184,3.87-.3157.1977-.65.44-.9963.65-.62.4256-1.3007.8759-1.9814,1.3277-.3529.2843-.7185.5369-1.0835.791-1.9874,1.4019-4.0124,2.8906-5.9934,4.3985-5.3071,4.0513-10.2175,8.018-12.5828,9.6424-5.38,3.6881-9.0975,8.9375-13.8263,16.2381a5.919,5.919,0,0,0-.3532.6435,15.7229,15.7229,0,0,0-.9253,2.8068c-.2611,1.1444-.4728,2.4127-.654,3.8475-.0938.9341-.1937,1.9424-.2812,2.9826-.1321,1.7375-.2024,3.6306-.2477,5.5857-.0255,1.0154-.008,2.0488-.0221,3.0929.136,11.4959,1.7361,24.7741,4.4516,30.8648a5.2131,5.2131,0,0,0,.3025.6693,7.1235,7.1235,0,0,0,.6673,1.1332c4.4046-27.9037,27.1135-42.1949,33.477-45.6656a.4846.4846,0,0,0-.161.136,11.2536,11.2536,0,0,0-1.6964,1.3226,14.569,14.569,0,0,0-1.5055,1.532,9.6081,9.6081,0,0,0-.6877.8837,19.8745,19.8745,0,0,0-1.89,2.906c-.3722.6861-.7006,1.3914-1.048,2.1394-.1488.3466-.3164.7356-.4525,1.1139-.1494.3451-.2854.7233-.4222,1.1-.0183.044-.0372.0866-.0372.0866-.2545.7109-.4655,1.4413-.72,2.1523.0127.0317.0247.0619-.0062.0743q-.27,1.077-.5405,2.1525c-.112.4387-.2114.9092-.28,1.3673-.1.6492-.2117,1.2683-.3114,1.9175a29.22,29.22,0,0,0-.1388,7.658c.05.3041.0986.6069.1354.8794.0127.0318.0058.1045.0185.1363a11.81,11.81,0,0,0,.3324,1.3736,5.2217,5.2217,0,0,0,1.7729,2.9166,3.5367,3.5367,0,0,1,.4324.3653,3.1926,3.1926,0,0,1,.6055.7988c1.3216,2.235.5128,5.9638-.5242,9.57-.478,1.59-.9812,3.1163-1.3658,4.49a.0324.0324,0,0,1-.0189.0426c-.5711,1.986-.9322,3.5994-.5244,4.4421l.0121.03a.1241.1241,0,0,0,.0683.0813c1.7164,2.8656,4.7546,8.1465,7.2744,12.4869.3024.4888.574.99.8334,1.461.2222.3773.4445.7545.6544,1.1016.692,1.1952,1.2781,2.2155,1.692,2.9839.4692.8165.7406,1.3177.7406,1.3177l.0127.0318a18.3168,18.3168,0,0,1,.196,1.9306c.073,1.083.121,2.2828.12,3.539a33.4257,33.4257,0,0,1-.4829,6.0753,12.9479,12.9479,0,0,1-.479,1.9475,3.724,3.724,0,0,1-.3536.8223,2.8089,2.8089,0,0,1-.3721.686,2.5274,2.5274,0,0,1-.4455.5017,1.7534,1.7534,0,0,1-.6006.383c-1.77.5973-3.9922,1.4114-6.3316,2.381l-.0809.0673c-2.2155.92-4.5,1.9378-6.5421,2.9325-1.0156.5117-2,1.0111-2.8665,1.5369a21.2921,21.2921,0,0,0-2.8853,1.9386,4.499,4.499,0,0,0-1.133,1.2066c-1.5748,2.8871,6.0523,9.4224,14.187,15.9706-1.8218-3.2194-8.2372-3.5669-3.7633-9.9778,4.443-6.3985,23.0709.02,26.8329-6.1069.1425-.2722.2977-.5127.4093-.7726a7.9664,7.9664,0,0,0,.6953-2.2143c.5866-4.6455-3.0342-8.8691-.4506-12.0149a5.9221,5.9221,0,0,1,.6065-.6376,4.549,4.549,0,0,0,.4709-.4382,9.774,9.774,0,0,0,1.3315-1.608,7.5143,7.5143,0,0,0,.5393-.8963c.1615-.3149.3537-.642.5026-.9885a5.7832,5.7832,0,0,0,.31-.8417,14.7554,14.7554,0,0,0,.7141-2.4371c.0934-.5749.1871-1.15.25-1.7126a15.1632,15.1632,0,0,0-.0647-3.3105c-.012-.03.0063-.0743-.0057-.1045s.0062-.0743-.0064-.1061a10.473,10.473,0,0,0-1.1217-3.8925c-.1545-.2975-.3394-.581-.5246-.8662-3.1192-4.6741-6.6663-14.5594-1.6377-18.68a5.5622,5.5622,0,0,0,2.2624-3.9511,2.9276,2.9276,0,0,0,.0378-.6246,3.932,3.932,0,0,0-.03-.7044c-.0369-.2725-.0864-.5768-.1355-.8794-.0736-.3647-.1478-.731-.2646-1.1134a4.9824,4.9824,0,0,0-.1972-.6745,2.9486,2.9486,0,0,0-.1483-.5521,4.51,4.51,0,0,0-.1846-.6427l-.0127-.0317c-.3453-1.0462-.7148-2.1529-1.0541-3.2733a.4228.4228,0,0,1-.0431-.1982,21.3321,21.3321,0,0,1-.7881-3.4162,2.9687,2.9687,0,0,1-.0363-.81,3.9019,3.9019,0,0,1-.03-.7045,4.66,4.66,0,0,1,.1618-1.2134,3.9644,3.9644,0,0,1,.4222-1.1,4.3707,4.3707,0,0,1,.2661-.5019c.1862-.2529.3844-.4756.5706-.7284,2.2481-2.3675,6.9077-3.1851,12.1252-5.3022a9.5761,9.5761,0,0,0,5.1042-5.37c.1116-.26.1922-.5074.3037-.7673a18.44,18.44,0,0,0,.7823-2.3558,67.7271,67.7271,0,0,0,1.5141-9.786c.1686-1.4665.3435-2.827.5674-3.8847a3.7628,3.7628,0,0,1,.1491-.5254,2.2121,2.2121,0,0,1,.2231-.52c1.8849-3.5484,9.0588-6.8764,16.1941-8.6812.7182-.1777,1.4049-.3447,2.104-.48,1.3552-.29,2.6918-.5355,3.96-.6823.6805-.0927,1.3735-.1536,2.0047-.19s1.2623-.0724,1.8316-.0841a11.7015,11.7015,0,0,0,2.5366-.295,16.9651,16.9651,0,0,0,2.55-.8013c6.4991-2.5913,12.91-8.9127,14.9465-10.73l.6951-1.8551.1177.0249s.8162.608,2.1328,1.661a1.44,1.44,0,0,1,.2408.1544c.1114.0992.2535.1862.3769.3156.0993.069.155.1186.2535.1861a2.4832,2.4832,0,0,1,.3649.2854c-.1789-.1791-.3769-.3156-.5438-.4645l-.0436-.0194a6.64,6.64,0,0,0-.5868-.4823,8.7276,8.7276,0,0,0-.6988-.583c-.21-.1667-.42-.3335-.5749-.4521-.3647-.2854-.5748-.4521-.5748-.4521l-.012-.03a7.5577,7.5577,0,0,1,.8609-.9895,11.0422,11.0422,0,0,1,1.1084-1.0882,11.1988,11.1988,0,0,1,1.1274-.95,10.6328,10.6328,0,0,1,1.1763-.828,9.8715,9.8715,0,0,1,1.17-.7538,20.4479,20.4479,0,0,1,4.3886-2.0371C148.2677,46.7344,148.2677,46.7344,148.224,46.715Z"/>
        <path class="cls-3" d="M71.2515,145.3867a10.2739,10.2739,0,0,1,1.6431,4.7355l4.4139-.9666a8.9847,8.9847,0,0,0,1.4662-.6461,11.4651,11.4651,0,0,0,1.6287-.9674,17.9077,17.9077,0,0,0,1.75-1.3513c.5439-.5016,1.0173-1.0282,1.491-1.5549A16.0033,16.0033,0,0,0,84.88,142.91a15.2707,15.2707,0,0,0,.9546-1.8259,16.2279,16.2279,0,0,0-2.1367-16.3873,14.669,14.669,0,0,0-1.0151-1.1868,7.05,7.05,0,0,0-.5056-.5768c-.3784-.3572-.7568-.7144-1.1316-1.0384a16.278,16.278,0,0,0-1.4779-1.1312,16.0141,16.0141,0,0,0-2.2381-1.3081l-6.1924-1.2694c1.0672,3.2946,1.4634,6.0322-1.5283,8.5056C64.5685,130.8211,68.1042,140.6981,71.2515,145.3867Z"/>
        <path class="cls-1" d="M75.7342,118.7413c-.14-.05-.2843-.1336-.4574-.18.1731.0464.313.0966.4534.1469-1.492-4.3174-2.7258-8.1624.06-8.1614,5.1287-.0459,17.6249-6.0775,18.5668-16.392.9709-10.3513,12.4176-18.136,23.0928-18.3786,7.13-.1521,21.4012-9.2829,30.0787-15.2585-.3334-.2619-.6668-.5239-.9635-.7568a2.98,2.98,0,0,1-.366-.2579c-.5192-.4074-1.0045-.8189-1.5158-1.16l-.37-.291a3.8074,3.8074,0,0,0-.5894-.4326c-.4072-.32-.782-.6442-1.1816-.8983l-.8893-.6984c-2.141-1.6219-3.549-2.7279-3.549-2.7279l-.1073-.0542-.6786,1.8937c-2.581,2.2565-12.1724,11.7981-20.02,11.8351-9.3934.0213-25.3128,5.4912-26.5135,11.1388-1.2251,5.7175-.4992,19.0195-8.2752,22.1685s-14.3189,3.432-13.4551,10.3414a37.8279,37.8279,0,0,0,1.8723,6.9226c.061.2276.1546.4512.2116.6457l6.1924,1.2694a4.2889,4.2889,0,0,0-.5356-.2713C76.4394,119.0256,76.0852,118.8668,75.7342,118.7413Z"/>
        <path class="cls-1" d="M68.6962,175.2236c5.8476-6.9107,7.9286-16.9592,8.6123-26.068l-4.4139.9666.0119.0991c.57,4.4618-.86,9.6-4.051,12.3659C65.1539,165.8507,69.3437,170.28,68.6962,175.2236Z"/>
        <path class="cls-5" d="M17.827,128.0487c6.2874,4.8483,17.2053,39.5759,17.2053,39.5759-.5552,4.5968,7.8694,3.2154,8.7255,3.0789l.095-.0448c2.3316-.9849,4.55-1.7885,6.322-2.4041,2.9967-1.031,3.0413-11.2713,2.4186-15.8942,0,0-.9873-1.7941-2.43-4.3053-3.8976,3.5891-12.5382,4.2917-16.1466-5.0731-3.3475-8.5908,6.1818-10.2728,7.2759-10.1023-1.3989-2.9862,6.5194-16.1187,1.3918-19.6972-4.8727-3.4076-2.574-25.3276,7.6479-31.8579-6.36,3.4823-29.07,17.7883-33.4716,45.6656A5.529,5.529,0,0,0,17.827,128.0487Z"/>
        <path class="cls-1" d="M34.0169,142.982c3.6084,9.3648,12.249,8.6622,16.1466,5.0731-2.6607-4.546-6.6934-11.578-8.7886-15.0509-.0371-.0292-.041-.0623-.0821-.1245C40.1987,132.7092,30.6694,134.3912,34.0169,142.982Z"/>
        <path class="cls-2" d="M16.2228,141.2278a60.7561,60.7561,0,0,1,.6381-14.2375"/>
        <path class="cls-2" d="M51.9731,80.4563c-.0622.0411-.0953.045-.1574.0861a15.5111,15.5111,0,0,0-1.45.7782l-.0331.004"/>
        <path class="cls-2" d="M137.31,55.1226c.4782-.4266.7156-.5872.6344-.3686"/>
        <path class="cls-2" d="M50.1463,148.0427c.0741-.008.0973-.0705.14-.09"/>
        <path class="cls-6" d="M15.6006,47.1527l-.0116.0312c-.2927,4.6178,12.1629,11.943,12.1629,11.943C33.1366,55.44,51.677,39.5782,58.1971,38.4805c.0868-4.4457-3.6359-8.7773-8.9954-9.2744-.5762,1.4563-1.8932,1.7493-3.9725.2665A17.02,17.02,0,0,0,38.9261,32.57C28.7153,40.2582,15.9481,42.4838,15.6006,47.1527Z"/>
        <path class="cls-2" d="M15.5891,47.1839a3.8356,3.8356,0,0,1,1.4171.4906"/>
        <path class="cls-2" d="M168.9626,129.9191a18.6876,18.6876,0,0,0,25.1414,4.0742c.3346-.2311.6693-.4624.9726-.7051l.1683-2.1764c.0506-1.19.07-2.3907.0466-3.5722.0124-.99-.0493-1.9729-.0878-3.0177-.0045-.18-.017-.4328-.0411-.6552a73.5971,73.5971,0,0,0-1.292-9.8261c-.2571-1.1262-.5027-2.2835-.8025-3.39s-.5886-2.244-.92-3.3622c-.2874-.8531-.5633-1.7372-.82-2.5788a18.884,18.884,0,0,0-18.2955,1.4172A16.4541,16.4541,0,0,0,168.9626,129.9191Z"/>
        <path class="cls-2" d="M137.31,55.1226c.4782-.4266.7156-.5872.6344-.3686"/>
        <path class="cls-2" d="M76.4917,187.0383a182.0519,182.0519,0,0,0,20.4326,9.1888"/>
        <path class="cls-2" d="M75.7343,118.7413c.0291-.0371.0291-.0371-.004-.0331"/>
        <path class="cls-2" d="M147.5284,60.5178l.0291-.0371c4.2747-2.9633,7.1946-5.1933,7.1946-5.1933"/>
        <line class="cls-2" x1="68.1444" y1="117.5728" x2="71.1375" y2="118.1863"/>
        <line class="cls-2" x1="77.3302" y1="119.4555" x2="78.4655" y2="119.6882"/>
        <line class="cls-2" x1="65.5353" y1="151.7112" x2="72.8946" y2="150.1222"/>
        <g class="cls-7">
          <path class="cls-8" d="M68.6962,175.2236c1.9974-10.0279,4.5794-14.0632,7.1284-21.6616,3.0821-9.1866-2.3849-19.8473,2.1118-25.1528,1.4723-1.7371-.9009-6.1-2.2022-9.6679-.14-.05-.006,4.6987-.1791,4.6523.1731.0464.0347-4.7357.1751-4.6854-1.492-4.3174.1155-6.02,1.5428-8.9436,2.2505-4.6089,16.1419-5.2953,17.0838-15.61.9709-10.3513,12.4176-18.136,23.0928-18.3786,7.13-.1521,21.4012-9.2829,30.0787-15.2585-.3334-.2619-.6668-.5239-.9635-.7568a2.98,2.98,0,0,1-.366-.2579c-.5192-.4074-1.0045-.8189-1.5158-1.16l-.37-.291a3.8074,3.8074,0,0,0-.5894-.4326c-.4072-.32-.782-.6442-1.1816-.8983l-.8893-.6984c-2.141-1.6219-3.549-2.7279-3.549-2.7279l-.1073-.0542-.6786,1.8937c-2.581,2.2565-12.1724,11.7981-20.02,11.8351-9.3934.0213-25.3128,5.4912-26.5135,11.1388-1.2251,5.7175-.4992,19.0195-8.2752,22.1685s-14.3189,3.432-13.4551,10.3414a37.8279,37.8279,0,0,0,1.8723,6.9226c1.202,3.5805,1.8573,6.5217-1.3167,9.1513-5.0407,4.1293-1.505,14.0063,1.6423,18.6949a10.6807,10.6807,0,0,1,1.655,4.8346c.57,4.4618-.86,9.6-4.051,12.3659C65.1539,165.8507,69.3437,170.28,68.6962,175.2236Z"/>
        </g>
        <g class="cls-7">
          <path class="cls-8" d="M17.827,128.0487c6.2874,4.8483,17.2053,39.5759,17.2053,39.5759-.5552,4.5968,7.8694,3.2154,8.7255,3.0789l.095-.0448c2.3316-.9849,4.55-1.7885,6.322-2.4041,2.9967-1.031,3.0413-11.2713,2.4186-15.8942,0,0-.9873-1.7941-2.43-4.3053-3.8976,3.5891-12.5382,4.2917-16.1466-5.0731-3.3475-8.5908,6.1818-10.2728,7.2759-10.1023-1.3989-2.9862,6.5194-16.1187,1.3918-19.6972-4.8727-3.4076-2.574-25.3276,7.6479-31.8579-6.36,3.4823-29.07,17.7883-33.4716,45.6656A5.529,5.529,0,0,0,17.827,128.0487Z"/>
        </g>
        <path class="cls-4" d="M153.0477,191.9294c-27.1148,10.8114-60.6715,5.3933-85.7971-14.9152a2.3134,2.3134,0,0,1-.8431-2.09,12.4553,12.4553,0,0,0-.6616-4.6958c-.77-2.8827-1.7341-6.4709,1.6089-9.3792,2.4321-2.1319,3.7694-6.3751,3.2513-10.321a2.31,2.31,0,0,1,.4858-1.7448,2.3449,2.3449,0,0,1,1.597-.8605,13.6443,13.6443,0,0,0,6.4-2.2893,12.8241,12.8241,0,0,0,5.5718-8.5865A14.1957,14.1957,0,0,0,81.84,126.0937a16.1347,16.1347,0,0,0-11.1522-6.2506,2.31,2.31,0,0,1-1.9717-1.5915l-.311-.9506a34.3955,34.3955,0,0,1-1.6385-6.402.0343.0343,0,0,1-.0025-.0184c-.912-7.2995,4.78-9.2432,10.2906-11.0807,1.4423-.4924,2.9886-1.0409,4.598-1.6631,4.7458-1.9263,5.58-9.7615,6.1865-15.4833.2043-1.9389.3941-3.6824.6841-5.0282,1.6329-7.5751,19.6291-12.9516,28.7518-12.986,6.18-.0377,14.4073-7.5242,17.5035-10.3439l.5617-.5059.4988-1.3464a2.3167,2.3167,0,0,1,1.2235-1.31,2.559,2.559,0,0,1,1.7873-.0416,3.1246,3.1246,0,0,1,.6647.3622c.1886.1436,18.6061,14.4085,24.8111,17.9832,3.23,1.8823,6.7,6.2314,10.7122,11.269,4.496,5.6419,9.5891,12.0376,14.3594,14.6236a2.2972,2.2972,0,0,1,.9936,1.0528c1.0944,2.33,2.1409,4.8694,3.1117,7.5359a2.3142,2.3142,0,0,1-3.135,2.8934,16.5541,16.5541,0,0,0-16.0408,1.2321,14.3471,14.3471,0,0,0-6.2589,9.57,14.1139,14.1139,0,0,0,2.7415,10.9121,16.42,16.42,0,0,0,22.0038,3.5527c.36-.2554.5993-.4237.8167-.598a2.3127,2.3127,0,0,1,3.752,1.9466c-.0317.5426-.0488.8412-.0851,1.128-.0834,1.0349-.2247,2.2047-.3786,3.3309-.1741,1.1732-.3783,2.32-.6135,3.449a66.3291,66.3291,0,0,1-1.7225,6.6189c-.3678,1.1872-.7372,2.2729-1.1343,3.35a60.5927,60.5927,0,0,1-2.6512,6.1432,70.6081,70.6081,0,0,1-25.7485,28.3351A71.82,71.82,0,0,1,153.0477,191.9294ZM71.08,174.1551c27.3937,21.5338,64.8486,24.7655,91.4755,7.73a66.0587,66.0587,0,0,0,24.0959-26.48,57.5505,57.5505,0,0,0,2.46-5.7072c.3651-.9868.7025-1.9819,1.0047-2.9923a58.269,58.269,0,0,0,1.6584-6.3161q.29-1.3773.5046-2.7832a20.9855,20.9855,0,0,1-25.1619-6.29,18.7073,18.7073,0,0,1-3.6132-14.4642,18.9219,18.9219,0,0,1,8.2349-12.6387,21.0132,21.0132,0,0,1,15.6706-3.1606c-.2978-.6981-.5948-1.382-.8994-2.0483-5.3533-3.1946-10.5143-9.6752-15.089-15.417-3.5689-4.4751-6.9392-8.7084-9.416-10.152-5.2059-2.9957-17.9428-12.66-23.1117-16.6235a.4419.4419,0,0,1-.0587.0478l-.94.851c-3.78,3.4572-12.6428,11.5226-20.6055,11.5516-10.1057.0325-23.4751,5.7571-24.2457,9.3367-.2605,1.2125-.4224,2.7941-.6063,4.54-.7314,6.885-1.7306,16.3177-9.0474,19.2837-1.7134.63-3.3336,1.2368-4.853,1.7552-6.1778,2.079-7.581,2.9011-7.1828,6.1314a28.2484,28.2484,0,0,0,1.3111,5.1419,20.812,20.812,0,0,1,12.8581,7.846A18.76,18.76,0,0,1,89.22,137.8111a17.3809,17.3809,0,0,1-7.531,11.6481,18.3878,18.3878,0,0,1-6.3478,2.7255c.014,4.7547-1.8488,9.436-4.9483,12.15-1.0285.8963-.9673,1.7569-.18,4.6958A19.54,19.54,0,0,1,71.08,174.1551Z"/>
        <path class="cls-4" d="M134.1112,138.6321a2.312,2.312,0,0,1-2.15-4.0634c3.1685-2.1386,3.695-3.4523,3.6265-3.7459-.1961-.87-3.2677-2.1834-6.082-2.6076a2.3115,2.3115,0,1,1,.6861-4.5718c1.4734.22,8.8651,1.5513,9.9051,6.1594.954,4.21-3.9384,7.5122-5.5483,8.5966A2.3221,2.3221,0,0,1,134.1112,138.6321Z"/>
        <path class="cls-4" d="M78.2148,151.3064a18.3944,18.3944,0,0,1-5.1082,1.2248,2.3107,2.3107,0,0,1-2.5088-2.0727,8.4193,8.4193,0,0,0-1.27-3.7823c-3.8015-5.6806-7.48-16.613-1.1695-21.7742,1.8678-1.5471,1.7788-3.0141.5692-6.621a2.31,2.31,0,0,1,2.4213-3.0368,20.7671,20.7671,0,0,1,14.3751,8.0531A18.76,18.76,0,0,1,89.22,137.8111a17.3809,17.3809,0,0,1-7.531,11.6481A18.0146,18.0146,0,0,1,78.2148,151.3064Zm-3.4715-3.731a13.3642,13.3642,0,0,0,4.3458-1.9419,12.8241,12.8241,0,0,0,5.5718-8.5865A14.1957,14.1957,0,0,0,81.84,126.0937a16.15,16.15,0,0,0-7.7218-5.5129,7.9848,7.9848,0,0,1-3.0239,7.8914.0166.0166,0,0,1-.0109.0093c-3.4779,2.85-.9792,11.0439,2.0846,15.6182A11.8744,11.8744,0,0,1,74.7433,147.5754Zm-5.1225-20.8837.0419-.0167Z"/>
        <circle class="cls-2" cx="144.8913" cy="110.7335" r="6.7139"/>
        <circle class="cls-2" cx="109.2495" cy="115.9367" r="6.7139"/>
        <path class="cls-4" d="M145.839,152.253c-12.46,4.9683-30.2127,6.7369-52.2033-5.1114a2.3149,2.3149,0,0,1,2.1969-4.0754c41.6575,22.4544,65.8821-6.63,66.8891-7.8724a2.3126,2.3126,0,0,1,3.6024,2.9008A54.459,54.459,0,0,1,145.839,152.253Z"/>
        <path class="cls-4" d="M188.7211,163.23a2.3132,2.3132,0,0,1-2.9312-3.1686c.9154-1.8626,1.7933-3.9047,2.6008-6.0744.3887-1.05.7463-2.1161,1.0695-3.1591a57.7718,57.7718,0,0,0,1.7527-6.665c.247-1.1487.4554-2.2724.6361-3.4044.1706-1.0843.32-2.2332.4289-3.351.1212-1.0986.2205-2.2031.3-3.2464.0667-1.1741.1066-2.391.1046-3.5912.0356-1.0693.0107-2.0951-.0251-3.0873-.0075-.0554-.0287-.6207-.03-.6735a75.5671,75.5671,0,0,0-1.1053-10.028c-.1925-1.1291-.4135-2.2566-.7025-3.3716-.2494-1.2474-.5434-2.3506-.871-3.44a76.1343,76.1343,0,0,0-3.321-9.4265c-5.3465-3.2752-10.4351-9.9888-14.9476-15.94-3.5367-4.663-6.8783-9.0682-9.3492-10.5336-6.5067-3.8191-24.56-18.22-25.3251-18.8334a2.3136,2.3136,0,0,1-.41-3.1867c3.1742-4.2706,8.965-6.93,11.1337-7.5026a2.3235,2.3235,0,0,1,1.108-.0139c1.324.3084,32.4821,7.8693,41.4249,32.6512,5.7344,15.894,10.7083,16.3566,13.6812,16.63,1.5087.1376,3.5742.33,4.6924,2.4031a22.95,22.95,0,0,0,1.4418,2.25c2.49,3.6117,6.6555,9.6676,1.8378,15.8528-1.6529,2.0983-.8287,6.1653-.0295,10.0964,1.0377,5.1391,2.218,10.9652-1.8067,14.6025-2.585,2.3095-4.7991,6.8537-6.7552,10.8622-2.595,5.333-4.4436,9.221-7.6293,9.4993-.0554.0318-1.3783.3113-6.582,3.65A2.4041,2.4041,0,0,1,188.7211,163.23Zm4.8423-7.9893a6.512,6.512,0,0,1,1.6217-.457c.8249-.4553,2.723-4.3533,3.9806-6.9309,2.1427-4.3942,4.57-9.3684,7.8252-12.276,2.0586-1.8613,1.2327-5.9325.36-10.2428-1.006-4.962-2.0463-10.0953.9194-13.8645,2.5348-3.2523.7719-6.3566-2-10.3813a28.096,28.096,0,0,1-1.7181-2.6991c.0192.109-.578.0748-1.0342.0282-5.2615-.4889-11.3962-2.4482-17.6089-19.6637-7.4493-20.6463-33.3108-28.4227-37.54-29.5664a21.2867,21.2867,0,0,0-6.548,3.9675c4.9106,3.8769,17.8332,13.9825,22.8606,16.9327,3.26,1.9335,6.6967,6.4663,10.6823,11.7185,4.432,5.8473,9.4553,12.47,14.2,15.1006a2.32,2.32,0,0,1,.9968,1.0856,79.1538,79.1538,0,0,1,3.8271,10.6835c.36,1.1838.6858,2.44.9361,3.7014.2948,1.1175.5459,2.3691.7576,3.6073a79.8561,79.8561,0,0,1,1.1641,10.6269,5.3409,5.3409,0,0,1,.0318.8723c.0392.9276.0673,2.0591.0309,3.1628.0029,1.2144-.0372,2.5286-.1183,3.8252-.0792,1.1305-.1837,2.2954-.3149,3.4174-.1137,1.1783-.27,2.4076-.4552,3.59-.1951,1.23-.4186,2.4377-.6816,3.6317a61.5278,61.5278,0,0,1-1.8159,6.9576c-.3956,1.2518-.78,2.3971-1.1982,3.5314l-.0026.0058C193.0339,155.4618,193.3116,155.3414,193.5634,155.241Z"/>
        <path class="cls-4" d="M44.7023,172.8034a2.2963,2.2963,0,0,1-.4136.1212c-1.1795.2369-7.2244,1.2711-10.0865-1.3706a4.7188,4.7188,0,0,1-1.5048-3.64c-4.1858-13.2051-12.1851-34.8526-16.2736-38.0215-7.5219-5.8164-9.5095-47.9344-4.43-55.78,4.6115-7.129,8.6017-12.9016,14.4469-16.9,1.3916-.9487,3.6682-2.7268,6.393-4.844,10.7245-8.346,19.9932-15.3432,24.992-16.16,5.857-.9933,18.34-5.5523,26.5419-11.5409,8.04-5.9091,24.7382-3.4551,39.9624-.2722,9.8316,2.0606,24.1566,18.9881,25.7581,20.9072a2.3138,2.3138,0,1,1-3.5544,2.9634c-4.0674-4.8841-16.1523-17.8764-23.15-19.3409-7.8619-1.645-28.7015-6.0217-36.2912-.52C78.7945,34.4705,65.8309,39.5422,58.594,40.77c-4.253.65-15.9362,9.8113-22.9228,15.2519-2.818,2.1884-5.1784,4.0243-6.6179,5.0115-5.1477,3.5161-8.7053,8.6787-13.179,15.5923-4.3553,6.735-1.7042,45.6759,3.38,49.61,6.6269,5.1327,16.8442,37.0744,17.9875,40.6981a2.3616,2.3616,0,0,1,.0913.96c.4285.8065,3.3142,1.0319,6.0616.4957a2.3119,2.3119,0,0,1,1.3077,4.4138Z"/>
        <path class="cls-4" d="M45.3851,196.43a2.32,2.32,0,0,1-2.3061-.3447c-11.8-9.4837-17.0205-14.7247-14.7817-18.8411,1.2379-2.2732,6.1451-5.1974,14.583-8.6931,2.4418-1.0466,4.7131-1.8744,6.5581-2.5031.9656-.9685,1.5368-7.8771.9309-12.921-1.3251-2.3112-8.0856-14.0958-10.9705-18.9166-1.1821-1.9647-.3033-4.8095.9129-8.7467,1.053-3.42,2.8214-9.143,1.0607-10.3762-3.91-2.7343-3.5882-10.5113-3.2718-13.73.83-8.3686,4.7189-19.42,12.9515-23.0285l.0713-.0285a2.3132,2.3132,0,0,1,1.7843,4.2677c-5.9611,2.61-9.4661,11.807-10.204,19.2489-.6,6.0448.6309,8.9967,1.32,9.4806,4.5247,3.1652,2.41,10.0185.7076,15.53-.553,1.7959-1.39,4.5023-1.2605,5.2531,3.116,5.1322,11.14,19.1458,11.14,19.1458a2.3158,2.3158,0,0,1,.2842.8348c.0208.1619,2.02,15.98-3.7868,18.2948-.0587.0234-.1132.0452-.1695.0627-1.7577.6037-3.9334,1.4031-6.1788,2.3567-8.1862,3.3954-11.8885,5.8537-12.4052,6.6919.0914.8388,1.8228,2.8276,5.1776,5.8758a13.6,13.6,0,0,1,1.34-2.3477c2.9175-4.2072,9.4418-4.1732,15.7446-4.1335,4.38.0333,9.8263.0594,11.0018-1.8582a5.6267,5.6267,0,0,0,.8008-2.1379,2.31,2.31,0,0,1,4.5668.6978,10.2892,10.2892,0,0,1-1.425,3.8649c-2.56,4.1522-8.8764,4.1033-14.9763,4.06-4.8678-.038-10.3764-.0735-11.9162,2.15-1.8027,2.5763-1.4742,2.8148.6812,4.3671a10.27,10.27,0,0,1,3.1879,3.1294,2.3126,2.3126,0,0,1-.5048,2.9047A2.3816,2.3816,0,0,1,45.3851,196.43Z"/>
        <path class="cls-5" d="M49.2017,29.2061s9.8962-11.479-5.1187-21.489C39.72,4.8081,33.567,1.0216,27.6579,2.2421c-5.2125,1.0765-10.01,6.9295-16.4251,8.2125C4.4912,11.8029,3.8,18.82,3.02,26.88c-.6553,6.7718-2.1867,14.56.576,17.5925,8.152,8.9485,11.7428,2.939,11.7428,2.939"/>
        <path class="cls-4" d="M48.21,151.9553a12.25,12.25,0,0,1-7.092.6154c-4.1556-.91-7.445-4.0139-9.2732-8.7454-2.003-5.1821-.38-9.6607,4.3418-11.9762.5546-.2795,5.6449-2.6835,7.21-.0986a2.4173,2.4173,0,0,1-.6543,3.1394,2.2818,2.2818,0,0,1-2.0594.3349c-1.0369.1557-3.3784.8073-4.4721,2.3812-.78,1.1281-.8,2.6142-.0537,4.5483,1.2712,3.2858,3.3247,5.3261,5.95,5.8985a7.5045,7.5045,0,0,0,6.5716-1.7742,2.3108,2.3108,0,1,1,3.2187,3.3164A11.2631,11.2631,0,0,1,48.21,151.9553Z"/>
        <path class="cls-4" d="M28.6035,61.2708A2.3158,2.3158,0,0,1,26.579,61.12c-3.23-1.8924-13.727-8.5012-13.29-14.16.3045-3.919,4.6731-5.938,10.7241-8.7251A71.8049,71.8049,0,0,0,37.524,30.718c5.5166-4.14,11.5194-5.06,16.5153-2.5055a11.5641,11.5641,0,0,1,6.4828,10.32,2.3135,2.3135,0,1,1-4.6262-.0906,6.9175,6.9175,0,0,0-3.9579-6.1093c-3.3571-1.7248-7.5884-.9712-11.6285,2.0789a76.6452,76.6452,0,0,1-14.36,8.0208c-3.3557,1.547-7.9541,3.6723-8.0444,4.885C17.7716,48.9945,23.02,53.67,28.9167,57.13a2.3128,2.3128,0,0,1-.3132,4.1412Z"/>
        <g class="cls-9">
          <path class="cls-10" d="M114.0723,33.26c-7.5544-.0415-15.3711-1.25-22.6934.556a1.6852,1.6852,0,0,1-1.5052-2.9465c3.7316-2.7221,8.2805-3.0877,12.62-3.0328a41.7687,41.7687,0,0,1,12.2288,2.1459,1.6857,1.6857,0,0,1-.65,3.2774Z"/>
        </g>
        <g class="cls-9">
          <path class="cls-10" d="M155.1565,55.917c8.7644,2.5939,17.3609,7.59,21.5364,16.2a1.6707,1.6707,0,0,1-2.9712,1.5153c-1.97-3.3985-5.2252-6.0568-8.6988-8.3915-3.0261-2.0091-7.7658-4.4056-11.0026-6.1817a1.6853,1.6853,0,0,1,1.1362-3.1425Z"/>
        </g>
        <g class="cls-7">
          <path class="cls-10" d="M122.2436,55.2163c-3.3825,4.1413-8.5524,5.2911-13.465,5.8169-6.7472.7559-13.9834,2.6919-19.3037,6.5461A17.3342,17.3342,0,0,0,82.338,78.4551c-1.5175,7.0084-5.3123,14.86-12.8409,16.9694a1.6791,1.6791,0,0,1-1.0708-3.1657c6.2546-3.189,7.7909-10.874,8.9209-17.2528,3.5684-13.3491,18.7555-18.7594,31.0774-19.2267,3.8154-.0426,8.1076-.5016,11.19-2.6277a1.6731,1.6731,0,0,1,2.6291,2.0647Z"/>
        </g>
        <path class="cls-4" d="M11.61,51.3863c-2.9346,0-6.1241-1.87-9.4922-5.5673C-.7921,42.6246-.09,36.5563.6522,30.1315c.1348-1.1582.2686-2.3155.378-3.4444.7861-8.1367,1.6-16.5508,9.81-18.1933,3-.6006,5.74-2.4209,8.39-4.1807,2.665-1.7705,5.1826-3.4424,8.0244-4.03,6.2315-1.2851,12.3047,2.0137,17.9385,5.7705C50.5731,9.64,53.63,13.86,54.2753,18.5944c.9082,6.6474-3.376,11.705-3.5586,11.9169L47.6874,27.9l1.5146,1.3057-1.52-1.3c.0322-.0391,3.3057-3.9649,2.625-8.81-.4971-3.5332-2.9648-6.8018-7.334-9.7148C38.0614,6.1061,32.86,3.2047,28.0624,4.2008c-2.082.43-4.2861,1.8936-6.6191,3.4443-2.834,1.8828-6.0469,4.0166-9.8184,4.77-5.043,1.0088-5.7988,6.2266-6.6143,14.6563-.1113,1.1533-.248,2.3359-.3847,3.52-.55,4.76-1.2354,10.6846.4492,12.5342,3.5371,3.8828,5.7471,4.3428,6.7607,4.251a2.4889,2.4889,0,0,0,1.8057-1.0244l3.4141,2.0839A6.4415,6.4415,0,0,1,12.29,51.3522Q11.953,51.3858,11.61,51.3863Z"/>
        <g class="cls-9">
          <path class="cls-10" d="M20.5905,11.3762c2.6691-1.5246,5.4639-3.051,8.657-3.1506a20.1134,20.1134,0,0,1,13.82,5.9817.5014.5014,0,0,1-.7071.7071A21.6077,21.6077,0,0,0,29.2261,9.9588c-2.7725.1056-5.52,1.4186-8.1884,2.3117a.503.503,0,0,1-.4472-.8943Z"/>
        </g>
      </g>
    </g>
  </g>
</svg>
