<svg xmlns="http://www.w3.org/2000/svg" viewBox="0 0 198.0321 207.2822">
  <defs>
    <style>
      .cls-1 {
        fill: none;
      }

      .cls-2 {
        fill: #8fa3ff;
      }

      .cls-3 {
        fill: #71441a;
      }

      .cls-4 {
        fill: #050505;
      }

      .cls-5 {
        fill: #c74e1f;
      }

      .cls-6 {
        opacity: 0.8;
      }

      .cls-7 {
        fill: #fff6f5;
      }

      .cls-8 {
        opacity: 0.15;
      }

      .cls-9 {
        fill: #2c02ff;
      }
    </style>
  </defs>
  <g id="Layer_2" data-name="Layer 2">
    <g id="Layer_1-2" data-name="Layer 1">
      <g>
        <path class="cls-1" d="M47.1958,98.4632l8.1135,4.0018c2.4453,1.2428,2.5,3.0233.1374,4.4524l-7.651,4.2413"/>
        <path class="cls-1" d="M68.3626,108.6242s-10.1941,14.4086,5.23,10.5885"/>
        <path class="cls-1" d="M153.1616,113.1388a20.2709,20.2709,0,0,1-6.4576,6.241c-8.59,5.2131-19.3907,3.2842-25.0418-4.1461a14.1764,14.1764,0,0,1-1.1139-1.6515c-5.2753-8.7774-2.0834-20.3974,7.1029-25.94a20.9248,20.9248,0,0,1,4.42-1.9941,19.7575,19.7575,0,0,1,8.3316-.7777A96.5477,96.5477,0,0,1,150.93,105.9255C151.794,108.4079,152.5341,110.8343,153.1616,113.1388Z"/>
        <path class="cls-1" d="M9.0292,95.3085l.0234-.13"/>
        <path class="cls-2" d="M11.646,84.5233v.0457l.0479-.0457ZM194.07,153.1658c-.2327-.1871-.5134-.3742-.794-.607-.3263-.235-.6548-.4677-.9811-.7483a3.8816,3.8816,0,0,1-.7484-.5613,1.5845,1.5845,0,0,1-.3719-.2327c-.1871-.1415-.3742-.2807-.6092-.4678-2.617-1.9165-5.9345-4.44-9.1584-6.9634-.9811-.7461-2.01-1.54-2.9433-2.2885v-.0479c13.0828-23.9707,12.898-59.5776-10.1874-99.6222a50.477,50.477,0,0,0-5.3253-7.57c-.5156-.6526-1.0769-1.2617-1.6359-1.8687-.7005-.794-1.4488-1.588-2.1972-2.3363-.5134-.5613-1.0746-1.0747-1.6336-1.588-1.077-1.029-2.1972-2.0558-3.4133-3.0848-1.1682-.9811-2.382-1.9622-3.6438-2.8976-1.2617-.9332-2.5713-1.8208-3.9243-2.7106a46.8182,46.8182,0,0,0-4.1138-2.5691,20.679,20.679,0,0,0-1.9622-1.12c-1.0746-.6092-2.1949-1.2161-3.3175-1.7773q-1.9609-1.0508-4.0658-1.9622c-1.3553-.6069-2.7106-1.2138-4.1115-1.7751-1.588-.6548-3.176-1.2618-4.8119-1.823-1.2161-.42-2.4778-.84-3.74-1.2139-2.4755-.794-4.9511-1.4967-7.5225-2.0557q-1.8926-.4927-3.7852-.8419a18.005,18.005,0,0,0-2.2884-.42c-.8876-.1871-1.7774-.3286-2.6649-.4678-.9332-.1414-1.9622-.2806-2.9433-.3741a23.6992,23.6992,0,0,0-2.5235-.2807c-1.4009-.1392-2.8041-.2806-4.2506-.3742A9.2436,9.2436,0,0,0,93.28,2.47c-1.029-.0479-2.01-.0935-3.0368-.0935-.7484-.048-1.5424-.048-2.3364-.048-1.4488,0-2.8977.048-4.3465.0936h-.2327a86.6705,86.6705,0,0,0-9.2063.9355h-.0936c-1.4944.2327-2.9889.4677-4.5313.794-1.31.2806-2.6649.5612-4.02.9354a75.6393,75.6393,0,0,0-22.0084,9.2041,44.2455,44.2455,0,0,0-3.9244,2.617c-1.31.9354-2.5691,1.9165-3.8331,2.9433-1.26,1.029-2.4756,2.0557-3.6438,3.1782-1.2138,1.1226-2.382,2.3364-3.5045,3.55A78.361,78.361,0,0,0,22.16,34.524,116.7826,116.7826,0,0,0,9.1248,58.4011c-.5157,1.31-.9834,2.5714-1.4032,3.8331A90.0232,90.0232,0,0,0,4.4977,73.4028a3.2365,3.2365,0,0,0-.0936.3262q-.14.77-.2806,1.5424c-.2327.8875-.3742,1.7751-.5134,2.617a25.02,25.02,0,0,0-.4221,2.5691,79.9475,79.9475,0,0,0-.8875,9.7653c-.0457,1.029-.0936,2.01-.0936,2.9912a10.95,10.95,0,0,0,0,1.73c0,.4677,0,.9811.0479,1.4488a21.1113,21.1113,0,0,0,.0936,2.43,17.2765,17.2765,0,0,0,.1392,2.1949c-.0457.0936,0,.1871,0,.2807.0935,1.4944.2806,2.9912.4677,4.44a94.7775,94.7775,0,0,0,1.823,9.9524c.0456.1871.0936.3263.1392.4677.1871.9811.4677,1.9143.7027,2.8042.0913.3262.1848.6069.2784.8875.1871.6069.3285,1.1682.5156,1.7751.3263,1.12.7,2.2428,1.0747,3.27.2806.7962.559,1.59.84,2.3363.0936.235.1871.4678.2806.6549.1871.4677.3742.9354.5613,1.3552.3742.9355.7,1.7751,1.0747,2.5235a60.9,60.9,0,0,0,2.8976,5.8409c.1392.2328.2807.4678.3719.6549.4678.794.7484,1.2138.8419,1.3552q1.191,1.8209,2.3843,3.5046c.4655.6525.9332,1.2617,1.3553,1.8686.3742.4678.7005.9332,1.0267,1.3553.794,1.0268,1.588,2.0558,2.3843,2.9912a11.2752,11.2752,0,0,0,1.1682,1.4009c1.12,1.4009,2.2885,2.6627,3.411,3.8788,1.0747,1.12,2.0558,2.1493,3.0825,3.176h.0479c.6069.5613,1.1682,1.1225,1.73,1.6359a65.5352,65.5352,0,0,0,10.8878,8.1773c1.0724.6069,2.0535,1.1682,2.989,1.6359.5612.2807,1.1225.5613,1.6359.794.2806.1415.5612.2807.794.3742,1.3553.6069,2.5714,1.0747,3.5981,1.4489.3285.0935.6069.187.8875.2806.235.0935.4678.1392.6549.2327.8875.2807,1.5423.4677,2.0078.6548a1.0138,1.0138,0,0,1,.235.1392.2484.2484,0,0,1,.1871.0936c.2806.2806-.1392.9811-1.1226,1.9622-.1392.1414-.3263.3285-.5133.5156-.6549.6069-1.4945,1.3074-2.43,2.0557A14.0033,14.0033,0,0,1,49.45,178.818c-.4678.3741-.9811.7483-1.4489,1.0746a3.9393,3.9393,0,0,1-.4677.3742,114.41,114.41,0,0,1-9.8132,6.3087c-.9332.5612-1.8687,1.029-2.7562,1.5423-.6069.3263-1.1682.6548-1.73.9355,1.0747.7,2.1493,1.4009,3.2239,2.0557.7028.4655,1.3553.8876,2.0558,1.2618h.0479a2.98,2.98,0,0,0,.7484.42,2.6058,2.6058,0,0,1,.3262.1871c.0936.0456.1871.0935.2807.1391a1.46,1.46,0,0,0,.3262.2351c.3263.187.6549.3262.9355.5133.1392.0456.2327.1392.3263.1392h.0456c.235.1415.5157.2806.7484.4221a5.2218,5.2218,0,0,1,.7027.3719h.0457c.5133.2806.981.5156,1.4488.7484h.0456a8.0905,8.0905,0,0,1,.8876.4677h.0935v.0479h.0479c.2807.1392.5134.2327.794.3719.3742.1871.7484.3742,1.0747.5157h.0479a10.1825,10.1825,0,0,1,1.0267.4654h.0936c.0935.0936.1391.1415.235.1415.0912.0456.1391.0935.2327.0935a2.4306,2.4306,0,0,0,.5133.2327c.0936.048.1871.0936.2807.1415.9354.3742,1.9165.7461,2.85,1.12.2807.0935.6092.1871.9355.3262.6069.2351,1.2617.4678,1.9143.7028.235.0935.4677.1392.6548.2327h.0935c.6549.2327,1.3553.42,2.0558.6548a8.8619,8.8619,0,0,1,1.3552.42c1.0291.2807,2.1037.5613,3.1783.842h.0457a11.8977,11.8977,0,0,0,1.3552.3262c.607.1415,1.2162.2807,1.871.4221q1.8207.3492,3.6437.7005c.9332.1392,1.823.2806,2.7562.42.3286.0479.7005.0936,1.029.1392.3742.0479.7484.0935,1.12.1414h.0479c.42.0457.8876.0936,1.3553.1392v.0479c1.12.0936,2.2428.1871,3.3175.2328.6069.0479,1.2617.0935,1.8686.0935,2.1972.0936,4.3465.1415,6.4958.0936h.84a2.15,2.15,0,0,0,.5156-.0457c.7461,0,1.4945-.0479,2.2885-.0479.235,0,.4221-.0456.6548-.0456a2.41,2.41,0,0,1,.6069-.0479c.1415,0,.3286-.0457.4678-.0457.2806,0,.5612-.0479.8419-.0479.5133-.0456,1.0267-.0935,1.4944-.0935a1.0467,1.0467,0,0,1,.3742-.0457c.559-.0935,1.12-.1414,1.6816-.1871.6548-.0479,1.31-.1414,1.9622-.2327.5612-.0479,1.0746-.1414,1.6359-.235,2.9912-.42,5.98-.9811,8.9257-1.6359.4677-.0935.8875-.1871,1.3073-.2806.1415-.0457.2807-.0457.42-.0936.235-.0456.4221-.0913.6092-.1392.3263-.0935.6069-.1391.8876-.2327,1.3553-.3285,2.71-.7027,4.0658-1.0746.2327-.0479.4655-.1415.7005-.1871a5.22,5.22,0,0,1,.794-.235c1.3073-.3742,2.5691-.794,3.8787-1.2138.3742-.1415.7461-.2351,1.12-.3742,1.73-.5613,3.4589-1.2161,5.1405-1.823,1.1225-.42,2.1972-.84,3.3174-1.3074.6092-.235,1.1682-.4677,1.7774-.7005,1.54-.6548,3.0825-1.31,4.5769-2.01,1.59-.7,3.1327-1.4032,4.6272-2.1493,1.6815-.794,3.3631-1.6359,4.9534-2.4778a3.62,3.62,0,0,1,.8419-.42c.3719-.2327.7461-.42,1.12-.6069a6.682,6.682,0,0,1,.607-.3263c1.7773-.9834,3.5524-1.9645,5.2819-2.9912.9332-.5133,1.8686-1.0746,2.7562-1.6359a4.9443,4.9443,0,0,0,.5133-.2806c.3742-.2328.7484-.42,1.1226-.6549a3.0015,3.0015,0,0,0,.4677-.3262c.4655-.2807.9332-.5613,1.353-.842q.5613-.3491,1.1226-.7c1.029-.6548,2.01-1.3074,2.9912-1.9143.2327-.1871.5133-.3742.794-.5613.794-.5156,1.4944-.9811,2.2428-1.4967,4.3921-2.9889,8.3165-5.9345,11.7275-8.5515.2807-.2327.5613-.42.7963-.6525,2.4756-1.9622,4.6728-3.74,6.5414-5.3276.0935-.0936.1848-.1392.2327-.2327.7-.5613,1.3074-1.1226,1.9166-1.636.5133-.42.9811-.8419,1.4009-1.2617,1.1225-.9811,1.9622-1.7751,2.5714-2.2907a7.6955,7.6955,0,0,0,.8875-.8876l.1392-.1392S195.0993,153.9118,194.07,153.1658ZM152.9966,114.99c-.42,5.56-.9331,10.42-1.4009,14.39-.1871,1.4968-.3263,2.852-.5133,4.0659-.6549,4.9077-1.1226,7.8031-1.2161,8.1316-5.1405,5.6539-10.42,10.84-17.9427,14.2989-4.3921,2.0078-8.8321,3.8308-13.3178,5.3732-1.1225.42-2.2428.794-3.3174,1.12-1.1226.3742-2.2429.7027-3.3175,1.029a116.4684,116.4684,0,0,1-13.27,3.2239,95.881,95.881,0,0,1-12.9436,1.6359,87.2066,87.2066,0,0,1-16.074-.3285,66.75,66.75,0,0,1-9.3-1.6336c-1.5424-.3286-2.9912-.7484-4.4857-1.2161-1.4488-.4678-2.8976-.9332-4.2985-1.4945h-.048c-1.4009-.5613-2.8041-1.1682-4.1593-1.823-1.353-.6548-2.7083-1.3074-4.018-2.1014-.8875-.5156-1.7751-1.029-2.6626-1.6359a16.9862,16.9862,0,0,1-2.01-1.3553c-.0936,0-.1871-.0935-.2807-.1871a24.7123,24.7123,0,0,1-2.5691-1.9165c-.0456-.0457-.0935-.0457-.1414-.0936a28.5563,28.5563,0,0,1-2.5212-2.1949q-1.0508-.91-2.1037-1.9622c-.42-.4221-.8419-.8419-1.2617-1.31l-.1392-.1392c-.5156-.5157-.9833-1.0746-1.4488-1.6359a30.2226,30.2226,0,0,1-2.1972-2.665,34.0252,34.0252,0,0,1-2.1493-2.9432,10.0188,10.0188,0,0,1-.794-1.1682c-.7483-1.1682-1.4944-2.3364-2.1972-3.5981q-1.4-2.454-2.6626-5.1861c-.3742-.794-.7484-1.636-1.0747-2.43a4.07,4.07,0,0,1-.3262-.6548,11.8774,11.8774,0,0,1-.4678-1.1682c-.0479-.0456-.0479-.0456-.0479-.0935a2.1724,2.1724,0,0,1-.1848-.5134.3437.3437,0,0,1-.0958-.1871,6.8254,6.8254,0,0,1-.4655-1.2617,1.6208,1.6208,0,0,1-.1871-.42,6.6539,6.6539,0,0,1-.3285-.8876v-.0479c-.559-1.4488-1.0746-2.9433-1.588-4.4377-.7484-2.3843-1.4488-4.7207-1.9622-7.0571a.6813.6813,0,0,1-.0935-.2806c-.2351-.9811-.4678-1.9622-.6549-2.9433-.3742-1.9622-.7-3.8787-.9811-5.793-.1391-.9834-.2327-1.9645-.3262-2.8977C9.31,99.055,9.17,97.5605,9.1248,96.0638a1.8671,1.8671,0,0,1-.0479-.5134v-.3742c.0479-.3263.0935-.7.1392-1.0267a3.7163,3.7163,0,0,1,.0935-.7028c0-.0935,0-.1391.0479-.1848a.9285.9285,0,0,1,.0457-.3741v-.0936h.0479c.0456-.2806.0935-.6092.1391-.8875.0936-.6092.235-1.2161.3742-1.8231.1415-.6069.2807-1.1681.4678-1.7294.0935-.3263.1871-.6548.2806-.9332a.64.64,0,0,1,.0935-.2806,10.4115,10.4115,0,0,1,.3263-1.1226c.0936-.2327.1871-.4677.2807-.7.0479-.2328.1391-.42.187-.607a.1767.1767,0,0,1,.0457-.1414l.0479-.0457v-.0479a.1722.1722,0,0,1,.0456-.1391c0-.048,0-.048.0479-.0936,0-.0479.0457-.0479.0457-.0935v-.0936a.7468.7468,0,0,1,.1414-.3742l.0457-.0456c.2806-.8875.6548-1.73,1.029-2.617a1.0037,1.0037,0,0,0,.1871-.2807c0-.0935.0456-.1414.0935-.235a18.9691,18.9691,0,0,1,.794-1.7271c.2807-.5613.559-1.1226.8876-1.6839a1.0393,1.0393,0,0,1,.1391-.2327c.048-.0935.0936-.1871.1415-.2806v-.0457c.0456-.0479.0935-.1414.1392-.1871a7.9378,7.9378,0,0,1,.7027-1.2161,6.847,6.847,0,0,1,.4655-.794c.235-.3742.4677-.794.7483-1.1682l.0457-.0456c.3742-.6092.794-1.2161,1.2161-1.823a29.7042,29.7042,0,0,1,1.823-2.43c.3263-.42.6525-.8419,1.0267-1.2618a37.0626,37.0626,0,0,1,2.8977-3.2239.5632.5632,0,0,1,.2327-.235c.4677-.5133.89-.9332,1.3553-1.3553a3.5992,3.5992,0,0,1,.7483-.7l.0457-.0936c.2806-.2327.5156-.4654.794-.7a1.9325,1.9325,0,0,1,.4677-.42,9.87,9.87,0,0,1,1.31-1.1226c.607-.5134,1.2618-1.0267,1.9143-1.54a5.7367,5.7367,0,0,1,.6548-.4677l.2351-.235a1.0453,1.0453,0,0,0,.2327-.1392c.2327-.1871.42-.3263.6069-.4677.5156-.3263,1.029-.7,1.5424-1.0268a4.6576,4.6576,0,0,1,.794-.5156,10.1862,10.1862,0,0,1,1.1681-.7484.4122.4122,0,0,1,.2807-.1391c.3263-.2328.6548-.42,1.029-.6549.3742-.2327.7461-.4654,1.12-.6525.1871-.0936.3742-.235.5612-.3286.1392-.0935.3263-.1391.4678-.2327,1.1682-.6069,2.3364-1.2161,3.55-1.73a3.6144,3.6144,0,0,1,.6069-.2806c.4221-.1871.8419-.3742,1.264-.5134a6.9839,6.9839,0,0,1,1.353-.5612c.8875-.3742,1.823-.7005,2.7585-1.0268.1391-.0479.2783-.0935.42-.1414.1871-.0457.3263-.0936.4677-.1392.6069-.1871,1.2618-.3742,1.8687-.5613.5612-.1871,1.1681-.3263,1.7751-.4677,1.9621-.5134,4.02-.8876,6.0759-1.2138a11.35,11.35,0,0,1,1.2617-.1871,1.0015,1.0015,0,0,1,.3742-.0479c.7005-.0936,1.353-.1871,2.0535-.2328h.1871a.4134.4134,0,0,0,.235-.0479q1.191-.0684,2.382-.1392h.235a.5806.5806,0,0,1,.2806-.0479c.8876-.0456,1.8208-.0456,2.7083-.0456a62.97,62.97,0,0,1,7.7575.4677,4.6125,4.6125,0,0,1,1.1225.1392s.0457-.0456.0457,0a73.7343,73.7343,0,0,1,8.1773,1.4967c.1415.0457.2327.0936.3742.1392.0456.0479.1414.0479.2327.0479a.3584.3584,0,0,1,.1871.0457H87.72c1.0267.2327,2.01.5133,3.0368.8419.1871.0456.3742.0935.5613.1392V48.59a.65.65,0,0,1,.2807.0935c.4677.1392.981.3263,1.4488.4655.2327.0935.5133.1871.794.2806.2783.0936.6069.1871.9332.3286a.1769.1769,0,0,1,.1414.0456c.2807.0935.559.1871.8876.2806V50.13c.0456,0,.1392.0479.1871.0479a1.5759,1.5759,0,0,1,.3262.1392,6.38,6.38,0,0,1,1.0747.4221c.0935.0456.2327.0456.3285.1391.794.2807,1.588.607,2.4277.9811,1.6359.7005,3.2262,1.4489,4.8142,2.2429,16.4938,8.3187,27.7558,19.3458,35.42,30.747,1.6336,2.43,3.0847,4.86,4.3921,7.29.6069,1.1225,1.2138,2.2428,1.7751,3.411.0479.0935.0479.1392.0935.2327.6069,1.2161,1.1682,2.3843,1.6816,3.5981.0935.235.1871.4678.2806.7028a2.1284,2.1284,0,0,1,.2807.7h.0479q.4893,1.191.9811,2.382a.435.435,0,0,1,.0456.235h.0479c.3263.84.6069,1.6816.9332,2.5235a.831.831,0,0,1,.0935.3263c.6549,2.01,1.31,3.9723,1.8231,5.8409a8.8087,8.8087,0,0,1,.3262,1.029C153.1381,113.7737,153.09,114.3806,152.9966,114.99Z"/>
        <path class="cls-3" d="M153.1381,113.2124a11.293,11.293,0,0,1-1.2617,1.6838,16.2259,16.2259,0,0,1-1.2161,1.3553,20.1987,20.1987,0,0,1-3.9723,3.13,18.4944,18.4944,0,0,1-2.5212,1.3073,18.9582,18.9582,0,0,1-5.234,1.4489,11.9736,11.9736,0,0,1-1.8231.1414,4.6292,4.6292,0,0,1-.794.0457h-.2806a11.9914,11.9914,0,0,1-1.823-.1392h-.2784a.1672.1672,0,0,1-.0958-.0479h-.0913c-.7027-.0936-1.4032-.2328-2.058-.3742a4.0748,4.0748,0,0,1-.7-.2327.0663.0663,0,0,1-.0936,0,4.2033,4.2033,0,0,1-.794-.2328c-.1392-.0479-.2806-.0958-.42-.1414a1.586,1.586,0,0,1-.42-.1871c-.235-.0936-.4221-.1871-.6548-.2807-.0936,0-.1415-.0456-.235-.0935-.2784-.1392-.559-.2806-.84-.42-.1871-.0936-.3285-.1871-.5156-.2807-.2327-.1391-.4655-.2806-.7005-.42H126.27c-.1871-.1414-.4221-.2806-.6092-.4221-.0456,0-.0456-.0456-.0913-.0912a2.2,2.2,0,0,1-.5156-.3742.6119.6119,0,0,1-.2784-.235,3.6781,3.6781,0,0,1-.7027-.559,2.5249,2.5249,0,0,1-.3742-.3286.5578.5578,0,0,1-.2327-.2327,14.96,14.96,0,0,1-1.823-2.01c-.3719-.5134-.7461-1.029-1.0747-1.588v-.0479c-.1391-.2328-.2806-.4655-.42-.7005a4.6727,4.6727,0,0,1-.4677-.9811,2.7824,2.7824,0,0,1-.2327-.5613c-.048-.0935-.0936-.2327-.1415-.3262-.0936-.0936-.0936-.2328-.1392-.3286a2.2889,2.2889,0,0,1-.2806-.794,5.6856,5.6856,0,0,1-.235-.84.3659.3659,0,0,1-.0913-.1871,16.7562,16.7562,0,0,1-.4221-2.1037,22.13,22.13,0,0,1-.0935-3.0368,12.5725,12.5725,0,0,1,.1414-1.8686,13.0356,13.0356,0,0,1,.4655-2.3364,18.5666,18.5666,0,0,1,1.8709-4.5792,17.5619,17.5619,0,0,1,1.3553-2.1037,19.9386,19.9386,0,0,1,1.3553-1.588,1.0346,1.0346,0,0,1,.3262-.3262,18.595,18.595,0,0,1,4.0659-3.2719,1.3576,1.3576,0,0,1,.3719-.1871.4107.4107,0,0,1,.2829-.1414c.0456-.0913.1392-.0913.1848-.1392.0935-.0456.1415-.0936.235-.0936a2.5275,2.5275,0,0,1,.7005-.3741c.2806-.1392.5133-.2328.7483-.3742a16.1749,16.1749,0,0,1,1.9143-.7C70.8973,28.4024,25.6186,69.7567,10.7128,87.421c-.0935.2784-.1871.6069-.2806.9332-.1871.5613-.3263,1.1682-.4678,1.7294-.1392.607-.2806,1.2139-.3742,1.8231-.0456.2783-.0935.6069-.1391.8875H9.4032v.0936a.9285.9285,0,0,0-.0457.3741.27.27,0,0,1-.0479.1848,3.7163,3.7163,0,0,0-.0935.7028c-.0457.3263-.0913.7-.1392,1.0267V95.55a1.7028,1.7028,0,0,0,.0479.5134c.0456,1.4967.1848,2.9912.3263,4.5335.2806-.6548.559-1.2161.8875-1.823a14.4685,14.4685,0,0,1,2.3364-2.8976,8.0208,8.0208,0,0,1,1.2138-.9811c.1415-.0936.2806-.1871.4221-.2807a2.1278,2.1278,0,0,1,.6069-.3719c.0936-.0935.1871-.0935.2327-.1414a1.0636,1.0636,0,0,0,.235-.1392.371.371,0,0,0,.1871-.0936c.1392-.0479.2784-.1414.42-.187a3.7,3.7,0,0,1,.6548-.2351.7494.7494,0,0,1,.42-.1391c.0479-.0457.0935-.0457.1871-.0457a8.7539,8.7539,0,0,1,1.588-.3741H18.89a5.0591,5.0591,0,0,1,.8876-.0936,11.2824,11.2824,0,0,1,3.27.2327,1.2736,1.2736,0,0,1,.5613.1392,5.0578,5.0578,0,0,1,1.1225.2806,14.3649,14.3649,0,0,1,1.7751.7484c.0457,0,.0936.0479.1871.0936a4.2622,4.2622,0,0,1,.42.2327,11.537,11.537,0,0,1,1.7294,1.0769c7.429,5.3253,10.7464,16.3067,7.429,24.5776a14.74,14.74,0,0,1-.7461,1.4944,3.1233,3.1233,0,0,1-.1415.3742,12.59,12.59,0,0,1-2.5691,3.2239c-.1871.1871-.4221.3286-.6092.5157a1.01,1.01,0,0,1-.2783.1871c-.235.1848-.4678.3262-.7028.5133a7.0266,7.0266,0,0,1-1.4465.7461,6.8384,6.8384,0,0,1-1.3553.5157,10.1415,10.1415,0,0,1-3.5981.5133h-.4677c-.2807-.0479-.5613-.0935-.842-.1391a2.5912,2.5912,0,0,1-.6069-.048h-.0935a10.765,10.765,0,0,1-1.9166-.5133,14.9806,14.9806,0,0,1-2.5234-1.1226,15.4061,15.4061,0,0,1-1.588-1.0267h-.0457a7.96,7.96,0,0,1-1.2617-1.029c-.1415-.1392-.2806-.2327-.4221-.3742v.0479a6.6539,6.6539,0,0,0,.3285.8876c.0457.1391.1392.2806.1871.42a6.8254,6.8254,0,0,0,.4655,1.2617c.0479.0479.0479.1415.0958.1871a2.1724,2.1724,0,0,0,.1848.5134.1667.1667,0,0,1,.0479.0935,11.8774,11.8774,0,0,0,.4678,1.1682,4.07,4.07,0,0,0,.3262.6548c.3263.794.7005,1.636,1.0747,2.43q1.2629,2.7345,2.6626,5.1861c.7028,1.2617,1.4489,2.43,2.1972,3.5981a10.0188,10.0188,0,0,0,.794,1.1682,34.0252,34.0252,0,0,0,2.1493,2.9432,30.2226,30.2226,0,0,0,2.1972,2.665c.4655.5613.9332,1.12,1.4488,1.6359l.1392.1392c.42.4677.8419.8875,1.2617,1.31q1.0507,1.0508,2.1037,1.9622a28.5563,28.5563,0,0,0,2.5212,2.1949c.0479.0479.0958.0479.1414.0936.842.7,1.6816,1.31,2.5691,1.9165.0936.0936.1871.1871.2807.1871.6548.4677,1.3553.9332,2.01,1.3553.8875.6069,1.7751,1.12,2.6626,1.6359,1.31.7461,2.665,1.4466,4.018,2.1014,1.3552.6548,2.7584,1.2617,4.1593,1.823h.048c1.4009.5613,2.85,1.0267,4.2985,1.4945,1.4945.4677,2.9433.8875,4.4857,1.2161a66.75,66.75,0,0,0,9.3,1.6336,87.2066,87.2066,0,0,0,16.074.3285,95.881,95.881,0,0,0,12.9436-1.6359,116.4684,116.4684,0,0,0,13.27-3.2239c1.0746-.3263,2.1949-.6548,3.3175-1.029,1.1225-.3719,2.1949-.7461,3.3174-1.12,4.4857-1.5424,8.9257-3.3654,13.3178-5.3732,7.5225-3.4589,12.8022-8.645,17.9427-14.2989.0935-.3285.5612-3.2239,1.2161-8.1316.187-1.2139.3262-2.5691.5133-4.0659.4678-3.97.9811-8.83,1.4009-14.39.0936-.6092.1415-1.2161.1871-1.8687C153.1837,113.1668,153.1381,113.1668,153.1381,113.2124Z"/>
        <path class="cls-4" d="M92.5962,136.3337c-12.6431,4.4826-30.4506,5.5634-51.9665-7.1265a2.3149,2.3149,0,1,1,2.3528-3.9874c40.758,24.0487,66.0892-4.0769,67.1435-5.28a2.3126,2.3126,0,0,1,3.4875,3.038A54.4626,54.4626,0,0,1,92.5962,136.3337Z"/>
        <path class="cls-3" d="M140.403,84.87a19.7575,19.7575,0,0,0-8.3316.7777C70.8921,28.3934,25.6379,69.7451,10.7166,87.4231c9.1831-30.9882,48.63-56.2412,94.244-33.3258A91.6428,91.6428,0,0,1,140.403,84.87Z"/>
        <path class="cls-5" d="M36.2627,120.1612c-3.322,8.2261-12.07,10.58-19.5085,5.2511a16.7807,16.7807,0,0,1-1.7254-1.4255,91.1029,91.1029,0,0,1-5.5753-23.3911c3.3843-8.0126,12.05-10.28,19.3967-5.0019C36.2883,100.9221,39.59,111.9023,36.2627,120.1612Z"/>
        <path class="cls-4" d="M102.9024,99.0857a5.8426,5.8426,0,0,1-2.992,4.1407,4.9614,4.9614,0,0,1-1.6538.6095c-.1742.0358-.381.0655-.5878.0954a5.552,5.552,0,0,1-1.6726-.0343,2.239,2.239,0,0,1-.6386-.1835,2.85,2.85,0,0,1-.5352-.1982,5.9192,5.9192,0,0,1-3.6253-6.5566,5.8,5.8,0,0,1,.7706-2.0506l.0059-.0327a6.8335,6.8335,0,0,1,1.1413-1.3092,5.7351,5.7351,0,0,1,4.3264-1.4718,2.2389,2.2389,0,0,1,.662.0528,4.6731,4.6731,0,0,1,1.579.5566A5.9321,5.9321,0,0,1,102.9024,99.0857Z"/>
        <path class="cls-4" d="M54.9024,100.0857a5.8426,5.8426,0,0,1-2.992,4.1407,4.9614,4.9614,0,0,1-1.6538.6095c-.1742.0358-.381.0655-.5878.0954a5.552,5.552,0,0,1-1.6726-.0343,2.239,2.239,0,0,1-.6386-.1835,2.85,2.85,0,0,1-.5352-.1982,5.9192,5.9192,0,0,1-3.6253-6.5566,5.8,5.8,0,0,1,.7706-2.0506l.0059-.0327a6.8335,6.8335,0,0,1,1.1413-1.3092,5.7351,5.7351,0,0,1,4.3264-1.4718,2.2389,2.2389,0,0,1,.662.0528,4.6731,4.6731,0,0,1,1.579.5566A5.9321,5.9321,0,0,1,54.9024,100.0857Z"/>
        <path class="cls-5" d="M153.1616,113.1388a20.2709,20.2709,0,0,1-6.4576,6.241c-8.59,5.2131-19.3907,3.2842-25.0418-4.1461a14.1764,14.1764,0,0,1-1.1139-1.6515c-5.2753-8.7774-2.0834-20.3974,7.1029-25.94a20.9248,20.9248,0,0,1,4.42-1.9941,19.7575,19.7575,0,0,1,8.3316-.7777A96.5477,96.5477,0,0,1,150.93,105.9255C151.794,108.4079,152.5341,110.8343,153.1616,113.1388Z"/>
        <path class="cls-1" d="M36.2641,120.1751c-3.3217,8.2262-12.07,10.58-19.5083,5.2511a16.8044,16.8044,0,0,1-1.7254-1.4255A91.1063,91.1063,0,0,1,9.4551,100.61c3.3843-8.0126,12.05-10.28,19.3967-5.002C36.29,100.9361,39.592,111.9163,36.2641,120.1751Z"/>
        <path class="cls-1" d="M153.1616,113.1388a20.2709,20.2709,0,0,1-6.4576,6.241c-8.59,5.2131-19.3907,3.2842-25.0418-4.1461a14.1764,14.1764,0,0,1-1.1139-1.6515c-5.2753-8.7774-2.0834-20.3974,7.1029-25.94a20.9248,20.9248,0,0,1,4.42-1.9941,19.7575,19.7575,0,0,1,8.3316-.7777A96.5477,96.5477,0,0,1,150.93,105.9255C151.794,108.4079,152.5341,110.8343,153.1616,113.1388Z"/>
        <path class="cls-1" d="M9.0292,95.3085l.0234-.13"/>
        <path class="cls-1" d="M160.2589,117.9335q-4.6919-6.4132-9.3291-12.0079A212.4279,212.4279,0,0,0,132.0713,85.648"/>
        <path class="cls-1" d="M10.7165,87.4232a74.6032,74.6032,0,0,0-5.3157,6.9877"/>
        <path class="cls-4" d="M79.4733,170.5488c-26.6524,0-50.8116-10.8263-63.35-37.9213-1.3188-2.8274-2.3938-5.3973-3.27-7.8453a2.3128,2.3128,0,0,1,3.7668-2.4616,14.1352,14.1352,0,0,0,1.486,1.2286,11.0176,11.0176,0,0,0,9.521,2.05,10.1855,10.1855,0,0,0,6.49-6.2916c2.9493-7.3079-.0181-17.1-6.6123-21.82A11.0131,11.0131,0,0,0,18.07,95.4108a10.1133,10.1133,0,0,0-6.4814,6.0974,2.3143,2.3143,0,0,1-4.4307-.6323c-.2168-1.8789-.3343-3.74-.4156-5.5961,2.3306-18.4457,14.6248-35.4281,32.1-44.7187,20.1168-10.7,43.9644-10.1849,67.1526,1.4724a94.2482,94.2482,0,0,1,36.3224,31.5484,2.3143,2.3143,0,0,1-2.2086,3.5861,17.35,17.35,0,0,0-11.2644,2.4525c-8.0937,4.887-10.93,15.1035-6.3187,22.7727a15.5484,15.5484,0,0,0,9.7107,7.1181,17.392,17.392,0,0,0,13.2607-2.1092,17.9654,17.9654,0,0,0,5.718-5.5193,2.3141,2.3141,0,0,1,4.25,1.4227c-1.17,16.1062-2.9674,26.6976-3.3152,28.6578a2.3558,2.3558,0,0,1-.5736,1.1743c-4.7333,5.1941-10.4784,11.0521-18.7032,14.828C115.7325,165.8335,97.0564,170.5488,79.4733,170.5488Zm-59.619-40.8751c.1536.33.3071.6639.4652,1.0026,13.0123,28.1068,49.7774,51.0285,110.62,23.0888,7.2-3.3061,12.249-8.324,16.7656-13.2471.4336-2.5293,1.6079-9.932,2.5971-20.8486a22.8674,22.8674,0,0,1-2.3983,1.6847,21.97,21.97,0,0,1-16.7837,2.6467,20.1436,20.1436,0,0,1-12.5606-9.2274c-5.9213-9.8507-2.38-22.9081,7.8905-29.1094a22.5874,22.5874,0,0,1,9.4306-3.1481,90.3357,90.3357,0,0,0-31.9684-26.3543C82.1245,45.2134,59.7855,44.6714,41.01,54.6441c-15.6048,8.2969-26.7382,23.161-29.412,39.1a13.779,13.779,0,0,1,5.2212-2.7868,15.5892,15.5892,0,0,1,13.3826,2.7732c8.36,5.9845,11.9645,17.9806,8.2067,27.3073a14.7361,14.7361,0,0,1-9.4894,9.0061A14.4511,14.4511,0,0,1,19.8543,129.6737Zm130.0146,11.9057h0Z"/>
        <path class="cls-4" d="M69.2342,122.1761c-2.1047,0-4.3043-.5239-5.5825-2.3938-2.7416-4.0152,1.4679-10.5778,2.8229-12.4929a2.312,2.312,0,0,1,3.7758,2.6693c-1.9737,2.8048-3.3513,6.3775-2.7777,7.2176.1762.2574,1.5763.79,5.5645-.2078a2.3125,2.3125,0,0,1,1.111,4.4895A20.7572,20.7572,0,0,1,69.2342,122.1761Z"/>
        <path class="cls-4" d="M85.6159,207.2822a95.0653,95.0653,0,0,1-53.7113-16.3455,2.3145,2.3145,0,0,1,.2619-4.0017A100.3121,100.3121,0,0,0,51.222,174.4014c-6.3367-2.0776-22-8.22-38.7794-33.49-.3523-.5284-32.42-50.1838,7.8092-107.7252C36.1185,10.5034,61.7637-1.1991,92.7385.0972c32.7634,1.4318,64.646,18.0347,77.5273,40.3783,21.0247,36.4805,25.04,72.8526,11.1379,100.178,7.2311,5.718,15.5822,11.7386,15.6681,11.8064a2.2859,2.2859,0,0,1,.953,1.6937,2.3115,2.3115,0,0,1-.6775,1.8247C196.6743,156.6467,144.6116,207.2777,85.6159,207.2822ZM37.7671,189.1888c66.6558,40.699,141.2789-22.714,154.3319-34.6332-3.3242-2.4345-9.7062-7.1679-15.0764-11.4812a2.3112,2.3112,0,0,1-.5871-2.9087c14.182-26.0607,10.4739-61.5566-10.18-97.3777-12.1316-21.0473-42.447-36.7018-73.72-38.07-16.9779-.6685-48.3592,2.3215-68.49,31.1148-38.4633,55.012-8.0666,102.0523-7.755,102.522h0C33.237,163.86,48.6431,168.7376,53.7062,170.341a6.3976,6.3976,0,0,1,2.71,1.2421,2.9938,2.9938,0,0,1,.7588,2.326C56.6419,177.283,45.2872,184.9387,37.7671,189.1888Z"/>
        <path class="cls-4" d="M25.0032,130.6A16.5027,16.5027,0,0,1,15.41,127.307a19.3017,19.3017,0,0,1-1.9693-1.626,2.3334,2.3334,0,0,1-.5736-.8627,93.4458,93.4458,0,0,1-5.7134-23.9876,2.3207,2.3207,0,0,1,.1716-1.12,14.6409,14.6409,0,0,1,9.4939-8.7532,15.5892,15.5892,0,0,1,13.3826,2.7732c8.36,5.9845,11.9645,17.9806,8.2067,27.3073v.0046a14.74,14.74,0,0,1-9.4894,9.0015A14.0937,14.0937,0,0,1,25.0032,130.6ZM17,122.6684a14.0957,14.0957,0,0,0,1.1066.8808,11.0176,11.0176,0,0,0,9.521,2.05,10.1889,10.1889,0,0,0,6.49-6.2871h0C37.067,112,34.1,102.2083,27.5054,97.4884A11.0131,11.0131,0,0,0,18.07,95.4108a9.9762,9.9762,0,0,0-6.251,5.578A88.8318,88.8318,0,0,0,17,122.6684Zm19.2633-2.4931h0Z"/>
        <path class="cls-4" d="M136.3462,124.6422a21.6352,21.6352,0,0,1-5.2257-.6414,20.1436,20.1436,0,0,1-12.5606-9.2274c-5.9213-9.8507-2.38-22.9081,7.8905-29.1094a22.38,22.38,0,0,1,14.2362-3.0848,2.3225,2.3225,0,0,1,1.635,1.0072,98.1555,98.1555,0,0,1,13.0665,28.9468,2.3108,2.3108,0,0,1-.289,1.8608,22.6977,22.6977,0,0,1-7.1949,6.96A22.2324,22.2324,0,0,1,136.3462,124.6422Zm1.5989-37.61a17.5064,17.5064,0,0,0-9.101,2.588c-8.0937,4.887-10.93,15.1035-6.3187,22.7727a15.5484,15.5484,0,0,0,9.7107,7.1181,17.392,17.392,0,0,0,13.2607-2.1092,18.087,18.087,0,0,0,5.1444-4.6882,93.5079,93.5079,0,0,0-11.567-25.6452C138.6993,87.0416,138.32,87.0325,137.9451,87.0325Z"/>
        <g class="cls-6">
          <path class="cls-7" d="M81.5921,10.5076c25.73-3.7756,59.6861,10.9755,72.6785,33.8921a1.693,1.693,0,0,1-2.7486,1.9018C132.428,28.5871,107.068,18.48,81.6544,13.8489a1.6988,1.6988,0,0,1-.0623-3.3413Z"/>
        </g>
        <g class="cls-8">
          <path class="cls-9" d="M140.403,84.87a19.7575,19.7575,0,0,0-8.3316.7777C63.1867,30.7341,26.3142,67.8459,8.04,94.8568c10.2752-38.5748,51.3057-63.6749,96.92-40.76A91.6428,91.6428,0,0,1,140.403,84.87Z"/>
        </g>
      </g>
    </g>
  </g>
</svg>
