<svg width="254" height="347" viewBox="0 0 254 347" fill="none" xmlns="http://www.w3.org/2000/svg">
<path d="M253.037 267.193V346.876H1.03232C0.932527 345.739 0.76267 344.721 0.76267 343.702C0.745684 329.749 0.792395 315.798 0.715959 301.852C0.70322 299.302 1.56524 298.198 3.92626 296.804C6.47412 295.29 7.93065 291.918 9.91585 289.409C10.7439 288.362 11.5295 287.007 12.6527 286.514C16.4405 284.846 20.6062 285.146 24.1902 281.526C26.7848 278.902 30.6257 275.112 35.8679 276.085C36.5219 276.206 37.5835 274.129 39.1823 272.187L51.7581 273.434C50.998 265.699 50.3504 258.814 49.6349 251.933C48.983 245.63 48.1486 239.342 47.6305 233.026C47.4394 230.69 48.2675 228.249 48.0318 225.914C47.7282 222.87 47.3354 219.656 46.087 216.926C43.9276 212.203 44.3162 210.128 48.9278 207.579C52.2528 205.735 55.0852 203.372 57.2572 199.336L49.0297 201.39L48.5032 199.956C49.4841 199.355 50.4502 198.731 51.4438 198.157C53.6053 196.914 55.9981 195.96 57.8963 194.403C60.3465 192.391 61.0259 189.689 58.4483 187.206C56.3102 185.147 53.8155 183.465 51.6201 181.47C49.8833 179.883 47.5732 178.332 46.881 176.299C44.1357 168.246 39.0251 161.743 34.3328 154.865C30.768 149.634 26.3262 144.47 27.305 137.302C27.5003 135.866 27.7572 134.439 27.942 133.001C28.7127 126.982 29.8359 120.981 30.1267 114.943C30.4091 108.995 33.6279 104.698 37.0654 100.561C39.7831 97.292 38.9869 95.6903 36.2352 92.799C26.2306 82.2409 16.8078 70.8606 16.0392 55.631C15.6485 47.7964 17.6295 39.6707 19.5595 31.9316C22.3706 20.6512 30.0439 13.2648 40.6303 8.68463C45.9957 6.3627 51.4884 5.787 57.1638 6.68773C59.977 7.13385 62.2361 6.91504 64.9475 5.30689C76.5296 -1.55694 87.6149 -0.949375 96.8488 10.2418C102.637 17.2522 102.959 29.257 97.1588 34.8207C95.5069 36.4076 92.855 36.9727 90.6278 37.9266C89.3262 38.4831 87.9271 38.8103 86.6276 39.3669C81.7761 41.4403 78.1815 39.813 77.0137 34.6189C76.26 31.2794 76.0562 27.8209 75.5933 24.4071C74.8671 19.0728 67.9264 11.9052 62.6417 11.3422C61.6098 11.2339 59.907 11.9965 59.4866 12.842C58.839 14.1443 58.4526 16.1029 58.9706 17.3648C60.8645 21.9704 60.7265 23.7591 57.5375 25.6243L56.5926 19.2874L55.0894 19.3575C44.9319 42.3559 40.0549 66.2486 42.7747 92.4145C44.2058 91.2397 44.9362 90.7554 45.5349 90.1393C52.7793 82.5702 59.9261 74.9012 67.2979 67.4595C68.8839 65.8599 71.2938 65.093 73.2769 63.863C74.1092 63.3468 75.0221 62.7604 75.5402 61.9723C77.483 59.0194 78.6104 54.9385 81.2878 53.205C85.2396 50.6843 89.7406 49.1541 94.4092 48.7438C101.066 48.2382 107.83 49.2749 114.552 49.5044C123.843 49.8209 132.302 47.5627 140.844 43.435C149.536 39.2352 155.116 31.9635 162.305 26.353C165.571 23.8038 169.998 21.8472 174.081 21.433C186.41 20.186 198.498 22.2466 210.388 25.7327C224.482 29.8688 237.444 36.3779 249.905 44.0023C250.351 44.2765 250.763 44.6039 251.13 44.9773C251.285 45.1345 251.27 45.4596 251.536 46.5366C250.154 46.2052 249.026 46.1479 248.105 45.6869C240.208 41.6909 232.463 37.3764 224.452 33.6311C211.515 27.5851 197.742 25.5054 183.525 25.7029C176.716 25.7985 169.936 25.8453 163.779 29.1742C161.339 30.4934 159.157 32.2864 156.25 34.2727C162.652 35.696 168.068 36.5202 173.236 38.1539C178.353 39.7748 183.215 42.2093 188.44 44.3931C187.782 44.6056 186.784 45.3045 185.926 45.16C183.342 44.7203 180.406 44.5822 178.331 43.2141C166.983 35.7024 156.203 37.2786 145.209 44.0639C137.033 49.1114 128.158 52.676 118.397 53.154C113.503 53.3941 108.584 53.1838 103.681 53.0414C95.9528 52.8184 88.6893 54.3054 82.1795 58.6455C80.8355 59.542 79.6932 60.7402 77.4256 62.6818C91.373 66.7054 105.027 68.441 115.055 78.6422L115.656 77.8668C115.472 77.2954 115.168 76.7303 115.134 76.1503C115.083 75.256 115.217 74.351 115.27 73.4502C115.996 73.8942 117.032 74.164 117.393 74.8098C118.667 77.0999 119.888 79.4473 120.773 81.9052C123.302 88.9156 124.096 96.5379 128.19 103.047C129.143 104.564 129.292 106.571 129.901 108.324C130.285 109.429 130.559 111.086 131.36 111.447C135.542 113.359 135.018 117.255 136.143 120.726C139.831 132.121 142.583 144.062 151.524 153.016C152.118 153.611 152.148 154.773 152.441 155.672C151.517 155.504 150.551 155.459 149.681 155.13C149.141 154.918 148.753 154.316 147.468 154.142C147.744 155.574 148.02 157.007 148.294 158.44C150.231 168.637 150.598 178.555 145.235 188.126C138.7 199.786 132.54 211.662 126.408 223.541C119.686 236.566 117.833 250.635 120.009 264.86C121.453 274.301 125.037 283.406 127.534 292.689C128.313 295.589 128.689 298.599 129.217 301.563C129.417 302.684 129.531 303.823 129.854 306.194C133.166 302.436 137.721 301.86 139.171 297.242C139.564 295.991 141.307 294.79 142.691 294.302C145.163 293.424 147.906 293.318 150.388 292.46C151.524 292.067 152.369 290.705 153.241 289.698C155.326 287.276 157.076 284.485 159.471 282.437C161.866 280.389 164.934 279.038 167.664 277.319C168.053 277.075 168.514 276.389 168.425 276.022C167.187 270.579 171.641 271.363 174.484 270.468C176.119 269.954 177.847 269.738 179.486 269.234C180.202 269.022 181.397 268.34 181.363 267.996C180.886 263.978 184.1 263.507 186.943 262.555C186.47 261.308 186.119 260.39 185.816 259.581C185.952 259.298 185.975 259.122 186.066 259.075C189.455 257.335 192.848 255.603 196.245 253.879C198.266 252.853 200.47 252.084 202.277 250.769C206.099 247.982 209.609 244.753 213.458 242.002C217.823 238.881 220.751 234.853 222.524 229.846C224.499 224.263 226.577 218.717 229.743 212.851C229.955 214.105 230.626 215.522 230.267 216.588C228.214 222.676 225.915 228.684 223.337 235.707C231.524 231.267 235.185 224.125 239.353 217.249C242.198 218.591 241.155 220.089 240.024 221.937C232.975 233.436 222.471 240.844 210.87 247.041C208.577 248.267 206.623 250.149 204.53 251.727L205.118 253.023C206.371 253.023 207.628 252.961 208.874 253.038C210.87 253.161 213.532 252.511 212.53 256.273C212.42 256.698 214.05 258.054 214.925 258.107C215.842 258.164 216.974 257.327 217.743 256.596C218.944 255.453 219.959 252.942 220.978 252.985C225.989 253.174 231.416 252.985 235.841 254.897C240.512 256.913 244.191 261.198 248.368 264.399C249.682 265.425 251.226 266.13 253.037 267.193ZM64.5207 179.701C64.4591 180.261 64.3275 181.02 64.3084 181.782C63.9644 190.917 62.0642 199.852 57.34 207.574C50.775 218.305 49.9087 229.668 51.1699 241.615C51.894 248.428 53.2507 255.211 53.3972 262.035C53.5671 270.107 58.3209 277.362 68.6589 274.832C78.0265 272.542 79.7548 273.77 83.6339 282.516C84.5915 284.674 85.5448 286.953 85.8336 289.261C86.2985 293.042 88.5937 294.359 91.8656 295.009C98.4476 296.299 105.066 297.543 111.612 299.058C120.831 301.183 123.056 299.483 122.64 290.187C122.597 289.261 122.606 288.302 122.359 287.425C119.928 278.779 117.355 270.171 115 261.508C111.293 247.861 109.076 234.186 113.089 220.083C113.951 217.049 113.017 213.391 112.389 210.119C112.212 209.191 110.234 208.161 109.011 208.061C108.359 208.01 107.233 209.76 106.887 210.859C106.134 213.285 105.286 215.422 101.664 216.337L105.248 207.217C98.7385 209.682 101.497 201.437 97.0548 201.622C96.7607 201.856 96.4434 202.059 96.1078 202.227C94.8063 202.737 93.4856 203.2 92.1714 203.68C92.8402 202.563 93.4134 201.373 94.1948 200.341C95.5473 198.559 97.0314 196.876 99.0654 194.418C91.9102 194.182 86.8761 191.797 83.7358 186.868C81.8992 183.985 80.0797 182.968 76.7292 182.696C72.6526 182.36 68.695 180.784 64.5207 179.701ZM100.45 320.567L100.554 319.531L117.497 318.66C117.497 318.211 117.478 317.763 117.469 317.315L112.968 315.571C114.072 314.545 115.009 313.234 115.401 313.381C118.633 314.581 120.334 311.881 122.228 310.494C123.463 309.587 123.593 307.169 124.217 305.429C122.826 305.004 121.457 304.346 120.036 304.208C118.482 304.055 116.875 304.537 115.3 304.473C106.452 304.11 97.611 303.592 88.7594 303.326C87.305 303.281 85.2008 303.774 84.4556 304.792C80.2368 310.564 76.4383 316.637 72.3044 322.473C68.9455 327.219 66.2787 332.2 66.1811 338.125C66.1598 339.502 67.0304 341.074 67.9497 342.162C68.2194 342.484 70.092 341.524 71.1897 341.072C72.1473 340.666 73.0454 340.12 73.9775 339.651C78.7696 337.237 83.721 335.087 88.3198 332.345C93.3455 329.347 98.0463 325.804 102.93 322.471L100.45 320.567ZM58.2763 9.81692C56.0746 9.54713 54.1976 8.96717 52.3993 9.15412C43.2164 10.1101 35.3605 13.2244 28.7445 20.4324C25.4614 23.979 23.064 28.253 21.7485 32.9046C18.672 43.9024 18.173 55.374 21.4768 66.442C22.9927 71.5256 26.2986 76.076 28.7912 80.8685L30.3136 80.2312C30.2265 79.2795 30.2053 78.3193 30.0461 77.3761C29.1501 72.0652 27.3432 66.7203 27.5449 61.4433C27.7572 55.9072 30.1374 50.488 31.114 44.9391C32.6789 36.038 36.8807 28.471 42.5539 21.7325C45.1018 18.701 47.4649 14.5819 52.1912 14.7518C55.6032 14.892 56.8963 13.1862 58.2763 9.81692ZM65.3042 8.41059C77.105 17.3329 77.105 17.3329 79.4788 32.246C79.6232 33.1595 79.4639 34.4001 79.999 34.9142C81.1137 35.9913 82.6317 37.4337 83.9227 37.3742C86.5915 37.2531 89.4982 36.7369 91.7786 35.4623C94.0079 34.2132 96.3796 32.1249 97.2989 29.8433C100.403 22.2232 97.696 13.5133 91.5068 7.96235C85.4238 2.4921 70.3214 1.34919 65.2978 8.41059H65.3042ZM52.4205 18.5141L51.1763 17.6282C49.3227 18.9135 46.9915 19.8439 45.7196 21.5626C43.4881 24.5707 41.7301 27.9696 40.0889 31.3686C35.6301 40.6288 34.5091 50.5241 35.0144 60.6594C35.301 66.4505 35.6514 72.2415 36.1694 78.0155C36.3393 79.9487 37.0697 81.8394 37.5453 83.7386L38.9572 83.7003C39.0782 61.0758 43.0041 39.2288 52.4205 18.5141ZM31.8253 54.554C29.2923 60.8018 30.4495 72.9765 33.3328 76.6729C32.8126 68.8807 32.3243 61.7174 31.8359 54.554H31.8253ZM52.0383 210.253L51.1338 209.469C50.051 210.381 48.5011 211.105 48.0382 212.265C47.6942 213.115 48.7643 214.542 49.206 215.713L50.1444 215.513C50.7828 213.761 51.4176 212.008 52.049 210.253H52.0383Z" fill="#3F3F3F"/>
</svg>
