<svg xmlns="http://www.w3.org/2000/svg" viewBox="0 0 65.4979 67.1831">
  <defs>
    <style>
      .cls-1 {
        fill: #ff975d;
      }
    </style>
  </defs>
  <g id="Layer_2" data-name="Layer 2">
    <g id="Layer_1-2" data-name="Layer 1">
      <path class="cls-1" d="M33.6957,2.1587a7.5737,7.5737,0,0,1,12.78,4.3488l1.4176,10.3609a7.52,7.52,0,0,0,4.057,5.67l9.4229,4.7907a7.3975,7.3975,0,0,1-.13,13.3315L51.73,45.1129a7.361,7.361,0,0,0-4.166,5.5234L45.9445,60.943a7.5059,7.5059,0,0,1-12.86,3.8906l-7.2967-7.6094a7.6206,7.6206,0,0,0-6.6319-2.2567L8.7321,56.5469A7.5059,7.5059,0,0,1,.9141,45.62l5.0035-9.155a7.3611,7.3611,0,0,0,.0674-6.9181l-4.823-9.33A7.3975,7.3975,0,0,1,9.19,9.5723L19.58,11.5234A7.52,7.52,0,0,0,26.253,9.5046Z"/>
    </g>
  </g>
</svg>
