<svg width="240" height="240" viewBox="0 0 117 172" fill="none" xmlns="http://www.w3.org/2000/svg">
<path d="M58.3555 165.214C87.5575 165.214 111.23 142.178 111.23 113.761C111.23 85.3437 87.5575 62.3071 58.3555 62.3071C29.1534 62.3071 5.48047 85.3437 5.48047 113.761C5.48047 142.178 29.1534 165.214 58.3555 165.214Z" fill="#F9DAB9"/>
<path d="M58.3554 167.3C28.0547 167.3 3.40601 143.283 3.40601 113.761C3.40601 84.2385 28.0547 60.2217 58.3554 60.2217C88.656 60.2217 113.305 84.2385 113.305 113.761C113.305 143.283 88.6536 167.3 58.3554 167.3ZM58.3554 64.3929C30.3442 64.3929 7.55714 86.5401 7.55714 113.761C7.55714 140.982 30.3442 163.129 58.3554 163.129C86.3666 163.129 109.156 140.984 109.156 113.761C109.156 86.5377 86.3642 64.3929 58.3554 64.3929Z" fill="#333333"/>
<path d="M58.3554 167.3C28.0547 167.3 3.40601 143.283 3.40601 113.761C3.40601 84.2385 28.0547 60.2217 58.3554 60.2217C88.656 60.2217 113.305 84.2385 113.305 113.761C113.305 143.283 88.6536 167.3 58.3554 167.3ZM58.3554 64.3929C30.3442 64.3929 7.55714 86.5401 7.55714 113.761C7.55714 140.982 30.3442 163.129 58.3554 163.129C86.3666 163.129 109.156 140.984 109.156 113.761C109.156 86.5377 86.3642 64.3929 58.3554 64.3929Z" fill="#333333"/>
<path d="M59.56 129.613H54.2259C53.9977 129.613 53.7723 129.563 53.5655 129.466C53.3588 129.369 53.1758 129.228 53.0294 129.052C52.8831 128.876 52.777 128.67 52.7186 128.448C52.6602 128.227 52.651 127.995 52.6916 127.77L54.8807 115.662C54.9603 115.259 55.1942 114.904 55.5319 114.673C55.8696 114.442 56.2842 114.354 56.6863 114.427C57.0883 114.5 57.4458 114.729 57.6816 115.064C57.9174 115.399 58.0126 115.814 57.9468 116.219L56.1019 126.486H59.5719C59.7862 126.469 60.0016 126.497 60.2046 126.567C60.4076 126.638 60.5939 126.75 60.7517 126.897C60.9095 127.043 61.0354 127.221 61.1215 127.419C61.2076 127.616 61.252 127.83 61.252 128.046C61.252 128.262 61.2076 128.475 61.1215 128.673C61.0354 128.871 60.9095 129.048 60.7517 129.195C60.5939 129.341 60.4076 129.453 60.2046 129.524C60.0016 129.595 59.7862 129.623 59.5719 129.606L59.56 129.613Z" fill="#333333"/>
<path d="M27.7871 142.34C34.9593 142.34 40.7735 136.501 40.7735 129.298C40.7735 122.096 34.9593 116.257 27.7871 116.257C20.615 116.257 14.8008 122.096 14.8008 129.298C14.8008 136.501 20.615 142.34 27.7871 142.34Z" fill="#EA8363"/>
<path d="M89.5403 141.779C96.7125 141.779 102.527 135.94 102.527 128.737C102.527 121.534 96.7125 115.695 89.5403 115.695C82.3681 115.695 76.554 121.534 76.554 128.737C76.554 135.94 82.3681 141.779 89.5403 141.779Z" fill="#EA8363"/>
<path d="M67.334 81.5766C67.334 81.5766 70.8183 99.7998 101.332 105.632C100.988 138.272 93.2326 168.411 93.2326 168.411L111.828 168.613C111.828 168.613 114.478 119.585 114.636 104.684C114.794 89.7822 98.8248 48.9558 57.2011 56.0238C15.2715 49.815 1.91714 88.143 2.07486 103.047C2.23259 117.951 6.13758 169.623 6.13758 169.623L25.3948 169.414C25.3948 169.414 16.2752 136.407 15.9311 103.76C54.1039 102.699 70.099 82.9998 70.099 82.9998" fill="#383838"/>
<path d="M6.13763 171.709C5.61533 171.709 5.1121 171.512 4.72845 171.156C4.34479 170.8 4.10895 170.312 4.06803 169.789C3.90791 167.677 0.155884 117.877 0.00532501 103.069C-0.0902682 93.8958 4.63203 75.987 18.0414 64.239C28.4132 55.1502 41.5812 51.6774 57.1868 53.919C72.5486 51.3918 85.8648 54.8478 96.7743 64.2054C110.7 76.1502 116.82 95.0814 116.717 104.71C116.565 119.48 113.936 168.236 113.9 168.725C113.875 169.264 113.642 169.771 113.251 170.139C112.859 170.508 112.34 170.708 111.804 170.698L93.2111 170.497C92.8971 170.491 92.5884 170.415 92.3081 170.272C92.0278 170.13 91.7833 169.926 91.5929 169.675C91.4025 169.424 91.2711 169.133 91.2087 168.824C91.1462 168.515 91.1543 168.196 91.2323 167.89C91.3088 167.595 98.6575 138.677 99.2406 107.333C79.9547 103.229 71.5019 94.2294 67.8861 88.1334C61.1778 93.9702 45.3954 104.533 18.0485 105.778C18.7273 137.125 27.3163 168.548 27.4047 168.867C27.4898 169.175 27.5032 169.498 27.4439 169.812C27.3847 170.126 27.2544 170.422 27.0632 170.677C26.8719 170.932 26.6248 171.14 26.3409 171.283C26.057 171.427 25.744 171.504 25.426 171.507L6.1687 171.716L6.13763 171.709ZM48.3301 57.4302C37.5615 57.4302 28.3153 60.7614 20.7634 67.3806C8.50117 78.1254 4.06565 94.947 4.15168 103.023C4.2879 116.053 7.34927 157.961 8.06622 167.518L22.7207 167.36C20.5889 158.871 14.1459 131.055 13.8592 103.784C13.8533 103.237 14.0617 102.709 14.4395 102.315C14.8172 101.921 15.334 101.692 15.8786 101.677C44.3176 100.885 60.2075 89.3958 65.9766 84.1974C65.6933 83.4734 65.468 82.7278 65.3027 81.9678C65.1992 81.435 65.3067 80.8827 65.6023 80.4282C65.8978 79.9737 66.3582 79.6529 66.8856 79.5339C67.413 79.4148 67.9658 79.5069 68.4266 79.7907C68.8874 80.0744 69.2199 80.5274 69.3534 81.0534C69.7803 80.8879 70.2498 80.8686 70.6887 80.9985C71.1277 81.1285 71.5116 81.4004 71.7809 81.772C72.0501 82.1437 72.1896 82.5942 72.1776 83.0536C72.1656 83.5131 72.0028 83.9557 71.7146 84.3126C71.6429 84.4014 71.3943 84.7014 70.9618 85.167C73.8296 90.5094 81.5726 99.7278 101.726 103.582C102.204 103.674 102.635 103.932 102.943 104.311C103.252 104.689 103.418 105.164 103.413 105.653C103.129 132.706 97.7231 158.326 95.8662 166.354L109.866 166.505C110.351 157.16 112.423 117.641 112.559 104.66C112.652 95.8422 106.979 78.4422 94.0714 67.371C84.0676 58.7886 71.7767 55.6662 57.5477 58.0806C57.333 58.113 57.1147 58.113 56.9 58.0806C54.0631 57.6532 51.1987 57.4358 48.3301 57.4302Z" fill="#333333"/>
<path d="M56.8928 144.891C46.2342 144.891 41.2896 139.721 41.0841 139.501C40.8189 139.196 40.6818 138.799 40.7016 138.395C40.7214 137.99 40.8964 137.609 41.1901 137.332C41.4837 137.054 41.873 136.902 42.2762 136.907C42.6793 136.912 43.065 137.073 43.352 137.357C43.5432 137.557 47.6943 141.761 56.8928 141.761C66.0913 141.761 70.2615 137.537 70.4336 137.357C70.5737 137.208 70.7418 137.088 70.9282 137.004C71.1146 136.919 71.3156 136.873 71.5199 136.867C71.7242 136.861 71.9276 136.895 72.1187 136.968C72.3098 137.041 72.4847 137.151 72.6334 137.291C72.7822 137.432 72.9019 137.601 72.9857 137.788C73.0695 137.975 73.1158 138.177 73.1219 138.382C73.128 138.588 73.0938 138.792 73.0213 138.984C72.9487 139.176 72.8393 139.351 72.6992 139.501C72.496 139.721 67.5491 144.891 56.8928 144.891Z" fill="#333333"/>
<path d="M32.8607 119.252C34.7335 119.252 36.2518 117.727 36.2518 115.847C36.2518 113.966 34.7335 112.441 32.8607 112.441C30.9878 112.441 29.4695 113.966 29.4695 115.847C29.4695 117.727 30.9878 119.252 32.8607 119.252Z" fill="#333333"/>
<path d="M83.8502 119.252C85.723 119.252 87.2413 117.727 87.2413 115.847C87.2413 113.966 85.723 112.441 83.8502 112.441C81.9773 112.441 80.459 113.966 80.459 115.847C80.459 117.727 81.9773 119.252 83.8502 119.252Z" fill="#333333"/>
<path d="M58.3555 71.0911C28.7336 71.0911 26.2649 44.0143 25.5121 37.1599C24.7593 30.3055 28.3584 19.4263 38.042 16.9471C49.8143 13.8967 52.4742 19.7143 58.3555 19.7143C64.2369 19.7143 66.8992 13.8967 78.6691 16.9471C88.3646 19.4143 91.9637 30.2839 91.2038 37.1599C90.4438 44.0359 87.9751 71.0911 58.3555 71.0911Z" fill="#F78484"/>
<path d="M58.3554 73.1769C44.2148 73.1769 26.6878 67.0257 23.4806 37.7313L23.4424 37.3785C22.6251 29.9841 26.5348 17.7297 37.5257 14.9169C45.7539 12.7833 50.0603 14.6889 53.5208 16.2201C55.2821 17.0001 56.6754 17.6169 58.3554 17.6169C60.0355 17.6169 61.4264 17.0001 63.1901 16.2201C66.6505 14.6889 70.9546 12.7857 79.2019 14.9169C90.1951 17.7297 94.0977 29.9841 93.2804 37.3785L93.2398 37.7313C90.0231 67.0257 72.4961 73.1769 58.3554 73.1769ZM44.2961 18.1353C42.3573 18.1634 40.4299 18.4392 38.5605 18.9561C29.9571 21.1593 26.9148 30.9777 27.5673 36.9201L27.6055 37.2753C28.4658 45.1233 31.0779 69.0057 58.3531 69.0057C85.6282 69.0057 88.2403 45.1233 89.0982 37.2753L89.1388 36.9201C89.796 30.9777 86.749 21.1593 78.1456 18.9561C71.2964 17.1777 68.0199 18.6321 64.8486 20.0361C62.9057 20.8977 60.8958 21.7857 58.3411 21.7857C55.7864 21.7857 53.7765 20.8977 51.8312 20.0361C49.7234 19.0977 47.5534 18.1353 44.2961 18.1353Z" fill="#E84700"/>
<path d="M54.7611 18.212C54.7611 18.212 61.4837 -2.78798 79.8782 4.22482C83.7354 5.78002 78.7455 12.2072 70.7323 16.76C62.7192 21.3128 53.1217 22.952 54.7611 18.212Z" fill="#8CEAB2"/>
<path d="M57.7316 23.1536C56.1328 23.1536 54.7587 22.8176 53.798 22.016C53.2053 21.5192 51.922 20.096 52.7919 17.5496C53.0308 16.8416 56.4865 6.59603 65.1114 2.42963C69.7668 0.180833 74.9814 0.128033 80.6143 2.27603C82.2131 2.91923 83.169 4.19604 83.2741 5.76564C83.549 9.93684 77.6867 15.2048 71.7528 18.5744C67.9051 20.7584 62.0142 23.1536 57.7316 23.1536ZM56.716 18.92C58.3004 19.3496 63.8018 18.308 69.7095 14.9504C75.8274 11.4776 79.0298 7.47444 79.1302 6.17844H79.1039C74.623 4.46964 70.5148 4.47203 66.9325 6.19523C59.7988 9.62963 56.7661 18.7808 56.7351 18.872L56.7207 18.9152C56.7193 18.917 56.7177 18.9186 56.716 18.92Z" fill="#20B28F"/>
<path d="M55.184 46.4863C56.4221 46.4863 57.4257 45.4784 57.4257 44.2351C57.4257 42.9918 56.4221 41.9839 55.184 41.9839C53.946 41.9839 52.9424 42.9918 52.9424 44.2351C52.9424 45.4784 53.946 46.4863 55.184 46.4863Z" fill="#684800"/>
<path d="M38.6872 44.2353C39.9253 44.2353 40.9289 43.2274 40.9289 41.9841C40.9289 40.7408 39.9253 39.7329 38.6872 39.7329C37.4492 39.7329 36.4456 40.7408 36.4456 41.9841C36.4456 43.2274 37.4492 44.2353 38.6872 44.2353Z" fill="#684800"/>
<g opacity="0.7">
<path opacity="0.7" d="M81.3433 40.6136C81.1723 40.6134 81.0021 40.5916 80.8366 40.5488C80.5721 40.4823 80.3231 40.3642 80.104 40.201C79.8849 40.0379 79.7 39.8331 79.5598 39.5982C79.4195 39.3633 79.3267 39.1029 79.2866 38.832C79.2466 38.5611 79.26 38.2849 79.3262 38.0192C80.8533 31.9136 75.8132 28.9664 75.5981 28.844C75.1161 28.5761 74.7598 28.1268 74.6077 27.595C74.4555 27.0632 74.5199 26.4925 74.7868 26.0084C75.0536 25.5244 75.501 25.1666 76.0305 25.0138C76.56 24.861 77.1283 24.9257 77.6103 25.1936C80.4088 26.7392 85.2124 31.6184 83.3459 39.0368C83.2336 39.4855 82.9758 39.8839 82.6133 40.1694C82.2507 40.4548 81.8039 40.6111 81.3433 40.6136Z" fill="white"/>
</g>
<path d="M46.9368 54.6799C44.2172 54.6799 41.0865 53.7607 38.3692 50.8639C38.0862 50.5622 37.9342 50.16 37.9465 49.7457C37.9588 49.3314 38.1345 48.9389 38.435 48.6547C38.7354 48.3705 39.1359 48.2178 39.5485 48.2302C39.961 48.2426 40.3518 48.419 40.6348 48.7207C45.2185 53.6023 50.7318 50.7391 50.9636 50.6119C51.3255 50.4286 51.7443 50.394 52.1312 50.5157C52.518 50.6373 52.8424 50.9055 53.0355 51.2634C53.2286 51.6214 53.2753 52.0407 53.1655 52.4326C53.0558 52.8245 52.7983 53.158 52.4477 53.3623C50.7423 54.2383 48.8523 54.6901 46.9368 54.6799Z" fill="#E84700"/>
</svg>
