<svg xmlns="http://www.w3.org/2000/svg" viewBox="0 0 67.377 66.4039">
  <defs>
    <style>
      .cls-1 {
        fill: #ff9dd0;
      }
    </style>
  </defs>
  <g id="Layer_2" data-name="Layer 2">
    <g id="Layer_1-2" data-name="Layer 1">
      <path class="cls-1" d="M7.35,13.0576A7.5737,7.5737,0,0,1,17.409,4.055l9.7238,3.8479A7.52,7.52,0,0,0,34.0641,7.15l8.7975-5.8607a7.3975,7.3975,0,0,1,11.5529,6.654l-.7877,10.4738a7.3612,7.3612,0,0,0,2.7691,6.34l8.1867,6.4675A7.5058,7.5058,0,0,1,61.6635,44.339l-10.21,2.6251a7.6205,7.6205,0,0,0-5.22,4.6717l-3.7376,9.8578a7.5059,7.5059,0,0,1-13.3572,1.4515l-5.5228-8.8514A7.3609,7.3609,0,0,0,17.62,50.6409L7.1234,50.266a7.3975,7.3975,0,0,1-5.336-12.2178l6.7971-8.0957a7.52,7.52,0,0,0,1.5148-6.8055Z"/>
    </g>
  </g>
</svg>
