<svg width="1450" height="306.52" viewBox="0 0 1827 388" fill="none" xmlns="http://www.w3.org/2000/svg">
<path d="M1595.42 66.0956C1581.05 64.817 1565.58 69.0788 1554.93 83.426C1538.69 77.7722 1524.06 90.4435 1523.99 99.0945C1512.58 95.5433 1490.96 101.595 1488.65 115.757C1504.94 116.226 1706.04 117.476 1706.04 117.476C1706.04 117.476 1705.26 105.358 1676.2 106.865C1674.08 97.5177 1657 86.6648 1633.19 92.3471C1633.19 92.3471 1625.39 68.3822 1595.42 66.0956Z" fill="#BFE8EF"/>
<path d="M1706.04 119.355H1706.03C1704.02 119.343 1504.72 118.101 1488.6 117.636C1488.33 117.628 1488.07 117.563 1487.83 117.446C1487.59 117.328 1487.37 117.16 1487.2 116.954C1487.03 116.747 1486.91 116.507 1486.84 116.248C1486.77 115.99 1486.75 115.72 1486.8 115.455C1487.38 112.558 1488.59 109.823 1490.34 107.443C1492.09 105.062 1494.34 103.095 1496.94 101.678C1504.58 97.0969 1513.59 95.3536 1522.39 96.7534C1523.81 91.9841 1526.89 87.8801 1531.07 85.1837C1534.38 82.8058 1538.19 81.2141 1542.2 80.5299C1546.22 79.8456 1550.33 80.0868 1554.24 81.2352C1564.05 68.7559 1578.68 62.7241 1595.58 64.2255C1621.83 66.2352 1631.88 84.5849 1634.34 90.1668C1647.05 87.4821 1659.39 89.1253 1668.42 94.7462C1672.5 97.0571 1675.71 100.629 1677.58 104.925C1706.72 103.856 1707.88 116.792 1707.92 117.357C1707.93 117.614 1707.9 117.87 1707.81 118.112C1707.73 118.354 1707.59 118.575 1707.42 118.762C1707.24 118.95 1707.03 119.099 1706.79 119.201C1706.56 119.303 1706.3 119.355 1706.05 119.355H1706.04ZM1491.04 113.932C1516.6 114.397 1679.87 115.436 1703.28 115.582C1701.33 112.678 1695.22 107.751 1676.3 108.741C1675.86 108.772 1675.42 108.642 1675.06 108.373C1674.71 108.105 1674.46 107.717 1674.37 107.282C1673.02 103.266 1670.18 99.9215 1666.44 97.9344C1657.88 92.6094 1645.93 91.2401 1633.63 94.1742C1633.17 94.2821 1632.69 94.2145 1632.28 93.9846C1631.87 93.7547 1631.56 93.3792 1631.41 92.9321C1631.1 92.003 1623.57 70.1277 1595.28 67.9688L1595.26 67.9662C1587.9 67.0844 1580.44 68.152 1573.63 71.0619C1566.81 73.9718 1560.88 78.6218 1556.43 84.5458C1556.2 84.8673 1555.86 85.1041 1555.48 85.2215C1555.09 85.3389 1554.68 85.3309 1554.31 85.1985C1550.81 83.9787 1547.06 83.6196 1543.4 84.1516C1539.73 84.6835 1536.24 86.0909 1533.23 88.2547C1528.85 91.3402 1525.89 95.7022 1525.87 99.1104C1525.86 99.4034 1525.79 99.6918 1525.66 99.9525C1525.53 100.213 1525.33 100.439 1525.1 100.612C1524.86 100.784 1524.59 100.899 1524.3 100.947C1524.01 100.995 1523.71 100.975 1523.43 100.888C1516.57 98.7536 1506.04 100.467 1498.91 104.873C1495.32 106.904 1492.55 110.101 1491.04 113.932Z" fill="#221F20"/>
<path d="M1676.71 107.229H1527.9C1521.32 107.229 1518.8 100.515 1518.24 97.5647C1506.54 96.9347 1489.46 103.92 1487.5 115.954C1503.25 115.954 1705.7 116.893 1705.7 116.893C1705.7 116.893 1705.69 105.726 1676.71 107.229" fill="#B1DADD"/>
<path d="M1706.04 119.355H1706.03C1704.02 119.343 1504.72 118.101 1488.6 117.636C1488.33 117.628 1488.07 117.563 1487.83 117.446C1487.59 117.328 1487.37 117.16 1487.2 116.954C1487.03 116.747 1486.91 116.507 1486.84 116.248C1486.77 115.99 1486.75 115.72 1486.8 115.455C1487.38 112.558 1488.59 109.823 1490.34 107.443C1492.09 105.062 1494.34 103.095 1496.94 101.678C1504.58 97.0969 1513.59 95.3536 1522.39 96.7534C1523.81 91.9841 1526.89 87.8801 1531.07 85.1837C1534.38 82.8058 1538.19 81.2141 1542.2 80.5299C1546.22 79.8456 1550.33 80.0868 1554.24 81.2352C1564.05 68.7559 1578.68 62.7241 1595.58 64.2255C1621.83 66.2352 1631.88 84.5849 1634.34 90.1668C1647.05 87.4821 1659.39 89.1253 1668.42 94.7462C1672.5 97.0571 1675.71 100.629 1677.58 104.925C1706.72 103.856 1707.88 116.792 1707.92 117.357C1707.93 117.614 1707.9 117.87 1707.81 118.112C1707.73 118.354 1707.59 118.575 1707.42 118.762C1707.24 118.95 1707.03 119.099 1706.79 119.201C1706.56 119.303 1706.3 119.355 1706.05 119.355H1706.04ZM1491.04 113.932C1516.6 114.397 1679.87 115.436 1703.28 115.582C1701.33 112.678 1695.22 107.751 1676.3 108.741C1675.86 108.772 1675.42 108.642 1675.06 108.373C1674.71 108.105 1674.46 107.717 1674.37 107.282C1673.02 103.266 1670.18 99.9215 1666.44 97.9344C1657.88 92.6094 1645.93 91.2401 1633.63 94.1742C1633.17 94.2821 1632.69 94.2145 1632.28 93.9846C1631.87 93.7547 1631.56 93.3792 1631.41 92.9321C1631.1 92.003 1623.57 70.1277 1595.28 67.9688L1595.26 67.9662C1587.9 67.0844 1580.44 68.152 1573.63 71.0619C1566.81 73.9718 1560.88 78.6218 1556.43 84.5458C1556.2 84.8673 1555.86 85.1041 1555.48 85.2215C1555.09 85.3389 1554.68 85.3309 1554.31 85.1985C1550.81 83.9787 1547.06 83.6196 1543.4 84.1516C1539.73 84.6835 1536.24 86.0909 1533.23 88.2547C1528.85 91.3402 1525.89 95.7022 1525.87 99.1104C1525.86 99.4034 1525.79 99.6918 1525.66 99.9525C1525.53 100.213 1525.33 100.439 1525.1 100.612C1524.86 100.784 1524.59 100.899 1524.3 100.947C1524.01 100.995 1523.71 100.975 1523.43 100.888C1516.57 98.7536 1506.04 100.467 1498.91 104.873C1495.32 106.904 1492.55 110.101 1491.04 113.932Z" fill="#221F20"/>
<path d="M1824.32 190.211C1824.32 190.211 1524.75 188.903 1501.38 188.903C1504.3 171.052 1529.27 160.676 1546.62 161.61C1549.45 161.74 1552.26 162.216 1554.98 163.028C1555.09 150.222 1576.74 131.481 1600.76 139.847C1616.53 118.615 1639.41 112.305 1660.67 114.206C1705 117.586 1716.55 153.042 1716.55 153.042C1748.13 145.502 1771.73 157.653 1778.53 170.209C1779.27 171.568 1779.82 173.019 1780.18 174.524C1823.17 172.297 1824.32 190.211 1824.32 190.211Z" fill="#B4CAEF"/>
<path d="M1824.32 191.465H1824.32C1821.32 191.453 1524.48 190.154 1501.38 190.154C1501.2 190.154 1501.02 190.115 1500.86 190.039C1500.69 189.963 1500.55 189.851 1500.43 189.713C1500.31 189.575 1500.23 189.412 1500.18 189.237C1500.13 189.062 1500.12 188.879 1500.15 188.7C1503.24 169.753 1529.32 159.448 1546.69 160.362C1549.1 160.481 1551.5 160.831 1553.85 161.409C1554.63 155.394 1559.37 148.607 1566.35 143.692C1571.2 140.207 1576.8 137.909 1582.7 136.986C1588.59 136.062 1594.63 136.538 1600.31 138.374C1614.5 119.758 1635.94 110.734 1660.79 112.959C1701.02 116.027 1714.9 145.521 1717.33 151.575C1747.76 144.7 1772.08 155.646 1779.63 169.614C1780.25 170.764 1780.75 171.975 1781.13 173.228C1823.85 171.316 1825.53 189.357 1825.58 190.132C1825.59 190.303 1825.56 190.474 1825.5 190.636C1825.45 190.797 1825.36 190.944 1825.24 191.069C1825.12 191.194 1824.98 191.294 1824.82 191.362C1824.67 191.43 1824.5 191.465 1824.33 191.465H1824.32ZM1502.91 187.653C1533.93 187.695 1799.4 188.851 1822.72 188.955C1821.28 185.031 1814.19 174.031 1780.24 175.776C1779.95 175.788 1779.66 175.697 1779.43 175.521C1779.2 175.345 1779.03 175.093 1778.96 174.808C1778.63 173.411 1778.11 172.063 1777.43 170.802C1771.26 159.404 1748.38 146.724 1716.84 154.259C1716.53 154.329 1716.21 154.283 1715.94 154.13C1715.67 153.976 1715.46 153.727 1715.36 153.431C1715.25 153.083 1703.51 118.73 1660.58 115.455C1646.5 114.191 1620.18 115.792 1601.77 140.594C1601.61 140.809 1601.39 140.967 1601.14 141.046C1600.88 141.124 1600.61 141.12 1600.36 141.032C1594.95 139.14 1589.17 138.581 1583.5 139.4C1577.83 140.219 1572.44 142.394 1567.79 145.739C1560.82 150.648 1556.29 157.44 1556.24 163.039C1556.24 163.235 1556.19 163.427 1556.1 163.601C1556.01 163.775 1555.88 163.925 1555.72 164.041C1555.56 164.156 1555.38 164.233 1555.19 164.265C1555 164.297 1554.8 164.283 1554.61 164.225C1551.99 163.442 1549.28 162.984 1546.55 162.861C1531.02 162.066 1506.86 171.242 1502.91 187.653Z" fill="#221F20"/>
<path d="M1780.18 174.524L1559.8 174.103C1550.03 174.103 1547.46 165.987 1546.62 161.61C1529.27 160.676 1503.52 171.829 1500.61 189.682C1523.97 189.682 1824.32 190.211 1824.32 190.211C1824.32 190.211 1823.17 172.297 1780.18 174.524" fill="#92B1DD"/>
<path d="M1824.32 192.091H1824.32C1821.32 192.086 1524.47 191.606 1500.65 191.606C1500.38 191.606 1500.11 191.547 1499.86 191.432C1499.62 191.318 1499.4 191.151 1499.22 190.944C1499.04 190.736 1498.92 190.493 1498.84 190.231C1498.77 189.969 1498.75 189.694 1498.8 189.425C1501.98 169.895 1529.3 158.787 1546.72 159.736C1548.94 159.851 1551.15 160.153 1553.33 160.641C1554.39 154.632 1559.14 148.005 1565.99 143.178C1570.85 139.682 1576.47 137.362 1582.38 136.402C1588.3 135.442 1594.35 135.867 1600.08 137.645C1614.4 119.09 1635.94 110.102 1660.84 112.335C1700.39 115.352 1714.72 143.731 1717.71 150.848C1748.16 144.142 1772.55 155.222 1780.18 169.318C1780.74 170.362 1781.21 171.453 1781.58 172.579C1824.48 170.78 1826.14 189.291 1826.19 190.093C1826.21 190.349 1826.17 190.606 1826.09 190.848C1826 191.089 1825.87 191.311 1825.69 191.498C1825.51 191.685 1825.3 191.834 1825.07 191.936C1824.83 192.038 1824.58 192.091 1824.32 192.09L1824.32 192.091ZM1502.99 187.851C1537.54 187.873 1793.32 188.286 1821.78 188.33C1819.74 184.083 1811.67 174.768 1780.27 176.401C1779.83 176.44 1779.39 176.313 1779.03 176.045C1778.68 175.777 1778.43 175.386 1778.35 174.949C1778.03 173.606 1777.53 172.311 1776.87 171.098C1770.8 159.88 1748.2 147.418 1716.98 154.868C1716.52 154.974 1716.04 154.905 1715.63 154.676C1715.22 154.446 1714.91 154.072 1714.76 153.626C1714.3 152.224 1703.01 119.318 1660.53 116.078C1646.56 114.834 1620.5 116.416 1602.27 140.968C1602.03 141.29 1601.7 141.527 1601.31 141.645C1600.93 141.762 1600.52 141.754 1600.14 141.621C1594.83 139.766 1589.15 139.218 1583.58 140.024C1578.01 140.829 1572.72 142.965 1568.15 146.25C1561.34 151.049 1556.9 157.641 1556.86 163.047C1556.86 163.34 1556.78 163.629 1556.65 163.89C1556.52 164.151 1556.32 164.377 1556.08 164.549C1555.85 164.72 1555.57 164.833 1555.28 164.881C1555 164.928 1554.7 164.908 1554.42 164.823C1551.85 164.057 1549.19 163.609 1546.51 163.488C1531.48 162.648 1507.49 171.946 1502.99 187.851Z" fill="#221F20"/>
<path d="M352.87 72.5523H172.74C172.74 72.5523 169.351 48.3469 191.556 41.8383C193.403 41.2984 195.29 40.9049 197.199 40.6616C197.199 30.9338 205.31 21.7451 217.475 24.9923C224.905 4.16183 247.69 -1.1557 266.577 4.50208C273.337 6.44415 279.535 9.97381 284.655 14.7969C287.639 17.5593 290.047 20.8844 291.74 24.5811C293.434 28.2777 294.38 32.2728 294.524 36.3365C313.623 29.0055 337.642 43.5401 340.62 60.6972C340.72 61.2217 340.79 61.7465 340.847 62.271C342.62 61.8986 344.455 61.9417 346.209 62.3968C347.963 62.8519 349.588 63.7067 350.956 64.8943C352.038 65.8088 352.805 67.0403 353.148 68.4146C353.492 69.7889 353.395 71.2363 352.87 72.5523Z" fill="#BFE8EF"/>
<path d="M352.873 73.8037H172.74C172.438 73.8037 172.146 73.6945 171.918 73.4964C171.69 73.2982 171.542 73.0244 171.5 72.7254C171.463 72.4735 168.226 47.371 191.205 40.6373C192.771 40.1753 194.366 39.82 195.98 39.5738C196.1 37.0156 196.767 34.5128 197.935 32.2338C199.103 29.9547 200.745 27.9522 202.752 26.3609C204.723 24.8919 206.994 23.8755 209.403 23.3841C211.812 22.8926 214.3 22.9382 216.69 23.5175C224.78 2.78165 247.922 -2.39697 266.938 3.30489C273.89 5.29974 280.264 8.93127 285.525 13.8954C291.353 19.3058 294.971 26.6836 295.679 34.6045C300.501 33.2128 305.559 32.8351 310.534 33.4953C315.509 34.1556 320.294 35.8393 324.586 38.4406C333.924 43.7391 340.38 51.9809 341.854 60.4824C341.876 60.5973 341.898 60.7123 341.915 60.8294C343.698 60.6478 345.5 60.8359 347.207 61.3819C348.914 61.928 350.491 62.8203 351.838 64.0031C353.113 65.0994 354.007 66.571 354.394 68.2071C354.781 69.8432 354.64 71.5597 353.991 73.1107C353.887 73.3183 353.727 73.493 353.53 73.6153C353.333 73.7377 353.105 73.8029 352.873 73.8037ZM173.872 71.3H351.976C352.174 70.2937 352.102 69.2529 351.768 68.2833C351.434 67.3136 350.849 66.4497 350.073 65.7792C348.854 64.7393 347.412 63.9926 345.86 63.5963C344.307 63.2 342.684 63.1647 341.116 63.4931C340.944 63.5312 340.766 63.5326 340.594 63.4971C340.421 63.4617 340.258 63.3903 340.115 63.2876C339.973 63.1849 339.853 63.0532 339.765 62.9011C339.676 62.749 339.621 62.58 339.602 62.405C339.548 61.9135 339.482 61.4198 339.392 60.9278C338.04 53.1382 332.045 45.5513 323.352 40.6173C319.144 38.0375 314.418 36.4206 309.512 35.8825C304.606 35.3443 299.641 35.8984 294.975 37.5048C294.788 37.5761 294.587 37.6018 294.388 37.5797C294.19 37.5577 293.999 37.4886 293.833 37.3781C293.666 37.2676 293.529 37.1189 293.431 36.9445C293.334 36.77 293.279 36.5748 293.272 36.3751C293.134 32.473 292.225 28.6369 290.597 25.0881C288.969 21.5392 286.654 18.3479 283.787 15.6981C278.814 11.0111 272.79 7.58376 266.221 5.70292C248.012 0.244928 225.84 5.26752 218.652 25.4118C218.545 25.7064 218.331 25.9504 218.054 26.0964C217.776 26.2424 217.454 26.2799 217.15 26.2017C214.989 25.5057 212.692 25.3371 210.453 25.7101C208.213 26.0831 206.095 26.9869 204.276 28.3458C202.432 29.8202 200.949 31.6959 199.939 33.83C198.93 35.9642 198.42 38.3006 198.45 40.6614C198.45 40.9652 198.34 41.2588 198.14 41.4873C197.94 41.7158 197.663 41.8637 197.362 41.9035C195.518 42.1369 193.696 42.5162 191.912 43.0379C173.38 48.4711 173.512 66.6177 173.872 71.3H173.872Z" fill="#221F20"/>
<path d="M352.87 72.5518H172.74C172.74 72.5518 169.351 48.3464 191.556 41.8379C193.186 48.5592 198.276 60.6975 213.732 60.6975H340.62C340.72 61.222 340.79 61.7468 340.847 62.2713C342.62 61.8989 344.455 61.942 346.209 62.3971C347.963 62.8522 349.588 63.707 350.956 64.8947C352.038 65.8091 352.805 67.0404 353.148 68.4145C353.492 69.7887 353.394 71.236 352.87 72.5518Z" fill="#B1DADD"/>
<path d="M352.875 74.4293H172.741C172.288 74.4291 171.85 74.2652 171.508 73.9678C171.167 73.6703 170.944 73.2595 170.881 72.8107C170.846 72.5539 167.541 46.9208 191.031 40.0357C192.463 39.6128 193.919 39.2784 195.392 39.0342C195.58 36.4751 196.297 33.9829 197.499 31.7156C198.7 29.4483 200.36 27.4554 202.372 25.8632C204.341 24.3878 206.603 23.3511 209.006 22.8226C211.408 22.2942 213.897 22.2864 216.303 22.7997C224.698 2.11738 247.98 -3.03668 267.118 2.70173C274.167 4.72698 280.628 8.41076 285.962 13.445C291.702 18.7806 295.344 25.9934 296.23 33.78C301.041 32.5158 306.057 32.2286 310.981 32.9354C315.905 33.6422 320.637 35.3286 324.898 37.8951C334.315 43.2422 340.855 51.5503 342.435 60.1589C346.036 59.9488 349.575 61.1704 352.28 63.5577C353.647 64.7475 354.603 66.3388 355.011 68.1044C355.419 69.8701 355.259 71.7197 354.553 73.3888C354.398 73.701 354.158 73.9636 353.862 74.1474C353.565 74.3312 353.223 74.4288 352.875 74.4293ZM174.461 70.6738H351.456C351.521 69.8408 351.39 69.0041 351.073 68.2309C350.756 67.4577 350.263 66.7694 349.632 66.2213C348.482 65.2647 347.132 64.578 345.682 64.2116C344.232 63.8452 342.718 63.8085 341.251 64.104C340.994 64.1608 340.727 64.1627 340.468 64.1094C340.21 64.0561 339.965 63.949 339.751 63.7948C339.537 63.6407 339.357 63.4431 339.224 63.215C339.092 62.9869 339.008 62.7333 338.98 62.4708C338.931 61.9951 338.865 61.5171 338.777 61.0437C337.455 53.43 331.575 46.0069 323.045 41.1646C318.918 38.6286 314.281 37.0379 309.466 36.5065C304.652 35.9751 299.779 36.5162 295.199 38.0911C294.919 38.1986 294.618 38.2375 294.32 38.2047C294.022 38.1718 293.736 38.0681 293.486 37.9023C293.237 37.7364 293.031 37.5133 292.885 37.2514C292.739 36.9895 292.658 36.6964 292.649 36.3968C292.513 32.5759 291.622 28.8198 290.027 25.3451C288.432 21.8704 286.165 18.746 283.356 16.1522C278.455 11.5339 272.519 8.15692 266.045 6.30377C248.129 0.939662 226.299 5.84184 219.244 25.6241C219.086 26.0685 218.767 26.4371 218.35 26.6565C217.932 26.8759 217.448 26.9298 216.992 26.8076C214.923 26.139 212.724 25.9749 210.579 26.3293C208.434 26.6836 206.405 27.5459 204.661 28.8443C202.892 30.2598 201.471 32.0602 200.503 34.1083C199.536 36.1565 199.049 38.3984 199.079 40.6633C199.079 41.1188 198.913 41.5586 198.613 41.9009C198.312 42.2432 197.898 42.4646 197.446 42.5238C195.636 42.7547 193.846 43.1275 192.094 43.6387C174.704 48.735 174.166 65.3583 174.46 70.6738H174.461Z" fill="#221F20"/>
<path d="M344.416 177.402H2.18844C2.18844 177.402 -4.38174 130.473 39.2085 118.671C42.3065 117.844 45.4551 117.219 48.6341 116.801C48.6341 98.327 64.0485 80.8645 87.1703 87.032C101.296 47.4565 144.583 37.3477 180.466 48.1134C193.308 51.8044 205.082 58.5108 214.808 67.6739C220.483 72.9147 225.063 79.2294 228.282 86.2525C231.5 93.2756 233.294 100.867 233.559 108.589C269.795 94.6892 315.356 122.21 321.143 154.735C321.345 155.771 321.497 156.807 321.598 157.868C324.962 157.158 328.445 157.238 331.773 158.102C335.102 158.966 338.184 160.59 340.778 162.847C348.054 170.123 344.416 177.402 344.416 177.402Z" fill="#A5D6DB"/>
<path d="M344.416 178.652H2.18818C1.88624 178.652 1.59447 178.542 1.36665 178.344C1.13883 178.146 0.990363 177.872 0.948515 177.573C0.88017 177.094 -5.26611 129.412 38.8796 117.46C41.6834 116.712 44.5282 116.127 47.3997 115.708C47.4999 110.852 48.6694 106.079 50.825 101.727C52.9806 97.3757 56.0691 93.553 59.8707 90.5315C63.6243 87.7478 67.9605 85.8524 72.5529 84.988C77.1452 84.1235 81.8739 84.3127 86.3825 85.5412C101.196 46.0156 144.93 36.1439 180.825 46.9129C193.861 50.655 205.812 57.4643 215.678 66.7713C226.931 77.1828 233.752 91.522 234.729 106.822C251.838 100.864 271.873 103.265 289.992 113.5C307.455 123.364 319.559 138.698 322.373 154.512C322.495 155.131 322.598 155.757 322.686 156.39C326.064 155.894 329.51 156.136 332.786 157.098C336.062 158.06 339.091 159.721 341.665 161.964C343.889 163.9 345.456 166.479 346.15 169.345C346.843 172.211 346.628 175.221 345.535 177.959C345.431 178.167 345.271 178.342 345.073 178.464C344.876 178.586 344.648 178.651 344.416 178.652ZM3.31523 176.148H343.568C344.224 173.944 344.227 171.597 343.574 169.393C342.921 167.188 341.641 165.22 339.89 163.73C337.448 161.617 334.55 160.098 331.423 159.293C328.295 158.488 325.024 158.418 321.865 159.089C321.692 159.128 321.513 159.129 321.339 159.092C321.165 159.056 321.001 158.983 320.858 158.879C320.715 158.774 320.595 158.64 320.508 158.486C320.42 158.332 320.366 158.161 320.35 157.984C320.254 156.962 320.108 155.969 319.914 154.972C317.225 139.864 305.581 125.182 288.763 115.681C270.72 105.488 250.76 103.329 234.004 109.754C233.818 109.826 233.617 109.851 233.418 109.829C233.22 109.808 233.03 109.738 232.863 109.628C232.697 109.517 232.56 109.369 232.462 109.194C232.365 109.02 232.311 108.824 232.305 108.625C232.044 101.067 230.287 93.6351 227.135 86.7607C223.983 79.8862 219.499 73.7054 213.942 68.5759C204.362 59.5463 192.76 52.9409 180.106 49.3117C145.028 38.7813 102.248 48.5105 88.3482 87.4511C88.2412 87.7462 88.028 87.9908 87.7501 88.1369C87.4723 88.283 87.1499 88.3201 86.8461 88.2409C82.5708 86.869 78.0292 86.5413 73.6012 87.2853C69.1733 88.0293 64.988 89.8233 61.3958 92.5172C57.7565 95.4219 54.8279 99.1189 52.8333 103.327C50.8387 107.534 49.8305 112.142 49.8856 116.798C49.8854 117.101 49.7752 117.394 49.5755 117.622C49.3759 117.85 49.1004 117.998 48.8001 118.038C45.6747 118.453 42.5791 119.067 39.532 119.877C1.13274 130.275 2.70639 169.153 3.31523 176.148Z" fill="#221F20"/>
<path d="M344.42 177.401H2.19234C2.19234 177.401 -4.37783 130.472 39.2124 118.67C46.7175 145.787 59.3523 154.733 127.58 154.733H321.146C321.348 155.769 321.5 156.805 321.601 157.866C324.965 157.156 328.448 157.236 331.776 158.1C335.105 158.964 338.187 160.588 340.781 162.845C348.058 170.123 344.42 177.401 344.42 177.401Z" fill="#8BC6C1"/>
<path d="M344.417 179.277H2.19003C1.73729 179.277 1.29982 179.113 0.958003 178.816C0.616189 178.52 0.39301 178.109 0.329461 177.661C0.26337 177.174 -5.95422 128.949 38.7177 116.857C41.3772 116.146 44.0738 115.582 46.7952 115.167C46.9682 110.309 48.1928 105.546 50.3847 101.207C52.5766 96.8686 55.6834 93.0568 59.491 90.0351C63.2408 87.2469 67.5656 85.3308 72.15 84.4264C76.7343 83.5221 81.4627 83.6523 85.9903 84.8077C101.124 45.3529 144.993 35.507 181.007 46.3113C194.14 50.0843 206.178 56.9463 216.117 66.3236C227.273 76.6534 234.123 90.8103 235.301 105.969C252.41 100.286 272.301 102.786 290.303 112.954C307.925 122.91 320.146 138.406 322.992 154.402C323.075 154.825 323.151 155.25 323.217 155.683C326.601 155.244 330.039 155.539 333.299 156.546C336.559 157.554 339.564 159.25 342.111 161.521C350.247 169.658 346.272 177.893 346.098 178.238C345.943 178.55 345.703 178.813 345.406 178.997C345.109 179.18 344.767 179.278 344.417 179.277ZM3.8952 175.522H343.105C343.602 173.477 343.524 171.334 342.879 169.331C342.234 167.328 341.047 165.542 339.45 164.172C337.083 162.132 334.276 160.667 331.249 159.891C328.222 159.115 325.057 159.05 322 159.7C321.741 159.757 321.472 159.758 321.211 159.704C320.951 159.649 320.706 159.54 320.491 159.383C320.276 159.226 320.097 159.026 319.965 158.795C319.833 158.564 319.752 158.307 319.727 158.043C319.634 157.053 319.491 156.069 319.299 155.094C316.642 140.155 305.112 125.637 288.456 116.226C270.577 106.123 250.809 103.976 234.231 110.338C233.951 110.445 233.65 110.483 233.352 110.45C233.055 110.417 232.769 110.313 232.52 110.148C232.27 109.982 232.064 109.759 231.918 109.497C231.772 109.236 231.691 108.943 231.681 108.644C231.422 101.167 229.682 93.8152 226.564 87.0147C223.445 80.2142 219.008 74.0998 213.511 69.0253C204.003 60.0652 192.488 53.511 179.929 49.9103C145.142 39.4678 102.71 49.0841 88.9389 87.6609C88.782 88.1058 88.4628 88.4749 88.0453 88.6944C87.6277 88.9139 87.1426 88.9675 86.6873 88.8444C82.5045 87.4993 78.0603 87.1759 73.7269 87.9011C69.3934 88.6264 65.2967 90.3792 61.7797 93.0129C58.216 95.8588 55.3487 99.4807 53.3965 103.602C51.4442 107.724 50.4583 112.237 50.514 116.798C50.514 117.252 50.349 117.692 50.0498 118.034C49.7505 118.376 49.3373 118.598 48.8868 118.659C45.7882 119.069 42.7193 119.678 39.6991 120.482C2.68676 130.502 3.28531 167.333 3.8939 175.522H3.8952Z" fill="#221F20"/>
<path d="M210.973 93.3191C210.354 93.3195 209.749 93.1364 209.234 92.7931C208.72 92.4497 208.318 91.9615 208.081 91.39C194.979 59.8546 153.349 60.4196 152.926 60.4682C152.096 60.4886 151.292 60.1785 150.691 59.606C150.089 59.0336 149.74 58.2456 149.72 57.4156C149.699 56.5856 150.009 55.7815 150.582 55.1801C151.154 54.5788 151.942 54.2294 152.772 54.209C154.652 54.187 199.101 53.4632 213.86 88.989C214.058 89.4644 214.135 89.9813 214.085 90.4937C214.036 91.0062 213.86 91.4984 213.575 91.9268C213.289 92.3552 212.902 92.7065 212.448 92.9496C211.994 93.1926 211.488 93.32 210.973 93.3204V93.3191Z" fill="white"/>
<path d="M284.25 133.751C283.839 133.751 283.432 133.671 283.052 133.513C282.672 133.356 282.328 133.125 282.038 132.834C272.775 123.57 255.636 121.025 255.465 121C254.653 120.872 253.924 120.429 253.436 119.768C252.948 119.107 252.739 118.28 252.856 117.466C252.972 116.653 253.404 115.917 254.057 115.419C254.711 114.921 255.535 114.7 256.35 114.804C257.137 114.917 275.742 117.687 286.462 128.408C286.9 128.846 287.198 129.404 287.319 130.011C287.439 130.618 287.377 131.247 287.141 131.819C286.904 132.39 286.503 132.879 285.988 133.223C285.474 133.567 284.869 133.751 284.25 133.751Z" fill="white"/>
<path d="M1743.63 291.972H1363.22C1363.22 291.972 1355.92 239.806 1404.37 226.687C1407.81 225.769 1411.31 225.074 1414.85 224.609C1414.85 204.075 1431.98 184.664 1457.68 191.518C1473.39 147.527 1521.5 136.29 1561.39 148.257C1575.66 152.36 1588.75 159.814 1599.56 170C1605.87 175.825 1610.96 182.845 1614.54 190.651C1618.12 198.458 1620.11 206.897 1620.4 215.48C1660.68 200.029 1711.33 230.621 1717.76 266.774C1717.99 267.926 1718.15 269.078 1718.27 270.258C1722.01 269.468 1725.88 269.556 1729.58 270.517C1733.28 271.477 1736.7 273.282 1739.59 275.791C1747.68 283.882 1743.63 291.972 1743.63 291.972Z" fill="#D5CAEF"/>
<path d="M1743.63 293.224H1363.22C1362.92 293.224 1362.63 293.115 1362.4 292.917C1362.17 292.719 1362.03 292.445 1361.98 292.146C1361.91 291.613 1355.09 238.733 1404.05 225.481C1407.19 224.639 1410.39 223.985 1413.61 223.52C1413.71 218.124 1415 212.815 1417.38 207.975C1419.77 203.134 1423.2 198.882 1427.42 195.522C1431.6 192.432 1436.42 190.331 1441.53 189.378C1446.63 188.426 1451.89 188.648 1456.9 190.026C1473.3 146.077 1521.89 135.102 1561.75 147.06C1576.22 151.214 1589.48 158.771 1600.43 169.099C1612.97 180.692 1620.54 196.674 1621.58 213.715C1640.6 207.03 1662.9 209.668 1683.07 221.062C1702.44 232.008 1715.88 249.015 1719 266.553C1719.14 267.297 1719.26 268.033 1719.36 268.778C1723.11 268.2 1726.95 268.449 1730.6 269.508C1734.24 270.566 1737.62 272.41 1740.48 274.908C1749.1 283.534 1744.8 292.443 1744.75 292.531C1744.65 292.739 1744.49 292.914 1744.29 293.037C1744.09 293.159 1743.87 293.224 1743.63 293.224ZM1364.35 290.72H1742.79C1743.56 288.236 1743.58 285.581 1742.85 283.085C1742.13 280.589 1740.68 278.361 1738.7 276.676C1735.97 274.314 1732.73 272.615 1729.23 271.714C1725.73 270.813 1722.07 270.733 1718.54 271.481C1718.36 271.519 1718.19 271.52 1718.01 271.484C1717.84 271.448 1717.68 271.375 1717.53 271.271C1717.39 271.167 1717.27 271.034 1717.18 270.88C1717.09 270.726 1717.04 270.555 1717.02 270.379C1716.91 269.247 1716.76 268.147 1716.54 267.015C1713.54 250.181 1700.57 233.827 1681.84 223.245C1661.75 211.895 1639.52 209.492 1620.85 216.65C1620.67 216.722 1620.47 216.748 1620.27 216.726C1620.07 216.704 1619.88 216.635 1619.71 216.524C1619.55 216.414 1619.41 216.265 1619.31 216.09C1619.22 215.916 1619.16 215.721 1619.16 215.521C1618.86 207.101 1616.91 198.823 1613.4 191.164C1609.88 183.506 1604.89 176.62 1598.7 170.906C1588.04 160.853 1575.12 153.5 1561.03 149.461C1521.98 137.747 1474.35 148.573 1458.86 191.94C1458.76 192.234 1458.54 192.478 1458.27 192.624C1457.99 192.77 1457.67 192.808 1457.36 192.73C1443.74 189.099 1434.4 193.324 1428.95 197.51C1424.89 200.752 1421.62 204.879 1419.39 209.576C1417.16 214.272 1416.04 219.415 1416.1 224.612C1416.1 224.916 1415.99 225.208 1415.79 225.436C1415.59 225.664 1415.32 225.812 1415.01 225.852C1411.54 226.312 1408.09 226.995 1404.7 227.898C1361.68 239.545 1363.68 283.271 1364.35 290.72Z" fill="#221F20"/>
<path d="M1743.63 291.972H1363.22C1363.22 291.972 1355.92 239.806 1404.37 226.688C1412.72 256.83 1426.76 266.774 1502.6 266.774H1717.76C1717.99 267.926 1718.16 269.077 1718.27 270.257C1722.01 269.467 1725.88 269.556 1729.58 270.516C1733.28 271.476 1736.71 273.282 1739.59 275.791C1747.68 283.882 1743.63 291.972 1743.63 291.972Z" fill="#C0ACEF"/>
<path d="M1743.64 293.85H1363.23C1362.77 293.85 1362.33 293.686 1361.99 293.388C1361.65 293.091 1361.43 292.68 1361.36 292.231C1361.29 291.694 1354.41 238.271 1403.88 224.877C1406.89 224.073 1409.93 223.439 1413.01 222.977C1413.18 217.578 1414.52 212.281 1416.94 207.454C1419.37 202.627 1422.81 198.386 1427.04 195.026C1431.21 191.926 1436.02 189.802 1441.12 188.809C1446.22 187.817 1451.48 187.982 1456.51 189.293C1473.23 145.41 1521.94 134.464 1561.93 146.459C1576.5 150.643 1589.85 158.253 1600.87 168.652C1613.31 180.162 1620.91 195.958 1622.16 212.855C1641.17 206.454 1663.33 209.19 1683.38 220.518C1702.92 231.554 1716.46 248.723 1719.61 266.444C1719.72 266.984 1719.81 267.522 1719.89 268.065C1723.65 267.553 1727.48 267.86 1731.11 268.966C1734.74 270.071 1738.09 271.948 1740.92 274.469C1749.86 283.407 1745.51 292.432 1745.32 292.811C1745.16 293.123 1744.92 293.386 1744.62 293.57C1744.33 293.753 1743.98 293.85 1743.64 293.85ZM1364.93 290.095H1742.34C1742.94 287.767 1742.88 285.317 1742.16 283.023C1741.44 280.728 1740.09 278.683 1738.26 277.119C1735.61 274.827 1732.46 273.18 1729.06 272.308C1725.66 271.436 1722.11 271.362 1718.67 272.092C1718.41 272.149 1718.15 272.151 1717.89 272.096C1717.63 272.042 1717.38 271.933 1717.16 271.776C1716.95 271.62 1716.77 271.419 1716.64 271.188C1716.51 270.958 1716.43 270.701 1716.4 270.437C1716.3 269.324 1716.14 268.246 1715.92 267.134C1712.96 250.474 1700.1 234.28 1681.53 223.789C1661.6 212.53 1639.57 210.141 1621.08 217.234C1620.8 217.341 1620.5 217.379 1620.2 217.346C1619.9 217.313 1619.62 217.209 1619.37 217.043C1619.12 216.878 1618.91 216.655 1618.77 216.393C1618.62 216.132 1618.54 215.839 1618.53 215.54C1618.24 207.2 1616.3 199.001 1612.82 191.416C1609.35 183.832 1604.4 177.013 1598.27 171.354C1587.67 161.37 1574.85 154.068 1560.86 150.058C1522.09 138.425 1474.81 149.146 1459.46 192.148C1459.3 192.592 1458.98 192.961 1458.56 193.18C1458.14 193.399 1457.66 193.453 1457.2 193.332C1443.84 189.769 1434.67 193.906 1429.33 198.006C1425.35 201.19 1422.14 205.241 1419.96 209.851C1417.77 214.461 1416.67 219.509 1416.73 224.61C1416.73 225.065 1416.56 225.504 1416.27 225.846C1415.97 226.188 1415.55 226.411 1415.1 226.471C1411.65 226.926 1408.23 227.605 1404.87 228.503C1363.28 239.76 1364.24 281.349 1364.93 290.095Z" fill="#221F20"/>
<path d="M1595.3 197.533C1594.8 197.533 1594.32 197.386 1593.91 197.112C1593.49 196.837 1593.17 196.447 1592.98 195.99C1578.16 160.308 1531.23 160.997 1530.75 161.019C1530.09 161.024 1529.45 160.771 1528.98 160.316C1528.5 159.86 1528.22 159.236 1528.19 158.577C1528.17 157.913 1528.42 157.271 1528.88 156.79C1529.33 156.309 1529.96 156.029 1530.63 156.012C1531.17 156.024 1581.45 155.178 1597.61 194.068C1597.77 194.448 1597.83 194.862 1597.79 195.272C1597.75 195.682 1597.61 196.076 1597.38 196.419C1597.15 196.761 1596.84 197.042 1596.48 197.236C1596.11 197.431 1595.71 197.532 1595.3 197.532V197.533Z" fill="white"/>
<path d="M1676.76 242.479C1676.43 242.479 1676.1 242.414 1675.8 242.289C1675.5 242.163 1675.22 241.978 1674.99 241.745C1664.49 231.249 1645.09 228.342 1644.9 228.315C1644.24 228.22 1643.65 227.868 1643.25 227.336C1642.85 226.804 1642.68 226.136 1642.78 225.479C1642.88 224.825 1643.23 224.238 1643.76 223.841C1644.29 223.445 1644.95 223.271 1645.61 223.356C1646.47 223.482 1666.84 226.516 1678.53 238.205C1678.88 238.555 1679.12 239.001 1679.21 239.487C1679.31 239.972 1679.26 240.476 1679.07 240.933C1678.88 241.39 1678.56 241.781 1678.15 242.057C1677.74 242.332 1677.25 242.479 1676.76 242.479H1676.76Z" fill="white"/>
<path d="M895.903 365.168H574.877C574.877 365.168 568.838 322.03 608.41 310.429C611.702 309.467 615.065 308.766 618.467 308.332C618.467 290.996 632.922 274.62 654.603 280.407C667.844 243.283 708.453 233.806 742.112 243.889C754.16 247.35 765.207 253.641 774.331 262.236C779.649 267.159 783.94 273.085 786.959 279.674C789.977 286.262 791.663 293.382 791.919 300.624C825.957 287.559 868.764 313.462 874.071 344.041C874.248 344.976 874.374 345.911 874.475 346.845C877.636 346.181 880.906 346.258 884.032 347.069C887.158 347.88 890.053 349.404 892.492 351.52C899.315 358.344 895.903 365.168 895.903 365.168Z" fill="#BFE8EF"/>
<path d="M895.903 367.047H574.877C574.424 367.047 573.986 366.883 573.644 366.585C573.303 366.288 573.079 365.877 573.016 365.428C572.955 364.981 567.225 320.546 607.882 308.629C610.75 307.787 613.673 307.142 616.629 306.697C616.805 302.139 617.964 297.673 620.026 293.605C622.089 289.537 625.007 285.963 628.579 283.128C632.094 280.511 636.147 278.71 640.444 277.855C644.742 277.001 649.175 277.114 653.424 278.186C667.668 241.198 708.854 231.969 742.649 242.091C754.987 245.634 766.298 252.079 775.636 260.888C786.075 270.573 792.505 283.817 793.66 298.01C809.754 292.717 828.427 295.096 845.323 304.685C861.869 314.079 873.309 328.67 875.92 343.722C875.978 344.035 876.032 344.35 876.083 344.668C879.261 344.29 882.482 344.587 885.537 345.538C888.592 346.489 891.412 348.074 893.813 350.189C901.509 357.886 897.747 365.68 897.583 366.008C897.427 366.32 897.188 366.583 896.891 366.766C896.594 366.95 896.252 367.047 895.903 367.047ZM576.583 363.291H894.583C895.021 361.404 894.934 359.433 894.331 357.592C893.728 355.752 892.632 354.111 891.163 352.849C888.948 350.955 886.328 349.594 883.505 348.871C880.682 348.149 877.731 348.083 874.878 348.68C874.621 348.736 874.354 348.737 874.096 348.684C873.838 348.631 873.594 348.525 873.38 348.372C873.165 348.219 872.986 348.022 872.853 347.794C872.72 347.567 872.637 347.314 872.609 347.052C872.512 346.167 872.394 345.279 872.226 344.394C869.797 330.406 859.05 316.795 843.467 307.951C826.699 298.433 808.157 296.406 792.591 302.377C792.311 302.484 792.01 302.523 791.712 302.49C791.414 302.458 791.128 302.354 790.879 302.188C790.629 302.022 790.423 301.799 790.277 301.537C790.131 301.275 790.051 300.982 790.041 300.683C789.794 293.683 788.163 286.802 785.244 280.436C782.324 274.071 778.173 268.346 773.03 263.592C764.125 255.199 753.339 249.061 741.576 245.691C708.98 235.928 669.249 244.933 656.37 281.038C656.213 281.483 655.893 281.852 655.476 282.072C655.058 282.291 654.573 282.345 654.118 282.221C650.213 280.965 646.065 280.662 642.02 281.338C637.974 282.014 634.15 283.649 630.866 286.106C627.537 288.767 624.859 292.152 623.036 296.004C621.213 299.856 620.293 304.073 620.345 308.334C620.345 308.789 620.179 309.229 619.879 309.571C619.578 309.914 619.164 310.135 618.712 310.194C615.409 310.617 612.143 311.298 608.945 312.231C575.628 321.996 576.024 355.514 576.583 363.291Z" fill="#221F20"/>
<path d="M895.903 365.169H573.913C573.913 365.169 568.399 323.625 608.091 312.454C611.005 323.99 619.56 344.823 647.187 344.823H874.003C874.181 345.724 874.308 346.624 874.409 347.524C877.566 346.879 880.828 346.948 883.955 347.727C887.082 348.506 889.995 349.975 892.48 352.026C899.324 358.597 895.903 365.169 895.903 365.169Z" fill="#9DD4D6"/>
<path d="M854.754 337.365C856.149 337.365 857.281 336.233 857.281 334.838C857.281 333.442 856.149 332.311 854.754 332.311C853.358 332.311 852.227 333.442 852.227 334.838C852.227 336.233 853.358 337.365 854.754 337.365Z" fill="white"/>
<path d="M854.752 340.494C853.633 340.493 852.54 340.161 851.61 339.54C850.68 338.918 849.955 338.034 849.528 337C849.1 335.967 848.988 334.829 849.207 333.732C849.425 332.635 849.964 331.627 850.755 330.836C851.547 330.046 852.555 329.507 853.652 329.289C854.749 329.071 855.886 329.183 856.92 329.612C857.953 330.04 858.836 330.765 859.457 331.696C860.079 332.626 860.41 333.72 860.41 334.838C860.408 336.338 859.811 337.776 858.75 338.836C857.69 339.896 856.252 340.493 854.752 340.494ZM854.752 334.235C854.592 334.235 854.439 334.299 854.327 334.412C854.214 334.526 854.151 334.679 854.151 334.838C854.151 335.503 855.356 335.503 855.356 334.838C855.356 334.678 855.292 334.525 855.179 334.412C855.066 334.298 854.912 334.235 854.752 334.235Z" fill="white"/>
<path d="M771.957 290.435C771.339 290.435 770.733 290.252 770.219 289.909C769.704 289.565 769.302 289.077 769.065 288.506C755.966 256.973 714.339 257.547 713.91 257.585C713.08 257.606 712.276 257.296 711.675 256.723C711.074 256.151 710.724 255.363 710.704 254.533C710.684 253.703 710.994 252.899 711.566 252.297C712.139 251.696 712.926 251.346 713.756 251.326C715.619 251.285 760.088 250.581 774.845 286.104C775.163 286.87 775.164 287.732 774.847 288.499C774.53 289.266 773.922 289.876 773.155 290.194C772.776 290.353 772.369 290.435 771.957 290.435Z" fill="white"/>
<path d="M845.237 330.871C844.826 330.872 844.419 330.791 844.04 330.634C843.66 330.476 843.315 330.246 843.025 329.954C833.791 320.72 816.621 318.143 816.45 318.118C815.635 317.993 814.903 317.551 814.412 316.889C813.921 316.227 813.712 315.397 813.829 314.581C813.945 313.765 814.38 313.028 815.037 312.531C815.694 312.033 816.52 311.814 817.338 311.923C818.125 312.035 836.727 314.805 847.45 325.529C847.888 325.967 848.186 326.524 848.306 327.131C848.427 327.738 848.365 328.367 848.128 328.939C847.891 329.511 847.49 330 846.976 330.344C846.461 330.687 845.856 330.871 845.237 330.871Z" fill="white"/>
<path d="M895.903 366.098H574.877C574.424 366.098 573.986 365.934 573.644 365.637C573.303 365.339 573.08 364.929 573.016 364.48C572.955 364.032 567.225 319.6 607.882 307.68C610.75 306.838 613.673 306.194 616.629 305.751C616.805 301.193 617.964 296.727 620.027 292.659C622.089 288.591 625.007 285.017 628.579 282.182C632.095 279.566 636.148 277.766 640.445 276.911C644.742 276.056 649.175 276.169 653.424 277.24C667.668 240.252 708.84 231.013 742.649 241.142C754.986 244.688 766.297 251.133 775.636 259.939C786.074 269.625 792.505 282.871 793.66 297.064C809.754 291.771 828.427 294.15 845.323 303.739C861.869 313.133 873.309 327.724 875.92 342.773C875.978 343.086 876.032 343.404 876.083 343.722C879.261 343.345 882.482 343.642 885.536 344.593C888.591 345.545 891.411 347.129 893.813 349.243C901.509 356.939 897.747 364.731 897.583 365.059C897.427 365.372 897.188 365.634 896.891 365.818C896.594 366.001 896.252 366.099 895.903 366.098ZM576.583 362.343H894.583C895.021 360.456 894.934 358.486 894.331 356.645C893.728 354.805 892.632 353.164 891.163 351.902C888.947 350.011 886.328 348.652 883.505 347.929C880.683 347.206 877.733 347.14 874.881 347.734C874.623 347.791 874.357 347.793 874.099 347.74C873.84 347.687 873.596 347.58 873.382 347.427C873.168 347.273 872.988 347.076 872.855 346.849C872.722 346.621 872.638 346.368 872.609 346.106C872.512 345.219 872.394 344.334 872.226 343.446C869.797 329.461 859.05 315.85 843.47 307.006C826.699 297.488 808.157 295.459 792.591 301.432C792.311 301.539 792.01 301.578 791.712 301.545C791.414 301.512 791.128 301.408 790.879 301.243C790.629 301.077 790.423 300.854 790.277 300.592C790.132 300.33 790.051 300.037 790.041 299.737C789.793 292.738 788.163 285.857 785.243 279.49C782.324 273.124 778.173 267.399 773.03 262.644C764.123 254.253 753.338 248.115 741.576 244.743C708.98 234.979 669.249 243.982 656.37 280.093C656.212 280.537 655.892 280.905 655.475 281.125C655.058 281.344 654.573 281.398 654.118 281.276C650.213 280.021 646.065 279.719 642.02 280.395C637.975 281.071 634.15 282.705 630.866 285.161C627.537 287.821 624.86 291.206 623.037 295.057C621.214 298.909 620.293 303.125 620.345 307.386C620.346 307.841 620.18 308.281 619.88 308.623C619.58 308.966 619.166 309.187 618.715 309.246C615.41 309.67 612.144 310.351 608.945 311.283C575.628 321.049 576.024 354.565 576.583 362.343Z" fill="#221F20"/>
<path d="M622.406 247.731C622.406 247.731 136.42 245.608 98.5156 245.608C103.241 216.647 143.748 199.816 171.899 201.332C176.498 201.543 181.055 202.316 185.468 203.632C185.644 182.859 220.769 152.457 259.735 166.027C285.308 131.581 322.429 121.346 356.922 124.43C428.84 129.913 447.565 187.432 447.565 187.432C498.811 175.2 537.095 194.912 548.113 215.281C549.313 217.485 550.214 219.839 550.791 222.281C620.536 218.669 622.406 247.731 622.406 247.731Z" fill="#B4CAEF"/>
<path d="M622.408 248.984H622.403C617.542 248.962 135.986 246.862 98.5169 246.862C98.3355 246.862 98.1563 246.823 97.9916 246.747C97.8269 246.671 97.6807 246.56 97.5632 246.422C97.4457 246.283 97.3597 246.121 97.3112 245.946C97.2626 245.772 97.2528 245.588 97.2822 245.409C102.228 215.101 144.12 198.595 171.968 200.084C176.134 200.285 180.267 200.921 184.3 201.984C185.163 192.238 192.857 181.001 204.353 172.906C212.193 167.265 221.261 163.566 230.81 162.114C240.359 160.661 250.116 161.497 259.279 164.551C282.131 134.27 316.803 119.585 357.037 123.184C423.454 128.248 445.269 177.947 448.36 185.962C497.639 174.588 537.042 192.179 549.215 214.686C550.298 216.681 551.151 218.793 551.757 220.981C620.882 217.693 623.576 246.419 623.657 247.651C623.668 247.822 623.644 247.994 623.586 248.155C623.528 248.316 623.438 248.464 623.321 248.588C623.204 248.713 623.062 248.813 622.905 248.881C622.748 248.949 622.579 248.984 622.408 248.984ZM100.021 244.358C145.912 244.408 591.002 246.343 620.875 246.473C619.323 240.952 609.593 220.497 550.859 223.532C550.567 223.54 550.281 223.449 550.047 223.273C549.814 223.097 549.648 222.846 549.576 222.563C549.023 220.23 548.161 217.981 547.013 215.876C536.889 197.162 499.435 176.336 447.86 188.651C447.554 188.728 447.23 188.685 446.954 188.531C446.679 188.377 446.473 188.124 446.378 187.823C446.192 187.255 427.032 131.033 356.829 125.681C333.865 123.62 290.839 126.232 260.741 166.774C260.583 166.989 260.36 167.148 260.105 167.226C259.851 167.305 259.577 167.3 259.326 167.212C250.438 164.102 240.932 163.182 231.613 164.53C222.294 165.877 213.437 169.453 205.794 174.953C194.287 183.056 186.801 194.32 186.722 203.642C186.721 203.838 186.674 204.03 186.585 204.204C186.495 204.378 186.367 204.528 186.209 204.644C186.05 204.758 185.867 204.834 185.674 204.866C185.481 204.898 185.284 204.884 185.097 204.827C180.782 203.539 176.326 202.785 171.828 202.583C145.386 201.175 105.832 216.351 100.021 244.358Z" fill="#221F20"/>
<path d="M550.798 222.283L193.282 221.601C177.438 221.601 173.269 208.434 171.904 201.333C143.754 199.816 101.982 217.911 97.2578 246.872C135.162 246.872 622.411 247.731 622.411 247.731C622.411 247.731 620.541 218.669 550.797 222.283" fill="#92B1DD"/>
<path d="M622.409 249.61H622.407C617.546 249.603 135.975 248.825 97.33 248.825C97.0579 248.825 96.7892 248.765 96.5423 248.651C96.2954 248.536 96.0763 248.37 95.9002 248.162C95.724 247.955 95.595 247.712 95.522 247.45C95.449 247.187 95.4338 246.913 95.4775 246.644C100.543 215.595 144.224 197.984 172.002 199.458C175.967 199.655 179.904 200.235 183.757 201.192C184.947 191.441 192.641 180.39 203.995 172.392C211.855 166.742 220.935 163.022 230.499 161.532C240.064 160.042 249.845 160.824 259.051 163.815C282.042 133.605 316.806 118.976 357.093 122.561C422.564 127.553 444.954 175.725 448.748 185.231C498.069 174.045 537.526 191.757 549.767 214.39C550.793 216.279 551.617 218.272 552.227 220.333C621.52 217.13 624.201 246.358 624.282 247.612C624.299 247.868 624.263 248.125 624.177 248.367C624.09 248.609 623.955 248.83 623.779 249.017C623.604 249.205 623.391 249.354 623.156 249.456C622.92 249.558 622.666 249.61 622.409 249.61H622.409ZM99.616 245.069C149.9 245.094 583.681 245.791 620.025 245.849C617.847 239.617 606.647 221.288 550.894 224.158C550.449 224.198 550.006 224.072 549.65 223.804C549.294 223.535 549.05 223.144 548.967 222.705C548.425 220.427 547.583 218.23 546.464 216.172C536.433 197.634 499.248 177.026 448.004 189.26C447.546 189.368 447.064 189.3 446.653 189.07C446.242 188.839 445.932 188.463 445.785 188.016C445.601 187.453 426.539 131.622 356.784 126.304C333.927 124.263 291.161 126.855 261.246 167.148C261.008 167.47 260.673 167.707 260.29 167.824C259.907 167.942 259.496 167.933 259.118 167.801C250.324 164.726 240.919 163.817 231.699 165.151C222.479 166.485 213.716 170.022 206.154 175.463C194.808 183.456 187.428 194.52 187.349 203.649C187.346 203.942 187.275 204.231 187.141 204.491C187.007 204.752 186.814 204.977 186.577 205.15C186.34 205.322 186.066 205.437 185.777 205.485C185.488 205.532 185.191 205.512 184.911 205.424C180.646 204.152 176.241 203.408 171.795 203.209C146.654 201.847 106.002 217.82 99.616 245.069Z" fill="#221F20"/>
<path d="M415.768 179.241C415.168 179.242 414.581 179.071 414.077 178.747C413.572 178.424 413.171 177.962 412.922 177.417C395.216 138.852 339.018 139.579 338.39 139.635H338.321C337.91 139.64 337.503 139.563 337.121 139.41C336.74 139.257 336.392 139.031 336.098 138.743C335.505 138.163 335.166 137.371 335.156 136.541C335.147 135.711 335.468 134.911 336.048 134.317C336.628 133.724 337.42 133.385 338.25 133.376C340.698 133.344 399.175 132.471 418.608 174.806C418.827 175.283 418.923 175.807 418.886 176.33C418.849 176.853 418.682 177.358 418.399 177.8C418.117 178.241 417.727 178.605 417.267 178.856C416.808 179.108 416.292 179.241 415.768 179.241Z" fill="white"/>
<path d="M428.289 191.274C429.684 191.274 430.816 190.143 430.816 188.747C430.816 187.351 429.684 186.22 428.289 186.22C426.893 186.22 425.762 187.351 425.762 188.747C425.762 190.143 426.893 191.274 428.289 191.274Z" fill="white"/>
<path d="M428.287 194.404C427.169 194.403 426.075 194.072 425.145 193.45C424.216 192.828 423.491 191.945 423.063 190.911C422.635 189.878 422.523 188.74 422.742 187.643C422.96 186.546 423.499 185.539 424.289 184.748C425.08 183.957 426.088 183.418 427.185 183.2C428.282 182.981 429.419 183.093 430.453 183.521C431.486 183.949 432.369 184.674 432.991 185.604C433.613 186.534 433.945 187.627 433.945 188.746C433.944 190.246 433.347 191.684 432.286 192.745C431.225 193.806 429.787 194.402 428.287 194.404ZM428.287 188.145C428.208 188.145 428.13 188.16 428.057 188.19C427.984 188.221 427.918 188.265 427.862 188.321C427.806 188.377 427.762 188.443 427.732 188.516C427.702 188.589 427.686 188.667 427.686 188.746C427.686 189.411 428.891 189.411 428.891 188.746C428.891 188.586 428.827 188.433 428.714 188.32C428.6 188.207 428.447 188.144 428.287 188.145Z" fill="white"/>
<path d="M614.626 385.614H167.984C167.984 385.614 169.4 331.053 224.386 314.298C229.052 312.862 233.815 311.765 238.639 311.013C233.938 285.993 279.474 244.371 327.133 257.059C346.414 215.285 419.772 219.202 449.539 247.152C459.319 256.3 465.105 267.723 463.968 280.713C497.653 265.297 548.874 276.341 558.502 318.115C595.927 318.999 608.637 343.159 612.832 362.34C614.505 369.978 615.109 377.811 614.626 385.614Z" fill="#E4DEFF"/>
<path d="M614.626 387.493H167.984C167.733 387.493 167.485 387.442 167.254 387.345C167.023 387.247 166.813 387.104 166.638 386.925C166.463 386.745 166.326 386.532 166.235 386.299C166.143 386.065 166.1 385.816 166.106 385.565C166.121 385.005 168.202 329.452 223.838 312.499C228 311.22 232.239 310.204 236.528 309.457C235.565 299.042 242.09 286.056 253.957 275.039C269.636 260.482 296.7 247.694 326.108 254.86C333.576 240.001 348.683 229.701 368.833 225.779C397.965 220.107 432.442 228.522 450.824 245.781C460.875 255.185 466.074 266.197 465.984 277.796C476.184 273.783 487.094 271.892 498.049 272.237C509.004 272.582 519.774 275.157 529.7 279.803C537.144 283.248 543.725 288.31 548.964 294.621C554.203 300.932 557.969 308.332 559.986 316.282C597.204 317.759 610.271 341.847 614.665 361.937C616.39 369.762 617.006 377.791 616.496 385.788C616.452 386.254 616.236 386.687 615.891 387.002C615.545 387.317 615.094 387.492 614.626 387.493ZM169.998 383.737H612.856C613.101 376.688 612.477 369.636 610.998 362.74C606.835 343.705 594.339 320.84 558.457 319.991C558.04 319.981 557.638 319.833 557.315 319.569C556.992 319.305 556.766 318.941 556.672 318.534C554.911 310.847 551.416 303.664 546.454 297.535C541.491 291.406 535.193 286.494 528.04 283.172C518.154 278.542 507.393 276.079 496.477 275.948C485.561 275.818 474.743 278.023 464.749 282.417C464.451 282.554 464.121 282.611 463.794 282.581C463.467 282.551 463.153 282.435 462.884 282.246C462.616 282.056 462.402 281.8 462.263 281.501C462.125 281.203 462.068 280.874 462.097 280.546C463.107 269.011 458.32 257.938 448.254 248.522C430.684 232.021 397.586 224.001 369.552 229.466C349.983 233.275 335.525 243.353 328.836 257.845C328.651 258.247 328.33 258.571 327.93 258.759C327.529 258.946 327.075 258.986 326.648 258.871C298.149 251.282 271.722 263.668 256.511 277.793C244.85 288.619 238.706 301.214 240.483 310.663C240.529 310.91 240.526 311.164 240.472 311.41C240.419 311.655 240.317 311.887 240.172 312.093C240.027 312.298 239.843 312.472 239.63 312.605C239.417 312.738 239.179 312.827 238.931 312.867C234.197 313.606 229.522 314.684 224.942 316.092C177.646 330.503 170.915 374.036 169.998 383.737Z" fill="#221F20"/>
<path d="M614.626 385.614H167.984C167.984 385.614 169.4 331.053 224.386 314.298C218.549 342.905 208.985 363.123 309.52 363.123C423.233 363.123 569.797 363.123 612.832 362.339C614.506 369.977 615.109 377.81 614.626 385.614Z" fill="#E1B5E8"/>
<path d="M614.626 387.493H167.984C167.733 387.493 167.485 387.442 167.254 387.345C167.023 387.247 166.813 387.104 166.638 386.925C166.463 386.745 166.326 386.532 166.235 386.299C166.143 386.065 166.1 385.816 166.106 385.565C166.121 385.005 168.202 329.452 223.838 312.499C228 311.22 232.239 310.204 236.528 309.457C235.565 299.042 242.09 286.056 253.957 275.039C269.636 260.482 296.7 247.694 326.108 254.86C333.576 240.001 348.683 229.701 368.833 225.779C397.965 220.107 432.442 228.522 450.824 245.781C460.875 255.185 466.074 266.197 465.984 277.796C476.184 273.783 487.094 271.892 498.049 272.237C509.004 272.582 519.774 275.157 529.7 279.803C537.144 283.248 543.725 288.31 548.964 294.621C554.203 300.932 557.969 308.332 559.986 316.282C597.204 317.759 610.271 341.847 614.665 361.937C616.39 369.762 617.006 377.791 616.496 385.788C616.452 386.254 616.236 386.687 615.891 387.002C615.545 387.317 615.094 387.492 614.626 387.493ZM169.998 383.737H612.856C613.101 376.688 612.477 369.636 610.998 362.74C606.835 343.705 594.339 320.84 558.457 319.991C558.04 319.981 557.638 319.833 557.315 319.569C556.992 319.305 556.766 318.941 556.672 318.534C554.911 310.847 551.416 303.664 546.454 297.535C541.491 291.406 535.193 286.494 528.04 283.172C518.154 278.542 507.393 276.079 496.477 275.948C485.561 275.818 474.743 278.023 464.749 282.417C464.451 282.554 464.121 282.611 463.794 282.581C463.467 282.551 463.153 282.435 462.884 282.246C462.616 282.056 462.402 281.8 462.263 281.501C462.125 281.203 462.068 280.874 462.097 280.546C463.107 269.011 458.32 257.938 448.254 248.522C430.684 232.021 397.586 224.001 369.552 229.466C349.983 233.275 335.525 243.353 328.836 257.845C328.651 258.247 328.33 258.571 327.93 258.759C327.529 258.946 327.075 258.986 326.648 258.871C298.149 251.282 271.722 263.668 256.511 277.793C244.85 288.619 238.706 301.214 240.483 310.663C240.529 310.91 240.526 311.164 240.472 311.41C240.419 311.655 240.317 311.887 240.172 312.093C240.027 312.298 239.843 312.472 239.63 312.605C239.417 312.738 239.179 312.827 238.931 312.867C234.197 313.606 229.522 314.684 224.942 316.092C177.646 330.503 170.915 374.036 169.998 383.737Z" fill="#221F20"/>
<path d="M440.924 267.694C440.342 267.695 439.772 267.533 439.277 267.227C438.782 266.921 438.382 266.483 438.122 265.963C426.527 242.77 389.275 243.236 388.926 243.246C388.104 243.236 387.317 242.913 386.725 242.344C386.132 241.774 385.778 241.001 385.735 240.18C385.726 239.77 385.799 239.361 385.948 238.978C386.097 238.596 386.32 238.246 386.604 237.95C386.888 237.653 387.228 237.415 387.604 237.25C387.981 237.085 388.385 236.996 388.796 236.987C390.522 236.972 430.358 236.434 443.721 263.166C443.959 263.643 444.072 264.173 444.048 264.705C444.024 265.238 443.864 265.755 443.584 266.209C443.304 266.663 442.912 267.037 442.447 267.297C441.981 267.557 441.457 267.693 440.924 267.694Z" fill="white"/>
<path d="M539.475 313.182C538.893 313.183 538.322 313.022 537.827 312.716C537.332 312.41 536.932 311.972 536.673 311.451C525.077 288.263 487.841 288.72 487.476 288.735C486.65 288.741 485.854 288.423 485.258 287.851C484.662 287.278 484.313 286.495 484.286 285.669C484.277 285.258 484.349 284.85 484.499 284.467C484.648 284.084 484.871 283.735 485.155 283.438C485.439 283.142 485.779 282.904 486.155 282.739C486.531 282.574 486.936 282.484 487.347 282.476C489.046 282.427 528.906 281.916 542.273 308.654C542.511 309.131 542.623 309.661 542.599 310.194C542.575 310.726 542.416 311.244 542.136 311.697C541.855 312.151 541.464 312.526 540.999 312.785C540.533 313.045 540.009 313.182 539.476 313.182H539.475Z" fill="white"/>
<path d="M547.058 322.687C548.454 322.687 549.585 321.556 549.585 320.16C549.585 318.764 548.454 317.633 547.058 317.633C545.663 317.633 544.531 318.764 544.531 320.16C544.531 321.556 545.663 322.687 547.058 322.687Z" fill="white"/>
<path d="M547.055 325.819C545.936 325.819 544.842 325.488 543.911 324.866C542.98 324.245 542.255 323.362 541.826 322.328C541.397 321.294 541.285 320.156 541.503 319.058C541.721 317.96 542.259 316.952 543.051 316.16C543.842 315.369 544.85 314.829 545.948 314.611C547.045 314.392 548.183 314.504 549.217 314.932C550.251 315.361 551.135 316.086 551.757 317.016C552.378 317.947 552.71 319.041 552.71 320.16C552.709 321.66 552.113 323.098 551.053 324.159C549.992 325.219 548.555 325.816 547.055 325.819ZM547.055 319.559C546.896 319.559 546.743 319.622 546.629 319.735C546.516 319.848 546.452 320 546.452 320.16C546.452 320.825 547.657 320.825 547.657 320.16C547.657 320.081 547.641 320.003 547.611 319.93C547.581 319.857 547.537 319.791 547.481 319.735C547.425 319.679 547.359 319.635 547.286 319.605C547.213 319.575 547.134 319.559 547.055 319.559Z" fill="white"/>
</svg>
