<svg width="142" height="142" viewBox="0 0 143 142" fill="none" xmlns="http://www.w3.org/2000/svg">
<path d="M71.477 134.711C107.546 134.711 136.785 106.222 136.785 71.0789C136.785 35.9361 107.546 7.44727 71.477 7.44727C35.4081 7.44727 6.16846 35.9361 6.16846 71.0789C6.16846 106.222 35.4081 134.711 71.477 134.711Z" fill="#FFDD63"/>
<path d="M71.4769 137.256C34.0532 137.256 3.60791 107.568 3.60791 71.0841C3.60791 34.6001 34.0532 4.91211 71.4769 4.91211C108.901 4.91211 139.346 34.6001 139.346 71.0841C139.346 107.568 108.899 137.256 71.4769 137.256ZM71.4769 9.99145C36.878 9.99145 8.7288 37.3974 8.7288 71.0784C8.7288 104.759 36.8766 132.165 71.4769 132.165C106.077 132.165 134.223 104.759 134.223 71.0784C134.223 37.3974 106.074 9.99145 71.4769 9.99145V9.99145Z" fill="#F99E16"/>
<path d="M71.4767 90.9175C59.4846 90.9175 53.8779 87.4954 53.645 87.3491C53.2132 87.0806 52.9064 86.6526 52.7921 86.1592C52.6779 85.6659 52.7654 85.1477 53.0356 84.7185C53.3058 84.2894 53.7365 83.9845 54.2329 83.8709C54.7292 83.7574 55.2507 83.8444 55.6825 84.1129C55.7968 84.1811 60.7934 87.0949 71.4767 87.0949C82.23 87.0949 87.2208 84.1371 87.2708 84.1129C87.7018 83.8698 88.2108 83.8016 88.6911 83.9227C89.1715 84.0439 89.5862 84.3449 89.8484 84.7628C90.1106 85.1808 90.2001 85.6833 90.0981 86.1653C89.9961 86.6473 89.7106 87.0715 89.3012 87.3491C89.0755 87.4954 83.4688 90.9175 71.4767 90.9175Z" fill="#684800"/>
<path d="M40.8843 61.589C43.1941 61.589 45.0665 59.7282 45.0665 57.4327C45.0665 55.1372 43.1941 53.2764 40.8843 53.2764C38.5746 53.2764 36.7021 55.1372 36.7021 57.4327C36.7021 59.7282 38.5746 61.589 40.8843 61.589Z" fill="#684800"/>
<path d="M103.787 61.589C106.096 61.589 107.969 59.7282 107.969 57.4327C107.969 55.1372 106.096 53.2764 103.787 53.2764C101.477 53.2764 99.6045 55.1372 99.6045 57.4327C99.6045 59.7282 101.477 61.589 103.787 61.589Z" fill="#684800"/>
<path d="M75.8462 72.0132H68.4407C68.1331 72.0133 67.8301 71.94 67.557 71.7995C67.2839 71.659 67.0487 71.4553 66.8713 71.2057C66.6939 70.956 66.5794 70.6677 66.5375 70.3649C66.4955 70.0621 66.5274 69.7537 66.6304 69.4657L69.6695 60.9457C69.7539 60.7094 69.8844 60.4918 70.0534 60.3056C70.2224 60.1193 70.4267 59.968 70.6545 59.8602C70.8824 59.7524 71.1294 59.6903 71.3815 59.6773C71.6335 59.6644 71.8856 59.701 72.1235 59.7849C72.3613 59.8688 72.5801 59.9984 72.7676 60.1664C72.955 60.3344 73.1073 60.5374 73.2157 60.7639C73.3242 60.9903 73.3867 61.2358 73.3997 61.4863C73.4127 61.7368 73.376 61.9874 73.2915 62.2237L71.1597 68.1877H75.8505C76.3598 68.1877 76.8483 68.3888 77.2084 68.7467C77.5685 69.1046 77.7709 69.59 77.7709 70.0962C77.7709 70.6024 77.5685 71.0878 77.2084 71.4457C76.8483 71.8036 76.3598 72.0047 75.8505 72.0047L75.8462 72.0132Z" fill="#684800"/>
<path d="M33.016 102.92C41.8636 102.92 49.036 95.7921 49.036 86.9992C49.036 78.2062 41.8636 71.0781 33.016 71.0781C24.1685 71.0781 16.9961 78.2062 16.9961 86.9992C16.9961 95.7921 24.1685 102.92 33.016 102.92Z" fill="#F99E16"/>
<path d="M110.612 102.92C119.46 102.92 126.632 95.7921 126.632 86.9992C126.632 78.2062 119.46 71.0781 110.612 71.0781C101.765 71.0781 94.5923 78.2062 94.5923 86.9992C94.5923 95.7921 101.765 102.92 110.612 102.92Z" fill="#F99E16"/>
</svg>
