<svg width="142" height="142" viewBox="0 0 143 142" fill="none" xmlns="http://www.w3.org/2000/svg">
<path d="M71.7633 134.711C107.61 134.711 136.669 106.222 136.669 71.0789C136.669 35.9361 107.61 7.44727 71.7633 7.44727C35.917 7.44727 6.85791 35.9361 6.85791 71.0789C6.85791 106.222 35.917 134.711 71.7633 134.711Z" fill="#8CEAB2"/>
<path d="M71.7635 137.256C34.5708 137.256 4.31348 107.568 4.31348 71.0841C4.31348 34.6001 34.5708 4.91211 71.7635 4.91211C108.956 4.91211 139.213 34.6001 139.213 71.0841C139.213 107.568 108.956 137.256 71.7635 137.256ZM71.7635 9.99145C37.3782 9.99145 9.40418 37.3974 9.40418 71.0784C9.40418 104.759 37.3782 132.165 71.7635 132.165C106.149 132.165 134.123 104.759 134.123 71.0784C134.123 37.3974 106.149 9.99145 71.7635 9.99145Z" fill="#20B28F"/>
<path d="M76.1073 72.011H68.7417C68.4362 72.0109 68.1352 71.9374 67.8639 71.7968C67.5927 71.6561 67.3591 71.4525 67.1828 71.2029C67.0066 70.9534 66.8928 70.6652 66.851 70.3625C66.8092 70.0598 66.8406 69.7516 66.9426 69.4636L69.9643 60.9436C70.1432 60.4789 70.4964 60.1025 70.9488 59.8944C71.4011 59.6864 71.9168 59.6632 72.386 59.8299C72.8552 59.9965 73.2407 60.3398 73.4605 60.7865C73.6803 61.2333 73.7169 61.7482 73.5626 62.2216L71.4454 68.1856H76.1073C76.6134 68.1856 77.0988 68.3866 77.4568 68.7446C77.8147 69.1025 78.0157 69.5879 78.0157 70.094C78.0157 70.6002 77.8147 71.0856 77.4568 71.4435C77.0988 71.8015 76.6134 72.0025 76.1073 72.0025V72.011Z" fill="#684800"/>
<path d="M118.744 103.616C128.239 103.616 135.936 95.9192 135.936 86.4244C135.936 76.9295 128.239 69.2324 118.744 69.2324C109.249 69.2324 101.552 76.9295 101.552 86.4244C101.552 95.9192 109.249 103.616 118.744 103.616Z" fill="#20B28F"/>
<path d="M105.713 61.5094C105.335 61.5095 104.967 61.3973 104.653 61.1871C102.745 59.9091 102.29 59.6109 97.3034 59.3808C97.0096 59.3676 96.7227 59.2866 96.4654 59.1441C96.208 59.0017 95.987 58.8017 95.8197 58.5597C95.6524 58.3178 95.5433 58.0404 95.5009 57.7493C95.4585 57.4582 95.484 57.1613 95.5753 56.8816C97.5718 50.787 104.237 50.6904 104.642 50.6904H104.652C105.149 50.7049 105.621 50.9128 105.968 51.2701C106.314 51.6273 106.507 52.1055 106.506 52.6031C106.505 53.1006 106.31 53.5782 105.963 53.9341C105.615 54.29 105.142 54.4962 104.645 54.5088C104.51 54.5088 102.414 54.5486 100.794 55.8053C103.813 56.1375 104.876 56.7453 106.773 58.0134C107.114 58.2407 107.373 58.5717 107.511 58.9574C107.649 59.3431 107.659 59.763 107.54 60.155C107.422 60.5471 107.18 60.8904 106.85 61.1343C106.521 61.3782 106.122 61.5097 105.713 61.5094Z" fill="#684800"/>
<path d="M37.2005 61.5094C36.7909 61.5097 36.3919 61.3782 36.0628 61.1343C35.7336 60.8904 35.4917 60.5471 35.3727 60.155C35.2538 59.763 35.2642 59.3431 35.4023 58.9574C35.5404 58.5717 35.799 58.2407 36.1398 58.0134C38.0355 56.7453 39.0991 56.1375 42.1166 55.8053C40.4935 54.5443 38.3919 54.5102 38.2669 54.5088C37.7696 54.4952 37.2972 54.2881 36.9502 53.9316C36.6033 53.575 36.4091 53.0971 36.4091 52.5996C36.4091 52.1021 36.6033 51.6242 36.9502 51.2677C37.2972 50.9111 37.7696 50.704 38.2669 50.6904C38.5396 50.7458 45.3258 50.7316 47.3422 56.8802C47.434 57.1598 47.46 57.4569 47.4179 57.7482C47.3759 58.0395 47.267 58.3171 47.0997 58.5593C46.9325 58.8015 46.7115 59.0017 46.454 59.1442C46.1965 59.2867 45.9095 59.3677 45.6154 59.3808C40.627 59.6109 40.1726 59.9133 38.2655 61.1871C37.9505 61.398 37.5797 61.5102 37.2005 61.5094Z" fill="#684800"/>
<path d="M26.2198 103.616C35.7146 103.616 43.4117 95.9192 43.4117 86.4244C43.4117 76.9295 35.7146 69.2324 26.2198 69.2324C16.7249 69.2324 9.02783 76.9295 9.02783 86.4244C9.02783 95.9192 16.7249 103.616 26.2198 103.616Z" fill="#20B28F"/>
<path d="M72.4254 87.3391C61.8833 87.3391 55.8596 82.203 49.3276 85.3426C42.7956 88.4822 49.579 109.021 72.4197 109.021C95.2604 109.021 102.041 88.4794 95.516 85.3426C88.9911 82.2058 82.966 87.3391 72.4254 87.3391Z" fill="#8CEAB2"/>
<path d="M72.4254 110.929C56.6719 110.929 47.3794 101.634 45.4113 92.9972C44.4102 88.6123 45.5973 85.0183 48.5055 83.6252C52.8649 81.5265 57.0354 82.5929 61.4488 83.7204C64.5898 84.5241 68.1526 85.4329 72.4254 85.4329C76.6982 85.4329 80.2596 84.5241 83.402 83.7204C87.814 82.5943 91.9845 81.5279 96.3439 83.6252C99.2521 85.0225 100.438 88.618 99.4381 92.9972C97.4657 101.634 88.1761 110.929 72.4254 110.929ZM53.9129 86.2324C52.6152 86.2156 51.3313 86.4989 50.1612 87.0602C48.9812 87.6282 48.5694 89.673 49.1331 92.1495C50.5034 98.1646 57.8377 107.111 72.4211 107.111C87.0046 107.111 94.3417 98.1646 95.7092 92.1495C96.2772 89.673 95.8611 87.6268 94.6811 87.0602C91.577 85.5678 88.5396 86.3431 84.3392 87.4166C80.9781 88.2686 77.1696 89.247 72.4183 89.247C67.667 89.247 63.8571 88.2743 60.4903 87.4166C57.9741 86.7705 55.8668 86.2324 53.9129 86.2324Z" fill="#684800"/>
<path d="M88.8886 105.153C88.5745 105.153 88.2652 105.076 87.9883 104.927C74.5069 97.7164 57.2113 104.927 57.0324 105C56.8019 105.098 56.5542 105.15 56.3036 105.153C56.0529 105.156 55.8042 105.109 55.5715 105.016C55.3388 104.923 55.1268 104.785 54.9476 104.609C54.7683 104.434 54.6253 104.225 54.5268 103.995C54.3277 103.529 54.3218 103.004 54.5102 102.534C54.6986 102.064 55.0659 101.688 55.5314 101.489C56.3053 101.158 74.6616 93.472 89.7846 101.562C90.1598 101.762 90.4571 102.083 90.6293 102.472C90.8016 102.861 90.8388 103.296 90.7352 103.709C90.6316 104.122 90.393 104.488 90.0574 104.75C89.7218 105.011 89.3084 105.153 88.8829 105.153H88.8886Z" fill="#684800"/>
<path d="M56.9956 104.122C56.9956 104.122 74.997 96.8107 87.2885 104.832C83.7186 108.267 62.4669 111.029 56.9956 104.122Z" fill="#684800"/>
<path d="M71.7633 134.71C107.61 134.71 136.669 106.222 136.669 71.0789C136.669 35.9361 107.61 7.44727 71.7633 7.44727C35.917 7.44727 6.85791 35.9361 6.85791 71.0789C6.85791 106.222 35.917 134.71 71.7633 134.71Z" fill="#8CEAB2"/>
<path d="M71.7635 137.256C34.5708 137.256 4.31348 107.568 4.31348 71.0841C4.31348 34.6001 34.5708 4.91211 71.7635 4.91211C108.956 4.91211 139.213 34.6001 139.213 71.0841C139.213 107.568 108.956 137.256 71.7635 137.256ZM71.7635 9.99145C37.3782 9.99145 9.40418 37.3975 9.40418 71.0784C9.40418 104.759 37.3782 132.165 71.7635 132.165C106.149 132.165 134.123 104.759 134.123 71.0784C134.123 37.3975 106.149 9.99145 71.7635 9.99145Z" fill="#20B28F"/>
<path d="M76.1073 72.0111H68.7417C68.4362 72.0109 68.1352 71.9374 67.8639 71.7968C67.5927 71.6562 67.3591 71.4525 67.1828 71.2029C67.0066 70.9534 66.8928 70.6652 66.851 70.3625C66.8092 70.0599 66.8406 69.7516 66.9426 69.4636L69.9643 60.9436C70.1432 60.4789 70.4964 60.1025 70.9488 59.8944C71.4011 59.6864 71.9168 59.6632 72.386 59.8299C72.8552 59.9965 73.2407 60.3398 73.4605 60.7865C73.6803 61.2333 73.7169 61.7482 73.5626 62.2216L71.4454 68.1856H76.1073C76.6134 68.1856 77.0988 68.3867 77.4568 68.7446C77.8147 69.1025 78.0157 69.5879 78.0157 70.0941C78.0157 70.6002 77.8147 71.0857 77.4568 71.4436C77.0988 71.8015 76.6134 72.0025 76.1073 72.0025V72.0111Z" fill="#684800"/>
<path d="M118.744 103.616C128.239 103.616 135.936 95.9192 135.936 86.4244C135.936 76.9295 128.239 69.2324 118.744 69.2324C109.249 69.2324 101.552 76.9295 101.552 86.4244C101.552 95.9192 109.249 103.616 118.744 103.616Z" fill="#20B28F"/>
<path d="M105.713 61.5094C105.335 61.5095 104.967 61.3973 104.653 61.1871C102.745 59.9091 102.29 59.6109 97.3034 59.3808C97.0096 59.3676 96.7227 59.2866 96.4654 59.1441C96.208 59.0017 95.987 58.8017 95.8197 58.5597C95.6524 58.3178 95.5433 58.0404 95.5009 57.7493C95.4585 57.4582 95.484 57.1613 95.5753 56.8816C97.5718 50.787 104.237 50.6904 104.642 50.6904H104.652C105.149 50.7049 105.621 50.9128 105.968 51.2701C106.314 51.6273 106.507 52.1055 106.506 52.6031C106.505 53.1006 106.31 53.5782 105.963 53.9341C105.615 54.29 105.142 54.4962 104.645 54.5088C104.51 54.5088 102.414 54.5486 100.794 55.8053C103.813 56.1375 104.876 56.7453 106.773 58.0134C107.114 58.2407 107.373 58.5717 107.511 58.9574C107.649 59.3431 107.659 59.763 107.54 60.155C107.422 60.5471 107.18 60.8904 106.85 61.1343C106.521 61.3782 106.122 61.5097 105.713 61.5094Z" fill="#684800"/>
<path d="M37.2005 61.5094C36.7909 61.5097 36.3919 61.3782 36.0628 61.1343C35.7336 60.8904 35.4917 60.5471 35.3727 60.155C35.2538 59.763 35.2642 59.3431 35.4023 58.9574C35.5404 58.5717 35.799 58.2407 36.1398 58.0134C38.0355 56.7453 39.0991 56.1375 42.1166 55.8053C40.4935 54.5443 38.3919 54.5102 38.2669 54.5088C37.7696 54.4952 37.2972 54.2881 36.9502 53.9316C36.6033 53.575 36.4091 53.0971 36.4091 52.5996C36.4091 52.1021 36.6033 51.6242 36.9502 51.2677C37.2972 50.9111 37.7696 50.704 38.2669 50.6904C38.5396 50.7458 45.3258 50.7316 47.3422 56.8802C47.4341 57.1598 47.46 57.4569 47.4179 57.7482C47.3759 58.0395 47.267 58.3171 47.0997 58.5593C46.9325 58.8015 46.7115 59.0017 46.454 59.1442C46.1965 59.2867 45.9095 59.3677 45.6154 59.3808C40.627 59.6109 40.1726 59.9133 38.2655 61.1871C37.9505 61.398 37.5797 61.5102 37.2005 61.5094Z" fill="#684800"/>
<path d="M26.2198 103.616C35.7146 103.616 43.4117 95.9192 43.4117 86.4244C43.4117 76.9295 35.7146 69.2324 26.2198 69.2324C16.7249 69.2324 9.02783 76.9295 9.02783 86.4244C9.02783 95.9192 16.7249 103.616 26.2198 103.616Z" fill="#20B28F"/>
<path d="M72.4254 85.4633C60.9433 85.4633 54.3829 79.87 47.2758 83.2879C40.1687 86.7058 47.5484 109.078 72.4254 109.078C97.3024 109.078 104.682 86.7058 97.5751 83.2879C90.468 79.87 83.9061 85.4633 72.4254 85.4633Z" fill="#8CEAB2"/>
<path d="M72.4253 111.158C55.2675 111.158 45.1471 101.034 43.0029 91.6276C41.9138 86.8507 43.206 82.9372 46.374 81.415C51.1225 79.1302 55.6636 80.2917 60.4703 81.5186C63.8925 82.3933 67.772 83.3845 72.4253 83.3845C77.0787 83.3845 80.9581 82.3905 84.3803 81.5186C89.187 80.2932 93.7282 79.1316 98.4766 81.415C101.645 82.9372 102.935 86.8521 101.848 91.629C99.7035 101.034 89.5803 111.158 72.4253 111.158ZM52.2613 84.2592C50.8477 84.241 49.4489 84.5501 48.1746 85.1623C46.8966 85.7786 46.4407 88.0023 47.0556 90.7003C48.548 97.2522 56.5369 106.996 72.4239 106.996C88.3109 106.996 96.2984 97.2522 97.7922 90.7017C98.4056 88.0037 97.9569 85.7758 96.6718 85.1637C93.2908 83.5379 89.9822 84.3813 85.407 85.55C81.7476 86.4844 77.597 87.538 72.4239 87.538C67.2508 87.538 63.1002 86.4787 59.4394 85.55C56.686 84.8443 54.3913 84.2592 52.2627 84.2592H52.2613Z" fill="#684800"/>
<path d="M90.3572 104.866C90.0147 104.867 89.6774 104.782 89.376 104.619C74.6932 96.7665 55.8554 104.619 55.6666 104.7C55.1595 104.917 54.587 104.923 54.0752 104.718C53.5634 104.513 53.1541 104.112 52.9373 103.605C52.7206 103.098 52.7142 102.526 52.9195 102.014C53.1248 101.502 53.5251 101.093 54.0322 100.876C54.8742 100.515 74.8678 92.143 91.3398 100.954C91.7487 101.173 92.0727 101.522 92.2604 101.946C92.4481 102.37 92.4887 102.844 92.3758 103.294C92.2628 103.743 92.0028 104.142 91.637 104.427C91.2713 104.712 90.8208 104.867 90.3572 104.866Z" fill="#684800"/>
<path d="M55.6196 103.743C55.6196 103.743 75.2256 95.7793 88.6133 104.512C84.7254 108.257 61.5794 111.264 55.6196 103.743Z" fill="#684800"/>
</svg>
