<svg width="142" height="142" viewBox="0 0 143 142" fill="none" xmlns="http://www.w3.org/2000/svg">
<path d="M72.2564 134.711C108.103 134.711 137.162 106.222 137.162 71.0789C137.162 35.9361 108.103 7.44727 72.2564 7.44727C36.4102 7.44727 7.35107 35.9361 7.35107 71.0789C7.35107 106.222 36.4102 134.711 72.2564 134.711Z" fill="#9FC6FF"/>
<path d="M72.2567 137.256C35.064 137.256 4.80664 107.568 4.80664 71.0841C4.80664 34.6001 35.064 4.91211 72.2567 4.91211C109.449 4.91211 139.707 34.6001 139.707 71.0841C139.707 107.568 109.449 137.256 72.2567 137.256ZM72.2567 9.99145C37.8713 9.99145 9.89734 37.3974 9.89734 71.0784C9.89734 104.759 37.8713 132.165 72.2567 132.165C106.642 132.165 134.616 104.759 134.616 71.0784C134.616 37.3974 106.642 9.99145 72.2567 9.99145Z" fill="#3477DE"/>
<path d="M72.1656 93.1741C59.9337 93.1741 54.258 86.8139 54.0208 86.5427C53.8558 86.354 53.7295 86.1346 53.6493 85.8971C53.569 85.6596 53.5363 85.4086 53.5531 85.1585C53.5698 84.9083 53.6357 84.6639 53.7469 84.4393C53.8581 84.2146 54.0124 84.014 54.2012 83.8489C54.5823 83.5156 55.0802 83.3474 55.5854 83.3812C55.8355 83.398 56.0799 83.4638 56.3046 83.575C56.5293 83.6862 56.7299 83.8406 56.8949 84.0293C57.1022 84.2622 61.7868 89.3557 72.1656 89.3557C82.5444 89.3557 87.2417 84.2437 87.4377 84.0279C87.7724 83.6515 88.2423 83.4228 88.745 83.3914C89.2476 83.3601 89.7423 83.5287 90.1212 83.8605C90.5 84.1924 90.7324 84.6605 90.7675 85.1629C90.8027 85.6654 90.6379 86.1613 90.3089 86.5427C90.0661 86.8139 84.3904 93.1741 72.1656 93.1741Z" fill="#684800"/>
<path d="M41.8531 61.589C44.1486 61.589 46.0095 59.7282 46.0095 57.4327C46.0095 55.1372 44.1486 53.2764 41.8531 53.2764C39.5576 53.2764 37.6968 55.1372 37.6968 57.4327C37.6968 59.7282 39.5576 61.589 41.8531 61.589Z" fill="#684800"/>
<path d="M76.5989 72.013H69.2334C68.9279 72.0128 68.6269 71.9393 68.3556 71.7987C68.0844 71.6581 67.8508 71.4545 67.6745 71.2049C67.4983 70.9553 67.3845 70.6671 67.3427 70.3645C67.3009 70.0618 67.3323 69.7535 67.4343 69.4655L70.4574 60.9455C70.6363 60.4809 70.9895 60.1044 71.4419 59.8964C71.8942 59.6884 72.4099 59.6652 72.8791 59.8318C73.3483 59.9985 73.7338 60.3417 73.9536 60.7885C74.1734 61.2352 74.21 61.7502 74.0557 62.2235L71.9371 68.1875H76.5989C77.1051 68.1875 77.5905 68.3886 77.9484 68.7465C78.3063 69.1044 78.5074 69.5898 78.5074 70.096C78.5074 70.6022 78.3063 71.0876 77.9484 71.4455C77.5905 71.8034 77.1051 72.0045 76.5989 72.0045V72.013Z" fill="#684800"/>
<path d="M33.1666 102.922C41.9596 102.922 49.0877 95.7941 49.0877 87.0011C49.0877 78.2082 41.9596 71.0801 33.1666 71.0801C24.3737 71.0801 17.2456 78.2082 17.2456 87.0011C17.2456 95.7941 24.3737 102.922 33.1666 102.922Z" fill="#3477DE"/>
<path d="M111.151 102.922C119.943 102.922 127.072 95.7941 127.072 87.0011C127.072 78.2082 119.943 71.0801 111.151 71.0801C102.358 71.0801 95.2295 78.2082 95.2295 87.0011C95.2295 95.7941 102.358 102.922 111.151 102.922Z" fill="#3477DE"/>
<path d="M107.717 59.7401C107.385 59.7404 107.059 59.6542 106.771 59.4901C106.483 59.326 106.243 59.0897 106.074 58.8043C105.686 58.246 105.169 57.7899 104.567 57.4748C103.965 57.1598 103.295 56.9953 102.615 56.9953C101.936 56.9953 101.266 57.1598 100.664 57.4748C100.062 57.7899 99.5447 58.246 99.1571 58.8043C98.8934 59.2328 98.4724 59.5409 97.9843 59.6628C97.4962 59.7846 96.9797 59.7104 96.5457 59.4561C96.1146 59.2019 95.8012 58.7878 95.6739 58.3038C95.5465 57.8199 95.6154 57.3052 95.8655 56.8717C95.9521 56.7197 98.0551 53.1797 102.616 53.1797C107.177 53.1797 109.28 56.7297 109.367 56.8717C109.493 57.0885 109.574 57.328 109.608 57.5764C109.641 57.8249 109.625 58.0774 109.56 58.3196C109.495 58.5618 109.383 58.7888 109.231 58.9878C109.078 59.1867 108.888 59.3535 108.671 59.4788C108.382 59.6497 108.053 59.7399 107.717 59.7401Z" fill="#684800"/>
</svg>
