<svg width="142" height="142" viewBox="0 0 142 142" fill="none" xmlns="http://www.w3.org/2000/svg">
<path d="M70.9034 134.711C106.75 134.711 135.809 106.222 135.809 71.0789C135.809 35.9361 106.75 7.44727 70.9034 7.44727C35.0572 7.44727 5.99805 35.9361 5.99805 71.0789C5.99805 106.222 35.0572 134.711 70.9034 134.711Z" fill="#F78484"/>
<path d="M70.9021 137.256C33.7095 137.256 3.45215 107.568 3.45215 71.0841C3.45215 34.6001 33.7095 4.91211 70.9021 4.91211C108.095 4.91211 138.352 34.6001 138.352 71.0841C138.352 107.568 108.095 137.256 70.9021 137.256ZM70.9021 9.99145C36.5183 9.99145 8.54285 37.3974 8.54285 71.0784C8.54285 104.759 36.5168 132.165 70.9021 132.165C105.287 132.165 133.261 104.759 133.261 71.0784C133.261 37.3974 105.287 9.99145 70.9021 9.99145Z" fill="#E84700"/>
<path d="M40.5001 61.589C42.7956 61.589 44.6564 59.7282 44.6564 57.4327C44.6564 55.1372 42.7956 53.2764 40.5001 53.2764C38.2046 53.2764 36.3438 55.1372 36.3438 57.4327C36.3438 59.7282 38.2046 61.589 40.5001 61.589Z" fill="#684800"/>
<path d="M101.74 61.589C104.036 61.589 105.897 59.7282 105.897 57.4327C105.897 55.1372 104.036 53.2764 101.74 53.2764C99.4448 53.2764 97.584 55.1372 97.584 57.4327C97.584 59.7282 99.4448 61.589 101.74 61.589Z" fill="#684800"/>
<path d="M75.2458 72.0132H67.8759C67.5703 72.0132 67.2691 71.9399 66.9977 71.7994C66.7262 71.6589 66.4925 71.4553 66.3161 71.2057C66.1397 70.9561 66.0257 70.6678 65.9838 70.365C65.942 70.0622 65.9733 69.7538 66.0754 69.4657L69.0971 60.9457C69.1811 60.7094 69.3107 60.4918 69.4787 60.3056C69.6467 60.1193 69.8497 59.968 70.0762 59.8602C70.3026 59.7524 70.5481 59.6903 70.7986 59.6773C71.0491 59.6644 71.2996 59.701 71.536 59.7849C71.7724 59.8688 71.9899 59.9984 72.1761 60.1664C72.3624 60.3344 72.5137 60.5374 72.6215 60.7639C72.7293 60.9903 72.7915 61.2358 72.8044 61.4863C72.8173 61.7368 72.7808 61.9874 72.6968 62.2237L70.5782 68.1877H75.2458C75.7519 68.1877 76.2373 68.3888 76.5952 68.7467C76.9532 69.1046 77.1542 69.59 77.1542 70.0962C77.1542 70.6024 76.9532 71.0878 76.5952 71.4457C76.2373 71.8036 75.7519 72.0047 75.2458 72.0047V72.0132Z" fill="#684800"/>
<path d="M32.6798 102.92C41.4728 102.92 48.6009 95.7921 48.6009 86.9992C48.6009 78.2062 41.4728 71.0781 32.6798 71.0781C23.8869 71.0781 16.7588 78.2062 16.7588 86.9992C16.7588 95.7921 23.8869 102.92 32.6798 102.92Z" fill="#E84700"/>
<path d="M109.798 102.92C118.59 102.92 125.719 95.7921 125.719 86.9992C125.719 78.2062 118.59 71.0781 109.798 71.0781C101.005 71.0781 93.8765 78.2062 93.8765 86.9992C93.8765 95.7921 101.005 102.92 109.798 102.92Z" fill="#E84700"/>
<path d="M84.3325 90.4078H58.1448C57.6386 90.4078 57.1532 90.2067 56.7953 89.8488C56.4374 89.4909 56.2363 89.0055 56.2363 88.4993C56.2363 87.9931 56.4374 87.5077 56.7953 87.1498C57.1532 86.7919 57.6386 86.5908 58.1448 86.5908H84.3325C84.8386 86.5908 85.324 86.7919 85.6819 87.1498C86.0399 87.5077 86.2409 87.9931 86.2409 88.4993C86.2409 89.0055 86.0399 89.4909 85.6819 89.8488C85.324 90.2067 84.8386 90.4078 84.3325 90.4078Z" fill="#684800"/>
</svg>
