<svg width="142" height="142" viewBox="0 0 144 142" fill="none" xmlns="http://www.w3.org/2000/svg">
<path d="M72.3232 134.711C108.392 134.711 137.632 106.222 137.632 71.0789C137.632 35.9361 108.392 7.44727 72.3232 7.44727C36.2543 7.44727 7.01465 35.9361 7.01465 71.0789C7.01465 106.222 36.2543 134.711 72.3232 134.711Z" fill="#D49EFF"/>
<path d="M72.323 137.256C34.8994 137.256 4.4541 107.568 4.4541 71.0841C4.4541 34.6001 34.8994 4.91211 72.323 4.91211C109.747 4.91211 140.192 34.6001 140.192 71.0841C140.192 107.568 109.747 137.256 72.323 137.256ZM72.323 9.99145C37.7242 9.99145 9.57642 37.3974 9.57642 71.0784C9.57642 104.759 37.7242 132.165 72.323 132.165C106.922 132.165 135.07 104.759 135.07 71.0784C135.07 37.3974 106.922 9.99145 72.323 9.99145Z" fill="#6C31DD"/>
<path d="M41.7305 61.5871C44.0402 61.5871 45.9127 59.7262 45.9127 57.4307C45.9127 55.1353 44.0402 53.2744 41.7305 53.2744C39.4208 53.2744 37.5483 55.1353 37.5483 57.4307C37.5483 59.7262 39.4208 61.5871 41.7305 61.5871Z" fill="#684800"/>
<path d="M76.694 72.011H69.2813C68.9734 72.0118 68.6698 71.9389 68.3961 71.7987C68.1224 71.6585 67.8866 71.4549 67.7086 71.2052C67.5306 70.9555 67.4156 70.667 67.3733 70.3639C67.3309 70.0608 67.3624 69.752 67.4652 69.4636L70.5072 60.9436C70.6872 60.4789 71.0426 60.1025 71.4977 59.8944C71.9529 59.6864 72.4718 59.6632 72.9439 59.8299C73.416 59.9965 73.8039 60.3398 74.0251 60.7865C74.2462 61.2333 74.2831 61.7482 74.1278 62.2216L71.996 68.1856H76.6883C77.1976 68.1856 77.686 68.3866 78.0462 68.7445C78.4063 69.1025 78.6086 69.5879 78.6086 70.094C78.6086 70.6002 78.4063 71.0856 78.0462 71.4435C77.686 71.8014 77.1976 72.0025 76.6883 72.0025L76.694 72.011Z" fill="#684800"/>
<path d="M25.7108 98.6673C34.5584 98.6673 41.7308 91.5392 41.7308 82.7462C41.7308 73.9533 34.5584 66.8252 25.7108 66.8252C16.8633 66.8252 9.69092 73.9533 9.69092 82.7462C9.69092 91.5392 16.8633 98.6673 25.7108 98.6673Z" fill="#6C31DD"/>
<path d="M117.78 98.6673C126.627 98.6673 133.8 91.5392 133.8 82.7462C133.8 73.9533 126.627 66.8252 117.78 66.8252C108.932 66.8252 101.76 73.9533 101.76 82.7462C101.76 91.5392 108.932 98.6673 117.78 98.6673Z" fill="#6C31DD"/>
<path d="M71.7515 100.278C52.4468 100.278 43.6324 88.4916 43.268 87.9818C42.9685 87.5723 42.8449 87.0612 42.9245 86.5611C43.0041 86.061 43.2803 85.6128 43.6924 85.3151C44.1045 85.0174 44.6187 84.8945 45.1219 84.9736C45.6252 85.0527 46.0761 85.3273 46.3757 85.7368C46.6986 86.1756 54.49 96.4606 71.7515 96.4606C89.0131 96.4606 96.803 86.1756 97.1274 85.7368C97.4269 85.3273 97.8779 85.0527 98.3812 84.9736C98.8844 84.8945 99.3986 85.0174 99.8107 85.3151C100.223 85.6128 100.499 86.061 100.579 86.5611C100.658 87.0612 100.535 87.5723 100.235 87.9818C99.8636 88.4845 91.0492 100.278 71.7515 100.278Z" fill="#684800"/>
<path d="M106.482 61.5094C106.102 61.5095 105.731 61.3973 105.416 61.1871C103.497 59.9091 103.04 59.6109 98.0203 59.3808C97.7244 59.3676 97.4357 59.2866 97.1765 59.1441C96.9174 59.0016 96.695 58.8014 96.5266 58.5593C96.3582 58.3172 96.2485 58.0396 96.2059 57.7483C96.1634 57.457 96.1892 57.1599 96.2814 56.8802C98.2932 50.787 104.997 50.6904 105.406 50.6904H105.416C105.916 50.7049 106.391 50.9128 106.74 51.2701C107.088 51.6273 107.283 52.1055 107.282 52.6031C107.281 53.1006 107.085 53.5782 106.735 53.9341C106.385 54.29 105.909 54.4962 105.409 54.5088C105.273 54.5088 103.164 54.5471 101.534 55.8053C104.573 56.1375 105.642 56.7453 107.549 58.0134C107.892 58.2407 108.152 58.5717 108.291 58.9574C108.43 59.3431 108.441 59.763 108.321 60.155C108.201 60.5471 107.958 60.8904 107.627 61.1343C107.295 61.3782 106.894 61.5097 106.482 61.5094Z" fill="#684800"/>
</svg>
