<svg width="26" height="36" viewBox="0 0 26 36" fill="none" xmlns="http://www.w3.org/2000/svg">
<path d="M14.1087 6.22375V23.875H11.8913V6.22375V5.01664L11.0377 5.8702L8.8075 8.10039L7.20711 6.5L13 0.707107L18.7929 6.5L17.1925 8.10039L14.9623 5.8702L14.1087 5.01664V6.22375ZM22.75 14.125H18.375V11.875H22.75C24.263 11.875 25.5 13.099 25.5 14.625V32.5C25.5 34.0114 24.2614 35.25 22.75 35.25H3.25C1.72402 35.25 0.5 34.013 0.5 32.5V14.625C0.5 13.0974 1.72239 11.875 3.25 11.875H7.625V14.125H3.25H2.75V14.625V32.5V33H3.25H22.75H23.25V32.5V14.625V14.125H22.75Z" fill="black" stroke="black"/>
</svg>
