<svg xmlns="http://www.w3.org/2000/svg" viewBox="0 0 66.1266 67.1134">
  <defs>
    <style>
      .cls-1 {
        fill: #fcde77;
      }
    </style>
  </defs>
  <g id="Layer_2" data-name="Layer 2">
    <g id="Layer_1-2" data-name="Layer 1">
      <path class="cls-1" d="M35.7789,1.9294A7.5737,7.5737,0,0,1,48.3505,6.8478l.9508,10.4142a7.52,7.52,0,0,0,3.7981,5.8467l9.1983,5.2091A7.3975,7.3975,0,0,1,61.5688,41.63l-9.7034,4.02a7.3612,7.3612,0,0,0-4.41,5.3307L45.3749,61.2045a7.5059,7.5059,0,0,1-13.022,3.3091l-6.9476-7.9295a7.62,7.62,0,0,0-6.5238-2.5523l-10.484,1.11A7.5059,7.5059,0,0,1,1.0783,43.8742l5.41-8.9211A7.3612,7.3612,0,0,0,6.866,28.045L2.467,18.5073A7.3975,7.3975,0,0,1,10.9654,8.2348l10.291,2.4158a7.52,7.52,0,0,0,6.7574-1.717Z"/>
    </g>
  </g>
</svg>
