<svg width="2112" height="1544" viewBox="0 0 2112 1544" fill="none" xmlns="http://www.w3.org/2000/svg">
<g clip-path="url(#clip0_5477_75079)">
<path d="M81.6815 44.7281C81.6815 44.7281 81.0008 62.7801 97.5655 68.1393C84.1776 74.0626 81.6815 92.3967 81.6815 92.3967C81.6815 92.3967 79.1855 74.6267 67.8398 68.5624C79.4124 62.216 80.0931 56.0106 81.6815 44.7281Z" fill="#FFEC71"/>
<path d="M171.131 422.728C171.131 422.728 171.812 440.78 155.247 446.14C168.635 452.063 171.131 470.397 171.131 470.397C171.131 470.397 173.627 452.627 184.973 446.563C173.4 440.216 172.72 434.011 171.131 422.728Z" fill="#FFEC71"/>
<path d="M1922.25 65.0734C1922.25 65.0734 1922.71 77.3153 1911.48 80.9496C1920.55 84.9665 1922.25 97.3996 1922.25 97.3996C1922.25 97.3996 1923.94 85.349 1931.63 81.2364C1923.79 76.9327 1923.32 72.7246 1922.25 65.0734Z" fill="#FFEC71"/>
<path d="M81.6815 44.7281C81.6815 44.7281 81.0008 62.7801 97.5655 68.1393C84.1776 74.0626 81.6815 92.3967 81.6815 92.3967C81.6815 92.3967 79.1855 74.6267 67.8398 68.5624C79.4124 62.216 80.0931 56.0106 81.6815 44.7281Z" fill="#FFDF67"/>
<path d="M80.0927 92.6188C80.0676 92.4497 77.5872 75.5909 67.086 69.9788C66.831 69.8426 66.6174 69.6401 66.468 69.3925C66.3186 69.145 66.2389 68.8617 66.2373 68.5725C66.2357 68.2834 66.3123 67.9992 66.459 67.75C66.6056 67.5009 66.8169 67.2959 67.0704 67.157C77.7344 61.307 78.4923 55.8917 80.0081 45.0993L80.0927 44.5073C80.1439 44.0976 80.3535 43.7243 80.6767 43.4673C80.9998 43.2103 81.4108 43.0901 81.8214 43.1325C82.2304 43.169 82.6098 43.3607 82.8818 43.6682C83.1538 43.9757 83.2978 44.3757 83.284 44.7861C83.259 45.4751 82.8769 61.7044 98.0602 66.6152C98.3689 66.7155 98.6398 66.9071 98.8373 67.1647C99.0347 67.4223 99.1493 67.7337 99.1659 68.0579C99.1825 68.382 99.1004 68.7035 98.9304 68.9799C98.7603 69.2564 98.5104 69.4747 98.2136 69.6061C85.8208 75.09 83.2934 92.44 83.2684 92.6126C83.2159 92.996 83.0266 93.3476 82.7354 93.6026C82.4442 93.8575 82.0707 93.9986 81.6836 94H81.6805C81.2938 94.0001 80.92 93.8603 80.6282 93.6065C80.3364 93.3526 80.1462 93.0018 80.0927 92.6188ZM81.6899 54.2316C80.2837 59.9378 77.725 64.3538 70.9226 68.6162C76.848 72.9539 80.0582 80.2292 81.7087 85.5534C83.4787 80.1572 87.0141 72.7503 93.7977 68.3594C90.9228 66.9547 88.3655 64.9768 86.2833 62.5472C84.2011 60.1176 82.6379 57.2877 81.6899 54.2316Z" fill="#050505"/>
<path d="M1860.38 581.439C1860.38 581.439 1859.89 594.468 1871.84 598.336C1862.18 602.611 1860.38 615.843 1860.38 615.843C1860.38 615.843 1858.58 603.018 1850.39 598.641C1858.74 594.061 1859.23 589.582 1860.38 581.439Z" fill="#FFEC71"/>
<path d="M1860.38 581.439C1860.38 581.439 1859.89 594.468 1871.84 598.336C1862.18 602.611 1860.38 615.843 1860.38 615.843C1860.38 615.843 1858.58 603.018 1850.39 598.641C1858.74 594.061 1859.23 589.582 1860.38 581.439Z" fill="#FFDF67"/>
<path d="M1859.23 616.003C1859.22 615.881 1857.42 603.714 1849.85 599.663C1849.66 599.565 1849.51 599.419 1849.4 599.24C1849.29 599.061 1849.23 598.857 1849.23 598.648C1849.23 598.44 1849.29 598.234 1849.39 598.055C1849.5 597.875 1849.65 597.727 1849.83 597.627C1857.53 593.404 1858.08 589.497 1859.17 581.707L1859.23 581.279C1859.27 580.984 1859.42 580.714 1859.65 580.529C1859.89 580.343 1860.18 580.257 1860.48 580.287C1860.78 580.313 1861.05 580.452 1861.25 580.674C1861.44 580.896 1861.55 581.184 1861.54 581.481C1861.52 581.978 1861.24 593.691 1872.2 597.235C1872.42 597.308 1872.62 597.446 1872.76 597.632C1872.9 597.818 1872.99 598.042 1873 598.276C1873.01 598.51 1872.95 598.742 1872.83 598.942C1872.71 599.141 1872.53 599.299 1872.31 599.394C1863.37 603.352 1861.54 615.874 1861.53 615.998C1861.49 616.275 1861.35 616.529 1861.14 616.713C1860.93 616.897 1860.66 616.999 1860.38 617H1860.38C1860.1 617 1859.83 616.899 1859.62 616.716C1859.41 616.533 1859.27 616.28 1859.23 616.003ZM1860.39 588.298C1859.37 592.417 1857.52 595.604 1852.62 598.68C1856.89 601.81 1859.21 607.061 1860.4 610.904C1861.68 607.009 1864.23 601.664 1869.12 598.495C1867.05 597.481 1865.2 596.053 1863.7 594.3C1862.2 592.546 1861.07 590.504 1860.39 588.298Z" fill="#050505"/>
<path d="M2081.68 380.728C2081.68 380.728 2081 398.78 2097.57 404.139C2084.18 410.063 2081.68 428.397 2081.68 428.397C2081.68 428.397 2079.19 410.627 2067.84 404.562C2079.41 398.216 2080.09 392.011 2081.68 380.728Z" fill="#FFDF67"/>
<path d="M2080.09 428.619C2080.07 428.45 2077.59 411.591 2067.09 405.979C2066.83 405.843 2066.62 405.64 2066.47 405.393C2066.32 405.145 2066.24 404.862 2066.24 404.573C2066.24 404.283 2066.31 403.999 2066.46 403.75C2066.61 403.501 2066.82 403.296 2067.07 403.157C2077.73 397.307 2078.49 391.892 2080.01 381.099L2080.09 380.507C2080.14 380.098 2080.35 379.724 2080.68 379.467C2081 379.21 2081.41 379.09 2081.82 379.132C2082.23 379.169 2082.61 379.361 2082.88 379.668C2083.15 379.976 2083.3 380.376 2083.28 380.786C2083.26 381.475 2082.88 397.704 2098.06 402.615C2098.37 402.715 2098.64 402.907 2098.84 403.165C2099.03 403.422 2099.15 403.734 2099.17 404.058C2099.18 404.382 2099.1 404.704 2098.93 404.98C2098.76 405.256 2098.51 405.475 2098.21 405.606C2085.82 411.09 2083.29 428.44 2083.27 428.613C2083.22 428.996 2083.03 429.348 2082.74 429.603C2082.44 429.858 2082.07 429.999 2081.68 430H2081.68C2081.29 430 2080.92 429.86 2080.63 429.606C2080.34 429.353 2080.15 429.002 2080.09 428.619ZM2081.69 390.232C2080.28 395.938 2077.73 400.354 2070.92 404.616C2076.85 408.954 2080.06 416.229 2081.71 421.553C2083.48 416.157 2087.01 408.75 2093.8 404.359C2090.92 402.955 2088.37 400.977 2086.28 398.547C2084.2 396.118 2082.64 393.288 2081.69 390.232Z" fill="#050505"/>
<path d="M1857.68 1365.73C1857.68 1365.73 1857 1383.78 1873.57 1389.14C1860.18 1395.06 1857.68 1413.4 1857.68 1413.4C1857.68 1413.4 1855.19 1395.63 1843.84 1389.56C1855.41 1383.22 1856.09 1377.01 1857.68 1365.73Z" fill="#FFEC71"/>
<path d="M1857.68 1365.73C1857.68 1365.73 1857 1383.78 1873.57 1389.14C1860.18 1395.06 1857.68 1413.4 1857.68 1413.4C1857.68 1413.4 1855.19 1395.63 1843.84 1389.56C1855.41 1383.22 1856.09 1377.01 1857.68 1365.73Z" fill="#FFDF67"/>
<path d="M1856.09 1413.62C1856.07 1413.45 1853.59 1396.59 1843.09 1390.98C1842.83 1390.84 1842.62 1390.64 1842.47 1390.39C1842.32 1390.15 1842.24 1389.86 1842.24 1389.57C1842.24 1389.28 1842.31 1389 1842.46 1388.75C1842.61 1388.5 1842.82 1388.3 1843.07 1388.16C1853.73 1382.31 1854.49 1376.89 1856.01 1366.1L1856.09 1365.51C1856.14 1365.1 1856.35 1364.72 1856.68 1364.47C1857 1364.21 1857.41 1364.09 1857.82 1364.13C1858.23 1364.17 1858.61 1364.36 1858.88 1364.67C1859.15 1364.98 1859.3 1365.38 1859.28 1365.79C1859.26 1366.48 1858.88 1382.7 1874.06 1387.62C1874.37 1387.72 1874.64 1387.91 1874.84 1388.16C1875.03 1388.42 1875.15 1388.73 1875.17 1389.06C1875.18 1389.38 1875.1 1389.7 1874.93 1389.98C1874.76 1390.26 1874.51 1390.47 1874.21 1390.61C1861.82 1396.09 1859.29 1413.44 1859.27 1413.61C1859.22 1414 1859.03 1414.35 1858.74 1414.6C1858.44 1414.86 1858.07 1415 1857.68 1415H1857.68C1857.29 1415 1856.92 1414.86 1856.63 1414.61C1856.34 1414.35 1856.15 1414 1856.09 1413.62ZM1857.69 1375.23C1856.28 1380.94 1853.73 1385.35 1846.92 1389.62C1852.85 1393.95 1856.06 1401.23 1857.71 1406.55C1859.48 1401.16 1863.01 1393.75 1869.8 1389.36C1866.92 1387.95 1864.37 1385.98 1862.28 1383.55C1860.2 1381.12 1858.64 1378.29 1857.69 1375.23Z" fill="#050505"/>
<path d="M177.682 1262.73C177.682 1262.73 177.001 1280.78 193.566 1286.14C180.178 1292.06 177.682 1310.4 177.682 1310.4C177.682 1310.4 175.186 1292.63 163.84 1286.56C175.412 1280.22 176.093 1274.01 177.682 1262.73Z" fill="#FFDF67"/>
<path d="M176.093 1310.62C176.068 1310.45 173.587 1293.59 163.086 1287.98C162.831 1287.84 162.617 1287.64 162.468 1287.39C162.319 1287.15 162.239 1286.86 162.237 1286.57C162.236 1286.28 162.312 1286 162.459 1285.75C162.606 1285.5 162.817 1285.3 163.07 1285.16C173.734 1279.31 174.492 1273.89 176.008 1263.1L176.093 1262.51C176.144 1262.1 176.354 1261.72 176.677 1261.47C177 1261.21 177.411 1261.09 177.821 1261.13C178.23 1261.17 178.61 1261.36 178.882 1261.67C179.154 1261.98 179.298 1262.38 179.284 1262.79C179.259 1263.48 178.877 1279.7 194.06 1284.62C194.369 1284.72 194.64 1284.91 194.837 1285.16C195.035 1285.42 195.149 1285.73 195.166 1286.06C195.183 1286.38 195.1 1286.7 194.93 1286.98C194.76 1287.26 194.51 1287.47 194.214 1287.61C181.821 1293.09 179.294 1310.44 179.268 1310.61C179.216 1311 179.027 1311.35 178.735 1311.6C178.444 1311.86 178.071 1312 177.684 1312H177.681C177.294 1312 176.92 1311.86 176.628 1311.61C176.336 1311.35 176.146 1311 176.093 1310.62ZM177.69 1272.23C176.284 1277.94 173.725 1282.35 166.923 1286.62C172.848 1290.95 176.058 1298.23 177.709 1303.55C179.478 1298.16 183.014 1290.75 189.798 1286.36C186.923 1284.95 184.366 1282.98 182.283 1280.55C180.201 1278.12 178.638 1275.29 177.69 1272.23Z" fill="#050505"/>
<path d="M171.131 422.728C171.131 422.728 171.812 440.78 155.247 446.14C168.635 452.063 171.131 470.397 171.131 470.397C171.131 470.397 173.627 452.627 184.973 446.563C173.4 440.216 172.72 434.011 171.131 422.728Z" fill="#FFDA4E"/>
<path d="M171.13 472H171.127C170.74 471.998 170.367 471.857 170.076 471.602C169.784 471.347 169.595 470.996 169.542 470.613C169.517 470.44 166.989 453.09 154.6 447.606C154.303 447.475 154.053 447.256 153.883 446.98C153.713 446.703 153.631 446.382 153.648 446.058C153.664 445.734 153.779 445.422 153.976 445.164C154.174 444.907 154.445 444.715 154.753 444.615C169.937 439.704 169.551 423.475 169.526 422.789C169.512 422.378 169.656 421.978 169.928 421.669C170.2 421.361 170.579 421.169 170.989 421.132C171.399 421.092 171.808 421.213 172.131 421.469C172.453 421.725 172.664 422.096 172.718 422.504L172.802 423.105C174.321 433.895 175.082 439.313 185.743 445.157C185.997 445.296 186.208 445.501 186.355 445.75C186.501 445.999 186.578 446.283 186.576 446.572C186.575 446.861 186.495 447.145 186.345 447.392C186.196 447.64 185.983 447.842 185.727 447.979C175.245 453.579 172.743 470.45 172.717 470.622C172.663 471.004 172.472 471.354 172.181 471.607C171.889 471.86 171.516 472 171.13 472ZM159.016 446.359C165.796 450.75 169.332 458.157 171.102 463.553C172.752 458.229 175.962 450.953 181.888 446.616C175.089 442.354 172.53 437.938 171.124 432.232C170.175 435.287 168.612 438.117 166.53 440.547C164.447 442.976 161.891 444.954 159.016 446.359Z" fill="#050505"/>
<path d="M1922.25 99H1922.24C1921.86 98.9994 1921.48 98.8593 1921.19 98.6055C1920.9 98.3518 1920.71 98.0013 1920.66 97.6188C1920.64 97.503 1918.96 86.0153 1910.83 82.4168C1910.53 82.2853 1910.28 82.067 1910.11 81.7905C1909.94 81.5141 1909.86 81.1926 1909.88 80.8685C1909.89 80.5444 1910.01 80.233 1910.2 79.9754C1910.4 79.7178 1910.67 79.5261 1910.98 79.4258C1920.89 76.2158 1920.66 65.5799 1920.64 65.1289C1920.63 64.7184 1920.77 64.3185 1921.05 64.0114C1921.32 63.7043 1921.7 63.5136 1922.11 63.4784C1922.52 63.4381 1922.93 63.5588 1923.25 63.8148C1923.57 64.0708 1923.78 64.4421 1923.83 64.8501L1923.89 65.2448C1924.93 72.6203 1925.4 75.9871 1932.4 79.8299C1932.66 79.9688 1932.87 80.1738 1933.02 80.4229C1933.16 80.6721 1933.24 80.9563 1933.24 81.2454C1933.23 81.5346 1933.16 81.8179 1933.01 82.0654C1932.86 82.313 1932.64 82.5155 1932.39 82.6517C1925.52 86.3217 1923.85 97.5124 1923.83 97.6251C1923.78 98.007 1923.59 98.3564 1923.3 98.609C1923.01 98.8615 1922.63 99.0004 1922.25 99ZM1915.03 81.164C1918.34 83.7506 1920.83 87.2283 1922.21 91.186C1923.39 87.8975 1925.39 83.967 1928.65 81.3081C1925.58 79.4468 1923.28 76.5448 1922.17 73.1308C1920.78 76.5465 1918.26 79.3819 1915.03 81.164Z" fill="#050505"/>
<path d="M1993.25 995.073C1993.25 995.073 1993.71 1007.32 1982.48 1010.95C1991.55 1014.97 1993.25 1027.4 1993.25 1027.4C1993.25 1027.4 1994.94 1015.35 2002.63 1011.24C1994.79 1006.93 1994.32 1002.72 1993.25 995.073Z" fill="#FFEC71"/>
<path d="M1993.25 1029H1993.24C1992.86 1029 1992.48 1028.86 1992.19 1028.61C1991.9 1028.35 1991.71 1028 1991.66 1027.62C1991.64 1027.5 1989.96 1016.02 1981.83 1012.42C1981.53 1012.29 1981.28 1012.07 1981.11 1011.79C1980.94 1011.51 1980.86 1011.19 1980.88 1010.87C1980.89 1010.54 1981.01 1010.23 1981.2 1009.98C1981.4 1009.72 1981.67 1009.53 1981.98 1009.43C1991.89 1006.22 1991.66 995.58 1991.64 995.129C1991.63 994.718 1991.77 994.318 1992.05 994.011C1992.32 993.704 1992.7 993.514 1993.11 993.478C1993.52 993.438 1993.93 993.559 1994.25 993.815C1994.57 994.071 1994.78 994.442 1994.83 994.85L1994.89 995.245C1995.93 1002.62 1996.4 1005.99 2003.4 1009.83C2003.66 1009.97 2003.87 1010.17 2004.02 1010.42C2004.16 1010.67 2004.24 1010.96 2004.24 1011.25C2004.23 1011.53 2004.16 1011.82 2004.01 1012.07C2003.86 1012.31 2003.64 1012.52 2003.39 1012.65C1996.52 1016.32 1994.85 1027.51 1994.83 1027.63C1994.78 1028.01 1994.59 1028.36 1994.3 1028.61C1994.01 1028.86 1993.63 1029 1993.25 1029ZM1986.03 1011.16C1989.34 1013.75 1991.83 1017.23 1993.21 1021.19C1994.39 1017.9 1996.39 1013.97 1999.65 1011.31C1996.58 1009.45 1994.28 1006.54 1993.17 1003.13C1991.78 1006.55 1989.26 1009.38 1986.03 1011.16Z" fill="#050505"/>
<path d="M81.2473 1003.07C81.2473 1003.07 81.7089 1015.32 70.4756 1018.95C79.5546 1022.97 81.2473 1035.4 81.2473 1035.4C81.2473 1035.4 82.94 1023.35 90.634 1019.24C82.7861 1014.93 82.3244 1010.72 81.2473 1003.07Z" fill="#FFEC71"/>
<path d="M81.2469 1037H81.2438C80.8575 1037 80.4844 1036.86 80.1933 1036.61C79.9021 1036.35 79.7124 1036 79.6591 1035.62C79.6434 1035.5 77.9616 1024.02 69.8282 1020.42C69.5314 1020.29 69.2816 1020.07 69.1116 1019.79C68.9416 1019.51 68.8595 1019.19 68.8761 1018.87C68.8928 1018.54 69.0073 1018.23 69.2047 1017.98C69.4021 1017.72 69.673 1017.53 69.9816 1017.43C79.894 1014.22 79.6591 1003.58 79.6434 1003.13C79.6299 1002.72 79.7745 1002.32 80.0471 1002.01C80.3198 1001.7 80.6999 1001.51 81.1091 1001.48C81.5185 1001.44 81.9276 1001.56 82.2497 1001.81C82.5718 1002.07 82.7816 1002.44 82.8348 1002.85L82.8912 1003.24C83.9278 1010.62 84.4012 1013.99 91.4036 1017.83C91.6571 1017.97 91.8684 1018.17 92.015 1018.42C92.1617 1018.67 92.2382 1018.96 92.2366 1019.25C92.235 1019.53 92.1553 1019.82 92.0059 1020.07C91.8565 1020.31 91.6429 1020.52 91.3879 1020.65C84.5197 1024.32 82.8505 1035.51 82.8348 1035.63C82.78 1036.01 82.5892 1036.36 82.2975 1036.61C82.0058 1036.86 81.6327 1037 81.2469 1037ZM74.0343 1019.16C77.335 1021.75 79.8259 1025.23 81.2125 1029.19C82.3932 1025.9 84.3882 1021.97 87.6516 1019.31C84.5822 1017.45 82.2837 1014.54 81.1749 1011.13C79.7837 1014.55 77.2633 1017.38 74.0343 1019.16Z" fill="#050505"/>
<path d="M246.247 1460.07C246.247 1460.07 246.709 1472.32 235.476 1475.95C244.555 1479.97 246.247 1492.4 246.247 1492.4C246.247 1492.4 247.94 1480.35 255.634 1476.24C247.786 1471.93 247.324 1467.72 246.247 1460.07Z" fill="#FFEC71"/>
<path d="M246.247 1494H246.244C245.857 1494 245.484 1493.86 245.193 1493.61C244.902 1493.35 244.712 1493 244.659 1492.62C244.643 1492.5 242.962 1481.02 234.828 1477.42C234.531 1477.29 234.282 1477.07 234.112 1476.79C233.942 1476.51 233.86 1476.19 233.876 1475.87C233.893 1475.54 234.007 1475.23 234.205 1474.98C234.402 1474.72 234.673 1474.53 234.982 1474.43C244.894 1471.22 244.659 1460.58 244.643 1460.13C244.63 1459.72 244.775 1459.32 245.047 1459.01C245.32 1458.7 245.7 1458.51 246.109 1458.48C246.519 1458.44 246.928 1458.56 247.25 1458.82C247.572 1459.07 247.782 1459.44 247.835 1459.85L247.891 1460.25C248.928 1467.62 249.401 1470.99 256.404 1474.83C256.657 1474.97 256.868 1475.17 257.015 1475.42C257.162 1475.67 257.238 1475.96 257.237 1476.25C257.235 1476.54 257.155 1476.82 257.006 1477.07C256.856 1477.31 256.643 1477.52 256.388 1477.65C249.52 1481.32 247.85 1492.51 247.835 1492.63C247.78 1493.01 247.589 1493.36 247.297 1493.61C247.006 1493.86 246.633 1494 246.247 1494ZM239.034 1476.16C242.335 1478.75 244.826 1482.23 246.212 1486.19C247.393 1482.9 249.388 1478.97 252.652 1476.31C249.582 1474.45 247.284 1471.54 246.175 1468.13C244.784 1471.55 242.263 1474.38 239.034 1476.16Z" fill="#050505"/>
<path d="M208.247 232.073C208.247 232.073 208.709 244.315 197.476 247.95C206.555 251.966 208.247 264.4 208.247 264.4C208.247 264.4 209.94 252.349 217.634 248.236C209.786 243.933 209.324 239.725 208.247 232.073Z" fill="#FFEC71"/>
<path d="M208.247 266H208.244C207.857 265.999 207.484 265.859 207.193 265.606C206.902 265.352 206.712 265.001 206.659 264.619C206.643 264.503 204.962 253.015 196.828 249.417C196.531 249.285 196.282 249.067 196.112 248.791C195.942 248.514 195.86 248.193 195.876 247.869C195.893 247.544 196.007 247.233 196.205 246.975C196.402 246.718 196.673 246.526 196.982 246.426C206.894 243.216 206.659 232.58 206.643 232.129C206.63 231.719 206.775 231.319 207.047 231.012C207.32 230.705 207.7 230.514 208.109 230.479C208.519 230.439 208.928 230.559 209.25 230.815C209.572 231.071 209.782 231.443 209.835 231.851L209.891 232.245C210.928 239.621 211.401 242.988 218.404 246.83C218.657 246.969 218.868 247.174 219.015 247.423C219.162 247.673 219.238 247.957 219.237 248.246C219.235 248.535 219.155 248.818 219.006 249.066C218.856 249.314 218.643 249.516 218.388 249.652C211.52 253.323 209.85 264.513 209.835 264.626C209.78 265.007 209.589 265.357 209.297 265.609C209.006 265.862 208.633 266 208.247 266ZM201.034 248.164C204.335 250.751 206.826 254.228 208.212 258.186C209.393 254.898 211.388 250.967 214.652 248.308C211.582 246.447 209.284 243.545 208.175 240.131C206.784 243.547 204.263 246.382 201.034 248.164Z" fill="#050505"/>
<path d="M2052.36 102.6C2053.2 101.732 2054.26 101.112 2055.43 100.809C2056.59 100.505 2057.82 100.53 2058.98 100.881C2060.13 101.232 2061.17 101.894 2061.97 102.796C2062.77 103.698 2063.31 104.803 2063.53 105.991L2065.06 114.883C2065.24 115.916 2065.67 116.89 2066.31 117.721C2066.95 118.553 2067.78 119.217 2068.73 119.658L2077.01 123.523C2078.11 124.016 2079.04 124.809 2079.71 125.81C2080.37 126.812 2080.74 127.981 2080.77 129.183C2080.8 130.385 2080.49 131.571 2079.87 132.604C2079.26 133.637 2078.36 134.474 2077.29 135.02L2069.2 139.124C2068.27 139.592 2067.47 140.283 2066.87 141.133C2066.27 141.984 2065.89 142.969 2065.77 144.002L2064.67 152.932C2064.5 154.126 2064.01 155.25 2063.24 156.179C2062.47 157.108 2061.46 157.804 2060.32 158.189C2059.18 158.575 2057.95 158.635 2056.78 158.362C2055.6 158.09 2054.53 157.495 2053.67 156.646L2047.14 150.291C2046.39 149.557 2045.47 149.014 2044.46 148.707C2043.45 148.401 2042.38 148.341 2041.35 148.531L2032.39 150.184C2031.21 150.415 2029.98 150.311 2028.85 149.885C2027.73 149.459 2026.74 148.727 2026 147.772C2025.27 146.817 2024.82 145.675 2024.69 144.476C2024.57 143.277 2024.79 142.068 2025.31 140.984L2029.37 132.951C2029.83 132.022 2030.06 130.991 2030.04 129.95C2030.01 128.91 2029.73 127.892 2029.22 126.986L2024.78 119.077C2024.19 118.028 2023.91 116.834 2023.97 115.633C2024.04 114.433 2024.44 113.274 2025.13 112.291C2025.82 111.308 2026.78 110.541 2027.89 110.078C2029 109.616 2030.22 109.477 2031.4 109.677L2040.44 111.068C2041.47 111.231 2042.53 111.141 2043.53 110.805C2044.52 110.47 2045.42 109.899 2046.14 109.141L2052.36 102.6Z" fill="#FFD231"/>
<path d="M2028.89 151.234C2027.3 150.747 2025.9 149.763 2024.9 148.424C2024.04 147.29 2023.52 145.938 2023.39 144.521C2023.26 143.104 2023.53 141.679 2024.18 140.41L2028.23 132.378C2028.6 131.634 2028.79 130.81 2028.77 129.979C2028.75 129.147 2028.52 128.333 2028.11 127.609L2023.67 119.701C2022.96 118.46 2022.62 117.044 2022.68 115.616C2022.75 114.189 2023.22 112.809 2024.03 111.637C2024.86 110.44 2026.01 109.503 2027.35 108.934C2028.69 108.364 2030.16 108.185 2031.6 108.418L2040.63 109.809C2041.46 109.941 2042.32 109.869 2043.12 109.6C2043.91 109.331 2044.64 108.873 2045.22 108.264L2051.44 101.723C2052.44 100.683 2053.71 99.9408 2055.1 99.5772C2056.5 99.2136 2057.97 99.2431 2059.35 99.6623C2060.73 100.082 2061.97 100.874 2062.93 101.953C2063.89 103.031 2064.53 104.354 2064.78 105.774L2066.31 114.667C2066.46 115.497 2066.8 116.28 2067.32 116.948C2067.83 117.615 2068.5 118.149 2069.27 118.503L2077.55 122.369C2078.87 122.974 2080 123.941 2080.79 125.159C2081.59 126.376 2082.03 127.795 2082.05 129.249C2082.08 130.678 2081.7 132.085 2080.96 133.307C2080.22 134.529 2079.15 135.517 2077.87 136.155L2069.78 140.26C2069.04 140.633 2068.4 141.185 2067.92 141.864C2067.44 142.544 2067.13 143.331 2067.03 144.157L2065.93 153.087C2065.76 154.499 2065.2 155.835 2064.3 156.941C2063.41 158.048 2062.22 158.88 2060.88 159.344C2059.5 159.836 2058 159.929 2056.57 159.613C2055.14 159.298 2053.83 158.585 2052.78 157.558L2046.26 151.203C2045.65 150.61 2044.9 150.172 2044.09 149.925C2043.28 149.679 2042.42 149.63 2041.58 149.783L2032.62 151.436C2031.38 151.668 2030.1 151.599 2028.89 151.234ZM2044.83 147.489C2046.03 147.854 2047.13 148.502 2048.03 149.379L2054.56 155.734C2055.27 156.428 2056.16 156.909 2057.12 157.123C2058.09 157.336 2059.1 157.274 2060.03 156.943C2060.93 156.641 2061.73 156.089 2062.32 155.351C2062.92 154.613 2063.3 153.72 2063.41 152.777L2064.5 143.847C2064.65 142.606 2065.11 141.423 2065.83 140.401C2066.55 139.379 2067.51 138.55 2068.63 137.988L2076.72 133.884C2077.57 133.465 2078.29 132.81 2078.78 131.996C2079.28 131.182 2079.53 130.243 2079.5 129.291C2079.49 128.312 2079.2 127.357 2078.66 126.539C2078.13 125.721 2077.37 125.074 2076.47 124.677L2068.19 120.811C2067.05 120.283 2066.06 119.488 2065.29 118.494C2064.53 117.499 2064.02 116.334 2063.8 115.099L2062.27 106.206C2062.1 105.251 2061.66 104.363 2061.02 103.638C2060.37 102.914 2059.54 102.381 2058.61 102.099C2057.68 101.817 2056.69 101.797 2055.75 102.04C2054.81 102.282 2053.96 102.78 2053.28 103.477L2047.07 110.018C2046.2 110.925 2045.13 111.608 2043.94 112.01C2042.75 112.412 2041.48 112.521 2040.24 112.327L2031.21 110.937C2030.25 110.77 2029.25 110.884 2028.35 111.265C2027.45 111.647 2026.68 112.279 2026.13 113.087C2025.58 113.865 2025.26 114.784 2025.22 115.736C2025.18 116.687 2025.41 117.63 2025.89 118.454L2030.33 126.363C2030.95 127.451 2031.28 128.673 2031.31 129.922C2031.34 131.171 2031.06 132.409 2030.5 133.525L2026.45 141.558C2026.02 142.402 2025.83 143.353 2025.92 144.299C2026 145.244 2026.36 146.146 2026.94 146.897C2027.53 147.691 2028.33 148.304 2029.26 148.664C2030.18 149.024 2031.18 149.117 2032.16 148.933L2041.12 147.28C2042.35 147.052 2043.63 147.123 2044.83 147.489H2044.83Z" fill="#050505"/>
<path d="M158.357 630.6C159.196 629.732 160.258 629.112 161.426 628.809C162.595 628.505 163.824 628.53 164.979 628.881C166.134 629.232 167.17 629.894 167.972 630.796C168.775 631.698 169.313 632.803 169.527 633.991L171.057 642.883C171.238 643.916 171.667 644.89 172.307 645.721C172.946 646.553 173.777 647.217 174.729 647.657L183.011 651.523C184.108 652.016 185.044 652.809 185.709 653.81C186.375 654.812 186.744 655.981 186.773 657.183C186.802 658.385 186.491 659.571 185.875 660.604C185.259 661.637 184.363 662.474 183.291 663.02L175.203 667.124C174.273 667.592 173.473 668.282 172.874 669.133C172.274 669.984 171.894 670.969 171.765 672.002L170.67 680.932C170.505 682.126 170.01 683.25 169.242 684.179C168.473 685.108 167.462 685.804 166.32 686.189C165.178 686.575 163.951 686.635 162.777 686.362C161.603 686.09 160.528 685.495 159.673 684.646L153.144 678.291C152.389 677.557 151.468 677.014 150.46 676.707C149.451 676.401 148.384 676.341 147.348 676.531L138.388 678.184C137.205 678.415 135.981 678.311 134.854 677.885C133.726 677.459 132.74 676.727 132.005 675.772C131.27 674.817 130.816 673.675 130.694 672.476C130.571 671.277 130.785 670.068 131.312 668.984L135.365 660.951C135.833 660.022 136.064 658.991 136.039 657.95C136.014 656.91 135.732 655.892 135.22 654.986L130.779 647.077C130.191 646.028 129.912 644.834 129.974 643.633C130.036 642.433 130.437 641.274 131.129 640.291C131.822 639.308 132.779 638.541 133.889 638.078C134.998 637.616 136.217 637.477 137.402 637.677L146.436 639.068C147.472 639.231 148.532 639.141 149.526 638.805C150.52 638.47 151.417 637.899 152.143 637.141L158.357 630.6Z" fill="#FFD231"/>
<path d="M134.895 679.234C133.298 678.747 131.898 677.763 130.901 676.424C130.041 675.29 129.517 673.938 129.389 672.521C129.261 671.104 129.533 669.679 130.175 668.41L134.229 660.378C134.602 659.634 134.787 658.81 134.766 657.979C134.746 657.147 134.52 656.333 134.11 655.61L129.67 647.701C128.962 646.46 128.62 645.044 128.684 643.616C128.749 642.189 129.217 640.809 130.033 639.637C130.861 638.44 132.011 637.503 133.35 636.934C134.688 636.364 136.161 636.185 137.597 636.418L146.63 637.809C147.463 637.941 148.316 637.869 149.115 637.6C149.915 637.331 150.637 636.873 151.221 636.264L157.435 629.722C158.436 628.683 159.705 627.941 161.102 627.577C162.499 627.214 163.969 627.243 165.349 627.662C166.73 628.082 167.969 628.874 168.927 629.953C169.886 631.031 170.528 632.354 170.783 633.774L172.311 642.667C172.458 643.497 172.804 644.28 173.318 644.948C173.833 645.615 174.502 646.149 175.267 646.503L183.551 650.369C184.874 650.974 185.999 651.941 186.795 653.159C187.591 654.376 188.025 655.795 188.048 657.249C188.076 658.678 187.697 660.085 186.957 661.307C186.217 662.529 185.146 663.517 183.867 664.155L175.778 668.26C175.036 668.633 174.396 669.185 173.917 669.864C173.438 670.544 173.133 671.331 173.031 672.157L171.935 681.087C171.763 682.499 171.198 683.835 170.303 684.941C169.409 686.048 168.221 686.88 166.876 687.344C165.496 687.836 164.005 687.929 162.573 687.613C161.142 687.298 159.829 686.585 158.784 685.558L152.256 679.203C151.646 678.61 150.904 678.172 150.09 677.925C149.277 677.678 148.416 677.63 147.58 677.783L138.619 679.436C137.379 679.668 136.102 679.599 134.895 679.234ZM150.83 675.489C152.033 675.854 153.132 676.502 154.033 677.379L160.561 683.734C161.268 684.428 162.156 684.909 163.123 685.123C164.09 685.336 165.097 685.274 166.031 684.943C166.931 684.641 167.727 684.089 168.325 683.351C168.923 682.613 169.298 681.72 169.406 680.777L170.502 671.847C170.655 670.606 171.112 669.423 171.831 668.401C172.551 667.379 173.511 666.55 174.627 665.988L182.717 661.883C183.572 661.465 184.289 660.81 184.783 659.996C185.277 659.182 185.527 658.243 185.502 657.291C185.493 656.312 185.202 655.357 184.665 654.539C184.128 653.721 183.367 653.074 182.472 652.677L174.19 648.811C173.052 648.283 172.059 647.488 171.295 646.494C170.531 645.499 170.019 644.334 169.803 643.099L168.274 634.206C168.099 633.251 167.665 632.363 167.019 631.638C166.372 630.914 165.539 630.381 164.61 630.099C163.68 629.817 162.692 629.797 161.751 630.039C160.811 630.282 159.956 630.78 159.28 631.477L153.066 638.018C152.199 638.925 151.126 639.608 149.938 640.01C148.75 640.412 147.483 640.521 146.243 640.327L137.21 638.937C136.246 638.77 135.254 638.884 134.352 639.265C133.451 639.647 132.678 640.279 132.126 641.087C131.577 641.865 131.262 642.784 131.22 643.736C131.178 644.687 131.41 645.63 131.889 646.453L136.332 654.363C136.946 655.451 137.283 656.673 137.313 657.922C137.343 659.171 137.065 660.409 136.504 661.525L132.45 669.558C132.016 670.402 131.831 671.353 131.917 672.299C132.004 673.244 132.359 674.146 132.94 674.897C133.531 675.691 134.334 676.304 135.256 676.664C136.178 677.024 137.184 677.117 138.156 676.933L147.118 675.28C148.354 675.052 149.627 675.123 150.83 675.489Z" fill="#050505"/>
<path d="M85.3574 1397.6C86.196 1396.73 87.2579 1396.11 88.4263 1395.81C89.5946 1395.51 90.824 1395.53 91.979 1395.88C93.134 1396.23 94.1699 1396.89 94.9724 1397.8C95.7749 1398.7 96.313 1399.8 96.5274 1400.99L98.0568 1409.88C98.2384 1410.92 98.6671 1411.89 99.3065 1412.72C99.946 1413.55 100.777 1414.22 101.729 1414.66L110.011 1418.52C111.108 1419.02 112.044 1419.81 112.709 1420.81C113.375 1421.81 113.744 1422.98 113.773 1424.18C113.802 1425.39 113.491 1426.57 112.875 1427.6C112.259 1428.64 111.363 1429.47 110.291 1430.02L102.203 1434.12C101.273 1434.59 100.473 1435.28 99.8739 1436.13C99.2744 1436.98 98.8937 1437.97 98.7654 1439L97.6698 1447.93C97.5047 1449.13 97.0102 1450.25 96.2419 1451.18C95.4735 1452.11 94.4616 1452.8 93.3197 1453.19C92.1778 1453.57 90.9511 1453.63 89.7771 1453.36C88.603 1453.09 87.5281 1452.5 86.673 1451.65L80.1444 1445.29C79.3886 1444.56 78.4682 1444.01 77.4598 1443.71C76.4515 1443.4 75.3845 1443.34 74.348 1443.53L65.388 1445.18C64.205 1445.41 62.9811 1445.31 61.8537 1444.89C60.7262 1444.46 59.7398 1443.73 59.005 1442.77C58.2702 1441.82 57.8161 1440.68 57.6936 1439.48C57.5712 1438.28 57.7852 1437.07 58.3117 1435.98L62.3654 1427.95C62.833 1427.02 63.0643 1425.99 63.039 1424.95C63.0137 1423.91 62.7325 1422.89 62.2202 1421.99L57.7786 1414.08C57.1911 1413.03 56.9122 1411.83 56.9743 1410.63C57.0364 1409.43 57.4369 1408.27 58.1295 1407.29C58.8221 1406.31 59.7786 1405.54 60.8885 1405.08C61.9985 1404.62 63.2166 1404.48 64.4022 1404.68L73.436 1406.07C74.4721 1406.23 75.5323 1406.14 76.526 1405.81C77.5197 1405.47 78.4175 1404.9 79.1427 1404.14L85.3574 1397.6Z" fill="#FFD231"/>
<path d="M61.8946 1446.23C60.2978 1445.75 58.8985 1444.76 57.9011 1443.42C57.0414 1442.29 56.5175 1440.94 56.3891 1439.52C56.2608 1438.1 56.5332 1436.68 57.1753 1435.41L61.2286 1427.38C61.6025 1426.63 61.7872 1425.81 61.7665 1424.98C61.7457 1424.15 61.5201 1423.33 61.1097 1422.61L56.6697 1414.7C55.9617 1413.46 55.62 1412.04 55.6844 1410.62C55.7488 1409.19 56.2166 1407.81 57.0335 1406.64C57.8613 1405.44 59.011 1404.5 60.3496 1403.93C61.6882 1403.36 63.1607 1403.19 64.5967 1403.42L73.6301 1404.81C74.4632 1404.94 75.3159 1404.87 76.1154 1404.6C76.9148 1404.33 77.6374 1403.87 78.2214 1403.26L84.4352 1396.72C85.4364 1395.68 86.7054 1394.94 88.102 1394.58C89.4986 1394.21 90.9685 1394.24 92.3494 1394.66C93.7303 1395.08 94.9685 1395.87 95.9273 1396.95C96.8861 1398.03 97.5282 1399.35 97.7827 1400.77L99.3112 1409.67C99.458 1410.5 99.8035 1411.28 100.318 1411.95C100.833 1412.62 101.502 1413.15 102.267 1413.5L110.551 1417.37C111.874 1417.97 112.999 1418.94 113.795 1420.16C114.591 1421.38 115.025 1422.79 115.048 1424.25C115.076 1425.68 114.697 1427.08 113.957 1428.31C113.217 1429.53 112.146 1430.52 110.867 1431.15L102.778 1435.26C102.036 1435.63 101.396 1436.18 100.917 1436.86C100.438 1437.54 100.133 1438.33 100.031 1439.16L98.9346 1448.09C98.7629 1449.5 98.1975 1450.83 97.3031 1451.94C96.4086 1453.05 95.2211 1453.88 93.8761 1454.34C92.4956 1454.84 91.0045 1454.93 89.5735 1454.61C88.1424 1454.3 86.8292 1453.59 85.784 1452.56L79.2558 1446.2C78.6462 1445.61 77.9037 1445.17 77.0903 1444.93C76.277 1444.68 75.4163 1444.63 74.5803 1444.78L65.6192 1446.44C64.3794 1446.67 63.102 1446.6 61.8946 1446.23ZM77.8297 1442.49C79.0333 1442.85 80.1318 1443.5 81.0333 1444.38L87.5615 1450.73C88.2682 1451.43 89.1557 1451.91 90.1228 1452.12C91.0898 1452.34 92.0974 1452.27 93.0306 1451.94C93.9312 1451.64 94.7271 1451.09 95.325 1450.35C95.9228 1449.61 96.2977 1448.72 96.4058 1447.78L97.5018 1438.85C97.6553 1437.61 98.112 1436.42 98.8314 1435.4C99.5508 1434.38 100.511 1433.55 101.627 1432.99L109.717 1428.88C110.572 1428.47 111.289 1427.81 111.783 1427C112.277 1426.18 112.527 1425.24 112.502 1424.29C112.493 1423.31 112.202 1422.36 111.665 1421.54C111.128 1420.72 110.367 1420.07 109.472 1419.68L101.19 1415.81C100.052 1415.28 99.0588 1414.49 98.2948 1413.49C97.5308 1412.5 97.0188 1411.33 96.8026 1410.1L95.2742 1401.21C95.0995 1400.25 94.665 1399.36 94.0186 1398.64C93.3721 1397.91 92.5386 1397.38 91.6095 1397.1C90.6804 1396.82 89.6915 1396.8 88.7514 1397.04C87.8113 1397.28 86.9563 1397.78 86.2801 1398.48L80.0662 1405.02C79.1994 1405.92 78.1262 1406.61 76.9382 1407.01C75.7502 1407.41 74.4825 1407.52 73.2434 1407.33L64.21 1405.94C63.2456 1405.77 62.2536 1405.88 61.3522 1406.27C60.4509 1406.65 59.6782 1407.28 59.1264 1408.09C58.5769 1408.87 58.2623 1409.78 58.2202 1410.74C58.178 1411.69 58.4101 1412.63 58.8887 1413.45L63.332 1421.36C63.9461 1422.45 64.283 1423.67 64.313 1424.92C64.3429 1426.17 64.065 1427.41 63.5038 1428.53L59.4503 1436.56C59.0155 1437.4 58.8307 1438.35 58.9175 1439.3C59.0043 1440.24 59.3591 1441.15 59.9403 1441.9C60.5312 1442.69 61.3337 1443.3 62.2561 1443.66C63.1784 1444.02 64.1835 1444.12 65.1564 1443.93L74.1176 1442.28C75.3539 1442.05 76.6269 1442.12 77.8297 1442.49Z" fill="#050505"/>
<path d="M1948.29 801.986C1948.91 800.854 1949.83 799.916 1950.95 799.274C1952.07 798.633 1953.34 798.312 1954.63 798.348C1955.92 798.385 1957.18 798.776 1958.26 799.48C1959.34 800.183 1960.2 801.171 1960.76 802.336L1964.84 811.071C1965.32 812.085 1966.03 812.968 1966.93 813.645C1967.82 814.322 1968.86 814.773 1969.97 814.959L1979.6 816.612C1980.87 816.811 1982.05 817.365 1983.02 818.21C1983.99 819.055 1984.7 820.157 1985.07 821.388C1985.44 822.619 1985.45 823.929 1985.1 825.167C1984.76 826.405 1984.07 827.52 1983.12 828.384L1975.94 834.893C1975.11 835.638 1974.48 836.574 1974.1 837.62C1973.73 838.666 1973.61 839.789 1973.77 840.89L1975.15 850.404C1975.32 851.681 1975.13 852.979 1974.6 854.153C1974.07 855.326 1973.22 856.329 1972.15 857.048C1971.08 857.767 1969.83 858.174 1968.55 858.224C1967.26 858.274 1965.99 857.964 1964.86 857.329L1956.34 852.616C1955.36 852.072 1954.26 851.771 1953.13 851.74C1952.01 851.708 1950.89 851.946 1949.87 852.434L1941.1 856.661C1939.95 857.232 1938.66 857.47 1937.38 857.348C1936.09 857.227 1934.87 856.75 1933.84 855.972C1932.82 855.194 1932.03 854.146 1931.56 852.944C1931.1 851.742 1930.98 850.435 1931.22 849.169L1933.13 839.748C1933.35 838.658 1933.3 837.53 1932.98 836.465C1932.66 835.399 1932.09 834.429 1931.3 833.639L1924.5 826.737C1923.6 825.821 1922.97 824.669 1922.7 823.413C1922.43 822.158 1922.51 820.851 1922.95 819.642C1923.39 818.434 1924.16 817.374 1925.17 816.584C1926.18 815.795 1927.4 815.309 1928.68 815.181L1938.38 814.071C1939.5 813.948 1940.57 813.556 1941.5 812.93C1942.43 812.304 1943.19 811.463 1943.72 810.478L1948.29 801.986Z" fill="#FFD231"/>
<path d="M1937.8 858.727C1936.01 858.675 1934.29 858.054 1932.89 856.955C1931.68 856.029 1930.76 854.782 1930.23 853.357C1929.7 851.933 1929.58 850.388 1929.88 848.898L1931.8 839.477C1931.98 838.605 1931.93 837.704 1931.68 836.852C1931.42 836.001 1930.96 835.225 1930.34 834.595L1923.53 827.693C1922.45 826.613 1921.7 825.249 1921.37 823.759C1921.03 822.27 1921.12 820.715 1921.64 819.277C1922.15 817.811 1923.07 816.521 1924.29 815.557C1925.51 814.593 1926.98 813.994 1928.53 813.83L1938.23 812.719C1939.13 812.621 1939.98 812.307 1940.73 811.804C1941.48 811.302 1942.1 810.626 1942.53 809.834L1947.09 801.341C1947.83 799.988 1948.93 798.865 1950.27 798.097C1951.6 797.329 1953.13 796.946 1954.67 796.989C1956.21 797.032 1957.71 797.501 1959 798.343C1960.29 799.184 1961.33 800.367 1961.99 801.759L1966.07 810.496C1966.46 811.31 1967.03 812.02 1967.75 812.563C1968.47 813.107 1969.31 813.469 1970.2 813.618L1979.83 815.271C1981.36 815.522 1982.79 816.202 1983.95 817.233C1985.12 818.264 1985.97 819.604 1986.4 821.097C1986.83 822.562 1986.84 824.119 1986.42 825.587C1986 827.056 1985.17 828.375 1984.03 829.393L1976.85 835.902C1976.19 836.496 1975.69 837.245 1975.38 838.08C1975.08 838.916 1974.99 839.813 1975.12 840.693L1976.5 850.208C1976.72 851.712 1976.51 853.248 1975.9 854.641C1975.29 856.033 1974.3 857.226 1973.05 858.083C1971.76 858.978 1970.25 859.494 1968.69 859.572C1967.12 859.649 1965.57 859.285 1964.2 858.52L1955.68 853.807C1954.89 853.368 1954 853.125 1953.09 853.1C1952.18 853.074 1951.28 853.267 1950.46 853.66L1941.69 857.888C1940.48 858.475 1939.14 858.763 1937.8 858.727ZM1953.17 850.38C1954.51 850.417 1955.83 850.776 1957 851.426L1965.52 856.14C1966.45 856.656 1967.5 856.902 1968.55 856.85C1969.61 856.798 1970.63 856.449 1971.5 855.845C1972.34 855.281 1973.01 854.487 1973.42 853.558C1973.83 852.629 1973.96 851.603 1973.81 850.6L1972.42 841.086C1972.23 839.764 1972.37 838.416 1972.82 837.16C1973.28 835.904 1974.03 834.779 1975.02 833.885L1982.21 827.376C1982.97 826.704 1983.53 825.827 1983.81 824.848C1984.09 823.87 1984.08 822.832 1983.79 821.857C1983.5 820.851 1982.93 819.948 1982.15 819.256C1981.37 818.564 1980.4 818.112 1979.36 817.954L1969.74 816.301C1968.42 816.078 1967.17 815.538 1966.1 814.727C1965.03 813.917 1964.18 812.86 1963.61 811.648L1959.53 802.912C1959.08 801.976 1958.38 801.183 1957.51 800.618C1956.64 800.053 1955.63 799.739 1954.59 799.71C1953.56 799.68 1952.53 799.938 1951.63 800.453C1950.73 800.968 1949.99 801.721 1949.49 802.629L1944.92 811.123C1944.29 812.301 1943.37 813.308 1942.26 814.057C1941.15 814.806 1939.87 815.275 1938.54 815.424L1928.84 816.534C1927.8 816.634 1926.81 817.031 1925.98 817.678C1925.16 818.325 1924.54 819.194 1924.2 820.183C1923.85 821.14 1923.79 822.176 1924.01 823.168C1924.24 824.161 1924.74 825.068 1925.47 825.782L1932.28 832.684C1933.21 833.633 1933.91 834.798 1934.29 836.077C1934.67 837.356 1934.73 838.71 1934.47 840.019L1932.55 849.441C1932.34 850.434 1932.42 851.466 1932.77 852.417C1933.13 853.367 1933.75 854.196 1934.56 854.807C1935.39 855.46 1936.39 855.865 1937.45 855.976C1938.5 856.088 1939.56 855.901 1940.51 855.437L1949.28 851.21C1950.49 850.626 1951.83 850.342 1953.17 850.38Z" fill="#050505"/>
<path d="M55.4137 326.654L42.4737 320.402C40.9852 319.691 39.6916 318.629 38.7037 317.308C37.7158 315.987 37.0633 314.445 36.802 312.817L34.578 298.812C34.2659 296.94 33.4432 295.191 32.2004 293.756C30.9576 292.321 29.343 291.258 27.5344 290.682C25.7258 290.106 23.7934 290.041 21.95 290.493C20.1065 290.945 18.4237 291.897 17.0867 293.244L7.1819 303.396C6.12615 304.473 4.84472 305.302 3.4299 305.824C2.01509 306.346 0.502125 306.547 -1 306.414V365.203C0.607069 364.954 2.25032 365.087 3.7962 365.592C5.34209 366.097 6.74698 366.96 7.8967 368.11L18.0323 378.238C24.0057 384.211 34.2688 380.899 35.3967 372.63L37.303 358.61C37.5266 356.989 38.1458 355.449 39.1058 354.124C40.0659 352.8 41.3374 351.732 42.8079 351.016L55.6123 344.733C57.3085 343.898 58.7339 342.6 59.724 340.99C60.7141 339.379 61.2285 337.521 61.2077 335.631C61.187 333.74 60.6319 331.894 59.6067 330.306C58.5814 328.717 57.1278 327.451 55.4137 326.654Z" fill="#FFD231"/>
<path d="M55.9936 325.454L43.0536 319.203C41.7604 318.584 40.6363 317.661 39.7773 316.513C38.9183 315.364 38.3499 314.026 38.1208 312.61L35.897 298.598C35.5459 296.482 34.6169 294.503 33.2125 292.882C31.8082 291.26 29.983 290.058 27.9386 289.408C25.8941 288.758 23.7099 288.685 21.6268 289.198C19.5437 289.711 17.6429 290.79 16.1341 292.315L6.2285 302.466C5.29655 303.416 4.16282 304.143 2.91145 304.594C1.66007 305.045 0.323184 305.208 -1 305.072V307.757C0.681523 307.888 2.37144 307.65 3.95099 307.058C5.53054 306.467 6.9614 305.537 8.143 304.333L18.0482 294.173C19.1969 292.983 20.6594 292.142 22.2663 291.748C23.8731 291.355 25.5586 291.424 27.1275 291.949C28.7145 292.425 30.1335 293.343 31.2192 294.594C32.3049 295.846 33.0125 297.381 33.2596 299.019L35.4758 313.031C35.7746 314.872 36.5144 316.612 37.6321 318.105C38.7498 319.597 40.2121 320.797 41.8941 321.602L54.8341 327.853C56.3357 328.563 57.6057 329.684 58.4969 331.085C59.3881 332.487 59.8642 334.112 59.87 335.773C59.8932 337.395 59.4485 338.99 58.5893 340.366C57.7301 341.742 56.4926 342.842 55.0249 343.534L42.22 349.817C40.5518 350.629 39.1098 351.841 38.0221 353.345C36.9344 354.848 36.2345 356.597 35.9844 358.435L34.07 372.447C33.8666 374.052 33.209 375.566 32.1747 376.81C31.1405 378.054 29.7724 378.976 28.2316 379.469C26.6392 380.013 24.9258 380.097 23.2877 379.713C21.6495 379.328 20.153 378.489 18.9695 377.293L8.8419 367.165C7.51714 365.847 5.89676 364.863 4.1155 364.297C2.46505 363.768 0.716974 363.617 -1 363.853V366.545L-0.9523 366.537C0.470473 366.296 1.93032 366.399 3.3053 366.837C4.68028 367.275 5.93049 368.036 6.9515 369.056L17.087 379.183C18.6193 380.733 20.5577 381.819 22.6794 382.316C24.8012 382.814 27.0202 382.702 29.0816 381.995C31.0876 381.335 32.8673 380.124 34.2173 378.5C35.5672 376.877 36.4328 374.906 36.715 372.813L38.6295 358.793C38.8218 357.389 39.3574 356.055 40.1887 354.907C41.0201 353.76 42.1215 352.836 43.3955 352.216L56.2 345.932C58.1093 345.01 59.718 343.565 60.8399 341.765C61.9618 339.966 62.5508 337.885 62.5388 335.765C62.5362 333.603 61.9197 331.486 60.761 329.661C59.6023 327.835 57.949 326.377 55.9936 325.454Z" fill="#050505"/>
<path d="M2050.76 1195.02L2064.61 1201.81C2066.21 1202.59 2067.58 1203.74 2068.62 1205.18C2069.66 1206.61 2070.33 1208.28 2070.57 1210.03L2072.63 1225.19C2073.85 1234.14 2084.95 1237.72 2091.41 1231.26L2102.38 1220.3C2103.62 1219.06 2105.14 1218.13 2106.81 1217.58C2108.48 1217.03 2110.26 1216.89 2112 1217.16V1153.57C2110.38 1153.71 2108.74 1153.5 2107.21 1152.93C2105.68 1152.37 2104.29 1151.47 2103.15 1150.3L2092.44 1139.32C2090.99 1137.87 2089.17 1136.84 2087.18 1136.35C2085.18 1135.86 2083.09 1135.93 2081.13 1136.55C2079.18 1137.17 2077.43 1138.33 2076.09 1139.88C2074.74 1141.43 2073.85 1143.32 2073.52 1145.35L2071.11 1160.49C2070.83 1162.26 2070.12 1163.92 2069.05 1165.35C2067.99 1166.78 2066.59 1167.93 2064.98 1168.7L2050.98 1175.46C2049.12 1176.32 2047.55 1177.69 2046.44 1179.41C2045.33 1181.13 2044.73 1183.13 2044.71 1185.17C2044.69 1187.22 2045.25 1189.23 2046.32 1190.97C2047.39 1192.71 2048.93 1194.11 2050.76 1195.02Z" fill="#FFD231"/>
<path d="M2043.27 1185.32C2043.26 1187.61 2043.9 1189.86 2045.11 1191.81C2046.32 1193.75 2048.06 1195.32 2050.13 1196.31L2063.98 1203.11C2065.36 1203.78 2066.55 1204.78 2067.45 1206.02C2068.35 1207.26 2068.93 1208.71 2069.13 1210.23L2071.2 1225.39C2071.51 1227.65 2072.45 1229.79 2073.91 1231.54C2075.37 1233.3 2077.29 1234.61 2079.46 1235.32C2081.69 1236.09 2084.09 1236.21 2086.39 1235.67C2088.68 1235.13 2090.78 1233.96 2092.44 1232.28L2103.4 1221.33C2104.5 1220.22 2105.86 1219.4 2107.34 1218.93C2108.83 1218.45 2110.41 1218.34 2111.95 1218.6L2112 1218.61V1215.7C2110.14 1215.44 2108.25 1215.61 2106.47 1216.18C2104.54 1216.79 2102.79 1217.86 2101.35 1219.28L2090.4 1230.24C2089.12 1231.53 2087.5 1232.44 2085.73 1232.85C2083.96 1233.27 2082.1 1233.18 2080.38 1232.59C2078.71 1232.06 2077.23 1231.06 2076.12 1229.71C2075 1228.37 2074.29 1226.73 2074.07 1225L2072 1209.84C2071.73 1207.85 2070.97 1205.96 2069.79 1204.33C2068.62 1202.71 2067.06 1201.4 2065.25 1200.52L2051.4 1193.72C2049.81 1192.97 2048.47 1191.78 2047.54 1190.29C2046.61 1188.81 2046.13 1187.08 2046.16 1185.33C2046.17 1183.53 2046.68 1181.77 2047.64 1180.25C2048.61 1178.74 2049.98 1177.53 2051.61 1176.76L2065.6 1170C2067.42 1169.13 2069 1167.83 2070.21 1166.21C2071.42 1164.6 2072.22 1162.72 2072.54 1160.73L2074.94 1145.57C2075.24 1143.81 2076.01 1142.16 2077.18 1140.82C2078.35 1139.47 2079.87 1138.47 2081.57 1137.93C2083.27 1137.38 2085.09 1137.32 2086.82 1137.75C2088.55 1138.17 2090.14 1139.06 2091.4 1140.33L2102.11 1151.32C2103.39 1152.62 2104.94 1153.63 2106.64 1154.27C2108.35 1154.91 2110.18 1155.16 2112 1155.02V1152.12C2110.57 1152.26 2109.12 1152.09 2107.77 1151.6C2106.42 1151.11 2105.19 1150.33 2104.18 1149.3L2093.47 1138.32C2091.83 1136.67 2089.78 1135.5 2087.53 1134.95C2085.27 1134.39 2082.91 1134.47 2080.7 1135.17C2078.49 1135.88 2076.51 1137.18 2074.99 1138.93C2073.47 1140.69 2072.47 1142.83 2072.09 1145.11L2069.68 1160.27C2069.44 1161.8 2068.82 1163.25 2067.89 1164.49C2066.96 1165.73 2065.75 1166.73 2064.35 1167.4L2050.35 1174.16C2048.24 1175.16 2046.45 1176.74 2045.19 1178.71C2043.94 1180.69 2043.27 1182.98 2043.27 1185.32Z" fill="#050505"/>
</g>
<defs>
<clipPath id="clip0_5477_75079">
<rect width="2111.87" height="1543.71" fill="white"/>
</clipPath>
</defs>
</svg>
