<svg width="255" height="255" viewBox="0 0 255 255" fill="none" xmlns="http://www.w3.org/2000/svg">
<circle cx="127.5" cy="127.5" r="127.5" fill="#F5F5F5"/>
<path d="M186.389 134.202C189.57 131.728 194.254 133.356 195.214 137.269L196.918 144.217C197.343 145.95 198.578 147.376 200.236 148.047L206.878 150.737C210.619 152.252 211.555 157.113 208.64 159.894L203.466 164.831C202.175 166.063 201.557 167.84 201.805 169.608L202.801 176.69C203.363 180.679 199.614 183.911 195.739 182.779L188.861 180.768C187.144 180.267 185.292 180.619 183.883 181.715L178.236 186.107C175.056 188.581 170.372 186.953 169.412 183.039L167.707 176.092C167.282 174.358 166.048 172.933 164.39 172.262L157.748 169.572C154.006 168.056 153.071 163.196 155.985 160.415L161.159 155.478C162.451 154.246 163.069 152.468 162.82 150.701L161.824 143.619C161.263 139.63 165.012 136.398 168.886 137.53L175.765 139.54C177.481 140.042 179.334 139.69 180.743 138.594L186.389 134.202Z" fill="#FCDE77"/>
<path d="M85.0236 59.1585C87.1522 57.5028 90.2873 58.5926 90.9298 61.2117L92.0705 65.8616C92.3552 67.022 93.1814 67.976 94.2909 68.4253L98.7366 70.2257C101.241 71.2398 101.867 74.4928 99.9162 76.354L96.453 79.6584C95.5888 80.4831 95.1752 81.6728 95.3415 82.8557L96.0082 87.5957C96.3837 90.2656 93.8748 92.4287 91.2816 91.6709L86.6777 90.3254C85.5288 89.9896 84.289 90.2254 83.3459 90.959L79.5669 93.8986C77.4382 95.5544 74.3032 94.4645 73.6607 91.8454L72.5199 87.1955C72.2353 86.0351 71.4091 85.0812 70.2996 84.6319L65.8539 82.8314C63.3498 81.8173 62.7236 78.5644 64.6743 76.7031L68.1374 73.3987C69.0017 72.5741 69.4153 71.3844 69.2489 70.2014L68.5823 65.4614C68.2068 62.7915 70.7157 60.6284 73.3089 61.3863L77.9127 62.7318C79.0617 63.0675 80.3014 62.8318 81.2445 62.0982L85.0236 59.1585Z" fill="#FCDE77"/>
<path d="M175.696 144.6C173.896 151.9 170.846 157.85 166.546 162.45C162.346 167.05 157.196 170.4 151.096 172.5C145.096 174.5 138.446 175.5 131.146 175.5C120.946 175.5 112.096 173.5 104.596 169.5C97.1961 165.4 91.4961 159.55 87.4961 151.95C83.4961 144.35 81.4961 135.2 81.4961 124.5C81.4961 113.8 83.4961 104.65 87.4961 97.05C91.4961 89.45 97.1961 83.65 104.596 79.65C112.096 75.55 120.896 73.5 130.996 73.5C138.196 73.5 144.796 74.5 150.796 76.5C156.896 78.5 162.046 81.6 166.246 85.8C170.446 90 173.296 95.45 174.796 102.15L148.246 112.8C147.146 106.4 145.196 102.15 142.396 100.05C139.696 97.95 136.196 96.9 131.896 96.9C127.896 96.9 124.446 97.95 121.546 100.05C118.746 102.05 116.596 105.1 115.096 109.2C113.696 113.2 112.996 118.3 112.996 124.5C112.996 130.6 113.646 135.7 114.946 139.8C116.346 143.9 118.446 147 121.246 149.1C124.146 151.1 127.896 152.1 132.496 152.1C136.596 152.1 140.046 150.9 142.846 148.5C145.646 146.1 147.496 142.35 148.396 137.25L175.696 144.6Z" fill="#F99E16"/>
</svg>
