<svg width="255" height="255" viewBox="0 0 255 255" fill="none" xmlns="http://www.w3.org/2000/svg">
<circle cx="127.5" cy="127.5" r="127.5" fill="#F5F5F5"/>
<path d="M182.389 139.202C185.57 136.728 190.254 138.356 191.214 142.269L192.918 149.217C193.343 150.95 194.578 152.376 196.236 153.047L202.878 155.737C206.619 157.252 207.555 162.113 204.64 164.894L199.466 169.831C198.175 171.063 197.557 172.84 197.805 174.608L198.801 181.69C199.363 185.679 195.614 188.911 191.739 187.779L184.861 185.768C183.144 185.267 181.292 185.619 179.883 186.715L174.236 191.107C171.056 193.581 166.372 191.953 165.412 188.039L163.707 181.092C163.282 179.358 162.048 177.933 160.39 177.262L153.748 174.572C150.006 173.056 149.071 168.196 151.985 165.415L157.159 160.478C158.451 159.246 159.069 157.468 158.82 155.701L157.824 148.619C157.263 144.63 161.012 141.398 164.886 142.53L171.765 144.54C173.481 145.042 175.334 144.69 176.743 143.594L182.389 139.202Z" fill="#FCDE77"/>
<path d="M81.0236 64.1585C83.1522 62.5028 86.2873 63.5926 86.9298 66.2117L88.0705 70.8616C88.3552 72.022 89.1814 72.976 90.2909 73.4253L94.7366 75.2257C97.2407 76.2398 97.8668 79.4928 95.9162 81.354L92.453 84.6584C91.5888 85.4831 91.1752 86.6728 91.3415 87.8557L92.0082 92.5957C92.3837 95.2656 89.8748 97.4287 87.2816 96.6709L82.6777 95.3254C81.5288 94.9896 80.289 95.2254 79.3459 95.959L75.5669 98.8986C73.4382 100.554 70.3032 99.4645 69.6607 96.8454L68.5199 92.1955C68.2353 91.0351 67.4091 90.0812 66.2996 89.6319L61.8539 87.8314C59.3498 86.8173 58.7236 83.5644 60.6743 81.7031L64.1374 78.3987C65.0017 77.5741 65.4153 76.3844 65.2489 75.2014L64.5823 70.4614C64.2068 67.7915 66.7157 65.6284 69.3089 66.3863L73.9127 67.7318C75.0617 68.0675 76.3014 67.8318 77.2445 67.0982L81.0236 64.1585Z" fill="#FCDE77"/>
<path d="M128.69 78.5C138.09 78.5 146.44 79.8 153.74 82.4C161.04 84.9 167.44 88.75 172.94 93.95L159.59 113.6C155.09 109.8 150.29 106.85 145.19 104.75C140.19 102.55 134.64 101.45 128.54 101.45C125.44 101.45 122.94 101.75 121.04 102.35C119.14 102.95 117.74 103.8 116.84 104.9C116.04 105.9 115.64 107.05 115.64 108.35C115.64 109.95 116.59 111.25 118.49 112.25C120.49 113.25 123.24 114.15 126.74 114.95L141.74 118.4C151.74 120.7 159.19 124.1 164.09 128.6C168.99 133 171.44 139.05 171.44 146.75C171.44 154.25 169.54 160.5 165.74 165.5C162.04 170.5 156.94 174.25 150.44 176.75C143.94 179.25 136.59 180.5 128.39 180.5C121.89 180.5 115.54 179.85 109.34 178.55C103.24 177.25 97.6398 175.4 92.5398 173C87.4398 170.5 83.0398 167.55 79.3398 164.15L92.5398 143.9C95.2398 146.5 98.5398 148.85 102.44 150.95C106.34 152.95 110.49 154.55 114.89 155.75C119.29 156.95 123.54 157.55 127.64 157.55C130.54 157.55 132.89 157.3 134.69 156.8C136.59 156.2 137.94 155.4 138.74 154.4C139.54 153.4 139.94 152.2 139.94 150.8C139.94 149.1 139.29 147.75 137.99 146.75C136.69 145.65 134.24 144.7 130.64 143.9L114.14 140.15C108.74 138.95 103.74 137.3 99.1398 135.2C94.5398 133.1 90.8398 130.2 88.0398 126.5C85.3398 122.7 83.9898 117.75 83.9898 111.65C83.9898 105.15 85.7398 99.4 89.2398 94.4C92.7398 89.4 97.8398 85.5 104.54 82.7C111.24 79.9 119.29 78.5 128.69 78.5Z" fill="#D49EFF"/>
</svg>
