<svg width="255" height="255" viewBox="0 0 255 255" fill="none" xmlns="http://www.w3.org/2000/svg">
<circle cx="127.5" cy="127.5" r="127.5" fill="#F5F5F5"/>
<path d="M186.389 134.202C189.57 131.728 194.254 133.356 195.214 137.269L196.918 144.217C197.343 145.95 198.578 147.376 200.236 148.047L206.878 150.737C210.619 152.252 211.555 157.113 208.64 159.894L203.466 164.831C202.175 166.063 201.557 167.84 201.805 169.608L202.801 176.69C203.363 180.679 199.614 183.911 195.739 182.779L188.861 180.768C187.144 180.267 185.292 180.619 183.883 181.715L178.236 186.107C175.056 188.581 170.372 186.953 169.412 183.039L167.707 176.092C167.282 174.358 166.048 172.933 164.39 172.262L157.748 169.572C154.006 168.056 153.071 163.196 155.985 160.415L161.159 155.478C162.451 154.246 163.069 152.468 162.82 150.701L161.824 143.619C161.263 139.63 165.012 136.398 168.886 137.53L175.765 139.54C177.481 140.042 179.334 139.69 180.743 138.594L186.389 134.202Z" fill="#FCDE77"/>
<path d="M85.0236 59.1585C87.1522 57.5028 90.2873 58.5926 90.9298 61.2117L92.0705 65.8616C92.3552 67.022 93.1814 67.976 94.2909 68.4253L98.7366 70.2257C101.241 71.2398 101.867 74.4928 99.9162 76.354L96.453 79.6584C95.5888 80.4831 95.1752 81.6728 95.3415 82.8557L96.0082 87.5957C96.3837 90.2656 93.8748 92.4287 91.2816 91.6709L86.6777 90.3254C85.5288 89.9896 84.289 90.2254 83.3459 90.959L79.5669 93.8986C77.4382 95.5544 74.3032 94.4645 73.6607 91.8454L72.5199 87.1955C72.2353 86.0351 71.4091 85.0812 70.2996 84.6319L65.8539 82.8314C63.3498 81.8173 62.7236 78.5644 64.6743 76.7031L68.1374 73.3987C69.0017 72.5741 69.4153 71.3844 69.2489 70.2014L68.5823 65.4614C68.2068 62.7915 70.7157 60.6284 73.3089 61.3863L77.9127 62.7318C79.0617 63.0675 80.3014 62.8318 81.2445 62.0982L85.0236 59.1585Z" fill="#FCDE77"/>
<path d="M152.895 202.9C145.795 202.9 139.645 201.75 134.445 199.45C129.245 197.15 125.245 193.95 122.445 189.85C119.745 185.75 118.395 180.95 118.395 175.45C118.395 173.05 118.745 170.55 119.445 167.95C120.245 165.35 121.395 162.75 122.895 160.15L139.545 155.5C138.145 158.1 137.095 160.5 136.395 162.7C135.795 164.8 135.495 166.7 135.495 168.4C135.495 171.8 136.245 174.45 137.745 176.35C139.345 178.25 141.445 179.6 144.045 180.4C146.745 181.2 149.795 181.6 153.195 181.6C157.695 181.6 161.345 181.15 164.145 180.25C167.045 179.35 169.495 178.15 171.495 176.65L175.245 196.9C172.545 198.8 169.195 200.25 165.195 201.25C161.195 202.35 157.095 202.9 152.895 202.9ZM127.545 71.5C137.845 71.5 146.645 73.55 153.945 77.65C161.345 81.65 166.995 87.45 170.895 95.05C174.895 102.65 176.895 111.8 176.895 122.5C176.895 133.2 174.895 142.35 170.895 149.95C166.995 157.55 161.345 163.4 153.945 167.5C146.645 171.5 137.845 173.5 127.545 173.5C117.345 173.5 108.495 171.5 100.995 167.5C93.5945 163.4 87.8945 157.55 83.8945 149.95C79.8945 142.35 77.8945 133.2 77.8945 122.5C77.8945 111.8 79.8945 102.65 83.8945 95.05C87.8945 87.45 93.5945 81.65 100.995 77.65C108.495 73.55 117.345 71.5 127.545 71.5ZM127.545 94.9C123.445 94.9 120.045 95.95 117.345 98.05C114.745 100.05 112.745 103.05 111.345 107.05C110.045 111.05 109.395 116.2 109.395 122.5C109.395 128.7 110.045 133.85 111.345 137.95C112.745 141.95 114.745 145 117.345 147.1C120.045 149.1 123.445 150.1 127.545 150.1C131.545 150.1 134.895 149.1 137.595 147.1C140.295 145 142.295 141.95 143.595 137.95C144.895 133.85 145.545 128.7 145.545 122.5C145.545 116.2 144.895 111.05 143.595 107.05C142.295 103.05 140.295 100.05 137.595 98.05C134.895 95.95 131.545 94.9 127.545 94.9Z" fill="#FFA3CF"/>
</svg>
