<svg width="255" height="255" viewBox="0 0 255 255" fill="none" xmlns="http://www.w3.org/2000/svg">
<circle cx="127.5" cy="127.5" r="127.5" fill="#F5F5F5"/>
<path d="M182.389 139.202C185.57 136.728 190.254 138.356 191.214 142.269L192.918 149.217C193.343 150.95 194.578 152.376 196.236 153.047L202.878 155.737C206.619 157.252 207.555 162.113 204.64 164.894L199.466 169.831C198.175 171.063 197.557 172.84 197.805 174.608L198.801 181.69C199.363 185.679 195.614 188.911 191.739 187.779L184.861 185.768C183.144 185.267 181.292 185.619 179.883 186.715L174.236 191.107C171.056 193.581 166.372 191.953 165.412 188.039L163.707 181.092C163.282 179.358 162.048 177.933 160.39 177.262L153.748 174.572C150.006 173.056 149.071 168.196 151.985 165.415L157.159 160.478C158.451 159.246 159.069 157.468 158.82 155.701L157.824 148.619C157.263 144.63 161.012 141.398 164.886 142.53L171.765 144.54C173.481 145.042 175.334 144.69 176.743 143.594L182.389 139.202Z" fill="#FCDE77"/>
<path d="M93.0236 53.1585C95.1522 51.5028 98.2873 52.5926 98.9298 55.2117L100.071 59.8616C100.355 61.022 101.181 61.976 102.291 62.4253L106.737 64.2257C109.241 65.2398 109.867 68.4928 107.916 70.354L104.453 73.6584C103.589 74.4831 103.175 75.6728 103.342 76.8557L104.008 81.5957C104.384 84.2656 101.875 86.4287 99.2816 85.6709L94.6777 84.3254C93.5288 83.9896 92.289 84.2254 91.3459 84.959L87.5669 87.8986C85.4382 89.5544 82.3032 88.4645 81.6607 85.8454L80.5199 81.1955C80.2353 80.0351 79.4091 79.0812 78.2996 78.6319L73.8539 76.8314C71.3498 75.8173 70.7236 72.5644 72.6743 70.7031L76.1374 67.3987C77.0017 66.5741 77.4153 65.3844 77.2489 64.2014L76.5823 59.4614C76.2068 56.7915 78.7157 54.6284 81.3089 55.3863L85.9127 56.7318C87.0617 57.0675 88.3014 56.8318 89.2445 56.0982L93.0236 53.1585Z" fill="#FCDE77"/>
<path d="M52.8173 123.631C54.4179 122.386 56.7752 123.205 57.2584 125.175L58.1161 128.671C58.3302 129.544 58.9514 130.261 59.7857 130.599L63.1285 131.953C65.0114 132.715 65.4823 135.161 64.0155 136.561L61.4114 139.045C60.7616 139.665 60.4506 140.56 60.5757 141.449L61.077 145.014C61.3593 147.021 59.4728 148.648 57.5229 148.078L54.0611 147.066C53.1972 146.814 52.265 146.991 51.5558 147.543L48.7142 149.753C47.1136 150.998 44.7563 150.178 44.2732 148.209L43.4154 144.713C43.2014 143.84 42.5801 143.123 41.7459 142.785L38.403 141.431C36.5201 140.669 36.0493 138.223 37.516 136.823L40.1201 134.338C40.77 133.718 41.0809 132.824 40.9558 131.934L40.4546 128.37C40.1722 126.363 42.0587 124.736 44.0086 125.306L47.4704 126.318C48.3344 126.57 49.2666 126.393 49.9757 125.841L52.8173 123.631Z" fill="#FCDE77"/>
<path d="M177.561 81L142.911 144.9V180H112.161V144.9L77.3613 81H108.411L120.411 105.75L127.761 123L134.961 105.75L147.111 81H177.561Z" fill="#F99E16"/>
</svg>
