<svg width="255" height="255" viewBox="0 0 255 255" fill="none" xmlns="http://www.w3.org/2000/svg">
<circle cx="127.5" cy="127.5" r="127.5" fill="#F5F5F5"/>
<path d="M186.389 134.202C189.57 131.728 194.254 133.356 195.214 137.269L196.918 144.217C197.343 145.95 198.578 147.376 200.236 148.047L206.878 150.737C210.619 152.252 211.555 157.113 208.64 159.894L203.466 164.831C202.175 166.063 201.557 167.84 201.805 169.608L202.801 176.69C203.363 180.679 199.614 183.911 195.739 182.779L188.861 180.768C187.144 180.267 185.292 180.619 183.883 181.715L178.236 186.107C175.056 188.581 170.372 186.953 169.412 183.039L167.707 176.092C167.282 174.358 166.048 172.933 164.39 172.262L157.748 169.572C154.006 168.056 153.071 163.196 155.985 160.415L161.159 155.478C162.451 154.246 163.069 152.468 162.82 150.701L161.824 143.619C161.263 139.63 165.012 136.398 168.886 137.53L175.765 139.54C177.481 140.042 179.334 139.69 180.743 138.594L186.389 134.202Z" fill="#FCDE77"/>
<path d="M85.0236 59.1585C87.1522 57.5028 90.2873 58.5926 90.9298 61.2117L92.0705 65.8616C92.3552 67.022 93.1814 67.976 94.2909 68.4253L98.7366 70.2257C101.241 71.2398 101.867 74.4928 99.9162 76.354L96.453 79.6584C95.5888 80.4831 95.1752 81.6728 95.3415 82.8557L96.0082 87.5957C96.3837 90.2656 93.8748 92.4287 91.2816 91.6709L86.6777 90.3254C85.5288 89.9896 84.289 90.2254 83.3459 90.959L79.5669 93.8986C77.4382 95.5544 74.3032 94.4645 73.6607 91.8454L72.5199 87.1955C72.2353 86.0351 71.4091 85.0812 70.2996 84.6319L65.8539 82.8314C63.3498 81.8173 62.7236 78.5644 64.6743 76.7031L68.1374 73.3987C69.0017 72.5741 69.4153 71.3844 69.2489 70.2014L68.5823 65.4614C68.2068 62.7915 70.7157 60.6284 73.3089 61.3863L77.9127 62.7318C79.0617 63.0675 80.3014 62.8318 81.2445 62.0982L85.0236 59.1585Z" fill="#FCDE77"/>
<path d="M84.0742 174V75H136.724C149.124 75.1 158.274 77.4 164.174 81.9C170.174 86.3 173.174 92.85 173.174 101.55C173.174 107.25 171.424 112.15 167.924 116.25C164.524 120.35 159.174 122.95 151.874 124.05V124.2C159.974 125.2 165.974 127.8 169.874 132C173.774 136.2 175.724 141.4 175.724 147.6C175.724 156.2 172.724 162.75 166.724 167.25C160.824 171.75 151.874 174 139.874 174H84.0742ZM113.474 153.3H132.824C136.724 153.3 139.624 152.55 141.524 151.05C143.424 149.45 144.374 147.2 144.374 144.3C144.374 141.4 143.424 139.2 141.524 137.7C139.624 136.2 136.724 135.45 132.824 135.45H113.474V153.3ZM113.474 114.3H130.574C138.074 114.3 141.824 111.35 141.824 105.45C141.824 99.55 138.074 96.6 130.574 96.6H113.474V114.3Z" fill="#20B28F"/>
</svg>
