<svg width="255" height="255" viewBox="0 0 255 255" fill="none" xmlns="http://www.w3.org/2000/svg">
<circle cx="127.5" cy="127.5" r="127.5" fill="#F5F5F5"/>
<path d="M195.389 143.202C198.57 140.728 203.254 142.356 204.214 146.269L205.918 153.217C206.343 154.95 207.578 156.376 209.236 157.047L215.878 159.737C219.619 161.252 220.555 166.113 217.64 168.894L212.466 173.831C211.175 175.063 210.557 176.84 210.805 178.608L211.801 185.69C212.363 189.679 208.614 192.911 204.739 191.779L197.861 189.768C196.144 189.267 194.292 189.619 192.883 190.715L187.236 195.107C184.056 197.581 179.372 195.953 178.412 192.039L176.707 185.092C176.282 183.358 175.048 181.933 173.39 181.262L166.748 178.572C163.006 177.056 162.071 172.196 164.985 169.415L170.159 164.478C171.451 163.246 172.069 161.468 171.82 159.701L170.824 152.619C170.263 148.63 174.012 145.398 177.886 146.53L184.765 148.54C186.481 149.042 188.334 148.69 189.743 147.594L195.389 143.202Z" fill="#FCDE77"/>
<path d="M62.0236 60.1585C64.1522 58.5028 67.2873 59.5926 67.9298 62.2117L69.0705 66.8616C69.3552 68.022 70.1814 68.976 71.2909 69.4253L75.7366 71.2257C78.2407 72.2398 78.8668 75.4928 76.9162 77.354L73.453 80.6584C72.5888 81.4831 72.1752 82.6728 72.3415 83.8557L73.0082 88.5957C73.3837 91.2656 70.8748 93.4287 68.2816 92.6709L63.6777 91.3254C62.5288 90.9896 61.289 91.2254 60.3459 91.959L56.5669 94.8986C54.4382 96.5544 51.3032 95.4645 50.6607 92.8454L49.5199 88.1955C49.2353 87.0351 48.4091 86.0812 47.2996 85.6319L42.8539 83.8314C40.3498 82.8173 39.7236 79.5644 41.6743 77.7031L45.1374 74.3987C46.0017 73.5741 46.4153 72.3844 46.2489 71.2014L45.5823 66.4614C45.2068 63.7915 47.7157 61.6284 50.3089 62.3863L54.9127 63.7318C56.0617 64.0675 57.3014 63.8318 58.2445 63.0982L62.0236 60.1585Z" fill="#FCDE77"/>
<path d="M187.774 80V179H160.774V139.4L161.374 107.45H161.074L139.324 179H114.724L93.2738 107.45H92.8238L93.4238 139.4V179H66.4238V80H109.624L122.974 126.95L127.924 146.6H128.224L133.174 126.95L146.524 80H187.774Z" fill="#20B28F"/>
</svg>
