<svg width="255" height="255" viewBox="0 0 255 255" fill="none" xmlns="http://www.w3.org/2000/svg">
<circle cx="127.5" cy="127.5" r="127.5" fill="#F5F5F5"/>
<path d="M186.389 134.202C189.57 131.728 194.254 133.356 195.214 137.269L196.918 144.217C197.343 145.95 198.578 147.376 200.236 148.047L206.878 150.737C210.619 152.252 211.555 157.113 208.64 159.894L203.466 164.831C202.175 166.063 201.557 167.84 201.805 169.608L202.801 176.69C203.363 180.679 199.614 183.911 195.739 182.779L188.861 180.768C187.144 180.267 185.292 180.619 183.883 181.715L178.236 186.107C175.056 188.581 170.372 186.953 169.412 183.039L167.707 176.092C167.282 174.358 166.048 172.933 164.39 172.262L157.748 169.572C154.006 168.056 153.071 163.196 155.985 160.415L161.159 155.478C162.451 154.246 163.069 152.468 162.82 150.701L161.824 143.619C161.263 139.63 165.012 136.398 168.886 137.53L175.765 139.54C177.481 140.042 179.334 139.69 180.743 138.594L186.389 134.202Z" fill="#FCDE77"/>
<path d="M85.0236 59.1585C87.1522 57.5028 90.2873 58.5926 90.9298 61.2117L92.0705 65.8616C92.3552 67.022 93.1814 67.976 94.2909 68.4253L98.7366 70.2257C101.241 71.2398 101.867 74.4928 99.9162 76.354L96.453 79.6584C95.5888 80.4831 95.1752 81.6728 95.3415 82.8557L96.0082 87.5957C96.3837 90.2656 93.8748 92.4287 91.2816 91.6709L86.6777 90.3254C85.5288 89.9896 84.289 90.2254 83.3459 90.959L79.5669 93.8986C77.4382 95.5544 74.3032 94.4645 73.6607 91.8454L72.5199 87.1955C72.2353 86.0351 71.4091 85.0812 70.2996 84.6319L65.8539 82.8314C63.3498 81.8173 62.7236 78.5644 64.6743 76.7031L68.1374 73.3987C69.0017 72.5741 69.4153 71.3844 69.2489 70.2014L68.5823 65.4614C68.2068 62.7915 70.7157 60.6284 73.3089 61.3863L77.9127 62.7318C79.0617 63.0675 80.3014 62.8318 81.2445 62.0982L85.0236 59.1585Z" fill="#FCDE77"/>
<path d="M123.423 177.5C114.723 177.5 106.973 175.6 100.173 171.8C93.3734 168 88.0234 162.3 84.1234 154.7C80.2234 147.1 78.2734 137.8 78.2734 126.8C78.2734 116 80.2734 106.8 84.2734 99.2C88.3734 91.5 94.2234 85.65 101.823 81.65C109.423 77.55 118.423 75.5 128.823 75.5C140.523 75.5 149.923 77.6 157.023 81.8C164.223 86 169.773 92.65 173.673 101.75L145.173 112.4C144.173 107.5 142.273 104.05 139.473 102.05C136.673 99.95 133.173 98.9 128.973 98.9C124.673 98.9 121.073 99.95 118.173 102.05C115.373 104.05 113.273 107.1 111.873 111.2C110.473 115.3 109.773 120.4 109.773 126.5C109.773 133.1 110.523 138.5 112.023 142.7C113.623 146.9 116.023 150 119.223 152C122.423 153.9 126.373 154.85 131.073 154.85C133.473 154.85 135.673 154.6 137.673 154.1C139.673 153.5 141.423 152.65 142.923 151.55C144.523 150.45 145.723 149.1 146.523 147.5C147.323 145.8 147.723 143.85 147.723 141.65V140.9H128.223V121.25H173.523V176H152.973L150.573 150.95L155.373 155.75C153.573 162.75 149.973 168.15 144.573 171.95C139.173 175.65 132.123 177.5 123.423 177.5Z" fill="#D49EFF"/>
</svg>
