<?xml version="1.0" standalone="no"?>
<!DOCTYPE svg PUBLIC "-//W3C//DTD SVG 20010904//EN"
 "http://www.w3.org/TR/2001/REC-SVG-20010904/DTD/svg10.dtd">
<svg version="1.0" xmlns="http://www.w3.org/2000/svg"
 width="605.000000pt" height="605.000000pt" viewBox="0 0 605.000000 605.000000"
 preserveAspectRatio="xMidYMid meet">
<metadata>
Created by potrace 1.14, written by Peter Selinger 2001-2017
</metadata>
<g transform="translate(0.000000,605.000000) scale(0.100000,-0.100000)"
fill="#000000" stroke="none">
<path d="M2848 5426 c-1 -2 -35 -7 -74 -10 -39 -4 -82 -9 -95 -11 -13 -3 -41
-7 -64 -10 -157 -23 -376 -96 -570 -190 -359 -175 -646 -428 -872 -769 -149
-224 -281 -556 -318 -796 -4 -25 -9 -54 -11 -65 -2 -11 -6 -40 -9 -65 -3 -25
-7 -65 -10 -90 -10 -95 -5 -352 10 -450 17 -110 27 -170 36 -210 6 -25 12 -53
14 -63 11 -53 61 -197 68 -197 5 0 28 16 52 35 l43 35 -14 40 c-17 50 -50 173
-58 220 -3 19 -8 46 -11 60 -28 142 -37 387 -21 554 66 669 457 1267 1051
1607 213 121 495 214 745 244 25 3 63 7 85 10 62 8 283 8 350 1 57 -7 124 -15
171 -21 47 -6 143 -28 209 -47 832 -237 1421 -935 1511 -1793 16 -154 8 -382
-21 -564 -9 -57 -64 -271 -75 -291 -9 -16 -3 -25 36 -54 26 -20 50 -36 54 -36
19 0 100 333 115 475 4 33 8 76 11 95 5 46 5 304 0 355 -16 141 -19 160 -42
273 -131 637 -567 1203 -1154 1498 -75 37 -128 61 -150 69 -3 1 -18 7 -35 14
-86 36 -319 102 -407 115 -21 3 -53 8 -70 11 -18 3 -49 8 -68 11 -39 6 -406
14 -412 10z"/>
<path d="M2989 5193 c-23 -27 -81 -127 -129 -223 -54 -108 -104 -245 -140
-385 -27 -105 -33 -138 -46 -250 -4 -27 -7 -51 -8 -52 -1 -1 -26 30 -56 69
-120 157 -304 331 -470 443 -81 54 -219 130 -225 123 -13 -13 -23 -134 -20
-238 5 -225 52 -423 156 -664 21 -50 37 -91 36 -93 -2 -1 -40 13 -84 31 -165
70 -368 126 -509 141 -30 4 -65 8 -77 11 -20 4 -192 7 -260 5 -34 -1 -33 -9
24 -130 95 -202 269 -410 482 -574 42 -33 76 -62 74 -63 -1 -2 -18 -6 -37 -9
-19 -3 -43 -8 -52 -11 -9 -3 -25 -6 -35 -8 -106 -21 -306 -101 -425 -170 -111
-64 -199 -128 -195 -141 2 -5 36 -35 77 -66 90 -70 229 -140 357 -180 54 -17
105 -33 113 -36 41 -13 -397 -362 -612 -487 -45 -26 -46 -29 -45 -72 0 -24 2
-44 3 -44 2 0 14 4 29 10 14 5 36 12 48 14 12 3 47 12 77 21 30 9 62 18 70 20
8 2 229 65 490 140 261 75 482 138 490 140 8 2 166 47 350 100 184 53 344 99
356 101 12 2 40 11 64 19 57 20 59 20 75 -17 16 -39 13 -195 -5 -273 -37 -164
-188 -335 -370 -419 -95 -44 -239 -81 -360 -92 -53 -5 -330 -4 -370 1 -19 3
-55 7 -80 10 -37 5 -101 17 -210 40 -102 22 -348 122 -423 173 -67 45 -47 15
27 -41 391 -295 997 -376 1456 -194 30 12 57 22 60 22 11 2 137 69 163 87 l28
20 -7 -27 c-22 -88 -118 -232 -203 -303 -88 -74 -226 -140 -346 -163 -124 -25
-353 -32 -495 -16 -133 15 -334 57 -430 90 -24 9 -46 14 -48 12 -5 -5 94 -76
164 -117 71 -41 192 -90 284 -115 70 -18 306 -25 410 -11 393 53 736 254 965
567 138 188 207 358 246 604 6 44 17 81 24 83 6 3 204 -50 441 -117 236 -66
436 -123 444 -125 8 -2 40 -10 70 -19 30 -9 78 -22 105 -30 46 -13 640 -180
676 -191 14 -4 16 2 12 38 -3 24 -10 46 -16 51 -7 4 -43 26 -82 49 -66 39
-252 170 -305 215 -107 90 -197 169 -235 204 l-45 43 107 36 c150 49 290 125
398 215 l30 25 -25 23 c-79 73 -296 191 -450 245 -47 16 -129 40 -183 52 -95
22 -97 23 -75 39 69 48 191 154 265 231 113 117 189 221 260 350 28 52 63 142
63 163 0 10 -290 3 -340 -7 -14 -3 -45 -8 -70 -11 -25 -3 -52 -7 -60 -10 -8
-2 -26 -6 -40 -9 -92 -16 -270 -73 -369 -118 -35 -16 -67 -27 -71 -26 -5 2 3
26 16 53 78 159 142 379 170 580 9 64 7 266 -3 324 l-8 43 -89 -46 c-229 -120
-453 -315 -630 -549 -20 -27 -36 -47 -37 -45 -1 4 -6 50 -13 111 -11 88 -17
122 -41 222 -28 119 -66 235 -103 313 -35 76 -115 209 -150 250 -26 32 -28 33
-43 15z"/>
<path d="M651 896 c-1 -191 1 -225 14 -230 35 -13 40 2 39 107 0 56 4 111 9
123 14 33 63 57 103 50 55 -11 67 -41 70 -164 2 -131 0 -121 22 -117 9 2 20 4
23 4 3 1 5 54 4 119 -2 139 -14 172 -74 195 -53 22 -105 11 -145 -29 -15 -14
-16 -8 -15 63 2 105 2 103 -25 103 l-24 0 -1 -224z"/>
<path d="M4803 893 l0 -228 23 -1 c25 -2 28 5 24 58 -1 18 9 36 31 57 37 36
33 38 107 -60 41 -55 46 -57 97 -50 7 1 7 4 0 9 -5 4 -38 44 -72 89 l-63 82
67 68 66 68 -29 3 c-25 3 -40 -8 -111 -82 -46 -47 -84 -86 -86 -86 -3 0 -5 62
-5 138 -1 75 -1 143 -2 150 0 6 -11 12 -24 12 l-24 0 1 -227z"/>
<path d="M5571 1053 c1 -38 1 -79 0 -91 l-1 -24 -31 26 c-17 14 -39 27 -50 27
-10 1 -29 2 -41 3 -28 3 -87 -25 -110 -50 -41 -46 -52 -137 -23 -198 26 -54
71 -81 137 -81 49 0 61 4 87 29 l31 30 0 -27 c0 -30 25 -46 42 -29 7 7 11 89
12 231 l1 221 -27 0 c-27 0 -27 -1 -27 -67z m-62 -117 c82 -43 85 -160 6 -212
-36 -23 -64 -24 -107 -1 -77 42 -77 170 0 211 35 19 66 20 101 2z"/>
<path d="M3368 1085 c-4 -16 -1 -25 8 -26 46 -4 48 -3 49 24 2 23 -2 27 -25
27 -22 0 -29 -6 -32 -25z"/>
<path d="M5157 1103 c-2 -5 -3 -17 -3 -28 1 -19 5 -20 50 -16 9 1 12 10 8 26
-3 18 -11 25 -28 25 -12 0 -25 -3 -27 -7z"/>
<path d="M420 1038 c0 -41 -3 -48 -19 -48 -11 0 -22 -4 -25 -9 -10 -16 5 -41
24 -41 17 0 19 -12 22 -121 3 -115 4 -121 28 -139 43 -34 120 -24 120 14 0 19
-4 21 -35 18 -58 -7 -65 7 -65 124 0 76 3 104 13 105 6 1 29 0 50 -1 34 -1 37
1 37 25 0 23 -4 26 -27 24 -69 -5 -73 -3 -73 49 0 45 -2 48 -25 48 -23 0 -25
-3 -25 -48z"/>
<path d="M1155 994 c-5 -1 -22 -5 -36 -8 -31 -7 -77 -51 -91 -86 -25 -63 -12
-147 30 -193 47 -52 145 -62 210 -20 39 25 40 28 25 45 -15 17 -17 17 -39 -1
-35 -28 -88 -35 -123 -16 -34 17 -61 51 -61 76 0 15 14 17 120 15 136 -1 140
1 120 73 -14 53 -53 98 -93 107 -45 11 -51 11 -62 8z m79 -75 c14 -17 26 -37
26 -45 0 -8 0 -17 0 -21 0 -4 -43 -8 -95 -8 -91 -1 -95 0 -95 21 0 13 14 36
31 53 43 43 97 43 133 0z"/>
<path d="M1677 985 c-67 -23 -105 -72 -111 -142 -12 -138 131 -228 251 -158
46 28 51 36 29 55 -12 9 -21 7 -43 -9 -84 -60 -186 -4 -185 101 2 99 125 157
188 87 16 -18 18 -18 36 -3 14 13 15 20 6 31 -33 40 -114 58 -171 38z"/>
<path d="M2022 986 c-46 -16 -88 -59 -105 -109 -28 -82 20 -181 101 -208 96
-32 200 26 221 122 27 125 -97 237 -217 195z m114 -57 c59 -36 71 -141 21
-186 -38 -35 -61 -42 -116 -34 -25 3 -71 55 -77 88 -21 111 80 189 172 132z"/>
<path d="M2444 988 c-17 -4 -37 -15 -44 -23 -17 -20 -28 -19 -26 2 0 12 -7 19
-21 21 -14 2 -23 -2 -23 -10 -1 -31 -2 -236 -1 -275 1 -34 4 -41 19 -38 9 2
20 4 24 4 3 1 6 48 6 106 -1 115 11 147 58 165 39 15 61 12 91 -14 27 -23 28
-28 30 -128 1 -56 2 -110 2 -119 1 -10 9 -15 24 -14 21 2 22 5 23 121 2 128
-7 161 -49 188 -29 19 -75 25 -113 14z"/>
<path d="M2767 987 c-44 -11 -70 -44 -69 -89 1 -41 25 -64 86 -84 67 -22 96
-40 96 -63 0 -45 -72 -60 -134 -29 -33 17 -41 18 -53 6 -12 -12 -11 -17 4 -30
63 -54 187 -47 218 13 33 62 6 105 -87 139 -82 30 -91 38 -75 70 15 31 60 37
110 17 34 -15 57 -8 57 15 0 24 -101 48 -153 35z"/>
<path d="M3120 988 c-80 -22 -122 -78 -123 -164 -2 -140 161 -215 273 -125 23
19 24 21 9 37 -16 15 -19 15 -47 -6 -57 -42 -143 -23 -171 38 -29 61 0 148 58
171 38 16 92 7 116 -19 17 -19 19 -19 37 -4 14 13 15 20 6 31 -30 36 -104 56
-158 41z"/>
<path d="M3638 990 c-86 -26 -134 -94 -126 -178 9 -91 76 -152 168 -152 143 0
217 174 121 284 -34 39 -113 61 -163 46z m100 -60 c50 -31 68 -97 42 -159 -22
-55 -89 -80 -148 -55 -86 36 -92 177 -9 218 43 21 76 20 115 -4z"/>
<path d="M4362 986 c-40 -21 -62 -50 -62 -83 0 -44 36 -77 101 -94 63 -16 93
-43 79 -69 -22 -42 -64 -48 -128 -20 -45 20 -47 20 -60 3 -12 -16 -8 -20 35
-40 56 -26 112 -29 153 -8 57 29 68 99 24 140 -15 14 -32 25 -39 25 -7 0 -35
10 -64 21 -41 17 -51 26 -51 45 0 42 64 58 119 29 26 -13 30 -13 41 0 18 21
-2 41 -48 50 -55 11 -80 12 -100 1z"/>
<path d="M3373 827 l2 -161 24 0 23 0 0 134 c-1 203 1 188 -27 188 l-24 0 2
-161z"/>
<path d="M3928 973 c-3 -10 -4 -65 -3 -123 2 -146 31 -190 126 -190 30 0 79
19 79 31 0 4 6 9 14 12 9 4 13 -2 12 -16 -1 -17 5 -22 24 -22 l25 0 0 160 0
160 -25 0 -25 0 -1 -105 c0 -115 -9 -142 -52 -163 -50 -24 -104 -6 -119 40 -5
16 -9 74 -8 131 0 98 -1 102 -21 102 -12 0 -24 -8 -26 -17z"/>
<path d="M5159 978 c0 -7 -1 -77 -1 -156 -1 -145 5 -171 36 -159 14 5 16 30
15 167 l-2 160 -23 0 c-13 0 -24 -6 -25 -12z"/>
</g>
</svg>
